<?xml version="1.0" encoding="utf-8"?>
<!-- Generator: Adobe Illustrator 16.0.0, SVG Export Plug-In . SVG Version: 6.00 Build 0)  -->
<!DOCTYPE svg PUBLIC "-//W3C//DTD SVG 1.1//EN" "http://www.w3.org/Graphics/SVG/1.1/DTD/svg11.dtd">
<svg version="1.1" xmlns="http://www.w3.org/2000/svg" xmlns:xlink="http://www.w3.org/1999/xlink" x="0px" y="0px" width="130px"
	 height="180px" viewBox="0 0 130 180" enable-background="new 0 0 130 180" xml:space="preserve">
<g id="_x31_3_-_Problem_Solving__x28_Lightbulb_x29_">
	<radialGradient id="SVGID_1_" cx="65.7529" cy="86.3926" r="58.2503" gradientUnits="userSpaceOnUse">
		<stop  offset="0" style="stop-color:#FFFFFF"/>
		<stop  offset="0.2317" style="stop-color:#FFF3D0"/>
		<stop  offset="0.4643" style="stop-color:#FFE8A9"/>
		<stop  offset="0.6779" style="stop-color:#FFE08C"/>
		<stop  offset="0.8634" style="stop-color:#FFDC7B"/>
		<stop  offset="1" style="stop-color:#FFDA75"/>
	</radialGradient>
	<path fill="url(#SVGID_1_)" d="M101.542,74.667c0-18.662-15.128-33.79-33.79-33.79c-18.661,0-33.789,15.128-33.789,33.79
		c0,13.058,11.091,27.945,11.091,34.469c0,22.9,10.163,34.773,22.698,34.773c12.536,0,22.698-13.751,22.698-34.773
		C90.451,102.612,101.542,87.725,101.542,74.667z"/>
	<g>
		<g>
			<g>
				<path fill="#5D5F85" d="M61.593,96.124c-0.042-0.017-0.031,0.559-0.129-0.328c-0.063-0.693-0.146-1.369-0.223-2.028
					c-0.036-0.325-0.061-0.643-0.16-1.05c-0.079-0.389-0.165-0.777-0.327-1.059c-0.542-1.238-1.266-2.469-2.526-3.484l-0.227-0.088
					c-0.25-0.188-0.488-0.389-0.788-0.532c-0.281-0.162-0.573-0.314-0.912-0.41c-0.632-0.239-1.433-0.303-2.217-0.068
					c-0.829,0.212-1.45,0.931-1.791,1.615c-0.134,0.352-0.295,0.722-0.319,1.066c-0.059,0.353-0.104,0.707-0.076,1.035
					c-0.006,0.633,0.131,1.199,0.238,1.78c0.081,0.294,0.199,0.594,0.302,0.889c0.086,0.301,0.248,0.582,0.434,0.857
					c0.666,1.132,1.883,1.935,3.079,2.234c1.204,0.308,2.377,0.28,3.496,0.153c1.121-0.136,2.196-0.396,3.242-0.735
					c-0.117,0.013-0.175,0.008,0.239-0.134c0.294-0.106,0.469-0.161,1.151-0.44c0.165-0.246,0.335-0.501,0.51-0.763
					c0.117-0.185,0.238-0.374,0.362-0.567c0.237-0.393,0.486-0.804,0.744-1.229c0.5-0.859,1.004-1.791,1.465-2.771
					c0.154-0.349,0.312-0.695,0.448-1.048c0.099-0.278,0.107-0.356,0.112-0.405c0.429-1.093,0.742-2.111,0.906-3.122
					c0.092-0.644,0.136-1.32,0.013-2.039c-0.113-0.708-0.419-1.481-1-2.063c-0.573-0.594-1.336-0.914-2.049-1.052
					c-0.728-0.168-1.434-0.156-2.15-0.133c-0.543,0.029-1.052,0.352-1.334,0.701c-0.307,0.354-0.438,0.71-0.574,1.058
					c-0.226,0.69-0.307,1.353-0.352,2.007c-0.072,1.307,0.024,2.586,0.214,3.856c0.19,1.271,0.476,2.532,0.893,3.776
					c0.449,1.232,0.898,2.502,2.012,3.583c1.261,0.978,2.658,1.184,4.037,1.235c1.377,0.02,2.724-0.211,4.033-0.56
					c0.654-0.178,1.299-0.39,1.937-0.632c0.322-0.126,0.629-0.232,0.959-0.419c0.324-0.174,0.656-0.322,0.943-0.602
					c0.317-0.217,0.547-0.573,0.769-0.922c0.07-0.2,0.129-0.409,0.185-0.615c0.041-0.208,0.007-0.425,0.005-0.636
					c-0.121-0.84-0.614-1.49-1.16-1.996c-0.584-0.533-1.301-0.873-2.048-1.078c-0.742-0.206-1.585-0.221-2.327,0.113
					c-0.195,0.059-0.364,0.165-0.523,0.291c-0.157,0.133-0.341,0.198-0.46,0.406c-0.142,0.183-0.252,0.367-0.306,0.537
					c-0.066,0.174-0.156,0.35-0.2,0.521c-0.216,0.69-0.372,1.375-0.508,2.055c-0.797,4.022-1.371,9.188-1.782,13.14
					c0.265-0.584-0.478,9.061-0.066,7.157c-0.227,2.634-0.53,6.593-0.478,6.802c0.155,0.627,0.211,2.671-0.119,9.683
					c-0.148,2.743-0.472,6.951-0.481,7.918c-0.022,1.524,0.334-3.545,0.313-2.021c0.632-10.184,1.301-20.186,2.274-30.153
					c0.249-2.49,0.52-4.979,0.854-7.453c0.166-1.237,0.352-2.471,0.57-3.688c0.226-1.186,0.478-2.482,0.866-3.404
					c0.022-0.049,0.048-0.129,0.065-0.152c0.016-0.011,0.025-0.021,0.031-0.038l0.003-0.013c0-0.003,0.002-0.003-0.001-0.008
					l-0.092-0.102l-0.088-0.105l-0.042-0.055c-0.239-0.264,0.274,0.293,0.229,0.239l0.031-0.019l0.119-0.076
					c0.138-0.136,0.33-0.178,0.507-0.254c0.392-0.071,0.849-0.088,1.317,0.073c0.909,0.261,1.857,1.061,2.001,1.734
					c0.065,0.314-0.01,0.521-0.243,0.816c-0.309,0.279-0.724,0.515-1.27,0.741c-1.124,0.442-2.309,0.785-3.493,0.992
					c-0.609,0.113-1.574,0.267-2.755,0.179c-0.584-0.049-1.227-0.155-1.838-0.416c-0.146-0.073-0.296-0.147-0.449-0.224
					c-0.115-0.072-0.195-0.128-0.309-0.242c-0.214-0.215-0.436-0.521-0.637-0.873c-0.794-1.448-1.354-3.452-1.648-5.595
					c-0.145-1.074-0.224-2.208-0.155-3.323c0.037-0.553,0.115-1.109,0.266-1.574c0.076-0.223,0.173-0.437,0.264-0.531
					c0.097-0.11,0.105-0.1,0.142-0.114c1.264-0.073,2.567,0.147,3.042,0.936c0.543,0.785,0.391,2.245,0.015,3.551
					c-0.373,1.341-0.971,2.677-1.63,3.974c-0.335,0.648-0.69,1.289-1.062,1.918l-0.569,0.936l-0.438,0.681l-0.221,0.082
					l-0.484,0.166c-0.325,0.109-0.654,0.198-0.982,0.29c-0.658,0.162-1.318,0.311-1.97,0.377c-1.29,0.144-2.604,0.1-3.56-0.411
					c-0.964-0.492-1.491-1.419-1.727-2.521c-0.269-1.124-0.167-2.261,0.275-2.784c0.232-0.228,0.522-0.333,0.891-0.349
					c0.194,0.04,0.382,0.017,0.585,0.11L56,88.978l0.29,0.156c0.774,0.421,1.411,1.094,1.914,1.772
					c0.222,0.366,0.467,0.699,0.637,1.063c0.086,0.181,0.171,0.357,0.254,0.53l0.12,0.255l0.041,0.229
					c0.032,0.149,0.063,0.295,0.092,0.436c0.029,0.157,0.045,0.352,0.067,0.518c0.041,0.343,0.079,0.664,0.115,0.964
					c0.049,0.353,0.071,0.723,0.108,1.082c0.56,6.548,0.929,14.591,1.284,20.173c0.17,2.549,0.346,5.164,0.52,7.764
					c-0.009-1.199-0.018-2.316-0.025-3.302c0.108,2.646,0.209,5.289,0.292,6.303c0.319,5.628,0.31,2.434,0.382,0.261
					c0.006-1.562,0.196,0.542,0.167-1.901c0.066,1.76,0.1,2.641,0.166,4.408c0.075,0.199-0.247-5.429-0.093-4.208
					c0.071,1.71,0.149,3.598,0.222,5.355c0.067-0.614-0.205-6.104-0.109-5.837c0.061,0.95,0.078,4.955,0.199,5.292
					c0.024,0.066-0.041-1.697-0.073-2.578c0.245,5.424,0.455,8.41,0.389,3.452c0.053,1.717,0.127,4.151,0.184,5.972l0.001-0.014
					c-0.025-0.905-0.068-2.477-0.091-3.313c0.035,1.03,0.07,2.065,0.105,3.098c0.008-0.172,0.017-0.354,0.026-0.543
					c-0.02-0.777-0.039-1.551-0.059-2.351c0.023,0.684,0.047,1.369,0.07,2.057c0.012-0.54,0.025-1.129,0.039-1.755
					c-0.019-2.446-0.006-4.79-0.056-6.112c-0.184-5.338-0.388-10.687-0.63-16.034C62.293,106.817,62.051,101.48,61.593,96.124z"/>
			</g>
		</g>
	</g>
	<g>
		<g>
			<g>
				<path fill="#292D73" d="M76.064,134.918l-1.151,0.941c-0.407,0.286-0.834,0.548-1.249,0.818
					c-1.892,1.291-4.075,2.177-6.31,2.766c-1.141,0.226-2.275,0.487-3.443,0.493c-1.166,0.12-2.304,0.011-3.446-0.077
					c-2.269-0.289-4.553-0.841-6.622-1.894c-1.076-0.445-2.022-1.118-3.004-1.732c-0.49-0.31-0.908-0.711-1.364-1.064
					c-0.438-0.375-0.919-0.709-1.3-1.141c-3.308-3.225-5.638-7.285-7.182-11.586c-1.547-4.315-2.346-8.894-2.649-13.563
					c-0.154-1.637-0.105-3.3-0.147-4.983c-0.005-0.419-0.006-0.874-0.046-1.153c-0.041-0.327-0.015-0.63-0.125-1.002
					c-0.085-0.358-0.152-0.715-0.248-1.081L37.42,99.54c-1.032-3.016-2.555-6.105-3.956-9.226c-2.824-6.234-5.64-12.767-6.223-19.55
					c0.275,4.017,1.388,7.843,2.715,11.515c1.339,3.676,2.956,7.214,4.536,10.707c0.786,1.746,1.574,3.484,2.238,5.209
					c0.668,1.697,1.272,3.517,1.288,4.895c0.04,3.938,0.252,7.904,0.937,11.831c0.719,3.917,1.832,7.806,3.619,11.455
					c1.779,3.636,4.28,7.045,7.608,9.612c3.305,2.593,7.506,4.047,11.663,4.281c0.261,0.019,0.521,0.046,0.783,0.055l0.794-0.033
					l1.589-0.078c0.529-0.036,1.045-0.171,1.568-0.255c0.517-0.111,1.053-0.163,1.553-0.332c2.018-0.605,3.991-1.414,5.707-2.564
					c-0.325,0.267-0.655,0.547-1.008,0.814c-0.387,0.24-0.775,0.482-1.165,0.725c-0.405,0.238-0.809,0.505-1.251,0.725
					c-0.465,0.197-0.932,0.396-1.402,0.595c-0.945,0.447-2.02,0.66-3.124,0.925c-0.55,0.157-1.13,0.172-1.717,0.229
					c-0.585,0.04-1.191,0.113-1.792,0.104c-2.876-0.056-5.752-0.71-8.388-1.847c-2.667-1.11-4.974-2.864-6.94-4.812
					c-2.018-1.938-3.504-4.236-4.833-6.547c-0.569-1.194-1.245-2.356-1.673-3.588l-0.713-1.827
					c-0.226-0.611-0.385-1.235-0.579-1.852c0.13-0.04,0.384-0.119,0.512-0.158c-0.612-1.717-0.953-3.473-1.374-5.211
					c-0.142-0.876-0.284-1.751-0.426-2.623l-0.202-1.311l-0.121-1.311l-0.234-2.615l-0.077-2.604
					c-0.026-0.818-0.029-1.891-0.104-2.3c-0.019-0.144-0.005-0.266-0.042-0.43l-0.118-0.497c-0.081-0.334-0.132-0.657-0.267-1.022
					c-0.896-2.851-2.322-5.87-3.662-8.89c-1.358-3.032-2.709-6.124-3.856-9.343c-1.141-3.218-2.104-6.57-2.541-10.114
					c-0.149-0.874-0.164-1.785-0.207-2.688c-0.076-0.912,0.007-1.787,0.05-2.673c0.025-1.775,0.346-3.525,0.617-5.283
					c0.74-3.48,1.901-6.887,3.556-10.092c1.714-3.168,3.853-6.129,6.387-8.787c-0.792,0.684-0.435,0.169-0.344-0.051
					c0.054-0.049,0.104-0.096,0.154-0.142c-0.05,0.046-0.101,0.093-0.154,0.142c0.09-0.188-0.063-0.172-1.296,1.205
					c1.233-1.377,1.386-1.394,1.296-1.205c-2.54,2.608-4.69,5.532-6.418,8.674c-1.671,3.178-2.839,6.568-3.597,10.033
					c-0.256,1.753-0.609,3.494-0.626,5.263c-0.136,1.735-0.078,3.581,0.127,5.35c0.419,3.543,1.371,6.877,2.501,10.065
					c1.142,3.186,2.484,6.233,3.83,9.224c1.322,2.975,2.764,5.947,3.7,8.756l0.33,1.036l0.215,0.958
					c0.095,0.337,0.045,0.538,0.094,0.812l0.024,0.191c0.009,0.063,0.006,0.202,0.009,0.299l0.013,0.643
					c0.045,1.712,0.026,3.428,0.208,5.156c0.199,3.455,0.822,6.939,1.704,10.412c-1.486-5.385-1.991-10.851-1.99-16.22
					c0.005-1.65-0.904-4.002-1.854-6.265c-0.973-2.293-2.077-4.617-3.146-6.997c-2.126-4.758-4.232-9.692-5.359-15.143
					c-0.165-0.669-0.263-1.367-0.358-2.066c-0.085-0.702-0.231-1.384-0.244-2.109l-0.107-2.15l0.1-2.094
					c0.053-0.696,0.03-1.398,0.15-2.089l0.313-2.076l0.16-1.038c0.067-0.343,0.166-0.68,0.248-1.02l0.521-2.036
					c1.513-5.408,4.441-10.379,8.224-14.532c1.867-2.112,4.073-3.896,6.362-5.551c0.592-0.385,1.202-0.744,1.805-1.115
					c0.612-0.355,1.191-0.771,1.842-1.055c1.284-0.599,2.525-1.303,3.882-1.741c5.31-2.034,11.11-2.822,16.827-2.286
					c5.719,0.586,11.326,2.555,16.231,5.694c0.21,0.131,0.453,0.271,0.705,0.438c0.243,0.18,0.504,0.374,0.778,0.578
					c0.546,0.409,1.143,0.855,1.739,1.303c1.142,0.953,2.226,1.981,2.953,2.654c2.649,2.973,4.83,6.306,6.504,9.857
					c0.879,1.762,1.494,3.631,2.115,5.488l0.713,2.852c0.234,0.95,0.319,1.931,0.484,2.895c-0.479-0.912-0.763,0.596-1.185,0.4
					c-0.21-0.092-0.453-0.596-0.767-1.99c-0.383-1.379-0.896-3.654-2.232-7.137c-0.124,0.053-0.372,0.159-0.496,0.213
					c0.567,1.748,1.11,3.348,1.311,4.861c0.116,0.751,0.283,1.445,0.317,2.119c0.028,0.647,0.055,1.273,0.081,1.879
					c0.08,1.152-0.077,2.131-0.182,2.893c-0.115,0.762-0.244,1.313-0.382,1.64c-0.326,0.704-0.586,0.408-0.926-0.797
					c-0.172-0.606-0.309-1.461-0.504-2.569c-0.139-0.549-0.283-1.162-0.43-1.843c-0.073-0.344-0.148-0.699-0.227-1.069
					c-0.114-0.369-0.232-0.751-0.354-1.147c-1.018-3.601-2.737-7.323-5.282-10.718c-2.533-3.393-5.888-6.446-9.85-8.686
					c-3.961-2.24-8.548-3.542-13.199-3.79c-4.657-0.253-9.357,0.583-13.523,2.393c-3.019,1.349-5.816,3.163-8.273,5.356
					c-0.586,0.58-1.253,1.076-1.779,1.714l-1.643,1.844l-1.467,1.985c-0.483,0.665-0.86,1.401-1.301,2.094
					c-1.627,2.855-2.81,5.95-3.522,9.162l-0.391,2.437c-0.159,0.81-0.125,1.642-0.204,2.462l-0.077,1.232l0.044,1.192
					c-0.009,0.789,0.114,1.604,0.211,2.415c0.304,2.239,0.851,4.542,1.629,6.851c0.748,2.312,1.664,4.633,2.675,6.971
					c0.999,2.343,2.087,4.687,3.157,7.131c0.53,1.228,1.063,2.465,1.549,3.783c0.495,1.299,0.932,2.715,1.239,4.294
					c0.226,2.009,0.154,2.977,0.202,4.295c-0.008,1.264,0.105,2.509,0.206,3.755c0.063,1.254,0.254,2.478,0.431,3.703
					c0.134,1.238,0.438,2.424,0.68,3.625c1.04,4.779,2.985,9.217,5.786,12.769c2.063,2.535,5.851,5.207,9.828,5.723
					c4.013,0.812,7.399-0.419,8.932-0.842c2.141-0.848,2.363-0.757,2.224-0.262c-2.378,1.429-5.075,2.25-7.812,2.302
					c-2.758,0.065-5.521-0.532-7.969-1.759c-2.458-1.22-4.594-3.055-6.332-5.224c-0.903-1.062-1.613-2.279-2.349-3.47
					c-0.624-1.265-1.296-2.5-1.764-3.843c-1.213-3.247-2.072-6.666-2.456-10.169c-0.147-0.865-0.195-1.748-0.262-2.628
					c-0.053-0.881-0.165-1.754-0.17-2.64l-0.041-2.652c-0.013-0.461,0.004-0.825-0.052-1.432c-0.047-0.55-0.073-1.134-0.206-1.606
					c-0.404-2.034-1.11-3.762-1.797-5.496c-0.698-1.725-1.444-3.385-2.171-5.044c-1.46-3.313-2.882-6.589-4.019-9.913
					c1.085,3.261,2.463,6.497,3.898,9.779c0.714,1.647,1.455,3.291,2.148,5.007c0.693,1.711,1.386,3.445,1.82,5.441l0.163,0.745
					l0.075,0.827l0.059,0.818l0.011,0.666l0.046,2.666c-0.011,0.894,0.113,1.773,0.167,2.662c0.08,0.885,0.108,1.781,0.263,2.655
					c0.401,3.54,1.269,7.014,2.525,10.313c0.459,1.343,1.121,2.578,1.734,3.842c0.725,1.19,1.42,2.41,2.312,3.473
					c1.71,2.174,3.813,4.024,6.242,5.278c4.839,2.512,10.988,2.631,15.767-0.201c-0.219,0.42-0.452,0.862,0.306,0.773
					c-0.006-0.011,0.214-0.076,0.506-0.295c0.301-0.205,0.717-0.489,1.179-0.806c0.48-0.292,0.939-0.706,1.381-1.096
					c0.436-0.396,0.886-0.735,1.188-1.069c0.669-0.602,1.253-1.104,1.757-1.515c0.456-0.452,0.838-0.807,1.158-1.07
					c0.639-0.528,1.017-0.697,1.185-0.584c0.318,0.21-0.135,1.625-1.142,3.346C77.57,132.99,76.977,133.987,76.064,134.918z"/>
			</g>
		</g>
	</g>
	<g>
		<g>
			<g>
				<path fill="#292D73" d="M83.749,144.777c-0.145,0.132-0.29,0.264-0.429,0.39c-2.563,2.386-5.206,4.825-8.882,6.276
					c-1.271,0.517-2.686,0.89-4.079,1.313c-0.715,0.143-1.431,0.286-2.136,0.427c-0.704,0.149-1.415,0.138-2.093,0.199
					c3.233-0.012,6.553-0.876,9.522-2.343c2.971-1.486,5.581-3.499,7.976-5.595c-0.081,0.349-0.198,0.716-0.368,1.082
					c-0.193,0.35-0.452,0.69-0.774,1.013c-0.415,0.367-0.824,0.729-1.228,1.086c-0.42,0.348-0.88,0.653-1.315,0.979
					c-0.444,0.316-0.871,0.649-1.322,0.948c-0.473,0.276-0.942,0.55-1.408,0.821c-0.071-0.116-0.208-0.344-0.278-0.458
					c-2.479,1.711-5.373,2.711-8.291,2.969c-0.72,0.138-1.455,0.108-2.183,0.141c-0.729,0.021-1.459,0.073-2.178,0.003
					c-0.709-0.03-1.419-0.06-2.181-0.092c-0.73-0.083-1.471-0.149-2.229-0.195c0.196,0.106,0.049,0.193-0.014,0.271l-0.042-0.007
					l0.042,0.007c-0.056,0.068-0.043,0.131,0.332,0.195c-0.375-0.064-0.387-0.127-0.332-0.195c2.947,0.575,5.828,0.583,8.743,0.239
					c0.718-0.123,1.439-0.247,2.166-0.371c0.701-0.204,1.407-0.409,2.121-0.617c0.725-0.176,1.384-0.515,2.079-0.792
					c0.691-0.286,1.389-0.576,2.031-0.972l-0.758,0.441l-0.803,0.364c-0.537,0.239-1.071,0.477-1.604,0.714
					c-0.534,0.235-1.11,0.372-1.662,0.56c-0.562,0.16-1.104,0.386-1.68,0.485l-1.719,0.327c-0.287,0.049-0.572,0.115-0.86,0.149
					l-0.87,0.061l-1.742,0.113c-0.578,0.021-1.146-0.037-1.721-0.055c-2.296-0.055-4.587-0.575-6.833-1.261
					c-2.195-0.833-4.384-1.848-6.29-3.32c-0.326-0.246-0.996-0.723-1.308-0.986c-0.469-0.706-0.966-1.353-1.49-1.96
					c-0.522-0.609-0.971-1.266-1.5-1.855c0.762-0.15,0.831-2.138,2.56,0.283c0.097-0.094,0.292-0.28,0.389-0.374
					c-1.439-2.709-0.448-4.443,1.62-2.878c0.29,0.221,0.549,0.49,0.849,0.728c0.306,0.229,0.609,0.477,0.911,0.738
					c0.577,0.56,1.254,1.034,1.928,1.551l0.505,0.395l0.552,0.328l1.115,0.66c0.374,0.218,0.793,0.343,1.187,0.511
					c0.405,0.142,0.788,0.337,1.208,0.41c2.347,0.693,4.852,0.802,7.276,0.919c1.693,0.153,3.433-0.27,5.144-0.762
					c0.413-0.168,0.827-0.336,1.245-0.506c0.415-0.172,0.849-0.304,1.236-0.538c0.789-0.431,1.636-0.765,2.388-1.257
					c1.159-0.646,2.466-2.575,3.196-2.792c0.446-0.24,0.68-0.071,0.875,0.195c-0.185,0.211-0.358,0.433-0.551,0.636l-0.606,0.577
					l-1.205,1.152l-1.312,1.004c-0.219,0.164-0.431,0.339-0.656,0.493l-0.704,0.412c-2.305,1.328-4.863,2.176-7.441,2.26
					c2.542,0.031,5.138-0.845,7.441-2.26l0.716-0.39c0.229-0.146,0.446-0.313,0.67-0.468l1.345-0.95
					c0.414-0.362,0.829-0.727,1.246-1.092c0.422-0.361,0.842-0.728,1.207-1.151c0.157,0.243,0.322,0.495,0.612,0.562
					c0,0,0.451-0.55,0.677-0.825c1.436-0.683,1.999,0.115,2.039,1.134C83.807,144.219,83.788,144.486,83.749,144.777z"/>
			</g>
		</g>
	</g>
	<g>
		<g>
			<g>
				<path fill="#292D73" d="M81.069,154.635c-0.125,0.112-0.251,0.226-0.371,0.332c-2.204,2.037-4.415,4.188-7.576,5.453
					c-1.094,0.44-2.305,0.773-3.499,1.152c-0.613,0.127-1.228,0.254-1.833,0.38c-0.604,0.139-1.216,0.126-1.798,0.183
					c2.784,0.003,5.637-0.778,8.179-2.059c2.544-1.303,4.762-3.051,6.84-4.838c-0.047,0.315-0.127,0.644-0.258,0.971
					c-0.146,0.316-0.361,0.617-0.634,0.9c-0.357,0.32-0.707,0.635-1.052,0.944c-0.354,0.309-0.754,0.573-1.126,0.859
					c-0.382,0.282-0.759,0.56-1.131,0.834c-0.408,0.244-0.812,0.485-1.212,0.725c-0.072-0.115-0.214-0.341-0.285-0.454
					c-2.096,1.543-4.612,2.419-7.139,2.643c-2.546,0.239-4.977,0.124-7.585-0.114c0.167,0.103,0.036,0.191-0.021,0.27l-0.037-0.006
					l0.037,0.006c-0.051,0.068-0.043,0.13,0.282,0.188c-0.325-0.059-0.333-0.12-0.282-0.188c2.553,0.506,5.046,0.52,7.58,0.209
					c2.534-0.297,4.96-1.219,7.267-2.442c-0.843,0.561-1.82,0.909-2.728,1.349c-0.943,0.368-1.918,0.677-2.892,0.942l-1.493,0.293
					c-0.25,0.046-0.498,0.1-0.748,0.137l-0.756,0.056l-1.515,0.102c-0.503,0.02-0.994-0.031-1.493-0.046
					c-1.992-0.049-3.98-0.515-5.925-1.127c-1.895-0.748-3.786-1.653-5.409-2.957c-0.277-0.218-0.855-0.636-1.114-0.873
					c-0.377-0.636-0.782-1.213-1.217-1.751c-0.428-0.543-0.803-1.111-1.249-1.625c0.729-0.182,0.971-1.995,2.377,0.108
					c0.099-0.092,0.296-0.276,0.396-0.368c-1.111-2.387,0.01-3.981,1.771-2.723c0.245,0.18,0.465,0.397,0.71,0.596
					c0.254,0.188,0.503,0.392,0.75,0.609c0.471,0.464,1.014,0.867,1.56,1.298c0.517,0.479,1.162,0.773,1.751,1.165
					c0.626,0.319,1.286,0.58,1.943,0.766c1.909,0.557,3.943,0.633,5.908,0.771c1.375,0.162,2.789-0.188,4.188-0.588
					c1.356-0.539,2.717-1.144,4.011-1.892c0.457-0.289,1.004-0.787,1.43-1.324c0.442-0.517,0.894-0.917,1.199-1.023
					c0.393-0.185,0.628-0.018,0.835,0.237l-0.454,0.539l-0.501,0.488l-0.993,0.979l-1.085,0.852l-0.54,0.423l-0.584,0.349
					c-1.912,1.125-4.04,1.82-6.168,1.856c2.102,0.077,4.266-0.648,6.168-1.856l0.597-0.326l0.555-0.398l1.121-0.799
					c0.344-0.307,0.689-0.614,1.037-0.924c0.354-0.302,0.702-0.614,1.007-0.971c0.169,0.229,0.346,0.469,0.624,0.548
					c0,0,0.374-0.47,0.561-0.704c1.286-0.531,1.896,0.216,2.021,1.146C81.076,154.129,81.081,154.372,81.069,154.635z"/>
			</g>
		</g>
	</g>
	<g>
		<g>
			<g>
				<path fill="#292D73" d="M78.565,164.288c-0.103,0.104-0.206,0.208-0.302,0.307c-1.771,1.883-3.421,3.987-6.102,5.354
					c-1.847,0.913-4.112,1.798-6.223,1.907c2.501-0.024,5.009-0.958,7.106-2.303c2.142-1.332,3.865-3.063,5.556-4.72
					c0.004,0.569-0.091,1.206-0.541,1.729c-0.576,0.595-1.085,1.213-1.733,1.746c-0.617,0.549-1.205,1.107-1.908,1.572
					c-0.084-0.106-0.25-0.315-0.333-0.42c-0.803,0.821-1.826,1.396-2.835,1.929c-0.542,0.21-1.089,0.402-1.633,0.584
					c-0.535,0.204-1.132,0.243-1.69,0.361c-0.284,0.043-0.563,0.109-0.85,0.131c-0.292,0.011-0.579,0.021-0.862,0.032
					c-0.573,0.017-1.149,0.075-1.706,0.009c-0.561-0.048-1.129-0.035-1.698-0.1c-0.568-0.077-1.146-0.141-1.744-0.187
					c0.145,0.105,0.019,0.19-0.039,0.267l-0.034-0.007l0.034,0.007c-0.052,0.067-0.049,0.129,0.246,0.193
					c-0.294-0.064-0.297-0.126-0.246-0.193c2.299,0.555,4.589,0.616,6.896,0.21c0.562-0.134,1.15-0.21,1.692-0.404
					c0.538-0.196,1.082-0.395,1.634-0.597c1.023-0.505,2.094-1.011,3.012-1.703c-1.419,1.093-3.107,1.886-4.835,2.51
					c-1.772,0.492-3.678,0.813-5.484,0.636c-1.82-0.069-3.631-0.577-5.33-1.295c-0.812-0.424-1.678-0.799-2.402-1.359l-1.126-0.801
					l-1.012-0.918c-0.226-0.213-0.699-0.628-0.879-0.87c-0.254-0.599-0.542-1.142-0.864-1.649c-0.292-0.523-0.582-1.03-0.918-1.51
					c0.716-0.15,1.224-1.788,2.231,0.142c0.107-0.082,0.323-0.245,0.43-0.327c-0.686-2.182,0.627-3.594,2.092-2.434
					c0.199,0.169,0.387,0.354,0.568,0.555c0.2,0.178,0.398,0.362,0.589,0.563c0.191,0.199,0.378,0.41,0.563,0.631
					c0.202,0.189,0.407,0.384,0.618,0.582c0.798,0.838,1.788,1.478,2.806,1.853c1.479,0.497,3.029,0.605,4.525,0.732
					c0.529,0.115,1.053-0.025,1.605-0.072c0.277-0.025,0.535-0.159,0.809-0.231c0.265-0.104,0.558-0.133,0.812-0.292
					c0.519-0.278,1.083-0.476,1.587-0.836c0.261-0.159,0.528-0.313,0.802-0.46c0.256-0.178,0.512-0.36,0.78-0.528
					c0.184-0.135,0.375-0.323,0.568-0.528c0.162-0.229,0.344-0.484,0.51-0.718c0.338-0.465,0.665-0.859,0.946-0.955
					c0.345-0.173,0.592-0.025,0.827,0.2c-0.433,0.687-0.999,1.246-1.493,1.862c-0.25,0.309-0.56,0.546-0.834,0.82
					c-0.291,0.253-0.545,0.558-0.869,0.757c-1.503,1.127-3.256,1.781-4.95,1.864c1.685,0.031,3.474-0.658,4.95-1.864
					c0.334-0.187,0.599-0.477,0.903-0.715c0.288-0.259,0.611-0.482,0.878-0.771c0.523-0.587,1.131-1.109,1.602-1.765
					c0.195,0.204,0.399,0.417,0.674,0.483c0,0,0.283-0.429,0.425-0.644c1.139-0.501,1.832,0.16,2.091,0.997
					C78.496,163.831,78.537,164.05,78.565,164.288z"/>
			</g>
		</g>
	</g>
	<g>
		<g>
			<g>
				<g>
					<path fill="#E9F4C4" d="M115.918,62.349c-0.001,0.08,0.032,0.161-0.021,0.198c-0.164,0.076-0.295-0.195-0.459-0.118
						l-0.012,0.13c-0.117-0.057-0.265-0.128-0.394-0.19c-0.249,0.019-0.496,0.049-0.742,0.092c0.006,0.048,0.009,0.092-0.015,0.109
						c-0.103,0.035-0.244-0.012-0.391-0.025l-0.064,0.022c-0.017,0.028-0.021,0.074-0.024,0.102
						c-0.066-0.004-0.125-0.017-0.18-0.031c-0.685,0.26-1.463,0.556-2.249,0.853c-0.168,0.12-0.336,0.24-0.498,0.295
						c-0.24,0.05-0.545-0.036-0.779-0.052c0.035,0.461-0.535,0.686-0.422,1.152c-0.156-0.011-0.389-0.026-0.402,0.104
						c-0.037,0.391-0.158,0.842-0.572,1.076c-0.162,0.055-0.41-0.11-0.467-0.031c-0.09,0.125,0.209,0.276,0.119,0.401
						c1.202,0.145,2.36-0.022,3.571-0.016c0.413-0.204,3.193-0.287,3.907-0.195l0.065-0.006c0.389,0.026,0.862-0.007,1.192-0.182
						c0.152-0.108,0.306-0.24,0.459-0.367c-0.071-0.076-0.137-0.152-0.194-0.228c0.156,0.011,0.312,0.021,0.372-0.063
						c0.333-0.196,0.145-0.428,0.018-0.742c-0.091-0.138,0.033-0.348-0.11-0.488c0.104,0.007,0.155,0.011,0.26,0.018
						c0.012-0.131-0.32,0.065-0.248-0.148c0.1,0.051,0.212-0.029,0.315-0.022c-0.035-0.177-0.359-0.067-0.343-0.241
						c0.056-0.04,0.291,0.238,0.312,0.021c0.004-0.044-0.1-0.05-0.151-0.054c0.319-0.066,0.496-0.273,0.205-0.511
						c0.101,0.007,0.244,0.099,0.351,0.069l0-0.003c-0.054-0.008-0.146-0.053-0.195-0.056l0.182,0.012l-0.032-0.091
						c-0.045-0.027-0.091-0.049-0.138-0.052l0.121,0.008c-0.03-0.07-0.064-0.14-0.103-0.203c-0.144-0.141-0.281-0.347-0.359-0.353
						C117.177,62.438,116.546,62.364,115.918,62.349z"/>
				</g>
			</g>
		</g>
		<g>
			<g>
				<g>
					<path fill="#E9F4C4" d="M12.011,68.04c0.001-0.081-0.032-0.162,0.02-0.199c0.164-0.076,0.295,0.194,0.459,0.117l0.012-0.13
						c0.117,0.056,0.265,0.128,0.394,0.189c0.249-0.019,0.496-0.05,0.741-0.094c-0.006-0.048-0.009-0.092,0.015-0.109
						c0.103-0.034,0.244,0.012,0.391,0.025l0.064-0.023c0.017-0.028,0.021-0.073,0.024-0.102c0.066,0.004,0.125,0.017,0.18,0.03
						c0.684-0.261,1.462-0.558,2.246-0.857c0.167-0.12,0.335-0.24,0.497-0.296c0.239-0.05,0.545,0.035,0.778,0.051
						c-0.036-0.462,0.534-0.688,0.42-1.153c0.156,0.01,0.389,0.025,0.401-0.105c0.036-0.392,0.156-0.843,0.569-1.078
						c0.162-0.055,0.41,0.109,0.467,0.03c0.09-0.125-0.209-0.275-0.12-0.401c-1.202-0.142-2.36,0.028-3.57,0.024
						c-0.412,0.205-3.192,0.294-3.905,0.204l-0.065,0.006c-0.39-0.025-0.863,0.01-1.192,0.185c-0.151,0.109-0.305,0.241-0.458,0.368
						c0.071,0.076,0.137,0.152,0.194,0.228c-0.156-0.011-0.312-0.021-0.371,0.063c-0.332,0.197-0.144,0.428-0.017,0.741
						c0.092,0.138-0.032,0.349,0.112,0.488c-0.104-0.006-0.155-0.01-0.26-0.017c-0.012,0.131,0.32-0.066,0.248,0.147
						c-0.1-0.05-0.211,0.03-0.315,0.023c0.036,0.177,0.359,0.066,0.344,0.24c-0.056,0.041-0.292-0.237-0.312-0.02
						c-0.004,0.044,0.1,0.05,0.151,0.054c-0.319,0.066-0.495,0.273-0.204,0.511c-0.102-0.006-0.245-0.099-0.352-0.068L9.6,67.116
						c0.053,0.008,0.146,0.053,0.195,0.056L9.612,67.16l0.032,0.091c0.045,0.026,0.091,0.048,0.138,0.052l-0.121-0.008
						c0.03,0.07,0.065,0.139,0.103,0.203c0.144,0.141,0.282,0.346,0.359,0.352C10.752,67.952,11.383,68.025,12.011,68.04z"/>
				</g>
			</g>
		</g>
		<g>
			<g>
				<g>
					<path fill="#E9F4C4" d="M25.804,29.043c0.058-0.057,0.091-0.138,0.154-0.127c0.17,0.062,0.072,0.347,0.242,0.408l0.101-0.084
						c0.043,0.122,0.097,0.277,0.144,0.412c0.189,0.162,0.386,0.315,0.591,0.458c0.029-0.038,0.058-0.071,0.087-0.066
						c0.097,0.047,0.165,0.18,0.259,0.294l0.062,0.029c0.032-0.008,0.067-0.037,0.089-0.056c0.044,0.05,0.077,0.101,0.105,0.149
						c0.668,0.299,1.429,0.639,2.195,0.981c0.204,0.033,0.407,0.066,0.561,0.142c0.205,0.135,0.361,0.411,0.515,0.587
						c0.301-0.353,0.863-0.109,1.112-0.52c0.103,0.117,0.258,0.293,0.358,0.209c0.302-0.251,0.706-0.485,1.165-0.359
						c0.153,0.075,0.212,0.367,0.309,0.352c0.152-0.025,0.046-0.344,0.199-0.368c-0.75-0.95-1.689-1.649-2.543-2.508
						c-0.436-0.146-2.466-2.048-2.907-2.616l-0.05-0.042c-0.258-0.294-0.617-0.603-0.974-0.712c-0.184-0.03-0.386-0.046-0.584-0.063
						c-0.003,0.104-0.011,0.204-0.023,0.298c-0.103-0.117-0.206-0.234-0.308-0.218c-0.374-0.095-0.404,0.201-0.536,0.514
						c-0.032,0.162-0.269,0.223-0.267,0.424c-0.068-0.078-0.103-0.117-0.172-0.195c-0.101,0.084,0.273,0.179,0.071,0.279
						c-0.035-0.106-0.171-0.129-0.239-0.207c-0.1,0.151,0.207,0.302,0.072,0.413c-0.068-0.011-0.038-0.374-0.206-0.234
						c-0.034,0.028,0.035,0.106,0.069,0.146c-0.273-0.179-0.544-0.156-0.505,0.218c-0.067-0.076-0.104-0.243-0.2-0.298l-0.002,0.003
						c0.033,0.043,0.066,0.141,0.099,0.178l-0.121-0.138l-0.042,0.087c0.013,0.051,0.03,0.099,0.062,0.134l-0.08-0.091
						c-0.029,0.071-0.053,0.145-0.071,0.217c0.002,0.201-0.045,0.444,0.006,0.503C24.975,28.091,25.37,28.589,25.804,29.043z"/>
				</g>
			</g>
		</g>
		<g>
			<g>
				<g>
					<path fill="#E9F4C4" d="M63.853,12.131c0.081,0.002,0.162-0.031,0.199,0.021c0.075,0.164-0.197,0.294-0.121,0.458l0.13,0.013
						c-0.058,0.117-0.13,0.265-0.193,0.393c0.017,0.248,0.045,0.496,0.088,0.742c0.047-0.006,0.091-0.009,0.109,0.016
						c0.034,0.103-0.013,0.244-0.028,0.391l0.022,0.065c0.028,0.017,0.074,0.021,0.102,0.024c-0.005,0.066-0.018,0.125-0.032,0.18
						c0.255,0.686,0.546,1.466,0.839,2.253c0.119,0.169,0.238,0.337,0.292,0.499c0.048,0.24-0.04,0.545-0.057,0.778
						c0.461-0.032,0.683,0.539,1.15,0.43c-0.011,0.155-0.028,0.389,0.102,0.402c0.391,0.039,0.841,0.162,1.073,0.577
						c0.054,0.163-0.113,0.409-0.034,0.468c0.125,0.091,0.277-0.208,0.402-0.117c0.151-1.201-0.009-2.36,0.004-3.57
						c-0.201-0.414-0.269-3.194-0.172-3.907l-0.005-0.065c0.029-0.389-0.002-0.862-0.175-1.193
						c-0.107-0.152-0.238-0.307-0.364-0.461c-0.077,0.07-0.153,0.136-0.229,0.192c0.011-0.155,0.022-0.312-0.061-0.372
						c-0.195-0.333-0.427-0.146-0.742-0.021c-0.138,0.09-0.348-0.035-0.489,0.107c0.007-0.104,0.011-0.155,0.019-0.26
						c-0.13-0.013,0.064,0.32-0.149,0.246c0.051-0.099-0.028-0.212-0.021-0.315c-0.177,0.035-0.07,0.359-0.244,0.342
						c-0.04-0.057,0.24-0.29,0.023-0.312c-0.044-0.004-0.051,0.1-0.055,0.151c-0.064-0.32-0.27-0.498-0.509-0.208
						c0.007-0.102,0.101-0.243,0.072-0.351l-0.004,0.001c-0.008,0.053-0.053,0.145-0.057,0.194l0.013-0.183L64.66,9.771
						c-0.027,0.045-0.049,0.091-0.052,0.138l0.009-0.121c-0.071,0.03-0.14,0.064-0.205,0.102c-0.141,0.143-0.348,0.279-0.354,0.356
						C63.95,10.873,63.872,11.503,63.853,12.131z"/>
				</g>
			</g>
		</g>
		<g>
			<g>
				<g>
					<path fill="#E9F4C4" d="M100.166,27.235c0.056,0.059,0.136,0.093,0.125,0.156c-0.063,0.169-0.347,0.067-0.41,0.237l0.083,0.102
						c-0.123,0.041-0.279,0.094-0.414,0.14c-0.164,0.188-0.319,0.383-0.464,0.586c0.038,0.03,0.071,0.059,0.066,0.089
						c-0.049,0.097-0.182,0.163-0.296,0.256l-0.031,0.062c0.008,0.032,0.037,0.067,0.055,0.09c-0.05,0.043-0.101,0.075-0.15,0.104
						c-0.306,0.665-0.653,1.423-1.003,2.186c-0.036,0.203-0.071,0.406-0.148,0.56c-0.136,0.203-0.414,0.356-0.591,0.509
						c0.349,0.305,0.101,0.864,0.508,1.117c-0.118,0.103-0.295,0.255-0.213,0.356c0.248,0.305,0.479,0.711,0.349,1.168
						c-0.077,0.153-0.37,0.209-0.355,0.306c0.023,0.152,0.343,0.051,0.366,0.203c0.958-0.741,1.666-1.673,2.533-2.518
						c0.151-0.435,2.073-2.445,2.646-2.881l0.042-0.049c0.295-0.255,0.609-0.611,0.721-0.967c0.032-0.184,0.049-0.386,0.069-0.584
						c-0.104-0.004-0.204-0.013-0.297-0.025c0.118-0.103,0.236-0.204,0.221-0.306c0.099-0.373-0.197-0.406-0.508-0.541
						c-0.162-0.034-0.221-0.271-0.421-0.271c0.078-0.068,0.118-0.102,0.197-0.17c-0.083-0.102-0.182,0.271-0.28,0.068
						c0.106-0.034,0.13-0.17,0.209-0.237c-0.15-0.102-0.303,0.203-0.414,0.068c0.012-0.068,0.375-0.035,0.237-0.204
						c-0.028-0.034-0.106,0.034-0.146,0.068c0.182-0.271,0.162-0.543-0.212-0.508c0.077-0.066,0.244-0.102,0.299-0.197l-0.003-0.002
						c-0.043,0.032-0.141,0.064-0.178,0.097l0.139-0.119l-0.086-0.042c-0.051,0.013-0.099,0.029-0.135,0.06l0.092-0.079
						c-0.071-0.029-0.144-0.054-0.216-0.073c-0.201,0.001-0.443-0.05-0.502,0.001C101.126,26.416,100.625,26.806,100.166,27.235z"/>
				</g>
			</g>
		</g>
	</g>
	<g>
		<g>
			<g>
				<g>
					<path fill="#5D5F85" d="M114.918,63.349c-0.001,0.08,0.032,0.161-0.021,0.198c-0.164,0.076-0.295-0.195-0.459-0.118
						l-0.012,0.13c-0.117-0.057-0.265-0.128-0.394-0.19c-0.249,0.019-0.496,0.049-0.742,0.092c0.006,0.048,0.009,0.092-0.015,0.109
						c-0.103,0.035-0.244-0.012-0.391-0.025l-0.064,0.022c-0.017,0.028-0.021,0.074-0.024,0.102
						c-0.066-0.004-0.125-0.017-0.18-0.031c-0.685,0.26-1.463,0.556-2.249,0.853c-0.168,0.12-0.336,0.24-0.498,0.295
						c-0.24,0.05-0.545-0.036-0.779-0.052c0.035,0.461-0.535,0.686-0.422,1.152c-0.156-0.011-0.389-0.026-0.402,0.104
						c-0.037,0.391-0.158,0.842-0.572,1.076c-0.162,0.055-0.41-0.11-0.467-0.031c-0.09,0.125,0.209,0.276,0.119,0.401
						c1.202,0.145,2.36-0.022,3.571-0.016c0.413-0.204,3.193-0.287,3.907-0.195l0.065-0.006c0.389,0.026,0.862-0.007,1.192-0.182
						c0.152-0.108,0.306-0.24,0.459-0.367c-0.071-0.076-0.137-0.152-0.194-0.228c0.156,0.011,0.312,0.021,0.372-0.063
						c0.333-0.196,0.145-0.428,0.018-0.742c-0.091-0.138,0.033-0.348-0.11-0.488c0.104,0.007,0.155,0.011,0.26,0.018
						c0.012-0.131-0.32,0.065-0.248-0.148c0.1,0.051,0.212-0.029,0.315-0.022c-0.035-0.177-0.359-0.067-0.343-0.241
						c0.056-0.04,0.291,0.238,0.312,0.021c0.004-0.044-0.1-0.05-0.151-0.054c0.319-0.066,0.496-0.273,0.205-0.511
						c0.101,0.007,0.244,0.099,0.351,0.069l0-0.003c-0.054-0.008-0.146-0.053-0.195-0.056l0.182,0.012l-0.032-0.091
						c-0.045-0.027-0.091-0.049-0.138-0.052l0.121,0.008c-0.03-0.07-0.064-0.14-0.103-0.203c-0.144-0.141-0.281-0.347-0.359-0.353
						C116.177,63.438,115.546,63.364,114.918,63.349z"/>
				</g>
			</g>
		</g>
		<g>
			<g>
				<g>
					<path fill="#5D5F85" d="M11.011,69.04c0.001-0.081-0.032-0.162,0.02-0.199c0.164-0.076,0.295,0.194,0.459,0.117l0.012-0.13
						c0.117,0.056,0.265,0.128,0.394,0.189c0.249-0.019,0.496-0.05,0.741-0.094c-0.006-0.048-0.009-0.092,0.015-0.109
						c0.103-0.034,0.244,0.012,0.391,0.025l0.064-0.023c0.017-0.028,0.021-0.073,0.024-0.102c0.066,0.004,0.125,0.017,0.18,0.03
						c0.684-0.261,1.462-0.558,2.246-0.857c0.167-0.12,0.335-0.24,0.497-0.296c0.239-0.05,0.545,0.035,0.778,0.051
						c-0.036-0.462,0.534-0.688,0.42-1.153c0.156,0.01,0.389,0.025,0.401-0.105c0.036-0.392,0.156-0.843,0.569-1.078
						c0.162-0.055,0.41,0.109,0.467,0.03c0.09-0.125-0.209-0.275-0.12-0.401c-1.202-0.142-2.36,0.028-3.57,0.024
						c-0.412,0.205-3.192,0.294-3.905,0.204l-0.065,0.006c-0.39-0.025-0.863,0.01-1.192,0.185c-0.151,0.109-0.305,0.241-0.458,0.368
						c0.071,0.076,0.137,0.152,0.194,0.228c-0.156-0.011-0.312-0.021-0.371,0.063c-0.332,0.197-0.144,0.428-0.017,0.741
						c0.092,0.138-0.032,0.349,0.112,0.488c-0.104-0.006-0.155-0.01-0.26-0.017c-0.012,0.131,0.32-0.066,0.248,0.147
						c-0.1-0.05-0.211,0.03-0.315,0.023c0.036,0.177,0.359,0.066,0.344,0.24c-0.056,0.041-0.292-0.237-0.312-0.02
						c-0.004,0.044,0.1,0.05,0.151,0.054c-0.319,0.066-0.495,0.273-0.204,0.511c-0.102-0.006-0.245-0.099-0.352-0.068L8.6,68.116
						c0.053,0.008,0.146,0.053,0.195,0.056L8.612,68.16l0.032,0.091c0.045,0.026,0.091,0.048,0.138,0.052l-0.121-0.008
						c0.03,0.07,0.065,0.139,0.103,0.203c0.144,0.141,0.282,0.346,0.359,0.352C9.752,68.952,10.383,69.025,11.011,69.04z"/>
				</g>
			</g>
		</g>
		<g>
			<g>
				<g>
					<path fill="#5D5F85" d="M24.804,30.043c0.058-0.057,0.091-0.138,0.154-0.127c0.17,0.062,0.072,0.347,0.242,0.408l0.101-0.084
						c0.043,0.122,0.097,0.277,0.144,0.412c0.189,0.162,0.386,0.315,0.591,0.458c0.029-0.038,0.058-0.071,0.087-0.066
						c0.097,0.047,0.165,0.18,0.259,0.294l0.062,0.029c0.032-0.008,0.067-0.037,0.089-0.056c0.044,0.05,0.077,0.101,0.105,0.149
						c0.668,0.299,1.429,0.639,2.195,0.981c0.204,0.033,0.407,0.066,0.561,0.142c0.205,0.135,0.361,0.411,0.515,0.587
						c0.301-0.353,0.863-0.109,1.112-0.52c0.103,0.117,0.258,0.293,0.358,0.209c0.302-0.251,0.706-0.485,1.165-0.359
						c0.153,0.075,0.212,0.367,0.309,0.352c0.152-0.025,0.046-0.344,0.199-0.368c-0.75-0.95-1.689-1.649-2.543-2.508
						c-0.436-0.146-2.466-2.048-2.907-2.616l-0.05-0.042c-0.258-0.294-0.617-0.603-0.974-0.712c-0.184-0.03-0.386-0.046-0.584-0.063
						c-0.003,0.104-0.011,0.204-0.023,0.298c-0.103-0.117-0.206-0.234-0.308-0.218c-0.374-0.095-0.404,0.201-0.536,0.514
						c-0.032,0.162-0.269,0.223-0.267,0.424c-0.068-0.078-0.103-0.117-0.172-0.195c-0.101,0.084,0.273,0.179,0.071,0.279
						c-0.035-0.106-0.171-0.129-0.239-0.207c-0.1,0.151,0.207,0.302,0.072,0.413c-0.068-0.011-0.038-0.374-0.206-0.234
						c-0.034,0.028,0.035,0.106,0.069,0.146c-0.273-0.179-0.544-0.156-0.505,0.218c-0.067-0.076-0.104-0.243-0.2-0.298l-0.002,0.003
						c0.033,0.043,0.066,0.141,0.099,0.178l-0.121-0.138l-0.042,0.087c0.013,0.051,0.03,0.099,0.062,0.134l-0.08-0.091
						c-0.029,0.071-0.053,0.145-0.071,0.217c0.002,0.201-0.045,0.444,0.006,0.503C23.975,29.091,24.37,29.589,24.804,30.043z"/>
				</g>
			</g>
		</g>
		<g>
			<g>
				<g>
					<path fill="#5D5F85" d="M62.853,13.131c0.081,0.002,0.162-0.031,0.199,0.021c0.075,0.164-0.197,0.294-0.121,0.458l0.13,0.013
						c-0.058,0.117-0.13,0.265-0.193,0.393c0.017,0.248,0.045,0.496,0.088,0.742c0.047-0.006,0.091-0.009,0.109,0.016
						c0.034,0.103-0.013,0.244-0.028,0.391l0.022,0.065c0.028,0.017,0.074,0.021,0.102,0.024c-0.005,0.066-0.018,0.125-0.032,0.18
						c0.255,0.686,0.546,1.466,0.839,2.253c0.119,0.169,0.238,0.337,0.292,0.499c0.048,0.24-0.04,0.545-0.057,0.778
						c0.461-0.032,0.683,0.539,1.15,0.43c-0.011,0.155-0.028,0.389,0.102,0.402c0.391,0.039,0.841,0.162,1.073,0.577
						c0.054,0.163-0.113,0.409-0.034,0.468c0.125,0.091,0.277-0.208,0.402-0.117c0.151-1.201-0.009-2.36,0.004-3.57
						c-0.201-0.414-0.269-3.194-0.172-3.907l-0.005-0.065c0.029-0.389-0.002-0.862-0.175-1.193
						c-0.107-0.152-0.238-0.307-0.364-0.461c-0.077,0.07-0.153,0.136-0.229,0.192c0.011-0.155,0.022-0.312-0.061-0.372
						c-0.195-0.333-0.427-0.146-0.742-0.021c-0.138,0.09-0.348-0.035-0.489,0.107c0.007-0.104,0.011-0.155,0.019-0.26
						c-0.13-0.013,0.064,0.32-0.149,0.246c0.051-0.099-0.028-0.212-0.021-0.315c-0.177,0.035-0.07,0.359-0.244,0.342
						c-0.04-0.057,0.24-0.29,0.023-0.312c-0.044-0.004-0.051,0.1-0.055,0.151c-0.064-0.32-0.27-0.498-0.509-0.208
						c0.007-0.102,0.101-0.243,0.072-0.351l-0.004,0.001c-0.008,0.053-0.053,0.145-0.057,0.194l0.013-0.183l-0.091,0.031
						c-0.027,0.045-0.049,0.091-0.052,0.138l0.009-0.121c-0.071,0.03-0.14,0.064-0.205,0.102c-0.141,0.143-0.348,0.279-0.354,0.356
						C62.95,11.873,62.872,12.503,62.853,13.131z"/>
				</g>
			</g>
		</g>
		<g>
			<g>
				<g>
					<path fill="#5D5F85" d="M99.166,28.235c0.056,0.059,0.136,0.093,0.125,0.156c-0.063,0.169-0.347,0.067-0.41,0.237l0.083,0.102
						c-0.123,0.041-0.279,0.094-0.414,0.14c-0.164,0.188-0.319,0.383-0.464,0.586c0.038,0.03,0.071,0.059,0.066,0.089
						c-0.049,0.097-0.182,0.163-0.296,0.256l-0.031,0.062c0.008,0.032,0.037,0.067,0.055,0.09c-0.05,0.043-0.101,0.075-0.15,0.104
						c-0.306,0.665-0.653,1.423-1.003,2.186c-0.036,0.203-0.071,0.406-0.148,0.56c-0.136,0.203-0.414,0.356-0.591,0.509
						c0.349,0.305,0.101,0.864,0.508,1.117c-0.118,0.103-0.295,0.255-0.213,0.356c0.248,0.305,0.479,0.711,0.349,1.168
						c-0.077,0.153-0.37,0.209-0.355,0.306c0.023,0.152,0.343,0.051,0.366,0.203c0.958-0.741,1.666-1.673,2.533-2.518
						c0.151-0.435,2.073-2.445,2.646-2.881l0.042-0.049c0.295-0.255,0.609-0.611,0.721-0.967c0.032-0.184,0.049-0.386,0.069-0.584
						c-0.104-0.004-0.204-0.013-0.297-0.025c0.118-0.103,0.236-0.204,0.221-0.306c0.099-0.373-0.197-0.406-0.508-0.541
						c-0.162-0.034-0.221-0.271-0.421-0.271c0.078-0.068,0.118-0.102,0.197-0.17c-0.083-0.102-0.182,0.271-0.28,0.068
						c0.106-0.034,0.13-0.17,0.209-0.237c-0.15-0.102-0.303,0.203-0.414,0.068c0.012-0.068,0.375-0.035,0.237-0.204
						c-0.028-0.034-0.106,0.034-0.146,0.068c0.182-0.271,0.162-0.543-0.212-0.508c0.077-0.066,0.244-0.102,0.299-0.197l-0.003-0.002
						c-0.043,0.032-0.141,0.064-0.178,0.097l0.139-0.119l-0.086-0.042c-0.051,0.013-0.099,0.029-0.135,0.06l0.092-0.079
						c-0.071-0.029-0.144-0.054-0.216-0.073c-0.201,0.001-0.443-0.05-0.502,0.001C100.126,27.416,99.625,27.806,99.166,28.235z"/>
				</g>
			</g>
		</g>
	</g>
</g>
<g id="_x31_2_-_Calculus__x26__Vectors__x28_Unit_Vectors_x29_">
</g>
<g id="_x31_1_-_Advanced_Functions">
</g>
<g id="_x39__-_Grades_7__x26__8">
</g>
<g id="_x38__-_CS__x28_Binary_Digits_x29_">
</g>
<g id="_x37__-_NS__x28_Blocks_x3B__Prime_factorization_of_12_x29_">
</g>
<g id="_x36__-_LR__x28_Intersection_of_lines_x29_">
</g>
<g id="_x35__-_SS__x28_Pascal_x27_s_triangle_x29_">
</g>
<g id="_x34__-_MT__x28_Cone_and_Sphere_x29_">
</g>
<g id="_x33__-_QR__x28_Suspension_Bridge_x29_">
</g>
<g id="_x32__-_ET__x28_Sine_and_exponential_x29_">
</g>
<g id="_x31__-_IF__x28_Function_diagram_x29_">
</g>
</svg>
