<?xml version="1.0" encoding="utf-8"?>
<!-- Generator: Adobe Illustrator 16.0.0, SVG Export Plug-In . SVG Version: 6.00 Build 0)  -->
<!DOCTYPE svg PUBLIC "-//W3C//DTD SVG 1.1//EN" "http://www.w3.org/Graphics/SVG/1.1/DTD/svg11.dtd">
<svg version="1.1" xmlns="http://www.w3.org/2000/svg" xmlns:xlink="http://www.w3.org/1999/xlink" x="0px" y="0px" width="130px"
	 height="180px" viewBox="0 0 130 180" enable-background="new 0 0 130 180" xml:space="preserve">
<g id="_x31_3_-_Problem_Solving__x28_Lightbulb_x29_">
</g>
<g id="_x31_2_-_Calculus__x26__Vectors__x28_Unit_Vectors_x29_">
</g>
<g id="_x31_1_-_Advanced_Functions">
	<g>
		<linearGradient id="SVGID_1_" gradientUnits="userSpaceOnUse" x1="63.334" y1="79.1328" x2="89.334" y2="165.1329">
			<stop  offset="0.4133" style="stop-color:#6AE87D"/>
			<stop  offset="0.5071" style="stop-color:#8AED99"/>
			<stop  offset="0.6693" style="stop-color:#BCF5C5"/>
			<stop  offset="0.8115" style="stop-color:#E1FAE4"/>
			<stop  offset="0.9265" style="stop-color:#F7FEF8"/>
			<stop  offset="1" style="stop-color:#FFFFFF"/>
		</linearGradient>
		<path opacity="0.75" fill="url(#SVGID_1_)" d="M14.267,120.956c0,0,91.946,7.66,101.333-105.735V152.12l-101.333,1.51V120.956z"/>
		<g>
			<g>
				<g>
					<path fill="#292D73" d="M113.73,17.422c-0.104,0.704-0.209,1.409-0.313,2.104c-0.377,3.238-1.061,6.439-1.621,9.674
						c-0.497,3.247-1.34,6.457-2.076,9.729c-0.188,0.817-0.378,1.638-0.567,2.46c-0.236,0.813-0.473,1.628-0.711,2.446
						c-0.482,1.635-0.97,3.283-1.461,4.949c-0.228,0.837-0.52,1.66-0.832,2.481c-0.304,0.823-0.609,1.65-0.917,2.483
						c-0.309,0.831-0.62,1.667-0.934,2.509c-0.304,0.844-0.629,1.686-1.024,2.507c-0.531,1.163-1.069,2.34-1.612,3.529
						c-0.554,1.188-1.037,2.427-1.698,3.598c-0.621,1.189-1.246,2.388-1.874,3.591l-0.937,1.812l-1.052,1.755
						c-1.413,2.334-2.766,4.707-4.37,6.867c-0.773,1.097-1.521,2.2-2.297,3.261c-0.829,1.022-1.646,2.03-2.45,3.021
						c4.001-4.553,7.301-9.744,10.429-15.026c2.902-5.407,5.6-10.972,7.651-16.745c4.28-11.491,6.919-23.373,8.76-34.801
						c0.018,1.181,0.065,2.481-0.047,3.883c-0.123,1.399-0.305,2.91-0.569,4.525c-1.287,7.766-3.343,15.303-5.653,22.674
						c-0.13-0.042-0.383-0.124-0.511-0.166c-3.174,10.479-7.91,20.161-14.022,28.873l-2.336,3.237l-0.585,0.81l-0.639,0.77
						l-1.276,1.54c-0.861,1.018-1.677,2.077-2.574,3.067c-0.917,0.976-1.835,1.951-2.755,2.93c-0.464,0.485-0.908,0.99-1.387,1.463
						l-1.473,1.386c-0.981,0.926-1.967,1.854-2.957,2.787c-2.101,1.721-4.113,3.588-6.362,5.196
						c0.683-0.397,0.368-0.038,0.285,0.128c-0.044,0.032-0.087,0.063-0.128,0.092c0.041-0.029,0.084-0.06,0.128-0.092
						c-0.075,0.147,0.033,0.144,1.157-0.658c-1.124,0.802-1.232,0.806-1.157,0.658c2.259-1.532,4.267-3.354,6.364-5.031
						c0.998-0.898,1.963-1.827,2.942-2.734l1.46-1.367c0.481-0.46,0.917-0.964,1.377-1.442c0.907-0.97,1.813-1.938,2.718-2.903
						c0.902-0.969,1.69-2.031,2.539-3.04c0.817-1.033,1.706-2.014,2.464-3.089l2.282-3.217c5.995-8.642,10.632-18.159,14.143-28.364
						c-0.716,1.972-1.431,3.938-2.144,5.9c-0.755,1.947-1.65,3.84-2.466,5.758c-0.782,1.934-1.776,3.771-2.732,5.621l-1.435,2.774
						c-0.48,0.923-1.063,1.792-1.589,2.69c-4.228,7.17-9.316,13.854-15.281,19.73c-5.956,5.881-12.773,10.934-20.205,15
						c-3.688,2.093-7.602,3.779-11.563,5.383c-4.014,1.467-8.1,2.825-12.314,3.811c-0.71,0.2-1.795,0.412-2.877,0.646
						c-1.082,0.232-2.163,0.466-2.893,0.577c-5.88,0.65-11.724,1.122-17.637,1.135c0.737-0.332-0.371-0.846-0.184-1.232
						c0.092-0.194,0.502-0.348,1.607-0.473c1.107-0.116,2.908-0.194,5.792-0.357c-0.011-0.135-0.033-0.404-0.044-0.539
						c-5.752,0.132-9.71-0.7-10.636-1.396c-0.966-0.747,0.687-1.02,6.228-1.451c6.216-0.483,13.479-1.439,20.873-3.342
						c7.409-1.828,14.887-4.801,21.468-8.602c1.224-0.646,2.377-1.407,3.539-2.152c1.163-0.745,2.343-1.463,3.437-2.306
						c1.108-0.82,2.246-1.603,3.335-2.446l3.192-2.627l0.799-0.655l0.755-0.706l1.513-1.409c1.011-0.937,2.043-1.851,2.965-2.879
						c0.954-0.994,1.908-1.989,2.866-2.987c0.894-1.048,1.789-2.099,2.688-3.154c4.904-5.822,9.132-12.678,12.593-19.919
						c0.816-1.836,1.634-3.672,2.449-5.505c0.753-1.859,1.41-3.756,2.124-5.617c0.337-0.938,0.735-1.853,1.023-2.804
						c0.294-0.947,0.588-1.892,0.881-2.835c0.566-1.89,1.237-3.733,1.731-5.608c0.339-1.37,0.703-3.007,1.074-4.731
						c0.377-1.724,0.771-3.532,0.997-5.288c0.52-3.495,1.085-6.622,1.442-8.003c0.412-1.998,0.706-2.046,0.99-1.696
						c-1.266,9.247-2.895,18.456-5.741,27.194c-3.43,10.708-8.165,21.042-14.749,30.042c6.527-8.742,11.352-19.106,14.749-30.042
						l1.968-6.588l1.585-6.702c0.591-2.223,0.88-4.51,1.315-6.768c0.384-2.268,0.87-4.521,1.099-6.813
						c0.237,0.369,0.487,0.729,0.813,0.201c0,0,0.309-2.842,0.463-4.264c1.29-5.623,2.079-4.148,2.439-1.207
						C113.608,15.663,113.668,16.522,113.73,17.422z"/>
				</g>
			</g>
		</g>
	</g>
	<g>
		<g>
			<g>
				<g>
					<path fill="#5D5F85" d="M43.477,44.455c0.061,0.021,0.121-0.559,0.148,0.341c0.058,2.832-0.146,5.107-0.088,7.941l0.098,0.203
						c-0.045,2.189-0.093,4.479-0.142,6.808c0.023,4.292,0.047,8.563,0.07,12.819c0.035-0.11,0.068-0.163,0.081,0.261
						c0.026,1.769-0.008,4.22-0.018,6.759c0.005,0.375,0.011,0.75,0.017,1.119c0.021,0.289,0.056,0.363,0.076,0.41
						c-0.008,1.146-0.016,2.166-0.022,3.113c0.206,12.456,0.416,25.124,0.643,38.84c0.091,2.9,0.181,5.803,0.223,8.598
						c0.037,4.141-0.027,9.426-0.038,13.464c0.346-0.619,0.516,9.224,0.865,7.259c-0.008,2.69-0.02,6.732,0.079,6.94
						c0.293,0.625,0.631,2.696,0.808,9.845c0.042,2.798-0.082,7.094-0.022,8.08c0.094,1.553,0.207-3.627,0.301-2.073
						c0.106-20.791-0.021-40.812-0.018-61.746c-0.153-7.126-0.221-55.188-0.153-67.532l-0.004-1.121
						c0.019-6.735-0.008-14.914-0.14-20.613c-0.09-2.601-0.184-5.268-0.275-7.919c-0.062,1.22-0.119,2.356-0.17,3.358
						c0.007-2.695,0.015-5.388-0.048-6.422c-0.148-5.736-0.321-2.487-0.557-0.281c-0.104,1.588-0.261-0.559-0.366,1.927
						c0.005-1.791,0.008-2.688,0.013-4.488c-0.098-0.205,0.05,5.529-0.11,4.282c0.037-1.727-0.022-3.66-0.018-5.454
						c-0.133,0.622-0.05,6.215-0.181,5.938c-0.03-0.969,0.178-5.041,0.015-5.388c-0.032-0.068-0.037,1.727-0.04,2.624
						c-0.05-5.524-0.205-8.567-0.384-3.525c0.006-1.751,0.074-4.226,0.052-6.077l-0.002,0.014c-0.012,0.922-0.031,2.521-0.042,3.371
						c0.003-1.049,0.006-2.102,0.009-3.152c-0.021,0.173-0.044,0.358-0.067,0.55c-0.014,0.792-0.026,1.578-0.039,2.393
						c0.002-0.696,0.004-1.394,0.006-2.094c-0.047,0.548-0.098,1.146-0.152,1.783c-0.105,2.486-0.26,4.869-0.264,6.214
						C43.571,22.695,43.523,33.604,43.477,44.455z"/>
				</g>
			</g>
		</g>
		<g>
			<g>
				<g>
					<path fill="#5D5F85" d="M40.76,6.105c0.045,0.04,0.119,0.047,0.098,0.116c-0.093,0.197-0.357,0.195-0.449,0.393l0.064,0.075
						c-0.131,0.088-0.293,0.197-0.436,0.294c-0.196,0.253-0.384,0.51-0.563,0.772c0.033,0.018,0.061,0.035,0.05,0.068
						c-0.064,0.117-0.209,0.233-0.339,0.371L39.144,8.27c0.003,0.03,0.025,0.057,0.039,0.073c-0.058,0.063-0.114,0.114-0.167,0.161
						c-0.423,0.803-0.896,1.703-1.377,2.619c-0.071,0.223-0.142,0.445-0.244,0.631c-0.171,0.259-0.474,0.518-0.677,0.739
						c0.294,0.188-0.051,0.856,0.311,0.971c-0.135,0.148-0.338,0.37-0.273,0.445c0.194,0.225,0.353,0.562,0.144,1.081
						c-0.104,0.186-0.404,0.35-0.406,0.443c-0.003,0.149,0.332-0.072,0.329,0.077c1.081-1.11,1.947-2.328,2.956-3.514
						c0.226-0.503,2.485-3.272,3.131-3.929l0.05-0.066c0.339-0.37,0.712-0.851,0.886-1.26c0.063-0.2,0.116-0.415,0.17-0.627
						c-0.103,0.033-0.201,0.061-0.291,0.08c0.135-0.147,0.271-0.296,0.272-0.395c0.163-0.421-0.125-0.349-0.411-0.376
						c-0.155,0.023-0.172-0.2-0.372-0.128c0.09-0.098,0.135-0.147,0.226-0.246c-0.064-0.075-0.228,0.346-0.29,0.172
						C43.259,5.148,43.307,5,43.396,4.901c-0.131-0.051-0.337,0.32-0.424,0.22c0.023-0.074,0.379-0.17,0.271-0.295
						c-0.021-0.025-0.111,0.073-0.156,0.122c0.228-0.346,0.255-0.618-0.123-0.447c0.088-0.097,0.26-0.192,0.332-0.312l-0.003-0.001
						c-0.049,0.049-0.151,0.117-0.194,0.164l0.159-0.173l-0.079-0.013c-0.053,0.031-0.104,0.065-0.145,0.11l0.105-0.115
						c-0.065-0.004-0.134-0.004-0.202,0.003c-0.2,0.073-0.432,0.108-0.5,0.183C41.856,4.913,41.29,5.497,40.76,6.105z"/>
				</g>
			</g>
		</g>
		<g>
			<g>
				<g>
					<path fill="#5D5F85" d="M44.515,8.341c0.051-0.032,0.076-0.104,0.139-0.061c0.174,0.154,0.106,0.418,0.279,0.572l0.091-0.042
						c0.055,0.159,0.123,0.354,0.184,0.528c0.202,0.274,0.411,0.543,0.628,0.804c0.024-0.027,0.05-0.049,0.079-0.028
						c0.1,0.102,0.181,0.282,0.284,0.455l0.064,0.064c0.03,0.007,0.062-0.007,0.081-0.016c0.049,0.077,0.086,0.149,0.119,0.218
						c0.693,0.674,1.468,1.428,2.258,2.196c0.203,0.141,0.407,0.281,0.565,0.441c0.215,0.252,0.396,0.636,0.566,0.907
						c0.259-0.234,0.836,0.319,1.039-0.006c0.113,0.182,0.283,0.454,0.374,0.413c0.271-0.123,0.643-0.176,1.106,0.195
						c0.159,0.161,0.247,0.513,0.34,0.545c0.147,0.05,0.011-0.354,0.158-0.305c-0.835-1.428-1.829-2.675-2.756-4.054
						c-0.443-0.383-2.633-3.509-3.125-4.359l-0.053-0.071c-0.283-0.454-0.668-0.978-1.03-1.279c-0.184-0.126-0.384-0.246-0.58-0.366
						c0.007,0.112,0.011,0.22,0.008,0.316c-0.113-0.182-0.227-0.363-0.325-0.396c-0.377-0.295-0.376,0.016-0.474,0.293
						c-0.015,0.162-0.241,0.109-0.218,0.331c-0.075-0.12-0.113-0.181-0.188-0.302c-0.091,0.041,0.286,0.336,0.098,0.343
						c-0.045-0.134-0.181-0.228-0.256-0.349c-0.083,0.115,0.234,0.437,0.113,0.491c-0.067-0.046-0.076-0.431-0.227-0.362
						c-0.03,0.014,0.046,0.135,0.083,0.195c-0.286-0.336-0.551-0.449-0.474-0.018c-0.074-0.118-0.127-0.32-0.228-0.43L43.238,5.21
						c0.036,0.063,0.079,0.188,0.115,0.245l-0.133-0.213l-0.032,0.074c0.019,0.063,0.04,0.124,0.074,0.18l-0.088-0.142
						c-0.021,0.064-0.037,0.133-0.048,0.203c0.023,0.223,0.001,0.466,0.058,0.556C43.603,6.872,44.042,7.621,44.515,8.341z"/>
				</g>
			</g>
		</g>
	</g>
	<g>
		<g>
			<g>
				<g>
					<path fill="#5D5F85" d="M32.876,152.169c0.014-0.061-0.392-0.121,0.238-0.148c1.983-0.058,3.577,0.146,5.562,0.088l0.143-0.098
						c1.531,0.045,3.139,0.093,4.768,0.142c3.005-0.023,5.996-0.047,8.979-0.07c-0.077-0.035-0.114-0.068,0.183-0.082
						c1.239-0.025,2.955,0.009,4.733,0.019c0.263-0.005,0.526-0.011,0.784-0.017c0.202-0.021,0.255-0.056,0.287-0.076
						c0.802,0.008,1.517,0.016,2.181,0.022c8.717-0.206,17.598-0.416,27.201-0.643c2.031-0.091,4.064-0.181,6.022-0.223
						c2.9-0.037,6.601,0.026,9.429,0.038c-0.434-0.346,6.46-0.516,5.084-0.865c1.885,0.008,4.716,0.02,4.861-0.079
						c0.438-0.293,1.889-0.632,6.895-0.808c1.96-0.042,4.969,0.082,5.659,0.022c1.088-0.095-2.54-0.207-1.452-0.301
						c-14.562-0.106-28.583,0.021-43.244,0.018c-4.991,0.153-38.652,0.221-47.297,0.153l-0.786,0.004
						c-4.717-0.019-10.444,0.008-14.437,0.14c-1.813,0.09-3.686,0.183-5.546,0.275c0.848,0.062,1.643,0.119,2.352,0.171
						c-1.887-0.008-3.772-0.016-4.497,0.047c-4.018,0.148-1.742,0.321-0.196,0.557c1.111,0.104-0.392,0.261,1.349,0.366
						c-1.254-0.005-1.883-0.008-3.144-0.013c-0.144,0.098,3.872-0.05,2.999,0.11c-1.209-0.037-2.563,0.022-3.819,0.018
						c0.436,0.133,4.353,0.05,4.159,0.181c-0.679,0.03-3.53-0.178-3.773-0.015c-0.048,0.032,1.209,0.037,1.838,0.04
						c-3.869,0.05-6.001,0.205-2.47,0.383c-1.226-0.004-2.959-0.073-4.256-0.051l0.01,0.002c0.644,0.012,1.767,0.031,2.36,0.042
						l-2.208-0.009c0.125,0.021,0.254,0.045,0.386,0.067c0.55,0.021,1.103,0.037,1.676,0.039L4.42,151.61
						c0.366,0.053,0.787,0.104,1.249,0.152c1.742,0.105,3.41,0.26,4.353,0.264C17.631,152.104,25.273,152.158,32.876,152.169z"/>
				</g>
			</g>
		</g>
		<g>
			<g>
				<g>
					<path fill="#5D5F85" d="M124.514,146.41c-0.04,0.045-0.047,0.119-0.116,0.098c-0.197-0.093-0.195-0.357-0.393-0.449
						l-0.075,0.064c-0.088-0.131-0.197-0.293-0.294-0.436c-0.253-0.196-0.51-0.384-0.772-0.563c-0.018,0.033-0.035,0.061-0.068,0.05
						c-0.117-0.064-0.233-0.209-0.371-0.339l-0.074-0.041c-0.03,0.003-0.057,0.025-0.073,0.039
						c-0.063-0.058-0.114-0.114-0.161-0.167c-0.803-0.423-1.703-0.896-2.619-1.377c-0.223-0.071-0.445-0.142-0.631-0.244
						c-0.259-0.171-0.518-0.474-0.739-0.677c-0.188,0.294-0.856-0.051-0.971,0.311c-0.148-0.135-0.37-0.338-0.445-0.273
						c-0.225,0.194-0.562,0.353-1.081,0.144c-0.186-0.104-0.35-0.404-0.443-0.406c-0.149-0.003,0.072,0.332-0.077,0.329
						c1.11,1.081,2.328,1.946,3.514,2.956c0.503,0.226,3.272,2.485,3.929,3.131l0.066,0.05c0.37,0.339,0.851,0.712,1.26,0.886
						c0.2,0.063,0.415,0.116,0.627,0.17c-0.033-0.103-0.061-0.201-0.08-0.291c0.147,0.135,0.296,0.271,0.395,0.272
						c0.421,0.163,0.349-0.125,0.376-0.411c-0.023-0.155,0.2-0.172,0.128-0.372c0.098,0.09,0.147,0.135,0.246,0.226
						c0.075-0.064-0.346-0.228-0.172-0.29c0.074,0.111,0.223,0.159,0.321,0.249c0.051-0.131-0.32-0.337-0.22-0.424
						c0.074,0.023,0.17,0.379,0.295,0.271c0.025-0.022-0.073-0.112-0.122-0.157c0.346,0.228,0.618,0.255,0.447-0.123
						c0.097,0.088,0.192,0.26,0.312,0.332l0.001-0.003c-0.049-0.049-0.117-0.151-0.164-0.194l0.173,0.159l0.013-0.079
						c-0.031-0.053-0.065-0.104-0.11-0.145l0.115,0.105c0.004-0.065,0.004-0.134-0.003-0.202c-0.073-0.2-0.108-0.432-0.183-0.5
						C125.706,147.507,125.122,146.94,124.514,146.41z"/>
				</g>
			</g>
		</g>
		<g>
			<g>
				<g>
					<path fill="#5D5F85" d="M122.278,150.165c0.032,0.051,0.104,0.075,0.061,0.139c-0.154,0.174-0.418,0.106-0.572,0.279
						l0.042,0.091c-0.159,0.055-0.354,0.123-0.528,0.184c-0.274,0.203-0.543,0.411-0.804,0.628c0.027,0.024,0.049,0.05,0.028,0.079
						c-0.102,0.1-0.282,0.181-0.455,0.284l-0.064,0.064c-0.007,0.03,0.007,0.062,0.016,0.081c-0.077,0.049-0.149,0.086-0.218,0.119
						c-0.674,0.693-1.428,1.468-2.196,2.258c-0.141,0.203-0.281,0.407-0.441,0.565c-0.252,0.215-0.636,0.396-0.907,0.566
						c0.234,0.259-0.319,0.836,0.006,1.039c-0.182,0.113-0.454,0.283-0.413,0.374c0.123,0.271,0.176,0.643-0.195,1.106
						c-0.161,0.159-0.513,0.247-0.545,0.34c-0.05,0.147,0.354,0.011,0.305,0.158c1.428-0.835,2.675-1.829,4.054-2.756
						c0.383-0.444,3.509-2.633,4.359-3.125l0.071-0.053c0.454-0.283,0.978-0.668,1.279-1.03c0.126-0.184,0.246-0.384,0.366-0.58
						c-0.112,0.007-0.22,0.011-0.316,0.008c0.182-0.113,0.363-0.227,0.396-0.325c0.295-0.377-0.016-0.376-0.293-0.474
						c-0.162-0.015-0.109-0.241-0.331-0.218c0.12-0.075,0.181-0.113,0.302-0.188c-0.041-0.091-0.336,0.286-0.343,0.098
						c0.134-0.045,0.228-0.181,0.349-0.256c-0.115-0.083-0.437,0.234-0.491,0.113c0.046-0.067,0.431-0.076,0.362-0.227
						c-0.014-0.03-0.135,0.046-0.195,0.083c0.336-0.286,0.449-0.551,0.018-0.474c0.118-0.074,0.32-0.127,0.43-0.228l-0.003-0.001
						c-0.063,0.036-0.188,0.079-0.245,0.115l0.213-0.133l-0.074-0.032c-0.063,0.019-0.124,0.04-0.18,0.074l0.142-0.088
						c-0.064-0.021-0.133-0.037-0.203-0.048c-0.223,0.023-0.466,0.001-0.556,0.058C123.747,149.253,122.998,149.692,122.278,150.165
						z"/>
				</g>
			</g>
		</g>
	</g>
</g>
<g id="_x39__-_Grades_7__x26__8">
</g>
<g id="_x38__-_CS__x28_Binary_Digits_x29_">
</g>
<g id="_x37__-_NS__x28_Blocks_x3B__Prime_factorization_of_12_x29_">
</g>
<g id="_x36__-_LR__x28_Intersection_of_lines_x29_">
</g>
<g id="_x35__-_SS__x28_Pascal_x27_s_triangle_x29_">
</g>
<g id="_x34__-_MT__x28_Cone_and_Sphere_x29_">
</g>
<g id="_x33__-_QR__x28_Suspension_Bridge_x29_">
</g>
<g id="_x32__-_ET__x28_Sine_and_exponential_x29_">
</g>
<g id="_x31__-_IF__x28_Function_diagram_x29_">
</g>
</svg>
