<?xml version="1.0" encoding="utf-8"?>
<!-- Generator: Adobe Illustrator 16.0.0, SVG Export Plug-In . SVG Version: 6.00 Build 0)  -->
<!DOCTYPE svg PUBLIC "-//W3C//DTD SVG 1.1//EN" "http://www.w3.org/Graphics/SVG/1.1/DTD/svg11.dtd">
<svg version="1.1" xmlns="http://www.w3.org/2000/svg" xmlns:xlink="http://www.w3.org/1999/xlink" x="0px" y="0px" width="130px"
	 height="180px" viewBox="0 0 130 180" enable-background="new 0 0 130 180" xml:space="preserve">
<g id="_x31_3_-_Problem_Solving__x28_Lightbulb_x29_">
</g>
<g id="_x31_2_-_Calculus__x26__Vectors__x28_Unit_Vectors_x29_">
</g>
<g id="_x31_1_-_Advanced_Functions">
</g>
<g id="_x39__-_Grades_7__x26__8">
	<g>
		<linearGradient id="SVGID_1_" gradientUnits="userSpaceOnUse" x1="16.4424" y1="61.541" x2="76.6826" y2="61.541">
			<stop  offset="0.148" style="stop-color:#FFB973"/>
			<stop  offset="0.3213" style="stop-color:#FFBB76"/>
			<stop  offset="0.4639" style="stop-color:#FFC080"/>
			<stop  offset="0.5956" style="stop-color:#FFC892"/>
			<stop  offset="0.7207" style="stop-color:#FFD4AA"/>
			<stop  offset="0.8413" style="stop-color:#FFE4C9"/>
			<stop  offset="0.9568" style="stop-color:#FFF7EF"/>
			<stop  offset="1" style="stop-color:#FFFFFF"/>
		</linearGradient>
		<path fill="url(#SVGID_1_)" d="M30.144,12.305l5.771,1.238l-0.016,2.922l40.784,8.748L73.87,37.738
			c-5.129,4.75-9.435,9.336-12.916,13.759c-3.483,4.423-6.978,9.718-10.485,15.88c-3.506,6.163-6.403,12.027-8.691,17.591
			c-2.287,5.563-5.15,14.167-8.59,25.81l-15.692-3.366c3.103-10.546,6.282-19.202,9.543-25.971
			c3.262-6.767,7.658-13.903,13.191-21.409c5.532-7.506,10.997-13.742,16.389-18.715l-19.89-4.268
			c-2.534-0.543-4.243-0.682-5.128-0.418c-0.885,0.265-1.667,0.822-2.348,1.676s-1.686,2.883-3.017,6.092l-2.1,5.066l-7.694-4.708
			L30.144,12.305z"/>
		<g>
			<g>
				<path fill="none" d="M28.063,7.719l5.768,1.237l-0.013,2.923l40.783,8.748L71.79,33.152c-5.131,4.75-9.436,9.337-12.916,13.76
					c-3.484,4.422-6.979,9.716-10.485,15.879c-3.506,6.164-6.403,12.027-8.692,17.592c-2.287,5.563-5.149,14.167-8.589,25.809
					l-15.692-3.365c3.102-10.547,6.28-19.203,9.541-25.973c3.261-6.767,7.66-13.903,13.191-21.408
					c5.534-7.506,10.997-13.742,16.391-18.715l-19.89-4.266c-2.535-0.545-4.245-0.684-5.129-0.42
					c-0.886,0.264-1.666,0.823-2.347,1.676s-1.686,2.884-3.018,6.093l-2.099,5.065l-7.694-4.707L28.063,7.719z"/>
				<g>
					<path fill="#292D73" d="M26.448,17.746c-0.568,1.274-1.137,2.551-1.7,3.813c-2.583,5.92-5.156,11.818-7.751,17.766
						c1.356,0.851,2.718,1.704,4.086,2.563c0.334-0.787,0.669-1.575,1.005-2.367c0.644-1.583,1.432-3.186,2.27-4.692l0.65-1.134
						l0.339-0.564l0.391-0.625c0.368-0.554,0.721-1.151,1.192-1.574c0.467-0.421,1.164-0.505,1.814-0.611
						c0.321-0.045,0.69-0.08,0.979-0.1l0.719-0.038c0.464-0.017,0.927-0.019,1.393-0.006c0.931,0.028,1.869,0.109,2.835,0.29
						c7.746,1.706,15.629,3.442,23.708,5.221c-1.645,1.523-3.339,3.1-4.968,4.661l-1.19,1.18l-1,1.017l-1.472,1.539
						c-3.365,3.566-6.627,7.493-9.748,11.646c-3.125,4.151-6.112,8.513-8.818,13.029c-2.71,4.521-5.091,9.189-7.067,13.973
						c-1.991,4.778-3.681,9.606-5.192,14.31c1.806-5.517,3.799-11.008,6.165-16.327c2.357-5.308,5.22-10.41,8.403-15.345
						c3.183-4.929,6.67-9.707,10.359-14.29c1.851-2.286,3.761-4.519,5.748-6.671c1.061-1.131,1.724-1.875,3.687-3.808
						c1.701-1.655,3.507-3.332,5.258-4.96c-7.883-1.746-15.747-3.487-23.571-5.221c-0.98-0.208-1.931-0.306-2.874-0.35
						c-0.472-0.021-0.94-0.026-1.41-0.018c-0.492,0.015-0.851,0.02-1.627,0.1c-0.683,0.083-1.388,0.173-1.963,0.478
						c-0.533,0.354-0.919,0.961-1.305,1.532l-0.466,0.728l-0.35,0.57l-0.67,1.147c-0.866,1.525-1.681,3.143-2.354,4.763
						l-0.472,1.104l-0.17,0.375l-0.328,0.717l-0.609-0.405l-0.292-0.195l-0.665-0.424l-0.954-0.601l-0.449-0.283l-0.136-0.092
						l-0.52-0.354c2.605-5.857,5.186-11.659,7.739-17.399c-1.488,4.345-3.384,9.487-5.863,15.359l-0.462,1.071l-0.231,0.535
						c-0.043,0.099-0.015,0.028-0.026,0.051c-0.008,0.003-0.017,0.01-0.028,0.021c0,0.007,0.004,0.016,0.011,0.026l0.006,0.009
						l0.459,0.286l0.958,0.596l0.479,0.298c0.089,0.056,0.03,0.021,0.052,0.037l0.022,0.022l0.059,0.055l0.034-0.046l0.019-0.029
						l0.01-0.016l0.005-0.008l0.052-0.122c0.494-1.182,1.079-2.584,1.729-3.845c0.645-1.274,1.327-2.497,2.081-3.719l0.363-0.575
						c0.173-0.272,0.353-0.539,0.536-0.802c0.362-0.531,0.774-1.014,1.293-1.292c0.519-0.299,1.155-0.413,1.783-0.511
						c0.316-0.045,0.635-0.081,0.956-0.108l0.686-0.045c1.539-0.068,3.043-0.013,4.658,0.269l3.986,0.863
						c2.578,0.564,5.152,1.128,7.721,1.691c-0.029,0.133-0.084,0.393-0.113,0.523c1.921,0.399,3.837,0.798,5.747,1.194
						c2.59,0.553,5.26,1.091,7.795,1.661c-2.588,2.453-5.341,4.966-7.769,7.492c-1.352,1.412-2.642,2.83-3.915,4.288
						c-2.542,2.909-4.952,5.927-7.272,9.005c-4.631,6.166-8.899,12.542-12.442,19.252c-3.53,6.685-6.252,13.858-8.675,21.166
						l-1.335,4.179l-0.134,0.437c0.066,0.08,0.271,0.078,0.401,0.122l1.357,0.295c3.132,0.666,6.272,1.334,9.428,2.005
						c0.321-1.097,0.643-2.196,0.965-3.298c0.539-1.78,1.079-3.564,1.62-5.355c1.102-3.576,2.24-7.166,3.489-10.772
						c-0.592,1.422-0.384,0.527-0.358,0.196c0.036-0.1,0.071-0.195,0.104-0.289c-0.034,0.094-0.068,0.189-0.104,0.289
						c0.03-0.297-0.101-0.151-0.992,2.387c0.891-2.538,1.022-2.684,0.992-2.387c-1.276,3.559-2.435,7.104-3.548,10.631
						c-0.545,1.765-1.087,3.523-1.628,5.274c-0.282,0.942-0.563,1.881-0.842,2.815c-3.025-0.646-6.037-1.29-9.039-1.932
						l-1.062-0.229c-0.074-0.024-0.195-0.021-0.23-0.07l0.076-0.25l1.242-3.927c2.395-7.302,5.076-14.469,8.568-21.14
						c3.505-6.7,7.748-13.076,12.377-19.227c2.319-3.07,4.734-6.075,7.285-8.963c1.278-1.448,2.573-2.854,3.933-4.25
						c2.587-2.67,5.566-5.348,8.389-7.995c-4.132-0.903-8.376-1.832-12.636-2.764c4.234,0.92,8.463,1.838,12.675,2.753
						c-2.788,2.624-5.754,5.293-8.334,7.959c-1.415,1.46-2.65,2.809-3.935,4.269c-2.532,2.882-4.937,5.887-7.25,8.963
						c-4.615,6.163-8.86,12.573-12.361,19.305c-3.487,6.7-6.159,13.902-8.542,21.215l-1.177,3.748l-0.047,0.16
						c0.044,0.019,0.107,0.025,0.16,0.038l0.977,0.207c2.924,0.622,5.85,1.246,8.778,1.869l0.876-2.921l1.719-5.539
						c1.174-3.691,2.393-7.379,3.749-11.065c2.73-7.438,6.224-14.537,10.089-21.411c3.878-6.865,8.211-13.634,13.501-19.81
						c2.626-3.075,5.418-5.988,8.317-8.787l1.654-1.574c0.071-0.061,0.068-0.075,0.069-0.094l0.047-0.21l0.325-1.449
						c0.434-1.934,0.868-3.87,1.303-5.811l0.27-1.203l-4.067-1.018c-10.935-3.155-21.939-6.05-32.965-8.811
						c2.917,0.034-7.788-4.037,14.217,1.75c0.033-0.131,0.099-0.393,0.131-0.523c-5.91-1.668-10.885-3.194-14.283-4.364
						c-3.631-2.091-5.772-3.539-5.742-3.941c0.004-0.206,0.528-0.162,1.625,0.169c0.548,0.165,1.24,0.401,2.081,0.714
						c0.806,0.311,1.715,0.662,2.747,1.06l0.074,0.001l0.333,0.066c0.227,0.046,0.458,0.093,0.695,0.141
						c0.479,0.101,0.979,0.205,1.503,0.314c1.059,0.232,2.207,0.484,3.445,0.757c5.196,1.185,10.74,2.505,16.537,3.92
						c6.75,1.678,13.794,3.43,21.032,5.229c-0.716,3.174-1.438,6.376-2.167,9.602c-0.251,1.109-0.504,2.224-0.757,3.34l-0.403,1.777
						l-0.368,1.632c-0.273,0.416-0.704,0.699-1.048,1.056l-1.506,1.413l-1.222,1.178c-0.814,0.787-1.612,1.591-2.406,2.399
						c-1.583,1.622-3.124,3.287-4.602,4.998c-5.896,6.803-10.72,14.671-14.913,22.604c-3.238,6.131-6.088,12.353-8.331,18.858
						c-1.149,3.264-2.226,6.58-3.272,9.91l-1.545,5.011l-2.383,7.981c-5.412-1.176-10.822-2.352-16.236-3.527l-3.142-0.691
						l-1.566-0.345l-0.782-0.173l-0.391-0.086l0.115-0.386l1.862-6.15l1.062-3.283l1.064-3.119
						c1.843-5.227,3.879-10.502,6.357-15.713c2.491-5.219,5.427-10.229,8.626-15.061c3.206-4.831,6.645-9.489,10.322-13.991
						c1.837-2.251,3.75-4.446,5.731-6.581l1.505-1.584l0.314-0.323l0.064-0.062l0.14-0.133l0.61-0.547
						c-0.147-0.07-0.406-0.115-0.619-0.178l-0.346-0.09l-1.196-0.273c-2.374-0.534-4.74-1.067-7.095-1.598
						c-1.176-0.267-2.35-0.533-3.521-0.799l-1.753-0.4l-0.782-0.173c-0.238-0.045-0.483-0.083-0.732-0.115
						c-0.5-0.063-1.019-0.102-1.54-0.116l-0.783-0.005l-0.686,0.023c-0.152,0.021-0.352-0.019-0.473,0.087l-0.152,0.197
						l-0.084,0.118l-0.204,0.316c-0.848,1.36-1.732,2.969-2.499,4.684c-1.095,2.647-2.253,5.448-3.434,8.302
						c-3.929-2.386-7.958-4.831-11.81-7.17c1.649-3.908,3.21-7.605,4.527-10.727c1.104-2.559,2.03-4.624,2.667-5.876
						c1.768-3.688,2.095-3.725,2.147-3.024c-2.74,6.454-5.477,12.901-8.172,19.251c3.462,2.125,6.853,4.206,10.229,6.277
						c0.633-1.522,1.265-3.042,1.896-4.56l0.734-1.764c0.219-0.531,0.424-1.005,0.657-1.506c0.46-0.988,0.965-1.965,1.5-2.92
						c0.268-0.478,0.544-0.95,0.827-1.414l0.336-0.536l0.261-0.382c0.067-0.16,0.243-0.164,0.392-0.191
						c0.152-0.024,0.305-0.042,0.458-0.056l0.657-0.04l0.779-0.017c1.039,0.003,2.079,0.086,3.035,0.289
						c2.192,0.477,4.38,0.952,6.565,1.428l6.715,1.487l2.021,0.458l0.847,0.194l0.418,0.096l0.208,0.048l0.104,0.024
						c0.044,0.005,0.074,0.014,0.023,0.046c-0.435,0.395-0.86,0.786-1.27,1.184L49.318,39.5l-0.872,0.89
						c-1.587,1.646-3.121,3.338-4.613,5.063c-2.983,3.452-5.797,7.033-8.487,10.703c-5.363,7.342-10.272,15.125-14.026,23.535
						c3.723-8.237,8.582-15.957,13.943-23.304c2.688-3.672,5.507-7.274,8.507-10.762c1.501-1.742,3.044-3.457,4.646-5.127
						l0.92-0.945l0.629-0.621c0.424-0.415,0.863-0.823,1.309-1.232c0.052-0.032,0.022-0.042-0.024-0.047l-0.107-0.023l-0.214-0.049
						l-0.43-0.096l-0.868-0.194l-2.042-0.452c-2.241-0.488-4.486-0.979-6.734-1.469l-6.599-1.461
						c-0.964-0.206-2.012-0.29-3.056-0.294l-0.783,0.015l-0.642,0.038c-0.157,0.014-0.315,0.031-0.472,0.057
						c-0.079,0.013-0.157,0.027-0.234,0.047c-0.073,0.026-0.105,0.114-0.156,0.171c-0.206,0.289-0.299,0.429-0.627,0.956
						c-0.285,0.463-0.563,0.936-0.832,1.412c-0.539,0.953-1.046,1.927-1.508,2.91c-0.234,0.5-0.44,0.97-0.661,1.5l-0.737,1.749
						l-1.847,4.399l-9.973-6.173l7.982-18.546c-0.008,0.727,0.006,1.434,0.688,0.505c0,0,2.211-5.237,3.317-7.856
						c5.047-10.22,4.809-7.226,3.223-1.733C27.494,14.467,26.992,16.04,26.448,17.746z"/>
				</g>
			</g>
		</g>
	</g>
	<g>
		<linearGradient id="SVGID_2_" gradientUnits="userSpaceOnUse" x1="57.6221" y1="122.7383" x2="117.9492" y2="122.7383">
			<stop  offset="0.148" style="stop-color:#FFB973"/>
			<stop  offset="0.3213" style="stop-color:#FFBB76"/>
			<stop  offset="0.4639" style="stop-color:#FFC080"/>
			<stop  offset="0.5956" style="stop-color:#FFC892"/>
			<stop  offset="0.7207" style="stop-color:#FFD4AA"/>
			<stop  offset="0.8413" style="stop-color:#FFE4C9"/>
			<stop  offset="0.9568" style="stop-color:#FFF7EF"/>
			<stop  offset="1" style="stop-color:#FFFFFF"/>
		</linearGradient>
		<path fill="url(#SVGID_2_)" d="M97.025,114.492c5.038,1.308,9.359,3.821,12.963,7.542c2.814,2.86,4.95,6.803,6.409,11.827
			c2.224,7.662,2.058,14.545-0.5,20.643c-2.87,6.781-8.061,11.261-15.571,13.441c-5.017,1.456-9.689,1.563-14.017,0.322
			c-4.327-1.239-7.918-3.41-10.77-6.51c-2.853-3.098-4.838-6.573-5.956-10.425c-1.168-4.021-1.289-8.14-0.364-12.357
			c0.924-4.218,3.123-8.215,6.593-11.993c-4.211-1.364-7.745-3.676-10.6-6.932c-2.854-3.258-4.937-7.148-6.249-11.67
			c-1.3-4.479-1.657-8.781-1.063-12.902c0.592-4.121,2.29-7.85,5.093-11.183c2.805-3.333,6.465-5.655,10.983-6.967
			c5.71-1.658,11.146-1.204,16.307,1.36c5.164,2.564,8.681,7.072,10.551,13.519c1.095,3.769,1.402,7.415,0.921,10.937
			C101.273,106.665,99.698,110.447,97.025,114.492z M85.574,130.482c-2.053,2.867-3.361,5.687-3.924,8.46
			c-0.562,2.774-0.52,5.271,0.124,7.489c0.511,1.758,1.447,3.383,2.811,4.871c1.363,1.487,3.074,2.512,5.13,3.072
			c2.057,0.562,4.262,0.499,6.618-0.185c2.328-0.677,4.236-1.763,5.725-3.263c1.487-1.498,2.396-3.079,2.727-4.74
			c0.327-1.662,0.249-3.329-0.236-5.004c-0.607-2.094-1.582-3.695-2.927-4.803c-1.942-1.617-4.867-2.945-8.776-3.99L85.574,130.482z
			 M87.577,111.446l0.79-3.021c0.536-1.881,0.843-3.309,0.919-4.285c0.147-1.359,0.176-2.58,0.086-3.668
			c-0.09-1.085-0.287-2.152-0.591-3.199c-0.656-2.261-2.02-4.031-4.091-5.316c-2.069-1.281-4.504-1.518-7.303-0.705
			c-2.69,0.78-4.541,2.193-5.556,4.234c-1.015,2.043-1.213,4.131-0.593,6.268c0.547,1.883,1.458,3.367,2.733,4.449
			c1.715,1.455,4.438,2.707,8.169,3.758L87.577,111.446z"/>
		<g>
			<g>
				<path fill="none" d="M93.064,111.469c5.039,1.307,9.358,3.82,12.964,7.541c2.813,2.859,4.95,6.803,6.408,11.828
					c2.225,7.662,2.059,14.543-0.499,20.642c-2.871,6.782-8.062,11.261-15.572,13.44c-5.017,1.457-9.689,1.564-14.016,0.324
					c-4.327-1.24-7.918-3.411-10.77-6.51c-2.854-3.098-4.84-6.574-5.957-10.426c-1.167-4.02-1.289-8.14-0.363-12.357
					c0.923-4.218,3.123-8.215,6.593-11.992c-4.212-1.364-7.745-3.676-10.599-6.933c-2.854-3.258-4.938-7.147-6.25-11.669
					c-1.301-4.48-1.656-8.781-1.064-12.902c0.591-4.121,2.289-7.851,5.094-11.184c2.804-3.334,6.465-5.654,10.982-6.967
					c5.711-1.657,11.146-1.203,16.308,1.361c5.163,2.564,8.68,7.07,10.551,13.518c1.095,3.77,1.401,7.416,0.921,10.936
					C97.313,103.641,95.738,107.424,93.064,111.469z M81.613,127.459c-2.053,2.867-3.361,5.687-3.923,8.459
					c-0.562,2.773-0.52,5.271,0.124,7.488c0.511,1.759,1.447,3.383,2.81,4.871c1.365,1.488,3.074,2.513,5.131,3.072
					c2.057,0.563,4.262,0.5,6.617-0.184c2.329-0.676,4.238-1.762,5.726-3.263c1.488-1.497,2.396-3.079,2.727-4.74
					c0.328-1.661,0.25-3.329-0.236-5.005c-0.608-2.093-1.583-3.694-2.928-4.803c-1.941-1.615-4.866-2.945-8.777-3.99L81.613,127.459
					z M83.617,108.423l0.79-3.021c0.535-1.88,0.842-3.31,0.919-4.284c0.147-1.359,0.176-2.582,0.087-3.668
					c-0.091-1.086-0.288-2.152-0.592-3.199c-0.656-2.262-2.019-4.033-4.091-5.316c-2.069-1.282-4.504-1.518-7.304-0.705
					c-2.689,0.779-4.54,2.192-5.555,4.234c-1.016,2.043-1.214,4.131-0.594,6.267c0.548,1.884,1.459,3.368,2.734,4.448
					c1.715,1.457,4.438,2.709,8.168,3.76L83.617,108.423z"/>
				<g>
					<path fill="#292D73" d="M82.168,109.332c-0.264-0.026-0.529-0.054-0.785-0.08c-0.623-0.041-1.22-0.081-1.805-0.12
						c-0.305-0.016-0.606-0.03-0.905-0.045l-0.74-0.018c-0.243-0.047-0.479-0.145-0.718-0.213c-1.268-0.419-2.432-0.841-3.667-1.369
						c-1.218-0.528-2.452-1.142-3.658-1.988c-1.195-0.813-2.424-2.071-3.149-3.491c-0.513-1.01-0.875-2.056-1.146-3.164
						c-0.264-1.129-0.365-2.347-0.235-3.544c0.124-1.198,0.474-2.357,0.961-3.39c0.491-1.07,1.223-2.07,2.068-2.827
						c-1.021,0.867-1.863,2.076-2.375,3.272c-0.537,1.205-0.867,2.566-0.888,3.946c-0.032,1.376,0.265,2.759,0.706,3.965
						c0.449,1.237,1.099,2.476,2.037,3.53c0.952,1.086,2.025,1.847,3.095,2.508c1.076,0.653,2.166,1.186,3.251,1.668
						c0.543,0.235,1.086,0.466,1.627,0.678l0.811,0.315l0.415,0.155l0.677,0.229c0.661,0.053,1.331,0.105,2.012,0.159
						c0.526,0.052,1.061,0.104,1.606,0.157c-0.43,0.161-0.901,0.306-1.416,0.412c-0.257,0.053-0.525,0.096-0.803,0.126
						c-0.15,0.012-0.29,0.023-0.425,0.034c-0.284,0.006-0.554,0.011-0.832,0.016c-0.359-0.01-0.698-0.19-1.046-0.276l-0.572-0.193
						l-1.096-0.394c-0.73-0.275-1.459-0.569-2.188-0.896c-1.454-0.657-2.916-1.417-4.343-2.521c0.082-0.108,0.242-0.321,0.323-0.428
						c-1.018-0.688-2.02-1.706-2.701-2.773c-0.706-1.079-1.172-2.229-1.482-3.37c-0.689-2.393-0.423-5.177,0.63-7.352
						c0.481-1.077,1.239-2.229,2.153-3.099c0.912-0.896,1.971-1.574,3.045-2.092c1.086-0.513,2.159-0.871,3.294-1.152
						c1.143-0.275,2.376-0.444,3.683-0.409c-0.362-0.099-0.137-0.192-0.049-0.273l0.075,0.005l-0.075-0.005
						c0.078-0.068,0.04-0.14-0.627-0.174c0.667,0.034,0.705,0.105,0.627,0.174c-1.311-0.099-2.567,0.032-3.729,0.285
						c-1.154,0.258-2.241,0.607-3.349,1.129c-1.096,0.52-2.177,1.221-3.11,2.141c-0.937,0.893-1.706,2.076-2.199,3.18
						c-0.505,1.11-0.864,2.348-0.993,3.63c-0.135,1.283-0.02,2.591,0.275,3.811c0.297,1.182,0.706,2.314,1.345,3.453
						c0.617,1.123,1.529,2.214,2.54,3.061c-1.617-1.316-2.841-3.174-3.483-4.968c-0.676-1.727-1.05-3.884-0.742-5.916
						c0.144-1.018,0.423-2.004,0.807-2.907c0.354-0.871,0.902-1.85,1.566-2.662c1.343-1.668,3.153-2.78,4.902-3.45
						c1.731-0.652,3.549-1.073,5.606-1.023c1.017,0.034,2.065,0.211,3.073,0.539c0.5,0.173,0.996,0.367,1.464,0.61
						c0.239,0.114,0.464,0.247,0.69,0.378c0.229,0.132,0.51,0.322,0.734,0.49c1.804,1.411,2.795,2.937,3.705,4.519
						c0.44,0.796,0.827,1.612,1.163,2.489c0.088,0.233,0.154,0.414,0.251,0.706c0.111,0.354,0.23,0.711,0.256,1.084l0.055,0.831
						l0.029,0.623c0.025,0.563,0.05,1.688,0.045,2.268c-0.118,0.672-0.223,1.275-0.32,1.827c-0.034,0.172-0.068,0.341-0.101,0.505
						c-0.041,0.171-0.08,0.338-0.119,0.502c-0.082,0.3-0.161,0.588-0.237,0.867c-0.314,1.104-0.604,2.153-0.881,3.226
						c-0.537-0.698-2.324,1.072-1.067-3.068c-0.132-0.029-0.396-0.087-0.527-0.115c-0.794,2.024-1.817,3.263-2.52,3.461
						c-0.714,0.202-1.093-0.577-0.86-2.633c0.086-0.618,0.167-1.198,0.247-1.769c0.041-0.29,0.081-0.576,0.121-0.863
						c0.038-0.284,0.04-0.408,0.056-0.702c0.038-1.068,0.015-2.533-0.037-3.879l-0.009-0.22c-0.003-0.055,0-0.024,0.001-0.041
						c0.004-0.012-0.003-0.021-0.002-0.035c-0.068-0.226-0.18-0.531-0.29-0.802c-0.226-0.56-0.501-1.125-0.809-1.654
						c-0.588-1.041-1.44-2.023-1.983-2.28c-1.083-0.61-2.314-0.755-3.822-0.459c-0.746,0.143-1.579,0.4-2.232,0.684
						c-0.667,0.293-1.219,0.628-1.679,1.024c-0.317,0.28-0.59,0.58-0.825,1.001c-0.263,0.46-0.455,0.929-0.578,1.404
						c-0.241,0.958-0.211,1.919,0.134,3.035c0.342,1.116,0.84,2.041,1.546,2.741c0.753,0.766,1.869,1.491,3.019,2.143
						c0.854,0.454,2.167,0.858,3.386,1.188c0.125,0.033,0.249,0.066,0.369,0.099c0.043,0.005,0.079,0.026,0.124,0.02
						c0.215,0.004,0.417,0.007,0.61,0.01c0.534,0.019,0.969,0.067,1.236,0.168c0.769,0.19,0.8,0.478,0.685,0.799
						c-0.85-0.007-1.697-0.014-2.543-0.02c-0.126,0.012-0.242-0.025-0.357-0.065l-0.569-0.177c-0.403-0.127-0.802-0.261-1.196-0.402
						c-1.571-0.563-3.097-1.226-4.375-2.083c-0.787-0.551-1.403-1.131-1.875-1.825c-0.487-0.691-0.826-1.508-1.063-2.377
						c-0.492-1.716-0.287-3.333,0.512-4.802c-0.832,1.412-1.083,3.045-0.593,4.771c0.238,0.876,0.582,1.708,1.083,2.408
						c0.489,0.702,1.124,1.281,1.936,1.825c1.258,0.882,2.76,1.581,4.304,2.183c0.387,0.151,0.779,0.295,1.175,0.433l0.583,0.2
						c0.125,0.037,0.245,0.107,0.381,0.099c0.827,0.03,1.656,0.062,2.488,0.092c-0.125,0.276-0.245,0.564-0.033,0.83
						c0,0,1.068-0.005,1.603-0.007c2.141,0.665,1.609,1.612,0.545,2.292C82.814,109.021,82.509,109.177,82.168,109.332z"/>
				</g>
				<g>
					<path fill="#292D73" d="M84.447,125.708c0.308,0.11,0.618,0.221,0.918,0.327c1.419,0.481,2.829,0.907,4.286,1.357
						c0.755,0.252,1.507,0.501,2.26,0.752c0.756,0.246,1.505,0.606,2.263,0.907c1.509,0.657,3.022,1.494,4.453,2.628
						c1.517,1.202,2.637,2.978,3.244,4.75c0.417,1.244,0.709,2.61,0.779,4.024c0.013,1.428-0.083,2.819-0.596,4.278
						c-0.525,1.389-1.286,2.673-2.216,3.675c-0.232,0.254-0.439,0.528-0.693,0.76l-0.769,0.685c-0.491,0.482-1.08,0.807-1.622,1.179
						l0.989-0.628c0.332-0.209,0.613-0.492,0.921-0.739c0.633-0.489,1.137-1.089,1.668-1.673c0.994-1.244,1.859-2.721,2.242-4.431
						c0.335-1.604,0.342-3.284,0.041-4.89c-0.296-1.611-0.877-3.084-1.739-4.551l-0.735-1.054c-0.28-0.329-0.597-0.635-0.901-0.948
						c-0.305-0.341-0.627-0.539-0.944-0.786l-0.958-0.714c-1.309-0.836-2.653-1.563-4.007-2.122l-1.013-0.447L91.3,127.68
						c-0.667-0.241-1.339-0.484-2.016-0.729c-1.28-0.427-2.545-0.862-3.792-1.31c1.113-0.038,2.411,0.04,3.847,0.416
						c1.782,0.567,3.647,1.179,5.44,2.003c0.902,0.367,1.801,0.943,2.689,1.411c0.442,0.268,0.875,0.613,1.309,0.921
						c0.432,0.323,0.857,0.598,1.295,1.071c-0.093,0.1-0.275,0.294-0.367,0.392c1.295,1.066,2.088,2.476,2.75,3.829
						c0.522,1.358,1.002,2.78,1.078,4.305c0.047,0.375,0.059,0.751,0.038,1.129c-0.015,0.377-0.009,0.756-0.053,1.128
						c-0.111,0.743-0.193,1.47-0.471,2.249c-0.201,0.787-0.585,1.457-0.936,2.147c-0.396,0.639-0.827,1.26-1.292,1.81
						c-0.497,0.516-0.93,1.076-1.51,1.522c-0.548,0.473-1.098,0.94-1.719,1.298l-0.906,0.573l-0.952,0.457
						c-0.319,0.145-0.633,0.317-0.958,0.437l-0.978,0.342c-2.589,0.879-5.55,1.319-8.588,0.711c0.409,0.157,0.131,0.213,0.018,0.278
						l-0.087-0.018l0.087,0.018c-0.1,0.056-0.067,0.128,0.704,0.28c-0.771-0.152-0.804-0.225-0.704-0.28
						c3.023,0.731,6.056,0.334,8.663-0.55c0.659-0.227,1.317-0.447,1.953-0.786l0.958-0.47c0.313-0.172,0.612-0.385,0.917-0.578
						c0.301-0.201,0.609-0.392,0.901-0.607l0.832-0.714c0.578-0.462,1.038-1.009,1.518-1.545c0.491-0.513,0.882-1.199,1.313-1.804
						c0.186-0.34,0.355-0.696,0.528-1.048c0.18-0.348,0.336-0.71,0.442-1.106c0.119-0.387,0.236-0.777,0.34-1.166l0.171-1.116
						c0.068-0.372,0.079-0.75,0.088-1.13c0.002-0.379,0.041-0.762,0.003-1.138c-0.074-1.521-0.428-3.005-0.934-4.378
						c-0.221-0.699-0.634-1.401-0.966-2.098l-0.694-1.014l-0.359-0.503l-0.436-0.462c0.908,0.948,1.592,2.048,2.096,3.136
						c0.3,0.547,0.445,1.093,0.645,1.642c0.207,0.536,0.342,1.115,0.462,1.699c0.258,1.16,0.323,2.38,0.266,3.582
						c-0.032,0.6-0.144,1.191-0.226,1.785c-0.164,0.618-0.334,1.259-0.556,1.854c-0.269,0.563-0.519,1.158-0.837,1.677
						c-0.336,0.494-0.66,1.021-1.027,1.474c-0.378,0.433-0.754,0.867-1.147,1.288l-1.317,1.16c-1.859,1.438-3.948,2.357-6.074,2.945
						c-2.114,0.623-4.555,0.762-6.902,0.3c-2.316-0.461-4.555-1.483-6.414-3.109c-0.943-0.826-1.68-1.688-2.366-2.63
						c-0.676-0.959-1.269-2.008-1.717-3.134c-0.47-1.136-0.701-2.301-0.924-3.469l-0.144-1.749
						c-0.062-0.588,0.016-1.146,0.023-1.723c-0.02-0.801,0.252-2.288,0.362-3.043c1-2.987,2.393-5.609,3.922-8.04
						c0.092,0.478,0.811,0.302,1.088,0.587c0.14,0.14,0.173,0.391-0.026,0.877c-0.2,0.488-0.538,1.271-1.242,2.443
						c0.123,0.057,0.367,0.17,0.49,0.228c1.487-2.268,3.108-3.326,3.845-3.368c0.795-0.032,0.777,0.994-0.21,3.131
						c-1.106,2.417-2.005,5.148-2.091,8.171c0.016,1.441,0.195,2.884,0.764,4.099c0.283,0.619,0.654,1.213,1.09,1.773
						c0.24,0.263,0.465,0.565,0.707,0.795l0.724,0.627l0.579,0.367l0.284,0.189l0.319,0.141l0.625,0.297l0.691,0.207
						c0.455,0.189,0.914,0.176,1.361,0.288c0.461,0.035,0.927,0.045,1.4,0.041c1.899-0.125,4.095-0.81,5.729-1.79
						c1.109-0.665,2.216-1.761,2.791-2.839c0.563-0.986,0.774-2.438,0.604-3.819c-0.058-0.349-0.135-0.696-0.204-1.05l-0.34-1.065
						l-0.432-0.954c-0.162-0.294-0.357-0.539-0.52-0.827c-0.202-0.239-0.418-0.451-0.616-0.7l-0.891-0.702
						c-0.151-0.116-0.283-0.249-0.449-0.356l-0.515-0.313c-0.337-0.212-0.677-0.426-1.021-0.642
						c-0.532-0.27-1.216-0.521-1.919-0.795c-0.709-0.268-1.524-0.439-2.261-0.663c-1.501-0.418-3.016-0.772-3.581-1.143
						c-0.869-0.429-0.833-0.716-0.61-0.989c1.049,0.286,2.097,0.571,3.143,0.855c1.055,0.279,2.006,0.617,3.012,0.919
						c1.912,0.728,3.848,1.502,5.309,2.698c0.517,0.331,0.802,0.744,1.179,1.112c0.279,0.462,0.626,0.854,0.824,1.387
						c0.108,0.256,0.251,0.485,0.335,0.758l0.254,0.817c0.101,0.27,0.151,0.544,0.196,0.817c0.039,0.273,0.129,0.542,0.126,0.816
						c0.141,1.072-0.019,2.206-0.312,3.168c-0.257,0.936-0.879,1.79-1.594,2.582c0.725-0.757,1.355-1.593,1.633-2.524
						c0.318-0.944,0.479-2.09,0.347-3.169c-0.117-1.074-0.417-2.254-0.922-3.245c-0.208-0.535-0.557-0.942-0.853-1.403
						c-0.385-0.376-0.684-0.786-1.214-1.116c-1.438-1.22-3.35-2.026-5.229-2.797c-0.988-0.32-1.933-0.676-2.96-0.979
						c-1.023-0.304-2.048-0.607-3.076-0.913c0.222-0.227,0.44-0.466,0.256-0.79c0,0-1.279-0.336-1.918-0.503
						c-2.388-1.324-1.508-2.07-0.059-2.389C83.593,125.804,83.999,125.75,84.447,125.708z"/>
				</g>
				<g>
					<path fill="#292D73" d="M94.375,103.658l0.542-1.407c0.136-0.474,0.229-0.95,0.349-1.423c0.332-1.075,0.334-2.258,0.481-3.401
						l-0.022-1.744c0.019-0.583-0.05-1.165-0.131-1.748c-0.082-0.581-0.119-1.169-0.234-1.749l-0.395-1.739
						c-0.108-0.587-0.305-1.148-0.489-1.715c-0.187-0.564-0.345-1.146-0.597-1.677c-1.674-4.449-4.922-8.047-9.298-9.964
						c-2.187-0.992-4.531-1.603-6.942-1.742c-2.41-0.146-4.878,0.181-7.297,0.879c-2.412,0.719-4.718,1.788-6.75,3.285
						c-1.999,1.513-3.787,3.437-5.167,5.67c-1.909,2.963-2.974,6.489-3.083,10.292c-0.149,3.764,0.565,7.66,1.869,11.316
						c1.288,3.659,3.316,7.021,5.872,9.8c1.292,1.359,2.742,2.537,4.302,3.501c0.396,0.23,0.774,0.489,1.189,0.685l0.85,0.418
						c0.327,0.163,0.659,0.321,1.023,0.45c1.421,0.567,2.826,1.078,4.219,1.569c-0.611,0.764-1.317,1.527-1.951,2.276
						c0.648-0.759,1.368-1.53,1.974-2.282c-1.654-0.599-3.378-1.215-5.024-1.94l-0.591-0.289l-0.458-0.23
						c-0.241-0.121-0.478-0.25-0.704-0.397c-0.456-0.288-0.929-0.548-1.357-0.876c-1.758-1.245-3.36-2.716-4.673-4.477
						c-2.738-3.428-4.571-7.568-5.569-11.917c-0.999-4.316-1.096-8.906,0.051-13.044c0.603-2.063,1.566-4.006,2.8-5.779
						c1.246-1.786,2.715-3.362,4.417-4.641c1.696-1.288,3.626-2.26,5.666-2.96c2.046-0.702,4.181-1.132,6.287-1.214
						c2.109-0.09,4.206,0.145,6.213,0.73c1.997,0.612,3.938,1.533,5.595,2.676c1.689,1.136,3.067,2.646,4.197,4.323
						c0.604,0.812,1.031,1.755,1.514,2.65c0.38,0.963,0.821,1.886,1.092,2.901c0.653,1.977,0.989,4.041,1.181,6.05
						c0.043,0.505,0.012,1.008,0.025,1.509c-0.016,0.5,0.05,1.005-0.035,1.497c-0.125,0.982-0.153,1.991-0.441,2.9
						c0.291-3.172-0.006-7.058-1.456-11.375c-0.804-2.6-1.995-4.978-3.625-6.91c-1.632-1.948-3.67-3.403-6.09-4.44
						c-2.401-1.032-4.942-1.589-7.525-1.52c-2.567,0.054-5.22,0.638-7.657,1.624c-0.052-0.126-0.154-0.372-0.205-0.495
						c-2.19,0.921-4.154,2.2-5.809,3.796c-1.646,1.577-3.098,3.508-4.114,5.544c-1.035,2.046-1.722,4.225-1.941,6.534
						c-0.096,1.165-0.256,2.325-0.168,3.503c0.021,0.587,0.008,1.174,0.051,1.76l0.23,1.759c0.702,4.688,2.306,9.334,5.069,13.101
						c1.376,1.906,2.904,3.648,4.77,4.998c0.47,0.329,0.922,0.685,1.422,0.97l0.734,0.453l0.383,0.201l0.202,0.104l0.37,0.179
						c0.949,0.506,2.071,0.875,3.127,1.293l3.169,1.161c-0.85,1.018-1.788,2.025-2.651,3.071l-1.308,1.568
						c-0.222,0.254-0.43,0.533-0.634,0.819l-0.35,0.5c-0.832,1.174-1.518,2.426-2.103,3.712c-0.597,1.287-0.996,2.634-1.306,4.01
						c-0.21,1.419-0.508,2.836-0.469,4.269l-0.034,1.071c-0.017,0.358,0.06,0.711,0.083,1.067c0.087,0.708,0.11,1.426,0.241,2.129
						l0.49,2.097c0.142,0.705,0.473,1.358,0.697,2.042c1.072,2.666,2.547,5.2,4.598,7.327c-0.646-0.899-0.145-0.463,0.064-0.347
						c0.048,0.059,0.094,0.114,0.139,0.168c-0.044-0.054-0.091-0.109-0.139-0.168c0.186,0.108,0.156-0.032-1.06-1.492
						c1.215,1.46,1.246,1.601,1.06,1.492c-1.967-2.135-3.366-4.643-4.355-7.271c-0.552-1.306-0.787-2.692-1.112-4.054
						c-0.118-1.388-0.359-2.769-0.229-4.164c-0.04-1.396,0.285-2.776,0.475-4.161c0.313-1.331,0.709-2.638,1.285-3.891
						c0.576-1.249,1.237-2.472,2.049-3.62l0.148-0.217l0.22-0.31c0.218-0.31,0.445-0.603,0.683-0.874l1.401-1.677
						c0.929-1.116,1.909-2.192,2.831-3.281l-3.353-1.216c-1.11-0.439-2.32-0.807-3.313-1.332c-0.636-0.298-0.77-0.376-1.03-0.509
						c-0.244-0.132-0.473-0.286-0.711-0.427c-0.481-0.273-0.927-0.598-1.376-0.918c-1.798-1.287-3.333-2.889-4.656-4.744
						c-2.704-3.605-4.423-8.017-5.162-12.582l-0.221-1.703c-0.033-0.284-0.085-0.568-0.104-0.852l-0.016-0.852l-0.039-1.704
						c-0.004-0.566,0.093-1.126,0.131-1.689c0.132-2.275,0.729-4.367,1.621-6.381c0.919-1.977,2.239-3.862,3.762-5.463
						c1.511-1.604,3.35-2.859,5.372-3.824c-1.991,0.958-3.806,2.204-5.307,3.788c-1.507,1.584-2.814,3.463-3.736,5.423
						c-0.897,1.998-1.482,4.084-1.623,6.346c-0.042,0.562-0.115,1.121-0.138,1.685l0.047,1.7c-0.035,1.134,0.218,2.268,0.342,3.401
						c0.047,0.569,0.21,1.13,0.342,1.692l0.4,1.688c0.325,1.106,0.738,2.183,1.097,3.276c0.506,1.021,0.926,2.09,1.483,3.076
						l0.885,1.449l0.438,0.728l0.522,0.665c1.332,1.846,2.856,3.446,4.65,4.721c0.448,0.316,0.891,0.641,1.371,0.91
						c0.236,0.14,0.465,0.291,0.707,0.423c0.269,0.135,0.373,0.2,1.038,0.509c1.028,0.541,2.285,0.92,3.438,1.372l3.48,1.256
						c-1.214,1.415-2.469,2.818-3.671,4.285l-0.911,1.089c-0.155,0.175-0.295,0.382-0.44,0.576l-0.204,0.279l-0.092,0.136
						c-0.238,0.364-0.509,0.714-0.723,1.089c-0.934,1.466-1.65,3.027-2.177,4.631c-0.535,1.581-0.773,3.326-0.964,5.035
						c-0.008,0.857-0.084,1.717-0.056,2.572l0.253,2.555c0.556,3.395,1.929,6.652,3.973,9.459c1.079,1.374,2.175,2.768,3.464,3.841
						c1.28,1.108,2.708,2.041,4.251,2.788c1.525,0.734,3.238,1.345,4.879,1.683c1.665,0.343,3.381,0.462,5.116,0.38
						c3.453-0.143,7.076-1.188,10.203-2.702c3.16-1.528,5.755-3.876,7.622-6.805c1.859-2.938,3.096-6.375,3.412-9.955
						c0.035-0.505,0.079-1.136,0.126-1.83c-0.011-0.702-0.023-1.469-0.036-2.234c-0.114-1.539-0.293-3.083-0.517-4.108
						c-0.587-4.152-1.824-8.347-3.979-11.755c-0.272-0.425-0.541-0.854-0.853-1.24c-0.292-0.406-0.604-0.795-0.945-1.158
						c-0.313-0.377-0.686-0.742-1.06-1.107c-0.365-0.373-0.74-0.732-1.139-1.057c-1.554-1.356-3.273-2.506-5.118-3.416
						c1.074,0.173-0.095-0.994,0.292-1.219c0.21-0.127,0.833-0.01,2.349,0.737c1.476,0.766,3.914,2.282,6.742,5.66
						c0.104-0.086,0.313-0.257,0.417-0.343c-2.778-3.558-5.91-5.921-8.423-7.491c-2.538-1.564-4.477-2.334-5.245-2.902
						c-0.373-0.258-0.471-0.443-0.271-0.545c0.192-0.109,0.705-0.115,1.593,0.013c0.882,0.11,2.112,0.396,3.676,0.965
						c1.576,0.541,3.454,1.47,5.542,2.865c0.583,0.4,1.171,0.808,1.719,1.274c0.565,0.448,1.127,0.91,1.646,1.417
						c1.071,0.944,2.144,2.146,3.093,3.371c1.87,2.506,3.273,5.354,4.331,8.317c1.046,2.962,1.763,6.067,2.147,9.361
						c0.366,3.281,0.315,6.746-0.409,10.168c-0.72,3.422-2.071,6.747-4.061,9.75c-1.979,3.011-4.681,5.622-7.754,7.514
						c-3.076,1.908-6.431,3.155-9.814,3.897c-3.411,0.733-7.023,0.996-10.555,0.415c-2.556-0.414-4.94-1.176-7.249-2.246
						c-2.304-1.075-4.481-2.508-6.381-4.24c-0.481-0.426-0.917-0.897-1.374-1.349c-0.429-0.465-0.812-0.952-1.217-1.429
						c-0.396-0.483-0.808-0.953-1.187-1.452l-1.042-1.577c-1.403-2.095-2.43-4.447-3.223-6.846
						c-0.407-1.198-0.605-2.464-0.901-3.696c-0.191-1.254-0.27-2.532-0.385-3.798c0.05-1.266,0.047-2.545,0.172-3.8
						c0.213-1.246,0.351-2.484,0.653-3.73c0.613-2.506,1.626-4.892,2.904-7.058c0.33-0.533,0.636-1.088,1.004-1.589l0.535-0.766
						c0.025-0.034-0.004,0.013-0.003,0.015c0.002,0,0.007-0.005,0.011-0.007l0.132-0.095l-0.014-0.015l-0.074-0.068l-0.03-0.023
						l-0.017-0.013l-0.009-0.007l-0.135-0.071c-0.396-0.202-0.782-0.425-1.158-0.669c-1.536-0.913-2.962-2.029-4.275-3.253
						c-0.667-0.605-1.274-1.265-1.875-1.932c-0.577-0.679-1.091-1.396-1.636-2.096c-0.263-0.356-0.549-0.697-0.792-1.067
						l-0.686-1.139c-0.435-0.77-0.958-1.5-1.313-2.309l-1.105-2.411c-0.375-0.803-0.593-1.655-0.894-2.482
						c-0.632-1.648-0.921-3.388-1.344-5.093c-0.585-3.493-0.709-7.103-0.208-10.682c0.569-3.625,1.967-7.168,4.054-10.143
						c2.011-2.964,4.764-5.613,7.913-7.383c3.146-1.831,6.549-2.848,10.034-3.323c3.493-0.462,7.119-0.139,10.39,0.985
						c0.589,0.215,1.221,0.407,1.848,0.665c0.618,0.277,1.258,0.563,1.915,0.858c0.639,0.36,1.296,0.731,1.965,1.109
						c0.646,0.42,1.274,0.899,1.924,1.363c2.522,1.976,4.628,4.689,6.009,7.484c1.415,2.794,2.149,5.608,2.662,8.007
						c0.151,1.227,0.322,2.332,0.366,3.297c0.005,0.971-0.01,1.784-0.044,2.401c-0.38,3.548-0.812,3.604-1.017,3.04
						c0.541-3.927,0.101-7.928-0.991-11.657c-1.098-3.724-2.94-7.354-5.708-10.266l-1.104-1.019l-0.555-0.506l-0.604-0.446
						l-1.214-0.881l-1.295-0.746c-0.853-0.534-1.776-0.86-2.668-1.279c-0.456-0.186-0.931-0.327-1.396-0.491
						c-0.467-0.16-0.932-0.326-1.418-0.423c-1.909-0.535-3.898-0.706-5.869-0.746c-1.966,0.072-3.939,0.255-5.818,0.771
						c-4.622,1.08-9.096,3.49-12.353,7.128c-1.619,1.79-2.995,3.796-4.048,5.998c-1.054,2.193-1.74,4.585-2.036,6.983
						c-0.643,4.779-0.05,9.632,1.341,14.16c1.371,4.559,3.752,8.872,7.039,12.481c-3.192-3.551-5.54-7.78-6.914-12.285
						c-1.39-4.474-2.019-9.282-1.424-14.06c0.25-2.394,0.929-4.791,1.937-7.011c1.016-2.228,2.393-4.262,4-6.08
						c3.24-3.705,7.755-6.197,12.458-7.315c1.876-0.508,3.843-0.68,5.797-0.746c0.979,0.063,1.966,0.022,2.935,0.201
						c0.486,0.072,0.974,0.129,1.456,0.215l1.43,0.345c0.481,0.1,0.944,0.255,1.404,0.421c0.461,0.162,0.926,0.313,1.381,0.486
						l1.33,0.6l0.663,0.302l0.64,0.367l1.277,0.738c0.406,0.278,0.798,0.578,1.196,0.868c0.824,0.547,1.492,1.284,2.227,1.938
						c2.749,2.84,4.546,6.412,5.637,10.058c1.077,3.655,1.533,7.549,1.051,11.374c-0.228-0.596-0.474-1.133-0.811-0.254
						c0,0-0.012,0.288-0.072,0.751c-0.096,0.458-0.229,1.093-0.378,1.798c-0.11,0.718-0.387,1.459-0.641,2.169
						c-0.27,0.703-0.442,1.41-0.723,1.912c-0.579,0.998-1.061,1.835-1.509,2.5c-0.493,0.641-0.904,1.138-1.242,1.51
						c-0.675,0.744-1.059,0.989-1.228,0.878c-0.354-0.233,0.218-1.851,0.949-3.879c0.173-0.519,0.357-1.068,0.551-1.646
						c0.091-0.289,0.211-0.579,0.287-0.887C94.237,104.295,94.306,103.979,94.375,103.658z"/>
				</g>
			</g>
		</g>
	</g>
</g>
<g id="_x38__-_CS__x28_Binary_Digits_x29_">
</g>
<g id="_x37__-_NS__x28_Blocks_x3B__Prime_factorization_of_12_x29_">
</g>
<g id="_x36__-_LR__x28_Intersection_of_lines_x29_">
</g>
<g id="_x35__-_SS__x28_Pascal_x27_s_triangle_x29_">
</g>
<g id="_x34__-_MT__x28_Cone_and_Sphere_x29_">
</g>
<g id="_x33__-_QR__x28_Suspension_Bridge_x29_">
</g>
<g id="_x32__-_ET__x28_Sine_and_exponential_x29_">
</g>
<g id="_x31__-_IF__x28_Function_diagram_x29_">
</g>
</svg>
