<?xml version="1.0" encoding="utf-8"?>
<!-- Generator: Adobe Illustrator 16.0.0, SVG Export Plug-In . SVG Version: 6.00 Build 0)  -->
<!DOCTYPE svg PUBLIC "-//W3C//DTD SVG 1.1//EN" "http://www.w3.org/Graphics/SVG/1.1/DTD/svg11.dtd">
<svg version="1.1" xmlns="http://www.w3.org/2000/svg" xmlns:xlink="http://www.w3.org/1999/xlink" x="0px" y="0px" width="130px"
	 height="180px" viewBox="0 0 130 180" enable-background="new 0 0 130 180" xml:space="preserve">
<g id="_x31_3_-_Problem_Solving__x28_Lightbulb_x29_">
</g>
<g id="_x31_2_-_Calculus__x26__Vectors__x28_Unit_Vectors_x29_">
	<g>
		<path fill="#FFF764" d="M109.044,106.778V59.983l14.579,5.202c-7.92-8.958-15.399-23.411-19.777-35.058
			c-4.382,11.646-11.861,26.1-19.781,35.058l14.582-5.202v50.752l-39.56,39.419l-6.866-13.779
			c-0.564,11.885-5.301,27.402-10.305,38.773c11.32-5.331,26.839-10.54,38.823-11.505l-14.157-6.32l40.556-40.297"/>
		<g>
			<g>
				<g>
					<path fill="#292D73" d="M97.956,125.929c-1.279,1.247-2.562,2.494-3.829,3.729c-8.157,8.024-16.291,16.024-24.549,24.146
						c1.907,0.859,3.821,1.721,5.742,2.586c1.938,0.868,3.879,1.738,5.824,2.61l2.911,1.305l1.455,0.652
						c-0.415,0.085-1.007,0.144-1.501,0.218c-2.091,0.29-4.094,0.535-6.257,0.863l-3.293,0.517l-0.823,0.129l-0.512,0.092
						l-0.977,0.179c-2.589,0.595-5.196,1.18-7.777,1.959c-5.181,1.505-10.322,3.257-15.467,5.436
						c-2.056,0.861-4.03,1.782-6.048,2.67l-1.505,0.671l-0.188,0.084c0.008-0.045,0.048-0.123,0.07-0.183l0.162-0.384l0.322-0.768
						c0.43-1.021,0.859-2.045,1.29-3.07c0.425-1.03,0.873-2.029,1.276-3.083l0.814-2.124l0.758-1.984l0.693-2.018
						c0.545-1.559,1.088-3.135,1.554-4.749c0.496-1.604,0.986-3.225,1.39-4.879c0.214-0.824,0.429-1.651,0.645-2.48
						c0.201-0.832,0.361-1.675,0.545-2.516c0.178-0.842,0.355-1.686,0.534-2.532c0.138-0.908,0.247-1.485,0.441-3.048
						c0.164-1.325,0.38-2.73,0.5-3.99c0.132-1.278,0.264-2.558,0.396-3.839l0.1-0.961l0.049-0.48l0.025-0.24
						c0.007-0.021,0-0.123,0.02-0.076l0.056,0.111l0.886,1.78l1.771,3.561c1.608,3.231,3.223,6.474,4.836,9.713
						c8.868-8.852,17.709-17.676,25.984-25.937c-8.579,8.514-17.247,17.117-25.956,25.761c-2.254-4.543-4.511-9.092-6.771-13.645
						l-0.583-1.174l-0.292-0.587c-0.016-0.044-0.02-0.022-0.021,0.013l-0.008,0.078l-0.017,0.158l-0.033,0.316l-0.264,2.53
						c-0.187,1.707-0.323,3.327-0.578,5.162l-0.347,2.688l-0.076,0.557l-0.064,0.411l-0.127,0.822
						c-0.195,1.094-0.449,2.18-0.67,3.271c-0.41,2.187-1.057,4.33-1.586,6.494l-0.956,3.209c-0.313,1.071-0.642,2.138-1.015,3.189
						l-1.076,3.17l-1.184,3.129l-0.812,2.079l-1.037,2.474l-1.04,2.479l-0.521,1.241l-0.131,0.311
						c-0.013,0.044-0.062,0.122-0.047,0.137l0.153-0.068l0.61-0.272l4.896-2.186l1.23-0.546l1.169-0.49l1.546-0.624
						c2.049-0.863,4.15-1.587,6.232-2.353c4.199-1.424,8.428-2.758,12.718-3.718c1.071-0.236,2.134-0.538,3.214-0.704l0.845-0.149
						l1.398-0.216l2.805-0.433c1.862-0.283,3.559-0.486,5.355-0.735l2.66-0.359l-2.479-1.116c-3.205-1.444-6.404-2.887-9.598-4.326
						l-3.008-1.364l-0.972-0.456c8.238-8.045,16.377-15.992,24.385-23.813c-4.012,4.288-8.864,9.352-14.654,15.106
						c-1.822,1.797-3.642,3.591-5.453,5.378c-0.906,0.894-1.811,1.785-2.713,2.675l-0.338,0.334l-0.069,0.067l-0.004,0.003
						l-0.02,0.015l-0.045,0.035l0.063,0.038l2.017,0.911c2.682,1.204,5.36,2.407,8.035,3.608l4.791,2.149l2.386,1.07
						c-0.731,0.134-1.652,0.24-2.468,0.361l-5.028,0.705l-5.34,0.788l-1.349,0.201l-0.329,0.049l-0.161,0.029l-0.322,0.059
						c-0.429,0.081-0.858,0.149-1.286,0.24l-2.559,0.604c-1.71,0.372-3.397,0.859-5.084,1.343c-3.374,0.958-6.702,2.087-9.986,3.311
						c-0.031-0.085-0.094-0.251-0.126-0.335c-1.275,0.455-2.515,0.993-3.764,1.503l-2.344,0.982l-3.322,1.492l-3.323,1.498
						l-0.831,0.374l-0.208,0.094c-0.067,0.029-0.171,0.096-0.101-0.017l0.174-0.418l0.695-1.673c0.92-2.243,1.874-4.437,2.771-6.729
						c1.992-5.054,3.567-10.08,4.928-15.204c0.703-2.551,1.214-5.129,1.75-7.698l0.149-0.968l0.075-0.484l0.037-0.242l0.057-0.456
						l0.451-3.667c0.163-1.256,0.273-2.357,0.398-3.499l0.368-3.402l0.185-1.697l0.022-0.212c0.003-0.012,0.002-0.047,0.008-0.041
						l0.025,0.05l0.049,0.1l0.197,0.396l0.394,0.794l1.573,3.169l3.13,6.308l2.722,5.52c11.881-11.779,23.707-23.506,35.656-35.354
						c-0.01-6.815-0.02-13.66-0.029-20.556c-0.04-7.096-0.081-14.242-0.122-21.469c-0.048,1.942-0.121,0.79-0.179,0.387
						c-0.001-0.134-0.001-0.263-0.001-0.387c0,0.124,0,0.253,0.001,0.387c-0.052-0.363-0.091-0.14-0.091,3.258
						c0-3.397,0.039-3.621,0.091-3.258c0.012,14.044,0.022,27.843,0.034,41.515c-11.835,11.776-23.54,23.424-35.304,35.128
						l-2.409-4.867l-3.176-6.393l-1.594-3.208l-0.798-1.607l-0.2-0.402c-0.03-0.048-0.075-0.178-0.092-0.157l-0.023,0.215
						l-0.094,0.858l-0.756,6.896l-0.452,3.723l-0.227,1.866l-0.146,0.948c-0.175,1.246-0.499,2.479-0.741,3.722l-0.395,1.861
						l-0.478,1.85c-1.225,4.943-2.814,9.834-4.646,14.646l-0.344,0.903l-0.484,1.242c-0.464,1.186-0.96,2.313-1.44,3.477
						l-1.456,3.473l-0.73,1.742l-0.092,0.219c-0.005,0.046,0.122-0.042,0.176-0.057l0.429-0.191l0.858-0.384
						c2.297-1.024,4.598-2.05,6.901-3.077c1.444-0.62,1.699-0.708,2.377-0.984l1.811-0.73l-1.789,0.725l-0.895,0.361l-1.428,0.602
						l-6.86,3.063l-0.854,0.382l-0.427,0.191l-0.214,0.096l-0.106,0.048c-0.018-0.003,0.021-0.063,0.029-0.092l0.725-1.732
						l1.448-3.46l1.438-3.466l0.525-1.343l0.34-0.899c1.826-4.789,3.403-9.677,4.631-14.623c0.327-1.233,0.635-2.47,0.873-3.716
						c0.244-1.245,0.557-2.482,0.744-3.731l0.144-0.936l0.219-1.792l0.457-3.799l0.772-7.063l0.096-0.879
						c0.021-0.124,0.022-0.346,0.058-0.388l0.204,0.409l0.816,1.639l1.63,3.275l3.257,6.542l2.414,4.853
						c11.723-11.69,23.416-23.351,35.134-35.036c-0.01-14.981-0.021-29.996-0.03-45.097c-3.305,1.182-6.612,2.364-9.926,3.55
						l-4.714,1.684c-1.293,0.362-4.278,1.933-2.146-0.152c2.006-2.577,3.907-4.976,6.095-7.859l1.596-2.085l0.759-1.061
						c0.498-0.698,0.936-1.446,1.406-2.167l1.391-2.183l1.301-2.249l1.294-2.256l1.213-2.309c0.83-1.528,1.59-3.096,2.336-4.672
						c0.778-1.562,1.466-3.165,2.167-4.765l0.708-1.657c0.34-0.802,0.638-1.589,0.959-2.385l1.895-4.768l0.475-1.193l0.119-0.299
						c0.02-0.043,0.039-0.113,0.059-0.135l0.06,0.148l0.237,0.597l0.949,2.386l1.9,4.776l0.495,1.203l0.381,0.894l0.53,1.205
						l1.067,2.408c2.969,6.369,6.366,12.604,10.398,18.364c1.088,1.421,2.45,3.197,3.948,5.152c1.429,1.828,2.987,3.823,4.547,5.818
						l0.292,0.374l0.037,0.047c-0.004,0.005-0.034-0.01-0.05-0.015l-0.116-0.041l-0.23-0.083l-0.923-0.329
						c-0.613-0.219-1.224-0.437-1.828-0.651c-1.208-0.432-2.39-0.854-3.521-1.257c-2.262-0.807-4.318-1.541-5.963-2.128
						c-1.395-0.521-2.786-1.042-4.176-1.563l-0.77-0.291l-0.113-0.057l-0.265-0.126l-0.03,0.302l-0.008,0.085l-0.003,0.044
						l-0.004,0.231l-0.014,1.119c-0.017,1.495-0.033,2.987-0.049,4.479c-0.024,2.991-0.048,5.976-0.071,8.957
						c-0.018,5.979-0.035,11.943-0.052,17.908c-0.45-3.636-1.351,10.931-1.17-18.208c-0.091,0-0.271,0-0.36,0
						c-0.45,29.139-1.71,40.066-2.07,10.928c-0.035-4.419-0.071-9.019-0.109-13.778c-0.016-5.729-0.032-11.649-0.049-17.726
						c3.225,1.147,6.504,2.314,9.827,3.497l0.13,0.046c0.039,0.013,0.116,0.052,0.057-0.006c-0.058-0.071-0.115-0.139-0.175-0.229
						l-0.988-1.387c-0.501-0.782-1.003-1.566-1.507-2.353c-0.493-0.791-1.019-1.568-1.488-2.375l-1.4-2.433
						c-1.871-3.248-3.563-6.613-5.177-10.03c-0.422-0.846-0.782-1.722-1.166-2.586l-0.896-2.049l-0.068-0.177
						c-0.023-0.034-0.047-0.195-0.071-0.078l-0.073,0.181l-0.457,1.045l-1.145,2.607l-1.224,2.567
						c-0.416,0.852-0.812,1.713-1.241,2.557l-1.319,2.514c-0.851,1.688-1.82,3.315-2.756,4.952
						c-0.903,1.654-1.988,3.211-2.973,4.812c-0.252,0.397-0.498,0.797-0.779,1.178l-0.718,1.013l-0.071,0.119
						c-0.031,0.051-0.091,0.116-0.079,0.128l0.19-0.083l0.096-0.042l2.283-0.822l7.461-2.677
						c0.009,17.579,0.018,35.145,0.025,52.718c-4.775,4.722-9.551,9.444-14.333,14.173c-8.51,8.411-17.219,17.019-26.031,25.729
						c-1.233-2.488-2.47-4.981-3.707-7.479l-0.966-1.975l-0.172-0.362c-0.014-0.024-0.032-0.076-0.042-0.078l-0.009,0.091
						l-0.02,0.186c-0.016,0.126-0.021,0.253-0.046,0.388l-0.133,0.816c-1.284,7.636-3.467,15.023-6.123,22.193l-0.981,2.579
						l-0.201,0.465l-0.109,0.249l-0.056,0.127l-0.028,0.064c0.012-0.001,0.037-0.015,0.055-0.021l0.482-0.204
						c1.178-0.474,2.354-0.947,3.528-1.42c1.759-0.696,3.548-1.303,5.313-1.953c1.793-0.577,3.58-1.153,5.363-1.728
						c1.811-0.492,3.6-1.034,5.411-1.479l2.725-0.631c0.905-0.217,1.811-0.423,2.732-0.567l0.776-0.133l0.387-0.06
						c0.262-0.048,0.532-0.062,0.813-0.091c0.188-0.02,0.384-0.039,0.583-0.061l0.151-0.016c0.019-0.004,0.067-0.004,0.061-0.012
						l-0.065-0.029l-0.269-0.123c-0.373-0.168-0.763-0.344-1.164-0.524c-2.967-1.318-6.105-2.714-9.275-4.124
						c4.912-4.9,9.912-9.889,14.163-14.131c3.776-3.748,6.908-6.818,8.676-8.45c3.801-3.597,4.083-3.607,3.667-2.892
						c-8.546,8.478-17.077,16.942-25.487,25.286c2.998,1.343,5.986,2.681,8.966,4.015l2.321,1.042l0.288,0.129l0.144,0.064
						l0.036,0.017c-0.005,0.003-0.023,0.003-0.035,0.005l-0.08,0.01l-0.634,0.074l-1.264,0.148
						c-0.421,0.037-0.836,0.125-1.252,0.199l-1.583,0.289c-1.533,0.26-3.021,0.688-4.53,1.024c-1.514,0.327-2.981,0.801-4.468,1.208
						c-1.49,0.399-2.951,0.883-4.411,1.364c-1.411,0.445-2.814,0.913-4.198,1.438c-1.388,0.513-2.79,0.986-4.154,1.562l-2.059,0.829
						l-0.769,0.31l-0.516,0.223l-1.025,0.451l-0.507,0.224l-0.127,0.055c-0.025,0.002-0.124,0.078-0.076,0.005l0.112-0.262
						l0.869-2.058l1.506-3.953l1.437-4.202c0.474-1.402,0.869-2.831,1.307-4.246c0.454-1.41,0.785-2.857,1.168-4.29
						c0.182-0.719,0.384-1.433,0.549-2.156l0.464-2.18l0.463-2.18c0.087-0.361,0.124-0.734,0.188-1.101l0.162-1.02
						c0.106-0.657,0.226-1.3,0.269-1.932l0.091-0.936l0.022-0.23c-0.003-0.074,0.026,0.022,0.042,0.044l0.054,0.112l0.215,0.443
						l0.836,1.727l4.319,8.772l12.952-12.78c-4.29,4.219-8.598,8.455-12.943,12.727c-1.423-2.896-2.849-5.801-4.278-8.711
						l-0.862-1.785l-0.223-0.459l-0.112-0.232c-0.024-0.069-0.027-0.026-0.03,0.021l-0.012,0.12l-0.094,0.969
						c-0.046,0.654-0.156,1.322-0.272,2.004l-0.315,1.982l-0.461,2.17c-0.306,1.448-0.599,2.901-0.996,4.328
						c-0.389,1.427-0.704,2.879-1.154,4.29c-0.434,1.417-0.843,2.844-1.297,4.256l-1.437,4.218l-1.547,4.095
						c-0.269,0.69-0.589,1.406-0.886,2.12l-0.113,0.269c-0.018,0.043-0.043,0.095-0.053,0.13l0.131-0.058l0.524-0.232l1.058-0.469
						l0.532-0.235l0.714-0.288l2.08-0.842c1.379-0.583,2.795-1.07,4.2-1.591l2.113-0.767l2.14-0.698
						c1.473-0.483,2.946-0.966,4.446-1.365c1.497-0.409,2.976-0.878,4.497-1.204c1.519-0.333,3.011-0.766,4.551-1.015l1.574-0.283
						c0.429-0.077,0.86-0.159,1.298-0.198l1.318-0.149l0.666-0.076c0.019-0.004,0.076-0.003,0.063-0.012l-0.073-0.034l-0.147-0.066
						l-0.295-0.134l-2.393-1.086l-8.859-3.992l24.933-24.608c-0.481,0.738-0.934,1.457,0.21,0.571c0,0,5.163-5.133,7.746-7.7
						c10.651-9.955,8.507-6.934,3.668-1.489C100.928,122.682,99.509,124.232,97.956,125.929z"/>
				</g>
			</g>
		</g>
	</g>
	<g>
		<g>
			<g>
				<path fill="#FFF764" d="M62.575,42.974v9.022H48.907v-1.923c-2.029,1.638-4.376,2.455-7.041,2.455
					c-2.971,0-5.602-1.232-7.89-3.697c-2.289-2.465-3.435-5.995-3.435-10.591c0-4.949,1.058-8.776,3.174-11.479
					c2.115-2.662,4.947-3.993,8.498-3.993c2.607,0,4.839,0.789,6.693,2.366v-5.266h-2.695v-9.022h13.626v32.127H62.575z
					 M48.973,37.53c0-1.795-0.306-3.293-0.913-4.497c-0.61-1.183-1.516-1.774-2.717-1.774c-2.477,0-3.717,2.181-3.717,6.538
					c0,1.795,0.305,3.273,0.912,4.437c0.595,1.184,1.502,1.775,2.717,1.775c1.102,0,2-0.522,2.696-1.567
					C48.632,41.396,48.973,39.759,48.973,37.53z"/>
			</g>
		</g>
		<g>
			<g>
				<path fill="#FFF764" d="M42.364,108.657v9.022H28.696v-1.923c-2.029,1.638-4.376,2.455-7.042,2.455
					c-2.969,0-5.6-1.232-7.888-3.697c-2.289-2.466-3.435-5.995-3.435-10.591c0-4.949,1.059-8.776,3.173-11.479
					c2.115-2.662,4.947-3.994,8.498-3.994c2.608,0,4.838,0.79,6.693,2.367v-5.266h-2.695V76.53h13.626v32.127H42.364z
					 M28.762,103.214c0-1.795-0.305-3.293-0.912-4.497c-0.609-1.183-1.516-1.774-2.717-1.774c-2.478,0-3.718,2.179-3.718,6.537
					c0,1.796,0.306,3.274,0.913,4.438c0.594,1.184,1.501,1.775,2.717,1.775c1.1,0,1.999-0.522,2.695-1.567
					C28.422,107.08,28.762,105.442,28.762,103.214z"/>
				<path fill="#FFF764" d="M53.97,117.68h-8.278v-9.022h2.649l3.109-4.586l-3.717-6.063h-2.521v-9.023h10.67l3.868,7.721
					l3.977-7.721h8.259v9.023h-2.955l-2.717,4.171l4,6.479h2.433v9.022H62.294l-4.063-7.839L53.97,117.68z"/>
			</g>
		</g>
		<rect x="14.31" y="62.865" fill="#FFF764" width="57.601" height="4.733"/>
		<g>
			<g>
				<g>
					<path fill="none" d="M60.556,40.133v9.022H46.887v-1.922c-2.029,1.637-4.376,2.456-7.041,2.456
						c-2.972,0-5.602-1.232-7.89-3.699c-2.29-2.464-3.435-5.995-3.435-10.59c0-4.95,1.058-8.776,3.174-11.479
						c2.115-2.662,4.947-3.993,8.497-3.993c2.608,0,4.838,0.789,6.694,2.366v-5.266H44.19V8.007h13.627v32.126H60.556z
						 M46.951,34.689c0-1.793-0.305-3.293-0.913-4.495c-0.609-1.184-1.515-1.775-2.717-1.775c-2.477,0-3.716,2.18-3.716,6.538
						c0,1.794,0.305,3.274,0.912,4.438c0.595,1.182,1.501,1.773,2.717,1.773c1.102,0,1.999-0.521,2.695-1.567
						C46.609,38.557,46.951,36.919,46.951,34.689z"/>
					<g>
						<path fill="#292D73" d="M48.531,35.761c-0.028,0.154-0.058,0.309-0.085,0.455c-0.121,0.699-0.264,1.407-0.485,2.136
							c-0.11,0.363-0.242,0.732-0.414,1.105c-0.087,0.185-0.181,0.371-0.297,0.568c-0.124,0.207-0.273,0.445-0.453,0.632
							c-0.356,0.386-0.854,0.687-1.215,0.854c-0.387,0.185-0.763,0.316-1.14,0.427c-0.188,0.054-0.376,0.103-0.564,0.145
							l-0.294,0.062l-0.391,0.072c-0.534,0.088-1.075,0.145-1.586,0.125c-0.178-0.009-0.344-0.045-0.502-0.091
							c-0.079-0.022-0.153-0.052-0.227-0.082c-0.057-0.057-0.114-0.108-0.168-0.174c-0.225-0.243-0.397-0.595-0.547-0.957
							c-0.153-0.356-0.303-0.739-0.435-1.091l-0.285-0.794c-0.361-1.055-0.7-2.114-0.864-3.227c0.159,1.319,0.509,2.511,0.91,3.705
							l0.174,0.489l0.255,0.65c0.18,0.423,0.355,0.878,0.621,1.193c0.232,0.351,0.624,0.437,1.07,0.452
							c0.443,0.004,0.91-0.044,1.377-0.115c0.23-0.035,0.479-0.081,0.677-0.123l0.495-0.112c0.331-0.081,0.665-0.18,1.007-0.304
							c0.35-0.135,0.676-0.266,1.085-0.526c0.41-0.261,0.774-0.603,1.032-1.021c0.89-1.406,1.161-2.704,1.438-3.966
							c0.168,0.529,0.274,1.188,0.098,1.972c-0.127,0.465-0.284,0.94-0.501,1.425c-0.107,0.243-0.229,0.479-0.386,0.747
							c-0.167,0.281-0.392,0.621-0.653,0.869c-0.258,0.257-0.573,0.488-0.865,0.662c-0.275,0.164-0.516,0.277-0.759,0.382
							c-0.478,0.2-0.927,0.34-1.367,0.452c-0.024-0.087-0.072-0.258-0.097-0.344c-0.153,0.047-0.302,0.094-0.445,0.138
							c-0.188,0.054-0.43,0.107-0.658,0.155c-0.459,0.091-0.924,0.158-1.372,0.178c-0.938,0.073-1.554-0.327-1.934-1.201
							c-0.194-0.41-0.368-0.84-0.529-1.269l-0.176-0.492l-0.127-0.395c-0.164-0.526-0.312-1.057-0.441-1.601
							c-0.13-0.545-0.244-1.099-0.328-1.692c-0.092-0.566-0.118-1.319-0.074-1.895c0.074-1.22,0.323-2.488,0.873-3.732
							c-0.135,0.146-0.145,0.013-0.176-0.052l0.019-0.034l-0.019,0.034c-0.024-0.055-0.081-0.059-0.231,0.254
							c0.15-0.313,0.207-0.309,0.231-0.254c-0.628,1.212-0.918,2.508-0.992,3.743c-0.045,0.575-0.016,1.356,0.088,1.929
							c0.094,0.601,0.222,1.15,0.362,1.69c0.143,0.538,0.298,1.063,0.469,1.582l0.278,0.812c0.165,0.443,0.342,0.887,0.535,1.316
							c0.375,0.929,0.943,1.445,1.853,1.495c0.452,0.019,0.934-0.023,1.418-0.085c0.472-0.059,1.044-0.18,1.272-0.231l-0.389,0.088
							L43.139,43c-0.38,0.066-0.761,0.111-1.133,0.137c-0.369,0.021-0.744,0.04-1.062-0.049c-0.322-0.091-0.574-0.229-0.811-0.438
							c-0.241-0.209-0.425-0.532-0.582-0.872c-0.16-0.338-0.311-0.686-0.452-1.039l-0.312-0.816l-0.214-0.614
							c-0.276-0.824-0.525-1.655-0.715-2.567c-0.093-0.46-0.173-0.935-0.203-1.493c-0.02-0.579,0.002-1.003,0.058-1.521
							c0.195-1.976,1.104-4.086,2.786-5.53c0.429-0.367,0.843-0.664,1.395-0.961c0.692-0.36,1.44-0.62,2.18-0.747
							c0.723-0.104,1.508-0.172,2.044,0.154c0.258,0.131,0.508,0.346,0.704,0.654c0.196,0.308,0.353,0.677,0.51,1.038
							c0.105,0.246,0.262,0.631,0.401,1.007c0.09,0.25,0.181,0.501,0.24,0.667c0.139,1.257,0.399,2.414,0.585,3.762
							c-0.244-0.139-0.547,0.155-0.811,0.143c-0.27-0.01-0.447-0.295-0.634-1.452c-0.088,0.021-0.263,0.065-0.35,0.087
							c0.072,1.182-0.318,2.003-0.741,2.143c-0.209,0.122-0.412,0.033-0.592-0.088c-0.18-0.132-0.341-0.38-0.517-0.831
							c-0.254-0.728-0.432-1.236-0.605-1.733c-0.113-0.325-0.226-0.645-0.34-0.973l-0.04-0.114l-0.005-0.017l-0.006-0.035
							c0.005-0.067-0.046-0.088-0.104-0.067c-0.014,0.003-0.026,0.009-0.039,0.016l-0.111,0.071
							c-0.212,0.134-0.407,0.296-0.576,0.479c-0.507,0.523-0.848,1.188-1.058,1.939c-0.102,0.378-0.171,0.779-0.213,1.202
							c-0.021,0.212-0.036,0.447-0.042,0.579c-0.004,0.171,0.006,0.386,0.024,0.613c0.047,0.634,0.198,1.356,0.398,2.072
							c0.097,0.353,0.219,0.736,0.329,1.063c0.009,0.063,0.018,0.121,0.034,0.192c0.002,0.092,0.06,0.112,0.129,0.112
							c0.079,0.007,0.11,0.023,0.252,0.014c0.335-0.056,0.659-0.125,0.952-0.203c0.279-0.069,0.575-0.19,0.656-0.204
							c0.094-0.053,0.122-0.068,0.211-0.265c0.098-0.206,0.183-0.475,0.249-0.743c0.135-0.542,0.206-1.095,0.369-1.329
							c0.166-0.349,0.357-0.354,0.565-0.275c-0.092,0.867-0.264,1.715-0.578,2.408c-0.176,0.368-0.282,0.543-0.513,0.687
							c-0.225,0.15-0.615,0.319-0.99,0.434c-0.238,0.067-0.486,0.123-0.736,0.17c-0.198,0.035-0.305,0.04-0.454,0.052
							c-0.266,0.006-0.596,0.083-0.615-0.291c-0.093-0.328-0.188-0.662-0.285-1.006c-0.146-0.519-0.274-1.042-0.372-1.56
							c0.14,0.979,0.533,2.277,0.618,2.589l0.072,0.207c0.014,0.032,0.023,0.075,0.044,0.1l0.101,0.007
							c0.136,0.006,0.277,0.001,0.421-0.012c0.154-0.015,0.271-0.027,0.463-0.065c0.253-0.053,0.504-0.115,0.744-0.19
							c0.379-0.104,0.771-0.26,1.008-0.402c0.244-0.135,0.371-0.31,0.561-0.672c0.346-0.683,0.552-1.524,0.679-2.384
							c0.177,0.079,0.36,0.163,0.549,0.07c0,0,0.045-0.56,0.056-0.841c0.475-1.114,1.095-0.869,1.538-0.245
							C48.341,35.378,48.44,35.556,48.531,35.761z"/>
					</g>
					<g>
						<path fill="#292D73" d="M57.398,35.952c-0.007-0.603-0.014-1.206-0.021-1.8c-0.077-4.256-0.208-8.51-0.359-12.835
							c-0.14-3.928-0.282-7.908-0.429-12.029c-2.274-0.029-4.597-0.059-6.991-0.089c-1.353-0.026-2.725-0.053-4.117-0.08
							c0.149,1.063,0.301,2.135,0.452,3.213c0.222,1.49,0.443,2.988,0.665,4.482c0.387,1.503,0.772,3.004,1.156,4.497
							c0.197,0.766,0.395,1.53,0.591,2.291c0.35,1.07-0.01,0.682-0.016,1.297c-0.916-0.715-1.931-1.488-2.797-2.111
							c-0.885-0.663-1.604-1.066-2.307-1.299l-0.522-0.159l-0.323-0.074c-0.215-0.043-0.429-0.088-0.646-0.115
							c-0.433-0.065-0.87-0.097-1.307-0.104c0.447,0.013,0.891,0.049,1.326,0.12c0.219,0.031,0.434,0.076,0.647,0.124l0.34,0.085
							l0.525,0.163c0.707,0.242,1.437,0.676,2.335,1.356c0.877,0.642,1.905,1.434,2.837,2.17c0.004-0.636,0.341-0.28-0.001-1.356
							l-0.585-2.322c-0.385-1.525-0.77-3.053-1.154-4.581c-0.359-2.514-0.72-5.034-1.08-7.557c3.644,0.033,7.289,0.067,10.922,0.101
							c0.109,3.988,0.219,7.962,0.327,11.92c0.106,4.353,0.187,8.649,0.231,12.862c-0.296-1.964-0.565-4.314-0.683-7.06
							c-0.186-5.759-0.367-11.419-0.547-17.022l-0.049-0.004c0.062-0.091,0.181-0.269,0.241-0.357l-0.205,0.011l-0.099,0.006
							l-0.216,0.005c-0.548,0.005-1.094,0.011-1.638,0.017c-1.092,0.007-2.176,0.013-3.257,0.02
							c-1.495-0.001-2.978-0.003-4.457-0.005l0.062,0.5l0.289,2.047l0.619,4.424l1.278,5.13l0.65,2.608
							c0.327,1.139,0.14,0.976,0.281,1.933l-3.609-2.857c-1.11-0.911-1.942-1.35-2.788-1.621c-0.511-0.168-0.584-0.168-0.835-0.228
							c-0.217-0.046-0.438-0.082-0.66-0.112c-0.445-0.058-0.899-0.086-1.36-0.087c-1.861-0.004-3.648,0.436-5.121,1.436
							c-1.486,0.989-2.662,2.479-3.411,4.205c-0.766,1.73-1.154,3.688-1.281,5.702c0.111-0.604,0.146-0.234,0.191-0.104
							c-0.004,0.042-0.009,0.082-0.013,0.12c0.004-0.038,0.009-0.078,0.013-0.12c0.045,0.12,0.071,0.047,0.209-0.995
							c-0.138,1.042-0.164,1.115-0.209,0.995c0.177-1.982,0.599-3.893,1.369-5.563c0.756-1.665,1.908-3.085,3.34-4.022
							c1.418-0.946,3.131-1.369,4.942-1.371c0.447,0,0.887,0.026,1.317,0.08c0.216,0.028,0.428,0.063,0.638,0.105
							c0.234,0.055,0.312,0.056,0.859,0.235c0.9,0.291,1.79,0.782,2.999,1.793l3.933,3.146c-0.234-1.151-0.133-1.096-0.458-2.275
							l-0.703-2.773l-1.367-5.4c-0.21-1.468-0.421-2.938-0.633-4.41l-0.287-2.024l-0.028-0.3l0.206,0.011l0.098,0.006l0.508,0.007
							c1.015,0.008,2.033,0.017,3.054,0.025c1.814,0.019,3.64,0.037,5.479,0.056c-3.112-0.018-6.204-0.035-9.285-0.054l0.031,0.247
							l0.296,2.009l0.652,4.409l1.412,5.525l0.729,2.854c0.324,1.198,0.264,1.193,0.542,2.438l-4.48-3.594
							c-0.677-0.557-1.227-0.911-1.765-1.183c-0.26-0.107-0.53-0.261-0.781-0.33l-0.379-0.12c-0.121-0.038-0.281-0.091-0.308-0.092
							c-0.898-0.225-1.859-0.29-2.847-0.239c-1.958,0.099-3.726,0.747-5.13,1.975c-1.435,1.226-2.432,2.932-3.051,4.872
							c-0.611,1.942-0.859,4.08-0.881,6.254c-0.022,2.157,0.196,4.282,0.872,6.166c0.652,1.905,1.788,3.432,3.385,4.69
							c1.559,1.222,3.276,1.851,5.295,1.806c1.199,0.002,2.316,0.021,3.249-0.117c0.467-0.067,0.883-0.172,1.255-0.322
							c0.186-0.075,0.362-0.161,0.532-0.26l0.141-0.089l0.322-0.229l0.685-0.531l0.34,0.022c1.367,0.097,4.107,0.289,5.477,0.386
							c1.433,0.18,2.866,0.345,4.301,0.496c0.36,0.037,0.72,0.074,1.075,0.111l0.49,0.051l0.106,0.021l0.486,0.083l-0.024-0.321
							l-0.018-0.173l-0.05-0.38c-0.148-1.002-0.295-1.999-0.442-2.996c0.313,0.569,0.509-0.385,0.787-0.277
							c0.139,0.054,0.298,0.373,0.503,1.28c0.103,0.454,0.217,1.055,0.345,1.843c0.117,0.717,0.22,1.422,0.339,2.352l-0.056-0.005
							c0.103,0.098,0.309,0.292,0.412,0.39l0.069,0.008c-0.095-1.086-0.187-2.145-0.276-3.18c-0.075-1.015-0.124-1.922-0.148-2.707
							c-0.049-1.57-0.001-2.653,0.137-3.132c0.274-0.958,0.904,0.501,1.815,5.311l0.163,0.894c0.092,0.556,0.185,1.113,0.278,1.673
							c0.188,1.149,0.377,2.31,0.569,3.483c-2.953-0.185-6-0.375-9.146-0.572c-2.043-0.144-4.148-0.291-6.299-0.441l-0.061,0.039
							c-0.225,0.14-0.512,0.304-0.777,0.432c-0.545,0.264-1.114,0.462-1.676,0.603c-1.128,0.278-2.195,0.334-3.173,0.351h-1.417
							c-0.416-0.005-0.972,0.003-1.529-0.049c-1.101-0.085-2.205-0.333-3.245-0.731c-2.098-0.793-3.859-2.158-5.256-3.687
							c-1.479-1.608-2.49-3.568-3.093-5.521c-0.826-2.678-0.965-5.397-0.872-7.992c0.105-2.618,0.524-5.329,1.634-7.937
							c1.104-2.599,3.029-5.035,5.675-6.502c1.314-0.735,2.768-1.193,4.206-1.403c1.442-0.194,2.845-0.203,4.301,0.027
							c0.425,0.065,0.884,0.171,1.28,0.274c0.044,0.02,0.062,0.031,0.085,0.047c0.048,0.031,0.105,0.072,0.168,0.124
							c0.143,0.18,0.061-0.082,0.04-0.236L43.727,17.9l-0.029-0.146l-0.015-0.075l-0.063-0.263
							c-0.534-3.744-1.072-7.514-1.61-11.289c5.836,0.049,11.676,0.097,17.469,0.146l0.119,3.578l0.051,2.081
							c0.025,1.316,0.05,2.63,0.075,3.944c0.119,4.904,0.754,13.466,0.589,15.928c-0.055,1.765-0.243,1.843-0.468,1.583
							c-0.321-8.165-0.641-16.297-0.957-24.351l-0.073-2.07C53.482,6.914,48.147,6.861,42.801,6.81
							c0.477,3.488,0.954,6.981,1.433,10.483l0.469,2.186l-0.184-0.968l-0.107-0.534l-0.148-0.689l-0.599-4.57
							c-0.27-1.95-0.539-3.903-0.81-5.861c5.287,0.039,10.603,0.079,15.953,0.118c0.026,0.686,0.054,1.375,0.08,2.063
							c0.258,8.03,0.516,16.058,0.774,24.105c-0.196-0.282-0.399-0.552-0.557-0.062c0,0,0.104,2.448,0.156,3.673
							c-0.24,4.92-0.922,3.719-1.476,1.293C57.668,37.41,57.536,36.694,57.398,35.952z"/>
					</g>
				</g>
			</g>
		</g>
		<g>
			<g>
				<g>
					<path fill="none" d="M40.344,105.816v9.022H26.676v-1.922c-2.029,1.637-4.376,2.455-7.042,2.455c-2.97,0-5.6-1.231-7.888-3.698
						c-2.29-2.464-3.435-5.995-3.435-10.59c0-4.95,1.058-8.776,3.173-11.479c2.116-2.662,4.948-3.993,8.497-3.993
						c2.608,0,4.839,0.789,6.694,2.366v-5.266H23.98V73.69h13.626v32.126H40.344z M26.74,100.373c0-1.794-0.304-3.293-0.913-4.495
						c-0.608-1.184-1.514-1.775-2.717-1.775c-2.477,0-3.716,2.18-3.716,6.538c0,1.794,0.305,3.274,0.913,4.438
						c0.594,1.183,1.499,1.773,2.717,1.773c1.1,0,2-0.521,2.694-1.567C26.401,104.24,26.74,102.603,26.74,100.373z"/>
					<g>
						<path fill="#292D73" d="M28.321,101.443c-0.029,0.154-0.058,0.309-0.085,0.455c-0.122,0.699-0.264,1.408-0.484,2.137
							c-0.111,0.363-0.242,0.733-0.416,1.105c-0.087,0.186-0.181,0.372-0.296,0.568c-0.124,0.206-0.274,0.444-0.454,0.632
							c-0.355,0.385-0.853,0.687-1.214,0.854c-0.387,0.185-0.763,0.317-1.14,0.427c-0.188,0.054-0.376,0.103-0.564,0.145
							l-0.294,0.063l-0.391,0.071c-0.534,0.088-1.075,0.145-1.586,0.125c-0.178-0.009-0.344-0.045-0.502-0.091
							c-0.079-0.023-0.153-0.052-0.227-0.083c-0.057-0.057-0.114-0.108-0.168-0.174c-0.224-0.243-0.396-0.596-0.547-0.958
							c-0.152-0.355-0.303-0.738-0.435-1.09l-0.284-0.793c-0.362-1.055-0.702-2.114-0.866-3.227c0.159,1.319,0.51,2.511,0.911,3.705
							l0.174,0.487l0.255,0.65c0.181,0.424,0.356,0.878,0.622,1.194c0.232,0.351,0.623,0.438,1.069,0.453
							c0.443,0.004,0.91-0.044,1.377-0.115c0.229-0.035,0.479-0.081,0.677-0.123l0.495-0.111c0.331-0.082,0.665-0.181,1.007-0.305
							c0.35-0.135,0.677-0.266,1.085-0.526c0.411-0.261,0.773-0.604,1.032-1.021c0.891-1.404,1.162-2.706,1.438-3.967
							c0.168,0.529,0.275,1.188,0.099,1.972c-0.126,0.466-0.284,0.941-0.502,1.427c-0.106,0.243-0.229,0.481-0.385,0.745
							c-0.167,0.281-0.392,0.621-0.653,0.869c-0.258,0.257-0.572,0.489-0.865,0.663c-0.275,0.164-0.516,0.277-0.759,0.382
							c-0.478,0.2-0.927,0.34-1.367,0.452c-0.024-0.087-0.072-0.258-0.097-0.344c-0.153,0.047-0.301,0.094-0.445,0.138
							c-0.188,0.054-0.43,0.107-0.658,0.155c-0.459,0.091-0.924,0.158-1.372,0.178c-0.938,0.072-1.553-0.329-1.933-1.202
							c-0.195-0.411-0.369-0.84-0.53-1.27l-0.175-0.491l-0.128-0.394c-0.164-0.526-0.312-1.057-0.441-1.601
							c-0.13-0.545-0.245-1.099-0.329-1.692c-0.092-0.566-0.118-1.32-0.074-1.895c0.074-1.22,0.323-2.488,0.873-3.732
							c-0.135,0.146-0.146,0.013-0.177-0.052l0.019-0.034l-0.019,0.034c-0.023-0.055-0.08-0.059-0.23,0.254
							c0.15-0.313,0.207-0.309,0.23-0.254c-0.628,1.213-0.917,2.508-0.991,3.743c-0.045,0.575-0.016,1.355,0.088,1.929
							c0.094,0.601,0.223,1.15,0.363,1.69c0.142,0.538,0.298,1.063,0.469,1.582l0.278,0.81c0.165,0.444,0.342,0.887,0.535,1.317
							c0.376,0.928,0.943,1.446,1.853,1.496c0.452,0.019,0.934-0.023,1.417-0.085c0.472-0.059,1.045-0.18,1.273-0.231l-0.389,0.088
							l-0.56,0.106c-0.381,0.065-0.761,0.11-1.133,0.136c-0.369,0.021-0.744,0.04-1.062-0.049c-0.321-0.092-0.573-0.229-0.811-0.439
							c-0.241-0.209-0.424-0.533-0.581-0.872c-0.16-0.339-0.312-0.687-0.453-1.04l-0.311-0.814l-0.215-0.614
							c-0.276-0.824-0.526-1.655-0.716-2.567c-0.093-0.46-0.173-0.935-0.203-1.493c-0.02-0.579,0.002-1.003,0.058-1.521
							c0.195-1.976,1.103-4.086,2.785-5.53c0.429-0.368,0.843-0.664,1.396-0.961c0.691-0.36,1.439-0.621,2.179-0.747
							c0.723-0.104,1.509-0.172,2.044,0.155c0.258,0.13,0.508,0.346,0.705,0.654c0.196,0.309,0.352,0.677,0.509,1.038
							c0.106,0.246,0.263,0.631,0.401,1.006c0.091,0.25,0.181,0.501,0.241,0.667c0.139,1.257,0.399,2.414,0.585,3.762
							c-0.244-0.139-0.547,0.155-0.811,0.143c-0.27-0.01-0.447-0.295-0.634-1.452c-0.088,0.021-0.263,0.065-0.35,0.087
							c0.072,1.182-0.319,2.003-0.741,2.143c-0.209,0.122-0.412,0.033-0.592-0.088c-0.18-0.132-0.341-0.38-0.517-0.831
							c-0.254-0.728-0.432-1.236-0.605-1.733c-0.113-0.325-0.226-0.645-0.34-0.972l-0.041-0.115l-0.004-0.018l-0.007-0.034
							c0.005-0.067-0.046-0.088-0.104-0.068c-0.013,0.004-0.026,0.009-0.039,0.017l-0.11,0.071
							c-0.212,0.134-0.408,0.296-0.576,0.479c-0.507,0.522-0.848,1.188-1.058,1.938c-0.102,0.378-0.171,0.78-0.213,1.203
							c-0.021,0.211-0.036,0.447-0.042,0.578c-0.004,0.172,0.006,0.387,0.024,0.614c0.047,0.633,0.199,1.355,0.398,2.071
							c0.098,0.353,0.22,0.735,0.33,1.063l0.035,0.193c0.002,0.092,0.059,0.112,0.129,0.112c0.078,0.007,0.11,0.023,0.251,0.014
							c0.335-0.056,0.659-0.125,0.952-0.203c0.279-0.069,0.575-0.19,0.655-0.204c0.095-0.053,0.121-0.067,0.212-0.266
							c0.099-0.206,0.184-0.474,0.249-0.742c0.135-0.541,0.206-1.094,0.369-1.329c0.166-0.348,0.356-0.353,0.564-0.275
							c-0.091,0.868-0.263,1.716-0.576,2.407c-0.177,0.368-0.284,0.544-0.514,0.688c-0.225,0.15-0.615,0.319-0.99,0.434
							c-0.238,0.067-0.486,0.123-0.736,0.171c-0.198,0.034-0.305,0.039-0.454,0.051c-0.266,0.007-0.595,0.082-0.614-0.291
							c-0.094-0.329-0.188-0.663-0.286-1.007c-0.146-0.519-0.274-1.042-0.373-1.56c0.14,0.979,0.534,2.278,0.619,2.589l0.072,0.208
							c0.015,0.032,0.024,0.074,0.044,0.1l0.102,0.007c0.136,0.006,0.276,0.001,0.421-0.012c0.153-0.015,0.271-0.027,0.462-0.065
							c0.253-0.053,0.504-0.115,0.744-0.19c0.379-0.104,0.77-0.26,1.008-0.402c0.244-0.135,0.371-0.311,0.561-0.673
							c0.346-0.682,0.551-1.522,0.678-2.383c0.177,0.08,0.361,0.163,0.549,0.07c0,0,0.046-0.56,0.056-0.841
							c0.475-1.114,1.095-0.869,1.538-0.245C28.13,101.061,28.23,101.239,28.321,101.443z"/>
					</g>
					<g>
						<path fill="#292D73" d="M37.188,101.636c-0.007-0.603-0.014-1.206-0.021-1.8c-0.077-4.256-0.208-8.51-0.359-12.834
							c-0.14-3.928-0.282-7.909-0.429-12.03c-2.273-0.029-4.596-0.059-6.989-0.089c-1.354-0.026-2.726-0.053-4.118-0.08
							c0.149,1.063,0.301,2.135,0.452,3.213c0.221,1.49,0.443,2.988,0.665,4.483c0.386,1.503,0.772,3.004,1.156,4.497
							c0.197,0.766,0.394,1.53,0.59,2.291c0.086,0.357,0.262,0.888,0.123,0.813c-0.037,0.015-0.062,0.09-0.084,0.175
							c-0.026,0.066-0.048,0.155-0.056,0.309c-0.916-0.716-1.932-1.489-2.797-2.112c-0.885-0.664-1.603-1.066-2.306-1.299
							l-0.522-0.159l-0.323-0.074c-0.214-0.043-0.428-0.088-0.646-0.115c-0.432-0.064-0.869-0.097-1.306-0.104
							c0.446,0.013,0.891,0.049,1.325,0.12c0.219,0.031,0.434,0.076,0.647,0.124l0.34,0.085l0.525,0.163
							c0.706,0.242,1.437,0.675,2.334,1.355c0.877,0.643,1.905,1.435,2.837,2.171c0.004-0.637,0.342-0.279,0-1.355l-0.585-2.322
							c-0.384-1.525-0.769-3.053-1.154-4.582c-0.358-2.514-0.719-5.034-1.079-7.557c3.644,0.033,7.288,0.067,10.921,0.101
							c0.109,3.988,0.219,7.962,0.327,11.92c0.105,4.353,0.187,8.649,0.231,12.863c-0.296-1.965-0.566-4.315-0.683-7.061
							c-0.186-5.759-0.367-11.419-0.547-17.022l-0.049-0.004c0.062-0.091,0.181-0.269,0.241-0.357l-0.205,0.011l-0.099,0.006
							l-0.215,0.005c-0.548,0.005-1.094,0.011-1.638,0.017c-1.092,0.007-2.176,0.013-3.257,0.02
							c-1.495-0.001-2.978-0.003-4.457-0.005l0.062,0.5l0.289,2.047l0.618,4.424l1.278,5.13l0.65,2.609
							c0.327,1.14,0.139,0.974,0.281,1.933l-3.61-2.86c-1.111-0.911-1.943-1.349-2.789-1.619c-0.51-0.169-0.581-0.168-0.833-0.228
							c-0.218-0.046-0.438-0.082-0.66-0.112c-0.445-0.058-0.9-0.086-1.361-0.087c-1.86-0.004-3.647,0.436-5.12,1.436
							c-1.486,0.989-2.661,2.478-3.41,4.205c-0.766,1.729-1.154,3.688-1.281,5.701c0.111-0.604,0.146-0.234,0.191-0.104
							c-0.004,0.042-0.008,0.082-0.012,0.121c0.004-0.039,0.008-0.079,0.012-0.121c0.045,0.12,0.072,0.047,0.209-0.995
							c-0.137,1.042-0.164,1.115-0.209,0.995c0.319-3.951,1.774-7.687,4.708-9.584c1.419-0.946,3.131-1.369,4.942-1.371
							c0.446,0,0.887,0.026,1.317,0.08c0.215,0.028,0.428,0.063,0.637,0.105c0.235,0.055,0.312,0.055,0.859,0.235
							c0.899,0.29,1.789,0.779,2.998,1.792l3.935,3.148c-0.235-1.153-0.133-1.095-0.458-2.274l-0.703-2.774l-1.366-5.401
							c-0.211-1.468-0.422-2.938-0.633-4.41l-0.287-2.024l-0.028-0.3l0.206,0.011l0.098,0.006l0.508,0.007
							c1.015,0.008,2.033,0.017,3.054,0.025c1.813,0.019,3.639,0.037,5.479,0.056c-3.111-0.018-6.203-0.035-9.284-0.054l0.031,0.247
							l0.295,2.009l0.652,4.409l1.412,5.526l0.729,2.854c0.324,1.199,0.263,1.192,0.542,2.438l-4.482-3.598
							c-0.677-0.557-1.227-0.91-1.765-1.182c-0.259-0.106-0.53-0.261-0.78-0.329l-0.38-0.12c-0.121-0.038-0.279-0.091-0.306-0.092
							c-0.898-0.225-1.86-0.29-2.848-0.239c-1.957,0.099-3.724,0.748-5.129,1.976c-1.436,1.226-2.431,2.931-3.051,4.871
							c-0.61,1.942-0.858,4.08-0.88,6.254c-0.022,2.157,0.196,4.282,0.872,6.165c0.652,1.906,1.787,3.433,3.384,4.691
							c1.56,1.221,3.276,1.85,5.295,1.805c1.199,0.002,2.317,0.021,3.25-0.116c0.466-0.068,0.882-0.173,1.254-0.322
							c0.187-0.075,0.362-0.161,0.532-0.261l0.142-0.088l0.321-0.229l0.685-0.531l0.339,0.022c1.367,0.097,4.107,0.289,5.478,0.386
							c1.432,0.18,2.865,0.345,4.3,0.496c0.361,0.037,0.72,0.074,1.076,0.111l0.489,0.051l0.106,0.021l0.486,0.083l-0.024-0.321
							l-0.018-0.173l-0.05-0.38c-0.147-1.002-0.295-1.999-0.442-2.996c0.313,0.569,0.509-0.385,0.787-0.277
							c0.139,0.054,0.298,0.373,0.503,1.28c0.103,0.454,0.217,1.055,0.345,1.843c0.118,0.717,0.22,1.422,0.339,2.352l-0.056-0.005
							c0.104,0.098,0.31,0.292,0.412,0.39l0.069,0.008c-0.095-1.086-0.187-2.145-0.276-3.18c-0.074-1.015-0.124-1.922-0.148-2.707
							c-0.049-1.57,0-2.653,0.137-3.132c0.275-0.958,0.904,0.501,1.815,5.311l0.163,0.894c0.092,0.556,0.185,1.112,0.278,1.673
							c0.188,1.149,0.377,2.31,0.568,3.483c-2.951-0.185-5.998-0.375-9.146-0.572c-2.043-0.144-4.147-0.291-6.298-0.441
							l-0.061,0.039c-0.226,0.14-0.512,0.304-0.777,0.432c-0.545,0.264-1.115,0.462-1.677,0.602
							c-1.127,0.278-2.195,0.334-3.172,0.351h-1.417l-0.707-0.007c-0.273-0.007-0.547-0.014-0.822-0.041
							c-1.101-0.086-2.205-0.334-3.245-0.732c-2.098-0.793-3.859-2.158-5.256-3.687c-1.479-1.609-2.49-3.568-3.092-5.521
							c-0.827-2.678-0.965-5.397-0.872-7.992c0.105-2.618,0.524-5.329,1.634-7.937c1.103-2.599,3.03-5.036,5.675-6.501
							c1.314-0.735,2.768-1.193,4.206-1.403c1.442-0.194,2.845-0.203,4.301,0.027c0.425,0.065,0.884,0.172,1.279,0.274
							c0.044,0.02,0.062,0.031,0.085,0.047c0.048,0.031,0.105,0.072,0.168,0.124c0.143,0.18,0.061-0.082,0.04-0.235l-0.051-0.273
							l-0.028-0.146l-0.015-0.075l-0.063-0.263c-0.533-3.744-1.071-7.514-1.609-11.289c5.835,0.049,11.675,0.097,17.468,0.146
							l0.119,3.579l0.051,2.08c0.024,1.316,0.05,2.631,0.075,3.945c0.119,4.904,0.754,13.466,0.588,15.927
							c-0.054,1.766-0.242,1.843-0.467,1.583c-0.321-8.165-0.641-16.296-0.957-24.349l-0.073-2.072
							c-5.332-0.053-10.667-0.105-16.013-0.157c0.477,3.488,0.953,6.981,1.432,10.483l0.469,2.186l-0.184-0.968L24.2,83.66
							l-0.148-0.689l-0.599-4.57c-0.269-1.95-0.538-3.903-0.809-5.861c5.287,0.039,10.602,0.079,15.952,0.118
							c0.026,0.687,0.054,1.376,0.08,2.065c0.258,8.029,0.516,16.057,0.773,24.104c-0.195-0.281-0.398-0.552-0.556-0.062
							c0,0,0.104,2.448,0.156,3.673c-0.241,4.92-0.923,3.719-1.477,1.293C37.457,103.094,37.325,102.379,37.188,101.636z"/>
					</g>
				</g>
				<g>
					<path fill="none" d="M51.949,114.839H43.67v-9.022h2.65l3.109-4.584l-3.717-6.065h-2.521v-9.022h10.671l3.867,7.721
						l3.978-7.721h8.257v9.022h-2.955l-2.715,4.171l3.998,6.479h2.435v9.022H60.274L56.209,107L51.949,114.839z"/>
					<g>
						<path fill="#292D73" d="M52.532,110.397c0.434-0.758,0.867-1.517,1.293-2.263c0.81-1.444,1.613-2.877,2.414-4.306
							c1.629,3.225,3.241,6.416,4.869,9.639c2.668,0.021,5.363,0.044,8.126,0.066c-0.291-2.348-0.588-4.744-0.894-7.216
							c-0.41-0.525-0.829-1.064-1.253-1.608c-1.249-1.617-2.116-2.737-4.281-5.454c1.542-1.521,3.104-3.063,4.67-4.608
							c0.402-2.484,0.807-4.979,1.2-7.409c-1.442,0.003-2.855,0.006-4.227,0.009c1.385,0.014,2.773,0.026,4.168,0.04
							c-0.414,2.425-0.831,4.861-1.249,7.305c-1.573,1.55-3.148,3.103-4.725,4.655l5.642,7.095l0.524,4.172l0.26,2.1l0.091,0.856
							l-1.064-0.033l-2.619-0.037l-2.607-0.042l-1.267-0.023l-0.399-0.024l-0.14-0.317l-0.417-0.854l-0.975-1.989l-3.428-6.858
							l-2.555,4.514c0.72-1.53,1.576-3.292,2.562-5.246c1.101,1.951,2.372,4.297,3.715,6.886c0.382,0.758,0.763,1.514,1.143,2.268
							l0.471,0.938l0.003,0.035l0.035,0.015l1.285,0.014c0.875,0.009,1.748,0.017,2.618,0.025c0.871,0.008,1.74,0.016,2.607,0.023
							l0.073,0.001l0.011,0.001l0.021,0.003l0.045,0.006l0.097,0.01l-0.005-0.14l-0.001-0.039l-0.063-0.49l-0.127-0.994
							c0.09-0.013,0.266-0.036,0.354-0.048c-0.225-1.534-0.445-3.047-0.666-4.55c-1.979-2.458-3.934-4.889-5.885-7.313
							c1.649-1.619,3.294-3.234,4.938-4.849l0.697-3.972l0.355-2.022l0.128-0.639l-0.58-0.02l-1.679-0.017l-3.204-0.023
							c-1.633,3.183-3.268,6.37-4.927,9.604c-0.967-1.896-1.94-3.803-2.924-5.731c-0.354-0.68-0.709-1.362-1.066-2.05l-0.448-0.848
							l-0.225-0.424l-0.057-0.106l-0.018-0.028l-0.031-0.05c0.028,0.163-0.083,0.106-0.139,0.125l-0.01-0.019l0.01,0.019
							c-0.025,0.005-0.045,0.018-0.05,0.043l-0.002,0.021c0.023,0.052,0.05,0.109,0.079,0.177c0.074,0.151,0.167,0.342,0.29,0.593
							c-0.123-0.251-0.216-0.441-0.29-0.593c-0.029-0.067-0.056-0.125-0.079-0.177l0.002-0.021c0.005-0.025,0.024-0.038,0.05-0.043
							c1.658,3.289,3.3,6.546,4.904,9.729c1.718-3.339,3.421-6.649,5.107-9.929c1.67,0.005,3.332,0.011,4.992,0.017
							c-0.357,2.094-0.714,4.186-1.072,6.288c-1.665,1.638-3.333,3.279-5.012,4.931c1.95,2.459,3.913,4.933,5.896,7.433
							c0.155,1.249,0.311,2.506,0.468,3.771c-0.162-1.258-0.323-2.512-0.484-3.763c-1.991-2.49-3.974-4.971-5.952-7.444
							c1.672-1.658,3.342-3.313,5.009-4.966c0.337-2.047,0.673-4.089,1.01-6.131L62.9,88.102c-1.729,3.366-3.461,6.737-5.195,10.114
							c-1.686-3.352-3.376-6.712-5.07-10.083c-2.366,0.008-4.743,0.015-7.132,0.022c0.29,2.046,0.582,4.101,0.876,6.167
							c1.907,2.322,3.833,4.665,5.769,7.021c-0.651,0.674-1.316,1.36-1.98,2.047c-0.813,0.84-2.44,2.522-3.254,3.363l-0.008,0.003
							c-0.013,0.011-0.024,0.024-0.037,0.04l-0.01,0.014l-0.027,0.14l-0.057,0.279c-0.073,0.378-0.146,0.751-0.219,1.12
							c-0.142,0.762-0.281,1.508-0.419,2.243c-0.123,0.685-0.245,1.358-0.365,2.025l-0.121,0.51
							c0.207,0.015,0.331,0.024,0.652,0.031c0.879,0.003,1.755,0.006,2.632,0.009c-0.585,0.219,0.254,0.544,0.161,0.8
							c-0.046,0.128-0.325,0.238-1.131,0.31c-0.403,0.035-0.938,0.062-1.642,0.074c-0.588,0.014-1.256,0.014-2.088-0.001
							c0.031-0.187,0.064-0.386,0.1-0.594c-0.1,0.059-0.299,0.178-0.398,0.237c-0.051,0.254-0.102,0.506-0.148,0.743
							c1.02,0.071,2.017,0.142,2.993,0.21c0.937,0.08,1.767,0.167,2.479,0.26c1.426,0.186,2.378,0.393,2.755,0.594
							c0.752,0.404-0.802,0.793-5.49,0.968c-1.704,0.025-3.421,0.051-5.179,0.077c0.3-2.186,0.604-4.412,0.917-6.696
							c0.246-1.729,0.498-3.499,0.756-5.306c0.877-0.906,1.766-1.825,2.664-2.753l0.886-0.91l0.067-0.063l-0.064-0.089l-1.22-1.498
							c-0.949-1.164-1.904-2.334-2.86-3.506c-0.563-3.99-1.127-7.992-1.687-11.956c1.883-0.012,3.76-0.022,5.632-0.034
							c2.924-0.021,5.848-0.043,8.768-0.064l2.543,5.017c0.009,0.003,0.01-0.005,0.009-0.008c0-0.002-0.002,0.007,0.006,0.006
							c0.872-1.667,1.744-3.336,2.62-5.012c1.824,0.021,3.653,0.041,5.497,0.062c2.149,0.023,4.305,0.048,6.482,0.072
							c-0.685,3.964-1.375,7.963-2.07,11.988l-2.554,2.506c-0.974,0.957-0.723,0.697-0.913,0.876l0.229,0.312l1.291,1.632
							l2.89,3.654c0.471,3.827,0.939,7.641,1.405,11.437l-3.892-0.048l-2.426-0.056c-0.864-0.006-1.822-0.012-2.845-0.019
							c-1.329,0.006-2.737,0.012-4.157,0.019c-0.916-1.741-1.84-3.497-2.658-5.053c-0.196-0.376-0.353-0.709-0.485-1.072
							c-0.044,0.048-0.085,0.082-0.123,0.101c-0.295,0.272-0.476,0.203-0.5-0.199c0.213-0.386,0.426-0.771,0.636-1.151
							c1.173,2.282,2.338,4.547,3.489,6.786c4.117,0.012,8.174,0.024,12.21,0.036c-0.13-0.991-0.258-1.959-0.385-2.926l-0.942-7.565
							l-2.763-3.51l-1.283-1.636l-0.602-0.791l1.355-1.291l2.424-2.349c0.493-2.755,0.987-5.513,1.483-8.28
							c-0.508,2.761-1.014,5.509-1.52,8.262l-2.414,2.33l-1.393,1.324l0.624,0.816l1.284,1.632c0.922,1.166,1.847,2.335,2.772,3.505
							c0.323,2.51,0.647,5.027,0.973,7.553l0.372,2.914c-4.048-0.036-8.096-0.072-12.146-0.108l-2.241-4.426l-1.296-2.608
							l-0.645,1.133c0.004-0.392,0.071-0.916-0.2-0.789c0,0-1.082,1.99-1.622,2.985c-2.698,4.021-2.675,2.659-1.922,0.331
							C52.025,111.765,52.274,111.094,52.532,110.397z"/>
					</g>
				</g>
			</g>
		</g>
		<g>
			<g>
				<g>
					<path fill="#292D73" d="M68.279,61.892l0.034-0.292l-0.174-0.021l-0.267-0.024c-0.129-0.008-0.078-0.016-0.482-0.022
						c-0.616-0.013-1.23-0.026-1.843-0.039c-1.237-0.02-2.467-0.039-3.698-0.06c-2.482-0.022-4.967-0.045-7.485-0.068
						c-5.046-0.034-10.229-0.057-15.686-0.146c-7.638-0.18-16.366-0.09-24.003-0.09c9.066,0.063,18.317,0.127,27.525,0.191
						c4.573,0.061,9.134,0.121,13.683,0.182l6.717,0.149l3.314,0.095l1.645,0.053c0.188,0.004,0.121,0.009,0.173,0.014l0.074,0.014
						l0.133,0.029c-0.113,0.053-0.195,0.104-0.249,0.148c0.032,0.012-0.121,0.023-0.244,0.034l-0.374,0.031
						c-0.262,0.019-0.519,0.038-0.772,0.057c-1.051,0.068-2.188,0.111-3.41,0.111c-5.912-0.063-11.714-0.123-17.457-0.183
						c0-0.091,0-0.269,0-0.357c-5.664,0.093-11.198,0.068-16.692,0.014c-4.984-0.054-9.953-0.106-14.928-0.16
						c-0.001,0.561-0.002,1.122-0.002,1.686c1.162-0.014,2.33-0.028,3.516-0.043c1.669-0.034,3.361-0.069,5.097-0.105
						c-0.582-0.048-0.237-0.121-0.116-0.179l0.116-0.001l-0.116,0.001c0.109-0.052,0.042-0.091-0.977-0.091
						c1.019,0,1.086,0.039,0.977,0.091c-2.774,0.011-5.506,0.021-8.201,0.032c-0.001-0.368-0.001-0.735-0.001-1.099
						c4.794,0.021,9.539,0.041,14.325,0.062c5.376,0.048,10.794,0.097,16.345,0.146c-5.474-0.022-10.894-0.044-16.296-0.066
						c-4.753,0-9.489,0-14.233,0l0.007,0.812c11.647-0.022,23.372-0.044,35.449-0.066c1.089,0,3.272,0,4.363,0
						c4.365,0.27,8.731,0.359,13.093,0.359c-1.089,0.45,3.275,1.351-5.455,1.17c0,0.091,0,0.271,0,0.36
						c8.73,0.45,12.005,1.71,3.273,2.07c-9.818,0.359-22.913,0-34.914,0.18c-2.966,0.027-5.931,0.054-8.888,0.081
						c-3.704,0.006-7.396,0.012-11.094,0.018c0.013-3.029,0.025-6.06,0.038-9.11c1.939,0.02,3.887,0.04,5.852,0.061
						c12.002,0.27,25.097,0.18,37.098,0.54c4.366,0.09,12.005-0.18,14.188,0.09c0.435,0.039,0.829,0.073,1.217,0.108
						c0.353,0.039,0.569,0.082,0.691,0.127c0.243,0.091,0.112,0.192-0.104,0.299c-7.315-0.026-14.599-0.054-21.813-0.08
						c-8.676-0.102-17.353-0.213-26.023-0.393C29.703,58.854,38.412,58.95,47.247,59c7.14,0.084,14.274,0.168,21.434,0.253
						c-0.422,0.184-0.7,0.375-0.27,0.553h1.696v1.901c-0.45,4.463-1.08,3.3-1.53,1.143c-0.023-0.14-0.047-0.283-0.07-0.431
						c-0.013-0.062-0.024-0.176-0.037-0.197l-0.037-0.078C68.383,62.042,68.331,61.957,68.279,61.892z"/>
				</g>
			</g>
		</g>
	</g>
</g>
<g id="_x31_1_-_Advanced_Functions">
</g>
<g id="_x39__-_Grades_7__x26__8">
</g>
<g id="_x38__-_CS__x28_Binary_Digits_x29_">
</g>
<g id="_x37__-_NS__x28_Blocks_x3B__Prime_factorization_of_12_x29_">
</g>
<g id="_x36__-_LR__x28_Intersection_of_lines_x29_">
</g>
<g id="_x35__-_SS__x28_Pascal_x27_s_triangle_x29_">
</g>
<g id="_x34__-_MT__x28_Cone_and_Sphere_x29_">
</g>
<g id="_x33__-_QR__x28_Suspension_Bridge_x29_">
</g>
<g id="_x32__-_ET__x28_Sine_and_exponential_x29_">
</g>
<g id="_x31__-_IF__x28_Function_diagram_x29_">
</g>
</svg>
