<?xml version="1.0" encoding="utf-8"?>
<!-- Generator: Adobe Illustrator 16.0.0, SVG Export Plug-In . SVG Version: 6.00 Build 0)  -->
<!DOCTYPE svg PUBLIC "-//W3C//DTD SVG 1.1//EN" "http://www.w3.org/Graphics/SVG/1.1/DTD/svg11.dtd">
<svg version="1.1" xmlns="http://www.w3.org/2000/svg" xmlns:xlink="http://www.w3.org/1999/xlink" x="0px" y="0px" width="130px"
	 height="180px" viewBox="0 0 130 180" enable-background="new 0 0 130 180" xml:space="preserve">
<g id="_x31_3_-_Problem_Solving__x28_Lightbulb_x29_">
</g>
<g id="_x31_2_-_Calculus__x26__Vectors__x28_Unit_Vectors_x29_">
</g>
<g id="_x31_1_-_Advanced_Functions">
</g>
<g id="_x39__-_Grades_7__x26__8">
</g>
<g id="_x38__-_CS__x28_Binary_Digits_x29_">
	<g>
		<g>
			<g>
				<path fill="#5D5F85" d="M114.586,84.195c0.018-0.059-0.177-0.151,0.146-0.127c1.008,0.116,1.755,0.48,2.709,0.695l0.095-0.074
					c0.729,0.24,1.432,0.575,2.112,0.926c1.252,0.594,2.347,1.373,2.761,2.351c0.022-0.04,0.046-0.066,0.104,0.029
					c0.133,0.194,0.147,0.479,0.219,0.77c0.006,0.155,0.011,0.318,0.017,0.484c0.012,0.164-0.031,0.411-0.042,0.617l-0.01,0.383
					c0.014,0.1,0.047,0.129,0.066,0.146c-0.016,0.397-0.084,0.735-0.157,1.046l-0.1,0.785l-0.187,0.76
					c-0.094,0.522-0.325,0.988-0.49,1.491c-0.436,0.954-1.006,1.865-1.733,2.72c-0.721,0.865-1.599,1.648-2.5,2.576
					c-0.44,0.482-0.914,0.965-1.269,1.63c-0.206,0.297-0.307,0.693-0.439,1.047c-0.046,0.381-0.156,0.776-0.091,1.154
					c0.161,1.312,0.747,2.271,1.248,3.21c0.734,1.395,1.735,3.102,2.535,4.38c0.17-0.381,2.281,2.618,2.184,1.815
					c0.533,0.851,1.301,2.156,1.419,2.179c0.183,0.031,0.459,0.16,0.854,0.592c0.397,0.432,0.95,1.131,1.586,2.423
					c0.112,0.262,0.228,0.563,0.34,0.874c0.099,0.325,0.173,0.679,0.249,0.999c0.146,0.648,0.129,1.297,0.193,1.508
					c0.048,0.292,0.108-0.028,0.107-0.486c0.012-0.429,0.009-0.872,0.099-0.509c-0.184-1.194-0.563-2.213-0.986-3.158
					c-0.425-0.948-0.9-1.833-1.394-2.686c-0.986-1.708-2.045-3.31-3.065-4.899c-1.009-1.581-2.039-3.177-2.714-4.731
					c-0.076-0.19-0.169-0.387-0.235-0.572l-0.151-0.528c-0.057-0.325-0.104-0.56-0.04-0.802c0.067-0.459,0.459-1.01,1.097-1.625
					c0.183-0.221,0.576-0.588,1.133-1.113c0.551-0.517,1.288-1.2,2.042-2.095c1.573-1.739,2.893-4.627,3.099-7.54
					c0.036-0.738,0.143-1.401,0.041-2.311c-0.031-0.425-0.174-0.852-0.279-1.268c-0.183-0.389-0.316-0.817-0.564-1.156
					c-0.915-1.445-2.219-2.311-3.382-2.907c-2.371-1.159-4.422-1.528-5.592-1.776l-0.429-0.069c-2.57-0.475-5.691-0.613-7.852-0.516
					c-0.99,0.07-1.994,0.167-2.988,0.287c0.464,0.047,0.894,0.097,1.266,0.152c-1.013-0.004-2.025,0.023-2.412,0.098
					c-2.146,0.243-0.914,0.358-0.084,0.561c0.595,0.083-0.198,0.267,0.729,0.343c-0.665,0.021-0.998,0.031-1.666,0.052
					c-0.072,0.092,2.051-0.13,1.593,0.048c-0.642-0.021-1.356,0.072-2.021,0.101c0.236,0.112,2.304-0.048,2.206,0.091
					c-0.356,0.036-1.873-0.11-1.994,0.064c-0.023,0.034,0.641,0.005,0.973-0.004c-2.043,0.138-3.145,0.39-1.282,0.444
					c-0.641,0.031-1.563,0.023-2.224,0.109l0.006,0.002c0.33-0.015,0.925-0.042,1.229-0.056l-1.15,0.082l0.205,0.05
					c0.286-0.004,0.576-0.01,0.876-0.029l-0.765,0.053c0.193,0.037,0.417,0.072,0.661,0.102c0.916,0.04,1.796,0.15,2.287,0.135
					C106.752,83.447,110.771,83.558,114.586,84.195z"/>
			</g>
		</g>
	</g>
	<g>
		<g>
			<g>
				<path fill="#5D5F85" d="M115.646,145.88c-0.041-0.045-0.132-0.042-0.074-0.136c0.2-0.273,0.535-0.313,0.736-0.587l-0.051-0.086
					c0.204-0.142,0.448-0.311,0.671-0.465c0.351-0.368,0.691-0.742,1.015-1.13c-0.034-0.015-0.063-0.034-0.037-0.079
					c0.126-0.169,0.353-0.354,0.568-0.563l0.079-0.107c0.009-0.04-0.011-0.07-0.022-0.088c0.095-0.098,0.184-0.181,0.267-0.256
					c0.868-1.208,1.678-2.494,2.514-3.895c0.141-0.325,0.271-0.657,0.436-0.943c0.27-0.405,0.68-0.877,0.951-1.271
					c-0.325-0.137,0.175-1.176-0.254-1.175c0.163-0.261,0.408-0.653,0.336-0.722c-0.234-0.213-0.353-0.572-0.186-1.343
					c0.094-0.286,0.41-0.647,0.403-0.767c-0.014-0.188-0.36,0.264-0.373,0.075c-1.016,1.916-2.228,3.809-3.723,5.626
					c-0.185,0.364-1.164,1.583-2.267,2.805c-1.11,1.216-2.342,2.429-2.878,2.889l-0.09,0.092c-0.569,0.52-1.236,1.174-1.633,1.709
					c-0.148,0.246-0.323,0.533-0.492,0.812c0.144-0.051,0.279-0.096,0.402-0.129c-0.237,0.2-0.474,0.401-0.521,0.526
					c-0.4,0.544-0.006,0.431,0.343,0.439c0.206-0.043,0.123,0.24,0.409,0.127c-0.16,0.133-0.24,0.2-0.401,0.334
					c0.047,0.09,0.452-0.461,0.448-0.245c-0.175,0.105-0.307,0.297-0.468,0.432c0.142,0.053,0.58-0.439,0.641-0.321
					c-0.063,0.1-0.561,0.254-0.484,0.403c0.016,0.03,0.178-0.104,0.259-0.171c-0.453,0.462-0.629,0.813-0.061,0.561
					c-0.16,0.132-0.424,0.267-0.583,0.43l0.003,0.001c0.091-0.069,0.256-0.166,0.334-0.229l-0.293,0.237l0.095,0.009
					c0.088-0.047,0.166-0.094,0.242-0.156l-0.193,0.157c0.083,0,0.17-0.007,0.261-0.021c0.295-0.111,0.606-0.181,0.73-0.283
					C113.724,147.589,114.708,146.757,115.646,145.88z"/>
			</g>
		</g>
	</g>
	<g>
		<path fill="#292D73" d="M29.04,83.375c-7.895,0-14.294-4.424-14.294-9.88V23.781c0-5.456,6.399-9.88,14.294-9.88h71.918
			c7.895,0,14.294,4.424,14.294,9.88v49.714c0,5.456-6.399,9.88-14.294,9.88H29.04z"/>
		<g>
			<g>
				<g>
					<path fill="#292D73" d="M38.754,80.963c1.373,0.028,2.748,0.056,4.107,0.083c12.599,0.203,25.196,0.27,38.144,0.321
						c6.474,0.025,13.033,0.051,19.727,0.078c3.066,0.02,6.155-0.623,8.717-2.16c1.267-0.762,2.368-1.748,3.108-2.893
						c0.323-0.587,0.641-1.183,0.75-1.82c0.102-0.312,0.096-0.636,0.133-0.957c0.026-0.351,0.015-0.849,0.023-1.268
						c0.136-9.798,0.169-20.295,0.169-30.792c-0.006-5.248-0.011-10.497-0.017-15.657l-0.003-1.931
						c-0.023-0.578-0.049-1.003-0.183-1.499c-0.244-0.953-0.757-1.857-1.443-2.653c-1.376-1.609-3.409-2.734-5.508-3.41
						c2.493,0.792,4.807,2.275,6.097,4.265c0.638,1.001,0.986,2.058,0.961,3.213l-0.018,4.395
						c-0.021,5.867-0.043,11.757-0.063,17.658c-0.021,5.902-0.043,11.815-0.064,17.727l-0.037,8.865
						c-0.006,0.352,0.007,0.777-0.015,1.068c-0.042,0.265-0.011,0.537-0.089,0.798c-0.108,0.525-0.271,1.049-0.55,1.542
						c-0.522,0.996-1.352,1.901-2.347,2.646c-2.001,1.503-4.592,2.38-7.215,2.661c-0.657,0.083-1.32,0.104-1.984,0.116l-2.181-0.008
						l-4.396-0.032c-5.852-0.054-11.678-0.107-17.471-0.16c-11.576-0.126-22.992-0.296-34.147-0.53
						c4.511-0.318,9.9-0.573,16.176-0.573c7.554,0.054,15.054,0.108,22.512,0.162c3.731,0.021,7.451,0.041,11.163,0.062
						c1.855,0.009,3.709,0.018,5.561,0.027l2.748,0.006l1.183-0.042l1.171-0.122c0.02,0.135,0.058,0.398,0.077,0.531
						c1.13-0.191,2.232-0.473,3.278-0.86c1.032-0.409,2.006-0.913,2.864-1.516c1.716-1.218,2.832-2.868,2.934-4.465
						c0.016-5.103,0.03-10.171,0.045-15.221c0.06-10.23,0.118-20.381,0.178-30.532l0.024-3.806l0.003-0.476l-0.024-0.321
						c-0.01-0.208-0.014-0.418-0.077-0.622c-0.066-0.415-0.219-0.824-0.409-1.226c-0.754-1.636-2.474-3.019-4.408-3.956
						c-1.979-0.91-4.215-1.419-6.485-1.473c-0.534-0.033-1.226-0.019-1.85-0.023l-1.914-0.003l-3.835-0.003
						c-10.235,0-20.558,0.059-31.055,0.228c1.493,0.072,0.607,0.182,0.298,0.27c-0.104,0-0.202,0-0.298,0c0.096,0,0.194,0,0.298,0
						c-0.28,0.076-0.108,0.136,2.504,0.136c-2.612,0-2.784-0.06-2.504-0.136c10.328-0.018,20.487-0.035,30.561-0.052
						c2.508,0.003,5.01,0.006,7.508,0.01c2.179,0.04,4.353,0.44,6.262,1.284c1.915,0.808,3.549,2.104,4.402,3.563
						c0.426,0.729,0.649,1.476,0.647,2.23l-0.001,3.701c-0.036,9.987-0.072,19.973-0.108,30.042
						c-0.025,5.033-0.052,10.087-0.077,15.173c-0.005,0.301,0.002,0.673-0.012,0.917c-0.025,0.182-0.033,0.364-0.046,0.547
						c-0.051,0.18-0.093,0.359-0.126,0.542c-0.071,0.178-0.145,0.356-0.206,0.539c-0.325,0.716-0.869,1.421-1.567,2.05
						c-1.394,1.276-3.384,2.186-5.482,2.663c1.634-0.378,3.18-1.016,4.469-1.875c1.246-0.882,2.264-1.975,2.645-3.102
						c0.137-0.276,0.15-0.563,0.238-0.839c-0.002-0.314,0.06-0.462,0.046-1.057l0.008-2.986l0.014-5.965
						c0.012-7.947,0.022-15.871,0.033-23.782c0.002-3.956,0.003-7.909,0.005-11.86v-2.963v-1.481v-0.186l-0.012-0.11l-0.02-0.213
						c-0.01-0.142-0.003-0.287-0.053-0.426c-0.192-1.128-0.959-2.276-2.081-3.248c-2.313-1.932-5.762-2.956-9.14-2.953
						c-3.948,0.003-7.898,0.005-11.852,0.008c-15.826,0.021-31.703,0.042-47.727,0.063c-4.006,0.005-8.021,0.01-12.047,0.015
						c-1.825-0.002-3.478,0.192-5.113,0.676c-1.606,0.483-3.099,1.235-4.28,2.19c-1.152,0.974-1.943,2.136-2.134,3.262
						c-0.05,0.139-0.044,0.284-0.053,0.426c-0.005,0.167-0.038,0.217-0.029,0.523v1.525l0.002,3.053
						c0.001,4.075,0.002,8.163,0.003,12.267c0,2.794,0,8.396,0,11.194C17.59,57.64,17.454,63.24,17.37,68.838
						c-0.019,1.402-0.036,2.801-0.054,4.199c0,0.164-0.009,0.375-0.001,0.5l0.023,0.33c-0.009,0.222,0.05,0.439,0.097,0.659
						c0.087,0.438,0.264,0.874,0.497,1.299c0.937,1.725,2.924,3.15,5.135,3.994c-1.243-0.15,0.264,1.017-0.127,1.258
						c-0.11,0.068-0.355,0.085-0.803-0.027c-0.455-0.096-1.117-0.315-2.015-0.785c-0.892-0.465-2.027-1.224-3.111-2.545
						c-0.51-0.678-1.001-1.496-1.298-2.491c-0.054-0.252-0.109-0.511-0.166-0.777c-0.033-0.269-0.038-0.547-0.062-0.831
						c-0.015-0.605,0.007-1.294,0.011-1.988c-0.135,0-0.405,0-0.54,0c-0.03,1.406-0.173,2.743,0.2,3.975
						c0.331,1.235,0.977,2.322,1.734,3.217c1.514,1.816,3.384,2.951,5.036,3.755c3.375,1.558,6.009,1.831,7.111,2.187
						c0.525,0.156,0.7,0.311,0.492,0.46c-0.19,0.155-0.81,0.288-1.947,0.373c-1.119,0.033-2.732,0.034-4.82-0.468
						c-1.038-0.271-2.204-0.613-3.445-1.213c-1.246-0.572-2.583-1.378-3.883-2.58c-1.443-1.339-2.779-3.144-3.356-5.418
						c-0.145-0.565-0.266-1.137-0.292-1.732c-0.021-0.269-0.054-0.649-0.052-0.83l-0.009-0.624c-0.01-0.834-0.02-1.674-0.03-2.521
						c-0.024-3.395-0.05-6.891-0.076-10.475c-0.002-7.175-0.003-14.695-0.005-22.394c0.01-3.849,0.02-7.742,0.028-11.656
						l0.003-1.469l0.001-0.368c-0.001-0.112,0.017-0.335,0.025-0.498c0.024-0.354,0.05-0.708,0.089-1.06
						c0.235-1.398,0.732-2.721,1.419-3.879c1.412-2.28,3.385-3.92,5.46-5.055c2.088-1.138,4.309-1.845,6.55-2.222
						c1.12-0.192,2.249-0.29,3.374-0.314c0.597-0.027,1.023-0.013,1.531-0.018l1.469-0.004c3.912-0.022,7.803-0.045,11.655-0.067
						c11.204-0.051,22.403-0.101,33.596-0.152l16.795,0.019l4.198,0.021l2.1,0.013l1.05,0.008l1.212,0.048
						c3.228,0.18,6.464,1.02,9.422,2.701c2.005,1.193,3.94,2.816,5.285,5.125c0.673,1.149,1.124,2.487,1.339,3.874
						c0.148,1.596,0.061,2.326,0.071,3.36c-0.03,3.928-0.062,7.885-0.093,11.864c-0.044,7.963-0.088,16.009-0.133,24.057
						l-0.032,6.035l-0.018,3.015l-0.01,1.506l-0.004,0.753c-0.005,0.266,0.007,0.453-0.024,0.847
						c-0.021,1.409-0.45,2.768-1.018,3.981c-0.578,1.228-1.404,2.231-2.268,3.145c-1.79,1.746-3.883,2.936-6.037,3.727
						c-2.163,0.775-4.401,1.17-6.623,1.251c-1.167,0.045-2.076,0.009-3.079,0.004c-0.985-0.012-1.969-0.023-2.95-0.035
						c-3.919-0.058-7.81-0.116-11.666-0.173c-11.202-0.135-30.799,0.27-36.4-0.135c-4.021-0.194-4.181-0.481-3.565-0.802
						c18.405,0.041,36.752,0.082,54.898,0.122c0.708-0.001,1.361,0.023,2.115,0l1.121-0.033l1.118-0.108
						c1.486-0.185,2.974-0.472,4.404-0.993c2.833-1.017,5.648-2.672,7.461-5.493c0.892-1.388,1.462-3.105,1.454-4.827l0.033-4.173
						l0.067-8.346c0.113-11.121,0.226-22.244,0.338-33.376c-0.185,10.878-0.313,21.902-0.405,33.04
						c-0.021,2.786-0.041,5.577-0.062,8.375l-0.026,4.202c0.011,0.313-0.037,0.808-0.069,1.223
						c-0.012,0.436-0.154,0.848-0.237,1.271c-0.22,0.832-0.567,1.615-0.987,2.34c-1.75,2.895-4.575,4.627-7.435,5.692
						c-1.447,0.531-2.951,0.846-4.46,1.043l-1.137,0.115l-1.139,0.039c-0.771,0.028-1.434,0.004-2.155,0.008
						c-18.101-0.126-36.211-0.253-54.321-0.38c0.662-0.275,1.298-0.563,0.194-0.83c0,0-5.597,0-8.396,0
						c-11.202-0.675-8.396-1.62-2.807-2.295C35.379,81.275,36.998,81.125,38.754,80.963z"/>
				</g>
			</g>
		</g>
		<g>
			<g>
				<g>
					<path fill="#292D73" d="M44.781,72.193c1.043,0.028,2.088,0.056,3.12,0.083c9.568,0.203,19.137,0.27,28.97,0.321
						c4.917,0.025,9.899,0.051,14.983,0.078c0.666,0.011,1.213-0.007,1.773-0.026c0.561-0.046,1.12-0.106,1.672-0.211
						c1.101-0.209,2.175-0.555,3.145-1.048c0.961-0.495,1.849-1.13,2.436-1.899c0.294-0.381,0.538-0.781,0.68-1.194
						c0.09-0.204,0.111-0.417,0.17-0.625c0.005-0.239,0.054-0.354,0.047-0.743c0.136-7.442,0.169-15.415,0.169-23.387
						c-0.006-3.986-0.011-7.972-0.017-11.892l-0.003-1.467c-0.018-0.412-0.038-0.68-0.132-1.019
						c-0.173-0.642-0.541-1.265-1.044-1.82c-1.006-1.125-2.507-1.931-4.063-2.412c1.848,0.563,3.551,1.642,4.479,3.016
						c0.456,0.695,0.702,1.395,0.684,2.173l-0.018,3.338c-0.021,4.456-0.043,8.93-0.064,13.412
						c-0.021,4.482-0.042,8.973-0.063,13.464l-0.037,6.733c-0.001,0.29-0.036,0.38-0.039,0.581c-0.03,0.173-0.082,0.343-0.116,0.517
						c-0.128,0.34-0.28,0.681-0.507,1.007c-0.446,0.654-1.104,1.251-1.869,1.739c-1.538,0.992-3.488,1.508-5.427,1.655
						c-0.922,0.054-2.074,0.026-3.189,0.018l-3.339-0.032c-4.442-0.054-8.867-0.107-13.27-0.16
						c-8.792-0.126-17.464-0.296-25.937-0.53c3.427-0.318,7.521-0.573,12.286-0.573c5.739,0.054,11.436,0.108,17.099,0.162
						c2.834,0.021,5.66,0.041,8.479,0.062c1.409,0.009,2.817,0.018,4.223,0.027l2.108,0.012c0.378,0.007,0.656-0.005,0.937-0.013
						c0.287,0.001,0.571-0.021,0.853-0.054c0.014,0.136,0.041,0.4,0.056,0.533c1.663-0.187,3.275-0.702,4.561-1.495
						c1.312-0.773,2.176-1.88,2.336-2.817c0.082-0.254,0.052-1.493,0.056-2.426l0.001-2.933c0.006-1.953,0.012-3.9,0.017-5.844
						c0.06-7.767,0.118-15.478,0.178-23.189l0.024-2.891l0.003-0.361l-0.018-0.193c-0.001-0.127-0.007-0.256-0.048-0.382
						c-0.04-0.256-0.139-0.515-0.27-0.773c-0.499-1.058-1.724-2.042-3.137-2.693c-1.438-0.645-3.079-1.006-4.746-1.046
						c-0.385-0.024-0.92-0.014-1.392-0.018l-1.454-0.003l-2.912-0.003c-7.773,0-15.614,0.059-23.587,0.228
						c1.134,0.072,0.461,0.182,0.226,0.27c-0.078,0-0.153,0-0.226,0c0.072,0,0.147,0,0.226,0c-0.212,0.076-0.081,0.136,1.902,0.136
						c-1.983,0-2.114-0.06-1.902-0.136c7.847-0.018,15.562-0.035,23.213-0.052c1.901,0.002,3.8,0.005,5.694,0.007
						c1.587,0.03,3.172,0.309,4.546,0.898c1.387,0.555,2.535,1.468,3.099,2.386c0.284,0.461,0.404,0.894,0.406,1.325l-0.002,2.791
						c-0.036,7.584-0.072,15.168-0.108,22.818c-0.025,3.823-0.052,7.661-0.077,11.524c-0.017,0.491-0.118,0.821-0.382,1.275
						c-0.26,0.431-0.676,0.877-1.199,1.277c-1.057,0.804-2.523,1.385-4.061,1.649c1.194-0.214,2.347-0.6,3.291-1.162
						c0.951-0.546,1.695-1.263,2.025-1.929c0.154-0.333,0.279-0.637,0.27-0.947c0.017-0.03,0.016-0.25,0.016-0.44l0.002-0.567
						l0.004-1.134l0.014-4.53c0.012-6.037,0.022-12.054,0.033-18.063c0.002-3.004,0.003-6.007,0.005-9.008v-2.251v-1.125
						l-0.001-0.136l-0.009-0.059l-0.012-0.118c-0.002-0.079,0-0.159-0.032-0.237c-0.102-0.623-0.596-1.354-1.371-2.007
						c-1.621-1.295-4.12-2.035-6.574-2.025c-2.998,0.003-5.997,0.006-8.999,0.009c-12.021,0.021-24.079,0.042-36.25,0.063
						c-3.042,0.005-6.092,0.01-9.149,0.015c-0.823,0-1.401,0.005-2.022,0.063c-0.618,0.057-1.231,0.149-1.818,0.301
						c-1.173,0.292-2.301,0.748-3.165,1.373c-0.442,0.304-0.797,0.651-1.095,0.99c-0.262,0.349-0.465,0.688-0.565,1.004
						c-0.08,0.383-0.11,0.39-0.103,1.374l0.002,2.319c0.001,3.095,0.002,6.2,0.003,9.316c0,2.123,0,6.376,0,8.502
						c-0.202,4.252-0.338,8.506-0.422,12.758c-0.018,1.065-0.036,2.128-0.054,3.189c0,0.118-0.009,0.299-0.001,0.366l0.014,0.196
						c-0.013,0.133,0.034,0.262,0.057,0.395c0.054,0.265,0.168,0.535,0.319,0.809c0.616,1.114,2.049,2.122,3.651,2.712
						c-0.938-0.011,0.123,0.951-0.189,1.231c-0.089,0.072-0.281,0.115-0.622,0.052c-0.348-0.049-0.851-0.19-1.533-0.518
						c-0.675-0.33-1.538-0.871-2.367-1.828c-0.383-0.494-0.765-1.085-0.989-1.81c-0.04-0.184-0.081-0.372-0.123-0.565
						c-0.031-0.194-0.028-0.397-0.047-0.603c-0.013-0.447,0.007-0.979,0.012-1.503c-0.135,0-0.405,0-0.54,0
						c-0.034,1.071-0.152,2.078,0.134,3.009c0.258,0.932,0.745,1.762,1.329,2.439c1.167,1.373,2.588,2.25,3.851,2.879
						c2.574,1.221,4.593,1.506,5.445,1.851c0.398,0.156,0.531,0.311,0.374,0.46c-0.142,0.153-0.617,0.289-1.508,0.385
						c-0.876,0.058-2.138,0.089-3.788-0.269c-0.822-0.188-1.745-0.443-2.741-0.892c-0.998-0.427-2.077-1.051-3.152-1.988
						c-1.186-1.057-2.341-2.496-2.857-4.408c-0.123-0.475-0.236-0.955-0.262-1.458c-0.019-0.226-0.045-0.552-0.046-0.698
						l-0.009-0.474c-0.01-0.633-0.02-1.272-0.03-1.915c-0.024-2.581-0.05-5.235-0.076-7.956c-0.002-5.452-0.003-11.161-0.004-17.009
						c0.009-2.923,0.018-5.88,0.027-8.853l0.002-0.558l0.001-0.279l0.022-0.43c0.023-0.299,0.04-0.601,0.086-0.895l0.196-0.872
						c0.33-1.125,0.847-2.187,1.515-3.024c1.31-1.738,2.979-2.836,4.661-3.653c1.696-0.806,3.465-1.255,5.234-1.479
						c0.865-0.112,1.818-0.146,2.608-0.154l2.232-0.007c2.971-0.022,5.925-0.045,8.853-0.067c8.512-0.051,17.019-0.101,25.517-0.152
						c4.253,0.006,8.502,0.013,12.757,0.019l3.188,0.021l1.594,0.013l0.798,0.008l0.954,0.039c2.541,0.145,5.095,0.779,7.471,2.091
						c1.616,0.92,3.2,2.206,4.356,4.083c0.566,0.949,0.978,2.057,1.163,3.232c0.133,1.386,0.053,1.888,0.062,2.68
						c-0.03,2.984-0.062,5.99-0.093,9.011c-0.044,6.049-0.088,12.16-0.133,18.271l-0.032,4.583l-0.018,2.29
						c-0.024,0.807,0.04,1.346-0.108,2.698c-0.198,1.161-0.643,2.23-1.218,3.159c-0.6,0.895-1.298,1.676-2.062,2.305
						c-1.522,1.276-3.229,2.057-4.944,2.588c-1.724,0.521-3.482,0.752-5.219,0.749c-1.509-0.021-3.014-0.042-4.515-0.062
						c-2.974-0.058-5.928-0.116-8.86-0.173c-8.508-0.135-23.393,0.27-27.646-0.135c-3.055-0.194-3.176-0.481-2.709-0.802
						c13.98,0.041,27.913,0.082,41.697,0.122c4.172,0.236,9.491-0.453,12.868-4.472c0.813-1.013,1.434-2.306,1.592-3.713
						c0.081-0.778,0.057-1.229,0.068-1.769l0.016-1.585l0.068-6.339c0.113-8.442,0.226-16.889,0.338-25.35
						c-0.185,8.262-0.313,16.635-0.405,25.095c-0.021,2.116-0.041,4.236-0.062,6.36l-0.014,1.595l-0.006,0.798l-0.004,0.399
						c-0.002,0.14-0.021,0.342-0.032,0.509c-0.099,1.412-0.674,2.74-1.464,3.786c-3.303,4.163-8.715,4.901-12.964,4.685
						c-13.747-0.126-27.5-0.253-41.259-0.38c0.503-0.275,0.986-0.563,0.148-0.83c0,0-4.251,0-6.377,0
						c-8.508-0.675-6.377-1.62-2.132-2.295C42.223,72.505,43.459,72.354,44.781,72.193z"/>
				</g>
			</g>
		</g>
	</g>
	<g>
		<path fill="#57D7FF" d="M120.768,123.631c0,5.042-5.374,9.129-12.002,9.129h-86c-6.628,0-12.002-4.087-12.002-9.129
			c0,0,15.374-30.141,22.002-30.141h66C105.394,93.49,120.768,123.631,120.768,123.631z"/>
		<g>
			<g>
				<g>
					<path fill="#292D73" d="M114.898,117.825c-0.525-0.979-1.052-1.96-1.572-2.929c-2.467-4.45-5.081-8.837-8.037-12.914
						c-0.743-1.01-1.504-2.008-2.307-2.935c-0.795-0.931-1.633-1.828-2.488-2.523c-0.425-0.353-0.848-0.628-1.219-0.829
						c-0.176-0.049-0.292-0.14-0.419-0.14c-0.063-0.003-0.124-0.023-0.188-0.034l-0.435-0.003c-1.313-0.007-2.632-0.014-3.953-0.021
						c-10.577-0.05-21.44-0.084-32.874-0.219c-8.004-0.135-16.58-0.168-25.154-0.168l-3.215,0.001
						c-0.162,0.002-0.201-0.006-0.272,0.014c-0.067,0.013-0.135,0.022-0.203,0.027c-0.136,0.016-0.263,0.099-0.422,0.139
						c-0.163,0.079-0.342,0.192-0.516,0.281c-0.177,0.104-0.359,0.254-0.541,0.377c-1.463,1.117-2.831,2.704-4.098,4.284
						c-2.531,3.218-4.752,6.683-6.826,10.055c2.49-3.966,5.088-7.96,8.098-11.431c0.748-0.865,1.539-1.677,2.348-2.361
						c0.79-0.685,1.696-1.219,2.159-1.223c0.065-0.03,0.47-0.006,0.746-0.012l0.902,0.004l1.806,0.008l3.614,0.015
						c9.641,0.048,19.318,0.096,28.955,0.144c9.623,0.092,19.202,0.183,28.677,0.272c0.554,0.017,1.351-0.006,1.361,0.053
						c0.097-0.005,0.184,0.085,0.318,0.11l0.487,0.282c0.716,0.479,1.485,1.226,2.209,1.997c1.456,1.584,2.811,3.4,4.085,5.263
						c2.55,3.739,4.845,7.678,7.003,11.626c-2.257-3.252-4.662-6.721-7.382-10.641c-0.839-1.227-1.707-2.415-2.601-3.537
						c-0.889-1.116-1.818-2.192-2.739-3.036c-0.448-0.396-0.921-0.787-1.25-0.962c-0.073-0.035-0.183-0.124-0.22-0.126
						c-0.046-0.01-0.066-0.017-0.073-0.035c-0.012-0.007-0.017,0.015-0.022-0.003c-0.008-0.01,0.007-0.015-0.021-0.013l-0.286-0.002
						c-1.528-0.012-3.055-0.023-4.578-0.036c-6.097-0.038-12.158-0.075-18.194-0.112c0-0.136,0-0.402,0-0.536
						c-13.799,0.163-27.229,0.085-40.587-0.021l-1.252-0.01c-0.39,0.006-0.965-0.028-0.932,0.011c-0.145,0-0.599,0.159-1.135,0.571
						c-1.048,0.741-2.149,1.881-3.166,3.061c-2.049,2.396-3.936,5.078-5.735,7.818c-1.799,2.747-3.514,5.578-5.169,8.458
						c-0.828,1.44-1.643,2.893-2.44,4.356l-1.185,2.205l-0.86,1.647c0.012,0.131,0.001,0.243,0.044,0.392l0.075,0.37l0.139,0.4
						c0.067,0.274,0.242,0.521,0.352,0.788c0.171,0.245,0.3,0.511,0.504,0.744c0.756,0.958,1.803,1.796,3.03,2.372
						c1.223,0.583,2.587,0.949,3.985,1.084c0.348,0.046,0.7,0.061,1.055,0.06l0.538,0.01l0.626-0.011
						c0.834-0.016,1.671-0.031,2.51-0.046c-1.22-0.072-0.497-0.182-0.243-0.269c0.084,0,0.164,0,0.243-0.001
						c-0.079,0-0.159,0-0.243,0.001c0.228-0.077,0.088-0.136-2.046-0.136c2.134,0,2.273,0.06,2.046,0.136l-2.484,0.009
						c-0.443,0.008-0.764-0.011-1.104-0.022c-0.343,0.002-0.678-0.048-1.015-0.084c-1.343-0.165-2.642-0.546-3.793-1.123
						c-1.143-0.586-2.119-1.38-2.802-2.275c-0.328-0.452-0.604-0.92-0.758-1.405c-0.037-0.121-0.092-0.239-0.122-0.361
						c-0.017-0.099-0.054-0.299-0.062-0.313c-0.029-0.099-0.019-0.151-0.026-0.228l0.785-1.496l1.166-2.166
						c0.783-1.439,1.58-2.867,2.39-4.284c1.619-2.833,3.288-5.623,5.036-8.329c1.746-2.702,3.573-5.348,5.545-7.725
						c0.982-1.172,2.024-2.296,3.04-3.116c0.476-0.376,1.042-0.734,1.217-0.753c0.038-0.034,0.074-0.02,0.105-0.021
						c0.059-0.012-0.024-0.024,0.26-0.017l1.23,0.005c13.126,0.08,26.315,0.161,39.859,0.244
						c-13.364-0.036-26.598-0.071-39.795-0.106l-1.237,0h-0.259c-0.013-0.005-0.023,0.016-0.034,0.016
						c-0.022,0.014-0.048-0.021-0.078,0.015c-0.114-0.006-0.69,0.357-1.148,0.718c-1.003,0.813-2.044,1.939-3.022,3.115
						c-1.967,2.385-3.792,5.044-5.533,7.754c-1.745,2.715-3.408,5.51-5.02,8.339c-0.806,1.415-1.599,2.84-2.377,4.273l-1.904,3.58
						c0.006,0.05-0.004,0.074,0.019,0.145c0.004-0.004,0.039,0.178,0.055,0.273c0.02,0.114,0.078,0.223,0.11,0.336
						c0.135,0.453,0.402,0.887,0.689,1.318c0.631,0.844,1.541,1.602,2.607,2.175c1.067,0.576,2.285,0.97,3.55,1.164l0.956,0.109
						l0.969,0.036l2.375-0.002c6.359-0.011,12.738-0.021,19.147-0.032c12.817-0.012,25.751-0.023,38.875-0.036
						c2.283,0,6.859,0,9.146,0c4.573,0.203,9.148,0.337,13.722,0.422l1.716,0.029c0.574,0.01,1.167,0.021,1.608,0.001
						c0.959-0.012,1.91-0.149,2.821-0.393c1.829-0.457,3.505-1.408,4.651-2.651c-0.375,0.862,0.935,0.251,1.075,0.638
						c0.041,0.115-0.004,0.303-0.204,0.607c-0.188,0.314-0.543,0.739-1.174,1.253c-0.62,0.527-1.563,1.097-2.898,1.597
						c-1.347,0.487-3.081,0.87-5.312,0.79c0,0.135,0,0.405,0,0.54c2.271,0.142,4.371-0.189,6.197-0.787
						c1.814-0.626,3.331-1.547,4.479-2.58c1.154-1.031,1.916-2.188,2.371-3.195c0.246-0.497,0.387-0.969,0.534-1.363
						c0.107-0.401,0.207-0.736,0.3-0.993c0.156-0.429,0.311-0.572,0.46-0.402c0.071,0.097,0.153,0.222,0.212,0.52
						c0.046,0.315,0.114,0.75,0.097,1.295c-0.026,1.087-0.36,2.677-1.413,4.387c-1.062,1.673-2.836,3.439-5.354,4.641
						c-1.412,0.684-2.931,1.167-4.506,1.447c-0.789,0.115-1.589,0.223-2.398,0.243c-0.43,0.025-0.766,0.028-1.104,0.033
						l-1.034,0.015c-2.775,0.025-5.631,0.05-8.557,0.076c-5.863,0.001-12.005,0.003-18.294,0.004
						c-12.577-0.034-25.726-0.101-38.302,0.034c-5.983,0.04-11.967,0.079-17.945,0.118l-1.122,0.005l-1.324-0.039
						c-0.901-0.058-1.804-0.166-2.697-0.357c-1.786-0.372-3.544-1.013-5.182-1.979c-1.629-0.97-3.169-2.255-4.332-3.985
						c-0.279-0.442-0.574-0.868-0.792-1.361l-0.341-0.723l-0.267-0.769c-0.084-0.258-0.176-0.512-0.224-0.784l-0.082-0.403
						l-0.084-0.511c-0.105-0.713-0.113-1.478-0.174-2.214l1.55-2.965l1.149-2.115c0.772-1.405,1.56-2.801,2.362-4.19
						c1.608-2.777,3.28-5.523,5.049-8.228c1.771-2.682,3.625-5.366,5.739-8.002c1.073-1.315,2.2-2.619,3.561-3.886
						c0.675-0.633,1.447-1.258,2.372-1.85c0.526-0.291,0.992-0.581,1.727-0.81c0.178-0.059,0.354-0.118,0.535-0.166l0.569-0.071
						l0.57-0.071c0.094-0.03,0.19-0.014,0.286-0.021l0.165,0.001c6.506,0.044,13.079,0.088,19.652,0.133
						c13.149,0.084,26.298,0.186,38.873,0.456c1.148,0.008,2.396,0.018,3.718,0.028c0.661,0,1.34,0,2.032,0
						c0.347-0.001,0.696-0.002,1.049-0.003l0.265-0.001c0.14-0.007,0.298,0.016,0.444,0.039l0.9,0.117
						c0.568,0.178,1.143,0.372,1.538,0.617c0.213,0.118,0.442,0.237,0.641,0.363l0.554,0.387c0.731,0.523,1.348,1.077,1.933,1.642
						c1.161,1.13,2.17,2.304,3.111,3.467c3.686,4.672,6.339,9.146,7.386,11.224c1.544,2.949,1.342,3.212,0.815,2.936
						c-1.906-3.269-3.889-6.496-6.04-9.635c-1.081-1.566-2.204-3.111-3.424-4.608c-1.239-1.488-2.499-2.961-4.185-4.243
						l-0.657-0.468l-0.753-0.421c-0.526-0.263-1.194-0.489-1.866-0.533c-0.377-0.062-0.59-0.023-0.819-0.035l-0.7-0.001l-1.4-0.003
						c-1.866-0.005-3.73-0.01-5.593-0.015c-3.725-0.012-7.44-0.025-11.146-0.037c-9.089-0.083-18.179-0.167-27.273-0.25
						c-4.544-0.051-9.088-0.103-13.635-0.154l-3.408-0.043l-1.704-0.022l-0.426-0.006c-0.207-0.01-0.448,0.041-0.67,0.062
						c-0.224,0.033-0.457,0.042-0.675,0.096l-0.63,0.21c-1.54,0.62-2.505,1.476-3.464,2.311C26.534,95,25.74,95.895,24.94,96.79
						c0.787-0.872,1.569-1.743,2.495-2.568c0.937-0.818,1.881-1.65,3.339-2.279c0.389-0.127,0.803-0.325,1.254-0.34l0.664-0.083
						l0.496,0.002l1.682,0.028l3.369,0.052c4.507,0.056,9.031,0.111,13.575,0.167c9.11,0.061,18.297,0.122,27.549,0.183
						l11.093,0.091l5.547,0.045l2.833,0.032c0.322,0.05,0.652,0.076,0.967,0.146c0.309,0.104,0.604,0.212,0.887,0.327
						c0.497,0.267,0.991,0.544,1.395,0.863c1.682,1.247,2.918,2.704,4.138,4.171c1.198,1.477,2.305,2.999,3.359,4.547
						c2.106,3.098,4.047,6.278,5.901,9.5c-0.514-0.329-1.025-0.63-0.795,0.284c0,0,0.576,0.989,1.296,2.226
						c0.701,1.247,1.544,2.743,2.105,3.74c1.91,4.179,2.307,5.901,1.948,6.078c-0.357,0.188-1.494-1.14-2.868-2.972
						C116.486,120.066,115.721,118.985,114.898,117.825z"/>
				</g>
			</g>
		</g>
		<g>
			<g>
				<g>
					<path fill="#5D5F85" d="M50.033,104.993c0.007-0.061-0.195-0.122,0.119-0.149c0.988-0.058,1.783,0.146,2.772,0.088l0.071-0.098
						c0.756,0.045,1.568,0.094,2.376,0.143c1.494-0.023,2.983-0.047,4.476-0.07c-0.038-0.036-0.057-0.069,0.092-0.082
						c0.617-0.026,1.473,0.008,2.359,0.019c0.131-0.006,0.262-0.011,0.391-0.017c0.101-0.021,0.127-0.055,0.143-0.077
						c0.397,0.009,0.754,0.016,1.088,0.023c4.326-0.206,8.776-0.417,13.56-0.644c1.013-0.09,2.026-0.181,3.002-0.222
						c1.445-0.038,3.291,0.026,4.7,0.038c-0.216-0.346,3.221-0.515,2.534-0.865c0.939,0.007,2.351,0.019,2.424-0.079
						c0.218-0.293,0.941-0.632,3.437-0.809c0.977-0.041,2.477,0.082,2.821,0.023c0.542-0.094-1.267-0.207-0.724-0.301
						c-7.259-0.106-14.249,0.021-21.558,0.019c-2.487,0.153-19.268,0.221-23.577,0.153l-0.392,0.004
						c-2.352-0.019-5.207,0.007-7.197,0.139c-0.884,0.088-1.83,0.183-2.765,0.276c0.412,0.06,0.807,0.117,1.173,0.17
						c-0.94-0.007-1.881-0.015-2.242,0.047c-2.003,0.148-0.868,0.321-0.098,0.557c0.554,0.103-0.195,0.261,0.672,0.366
						c-0.625-0.005-0.938-0.007-1.566-0.013c-0.071,0.098,1.931-0.05,1.495,0.111c-0.603-0.038-1.278,0.022-1.904,0.017
						c0.217,0.133,2.17,0.05,2.073,0.181c-0.338,0.03-1.76-0.178-1.881-0.015c-0.024,0.033,0.603,0.038,0.916,0.041
						c-1.929,0.05-2.991,0.206-1.23,0.383c-0.611-0.005-1.476-0.074-2.122-0.052l0.005,0.003c0.316,0.011,0.887,0.031,1.177,0.042
						l-1.101-0.009l0.192,0.068c0.273,0.02,0.549,0.036,0.835,0.039l-0.731-0.006c0.183,0.053,0.393,0.104,0.623,0.153
						c0.868,0.105,1.7,0.259,2.17,0.263C42.434,104.928,46.243,104.982,50.033,104.993z"/>
				</g>
			</g>
		</g>
		<g>
			<g>
				<g>
					<path fill="#5D5F85" d="M47.788,110.11c0.008-0.061-0.223-0.122,0.136-0.149c1.129-0.058,2.036,0.146,3.166,0.088l0.081-0.098
						c0.866,0.045,1.79,0.094,2.714,0.143c1.708-0.024,3.408-0.047,5.111-0.07c-0.044-0.036-0.064-0.069,0.104-0.082
						c0.706-0.026,1.683,0.008,2.695,0.019c0.149-0.006,0.3-0.011,0.446-0.017c0.115-0.021,0.145-0.056,0.163-0.077
						c0.455,0.009,0.861,0.016,1.242,0.023c4.946-0.206,10.021-0.417,15.484-0.644c1.156-0.09,2.313-0.18,3.428-0.222
						c1.651-0.038,3.758,0.026,5.368,0.038c-0.247-0.346,3.677-0.515,2.894-0.865c1.073,0.007,2.685,0.019,2.768-0.079
						c0.249-0.293,1.075-0.632,3.925-0.809c1.115-0.042,2.828,0.082,3.222,0.023c0.619-0.094-1.446-0.207-0.826-0.301
						c-8.29-0.106-16.271,0.021-24.618,0.019c-2.841,0.153-22.003,0.221-26.925,0.153l-0.447,0.004
						c-2.685-0.019-5.945,0.007-8.218,0.139c-1.016,0.089-2.093,0.183-3.157,0.276c0.473,0.061,0.924,0.118,1.339,0.17
						c-1.074-0.007-2.148-0.015-2.561,0.047c-2.287,0.148-0.991,0.321-0.111,0.557c0.633,0.103-0.224,0.261,0.768,0.366
						c-0.714-0.005-1.072-0.007-1.789-0.013c-0.082,0.098,2.204-0.05,1.707,0.111c-0.688-0.038-1.46,0.022-2.175,0.017
						c0.248,0.133,2.478,0.05,2.368,0.181c-0.387,0.03-2.01-0.178-2.148-0.015c-0.027,0.033,0.688,0.038,1.046,0.041
						c-2.202,0.05-3.416,0.205-1.405,0.383c-0.698-0.005-1.685-0.074-2.423-0.052l0.006,0.002c0.362,0.011,1.01,0.031,1.344,0.042
						l-1.257-0.009l0.22,0.068c0.313,0.02,0.627,0.036,0.953,0.039l-0.835-0.006c0.209,0.053,0.448,0.104,0.711,0.153
						c0.992,0.105,1.941,0.259,2.478,0.263C39.109,110.044,43.46,110.099,47.788,110.11z"/>
				</g>
			</g>
		</g>
		<g>
			<g>
				<g>
					<path fill="#5D5F85" d="M45.756,115.764c0.01-0.061-0.247-0.122,0.151-0.149c1.257-0.058,2.266,0.146,3.522,0.088l0.09-0.098
						c0.965,0.045,1.99,0.094,3.02,0.143c1.9-0.024,3.793-0.047,5.687-0.07c-0.05-0.036-0.072-0.069,0.115-0.082
						c0.784-0.026,1.871,0.008,2.998,0.019c0.166-0.006,0.333-0.011,0.496-0.017c0.128-0.021,0.161-0.056,0.182-0.077
						c0.507,0.009,0.959,0.016,1.382,0.023c5.508-0.206,11.147-0.417,17.227-0.644c1.286-0.09,2.573-0.18,3.813-0.222
						c1.837-0.038,4.181,0.026,5.972,0.038c-0.275-0.346,4.091-0.515,3.22-0.865c1.193,0.007,2.985,0.019,3.078-0.079
						c0.277-0.293,1.196-0.632,4.366-0.809c1.241-0.042,3.146,0.082,3.584,0.023c0.688-0.094-1.608-0.207-0.92-0.301
						c-9.222-0.106-18.102,0.021-27.387,0.019c-3.16,0.153-24.478,0.221-29.953,0.153l-0.497,0.004
						c-2.987-0.019-6.615,0.007-9.143,0.139c-1.135,0.089-2.33,0.183-3.513,0.276c0.529,0.061,1.031,0.118,1.489,0.17
						c-1.195-0.007-2.39-0.015-2.848,0.047c-2.545,0.148-1.104,0.321-0.125,0.557c0.704,0.103-0.248,0.261,0.854,0.366
						c-0.794-0.005-1.192-0.007-1.99-0.013c-0.092,0.098,2.452-0.05,1.899,0.111c-0.767-0.038-1.624,0.022-2.419,0.017
						c0.275,0.133,2.756,0.05,2.633,0.181c-0.429,0.03-2.235-0.178-2.389-0.015c-0.031,0.033,0.766,0.038,1.163,0.041
						c-2.45,0.05-3.8,0.205-1.563,0.383c-0.776-0.005-1.874-0.074-2.695-0.052l0.006,0.002c0.405,0.012,1.123,0.031,1.495,0.042
						l-1.398-0.009l0.244,0.068c0.349,0.02,0.698,0.036,1.062,0.039l-0.929-0.006c0.231,0.053,0.498,0.104,0.791,0.153
						c1.103,0.105,2.159,0.259,2.756,0.263C36.102,115.698,40.941,115.753,45.756,115.764z"/>
				</g>
			</g>
		</g>
		<g>
			<g>
				<g>
					<path fill="#5D5F85" d="M42.95,121.576c0.01-0.061-0.28-0.122,0.171-0.149c1.417-0.058,2.556,0.146,3.974,0.088l0.102-0.098
						c1.091,0.045,2.244,0.094,3.407,0.143c2.145-0.024,4.28-0.047,6.415-0.07c-0.056-0.036-0.082-0.069,0.13-0.082
						c0.886-0.026,2.112,0.008,3.383,0.019c0.188-0.006,0.376-0.011,0.561-0.017c0.145-0.021,0.182-0.055,0.205-0.077
						c0.571,0.009,1.082,0.016,1.558,0.023c6.22-0.206,12.577-0.417,19.437-0.644c1.452-0.09,2.904-0.181,4.304-0.222
						c2.072-0.038,4.717,0.026,6.737,0.038c-0.31-0.346,4.615-0.515,3.633-0.865c1.347,0.007,3.369,0.019,3.473-0.079
						c0.313-0.293,1.35-0.632,4.927-0.809c1.4-0.041,3.551,0.082,4.044,0.023c0.777-0.094-1.814-0.207-1.038-0.301
						c-10.404-0.106-20.423,0.021-30.899,0.019c-3.566,0.153-27.618,0.221-33.796,0.153l-0.562,0.004
						c-3.37-0.019-7.463,0.007-10.315,0.139c-1.284,0.089-2.63,0.183-3.963,0.276c0.6,0.061,1.166,0.118,1.681,0.17
						c-1.349-0.007-2.696-0.015-3.214,0.047c-2.871,0.148-1.245,0.321-0.141,0.557c0.795,0.103-0.279,0.261,0.964,0.366
						c-0.896-0.005-1.345-0.007-2.245-0.013c-0.104,0.098,2.767-0.05,2.143,0.111c-0.864-0.038-1.832,0.022-2.729,0.017
						c0.311,0.133,3.11,0.05,2.972,0.181c-0.484,0.03-2.522-0.178-2.696-0.015c-0.034,0.033,0.864,0.038,1.313,0.041
						c-2.765,0.05-4.288,0.206-1.765,0.383c-0.876-0.005-2.114-0.074-3.041-0.052l0.007,0.003c0.458,0.011,1.266,0.031,1.687,0.042
						l-1.577-0.009l0.275,0.068c0.393,0.02,0.787,0.036,1.197,0.039l-1.048-0.006c0.262,0.053,0.563,0.104,0.893,0.153
						c1.244,0.105,2.437,0.259,3.109,0.263C32.057,121.511,37.518,121.565,42.95,121.576z"/>
				</g>
			</g>
		</g>
	</g>
	<path fill="#57D7FF" d="M32.53,79.191c-7.128,0-12.909-3.892-12.909-8.69V26.775c0-4.799,5.781-8.69,12.909-8.69h64.938
		c7.128,0,12.909,3.891,12.909,8.69v43.727c0,4.798-5.781,8.69-12.909,8.69H32.53z"/>
	<path fill="#57D7FF" d="M104.073,139.686c-4.688,0.601-10.076,2.868-15.05,6.661c-9.925,7.567-14.438,18.334-10.082,24.049
		c4.358,5.714,15.935,4.212,25.859-3.355c5.29-4.033,9.021-8.972,10.713-13.573L104.073,139.686z"/>
	<g>
		<g>
			<g>
				<path fill="#292D73" d="M107.425,141.206c0.285,0.373,0.571,0.747,0.852,1.113c1.319,1.695,2.656,3.375,4.012,5.059
					c1.517,1.863,3.031,3.723,4.566,5.609c0.066,0.086,0.149,0.169,0.201,0.257l-0.132,0.31l-0.263,0.62l-0.5,1.179
					c-0.213,0.554-0.529,1.048-0.792,1.577c-0.264,0.53-0.574,1.03-0.896,1.525c-0.319,0.498-0.621,1.011-0.988,1.478
					c-1.363,1.951-3.016,3.722-4.829,5.382c-2.572,2.29-5.568,4.448-8.83,6.168c-3.264,1.696-6.809,2.952-10.307,3.345
					c2.071-0.222,4.1-0.712,6.063-1.388c1.945-0.717,3.85-1.562,5.649-2.598c3.614-2.047,6.887-4.681,9.733-7.721
					c1.37-1.569,2.713-3.175,3.784-4.982c0.296-0.431,0.537-0.9,0.787-1.362c0.243-0.467,0.52-0.913,0.716-1.406l0.469-1.083
					l0.247-0.571l0.123-0.286l0.063-0.144c0.009-0.023,0.022-0.048,0.028-0.071l-0.048-0.059l-1.462-1.809
					c-2.455-3.089-4.854-6.155-7.162-9.179c1.146,1.047,2.449,2.352,3.815,3.998c1.887,2.345,3.753,4.666,5.605,6.969
					c-0.428,0.999-0.854,1.996-1.28,2.992l-0.968,1.816l-1.087,1.72c-0.374,0.562-0.791,1.088-1.185,1.632
					c-0.072-0.055-0.214-0.162-0.285-0.215c-2.202,3.062-4.926,5.6-7.859,7.745c-2.949,2.128-6.158,3.865-9.599,5.059
					c-3.444,1.146-7.143,1.855-10.999,1.294c-1.91-0.322-3.88-1.026-5.521-2.369c-1.646-1.322-2.818-3.283-3.28-5.347
					c0.091,0.6-0.063,0.27-0.148,0.156l-0.028-0.12l0.028,0.12c-0.072-0.103-0.107-0.023,0.159,1.029
					c-0.267-1.052-0.231-1.132-0.159-1.029c0.441,2.07,1.613,4.061,3.27,5.412c1.651,1.37,3.64,2.101,5.558,2.429
					c1.932,0.299,3.824,0.238,5.661,0.013c1.827-0.266,3.6-0.704,5.308-1.292c3.425-1.162,6.585-2.898,9.526-4.961
					c2.931-2.081,5.646-4.538,8.002-7.436c-1.806,2.27-3.874,4.269-6.088,6.051c-2.214,1.783-4.594,3.345-7.131,4.634
					c-2.537,1.284-5.233,2.301-8.088,2.875c-2.845,0.554-5.893,0.72-8.954-0.146c-1.522-0.475-3.011-1.252-4.287-2.374
					c-1.232-1.177-2.154-2.663-2.686-4.26c-0.477-1.607-0.579-3.242-0.451-4.809c0.178-1.549,0.508-3.06,1.045-4.46
					c2.106-5.642,6.012-10.202,10.561-13.894c0.759-0.654,2.398-1.815,3.239-2.362c3.513-1.957,7.184-3.614,11.147-4.539
					c-0.437,0.34,0.373,0.487,0.307,0.77c-0.051,0.33-1.018,0.528-4.649,1.87c0.034,0.083,0.103,0.249,0.138,0.332
					c3.648-1.279,6.34-1.155,7.045-0.865c0.393,0.165,0.263,0.369-0.336,0.655c-0.303,0.145-0.734,0.289-1.299,0.468
					c-0.559,0.231-1.267,0.407-2.098,0.741c-3.775,1.319-7.977,3.662-11.794,6.851c-3.754,3.192-7.161,7.391-8.582,11.885
					c-0.495,1.613-0.735,3.261-0.563,4.748c0.168,1.488,0.758,2.765,1.74,3.71c0.97,0.95,2.358,1.562,3.929,1.831
					c1.571,0.273,3.281,0.227,4.991-0.004c4.748-0.654,9.601-3.017,13.751-6.157c2.096-1.565,3.988-3.386,5.661-5.333
					c0.437-0.475,0.82-0.984,1.201-1.495l0.577-0.759l0.518-0.79l0.521-0.786l0.456-0.812l0.456-0.809l0.193-0.415
					c0.064-0.141,0.056-0.104,0.088-0.167c0.03-0.061,0.061-0.123,0.093-0.187c0.064-0.069-0.063-0.125-0.091-0.19
					c-0.251-0.299-0.515-0.614-0.786-0.939c-0.769-0.908-1.581-1.866-2.352-2.776c-1.541-1.821-2.912-3.473-3.418-4.293
					c-0.776-1.137-0.663-1.301-0.365-1.276c1.995,2.422,3.984,4.839,5.968,7.247l1.379,1.675l0.203,0.249
					c0.062,0.083,0.176,0.16,0.087,0.262l-0.252,0.587c-0.27,0.689-0.675,1.326-1.003,1.991c-0.379,0.641-0.786,1.269-1.188,1.895
					c-4.264,5.951-10.522,10.587-17.385,12.876c6.736-2.162,13.089-6.776,17.385-12.876c0.405-0.622,0.814-1.244,1.198-1.879
					c0.333-0.659,0.74-1.29,1.017-1.972l0.272-0.609c0.009-0.048,0.074-0.104,0.037-0.146l-0.103-0.128l-0.205-0.259l-1.342-1.664
					c-1.935-2.399-3.87-4.8-5.811-7.207c0.285,0.056,0.571,0.101,0.468-0.302c0,0-1.219-1.467-1.828-2.201
					c-2.092-3.225-0.996-2.892,0.566-1.713C106.537,140.46,106.976,140.828,107.425,141.206z"/>
			</g>
		</g>
	</g>
	<g>
		<g>
			<g>
				<path fill="#5D5F85" d="M107.109,156.043c-0.049,0.037-0.047,0.133-0.144,0.061c-0.281-0.25-0.314-0.609-0.596-0.858
					l-0.093,0.042c-0.141-0.239-0.306-0.52-0.459-0.778c-0.369-0.425-0.744-0.841-1.125-1.25c-0.019,0.034-0.039,0.061-0.085,0.026
					c-0.168-0.162-0.346-0.431-0.551-0.694l-0.106-0.102c-0.04-0.016-0.073-0.001-0.093,0.007c-0.094-0.118-0.172-0.227-0.242-0.33
					c-1.169-1.097-2.428-2.279-3.741-3.512c-0.312-0.236-0.624-0.471-0.89-0.727c-0.375-0.395-0.767-0.969-1.096-1.384
					c-0.215,0.283-1.168-0.604-1.272-0.182c-0.22-0.276-0.549-0.692-0.641-0.65c-0.279,0.124-0.713,0.13-1.446-0.479
					c-0.266-0.256-0.529-0.769-0.657-0.831c-0.202-0.097,0.144,0.498-0.059,0.401c1.655,2.168,3.426,4.109,5.173,6.225
					c0.714,0.622,4.781,5.433,5.761,6.723l0.097,0.11c0.548,0.692,1.252,1.501,1.829,1.994c0.266,0.189,0.574,0.41,0.875,0.624
					c-0.06-0.16-0.11-0.312-0.149-0.448c0.219,0.277,0.438,0.554,0.573,0.619c0.593,0.485,0.455,0.046,0.452-0.327
					c-0.054-0.226,0.248-0.11,0.121-0.428c0.146,0.184,0.219,0.276,0.365,0.461c0.093-0.042-0.501-0.526-0.272-0.502
					c0.115,0.198,0.323,0.355,0.469,0.54c0.051-0.147-0.48-0.66-0.357-0.715c0.104,0.079,0.284,0.623,0.439,0.554
					c0.03-0.014-0.115-0.198-0.188-0.291c0.5,0.526,0.874,0.734,0.59,0.111c0.143,0.18,0.296,0.474,0.468,0.647l0.001-0.003
					c-0.061-0.089-0.195-0.287-0.25-0.367l0.257,0.324l0.007-0.099c-0.05-0.092-0.104-0.182-0.17-0.266l0.17,0.215
					c-0.003-0.086-0.013-0.18-0.031-0.277c-0.127-0.318-0.207-0.657-0.316-0.795C108.877,158.283,108.008,157.146,107.109,156.043z"
					/>
			</g>
		</g>
	</g>
	<g>
		<g>
			<g>
				<path fill="#5D5F85" d="M105.195,147.881c0.038,0.047,0.095,0.079,0.085,0.124c-0.05,0.116-0.249,0.017-0.299,0.133l0.056,0.081
					c-0.088,0.018-0.201,0.042-0.299,0.063c-0.122,0.119-0.237,0.245-0.347,0.378c0.026,0.025,0.049,0.049,0.044,0.07
					c-0.037,0.065-0.134,0.1-0.218,0.156l-0.023,0.042c0.005,0.024,0.024,0.052,0.036,0.069c-0.037,0.026-0.074,0.045-0.109,0.061
					c-0.235,0.447-0.506,0.962-0.777,1.478c-0.03,0.143-0.062,0.286-0.121,0.388c-0.103,0.134-0.305,0.218-0.436,0.312
					c0.24,0.251,0.047,0.63,0.33,0.85c-0.087,0.063-0.218,0.156-0.162,0.236c0.168,0.242,0.32,0.555,0.215,0.872
					c-0.059,0.103-0.27,0.116-0.262,0.187c0.013,0.112,0.243,0.068,0.256,0.18c0.703-0.444,1.233-1.048,1.875-1.575
					c0.119-0.298,1.545-1.565,1.966-1.825l0.031-0.032c0.218-0.156,0.451-0.383,0.541-0.628c0.028-0.129,0.047-0.272,0.066-0.413
					c-0.074-0.013-0.146-0.028-0.211-0.046c0.087-0.063,0.174-0.125,0.166-0.199c0.081-0.259-0.129-0.311-0.347-0.436
					c-0.114-0.04-0.149-0.215-0.292-0.233c0.058-0.042,0.087-0.062,0.145-0.104c-0.056-0.081-0.137,0.178-0.201,0.023
					c0.077-0.015,0.098-0.11,0.156-0.151c-0.104-0.087-0.222,0.118-0.297,0.011c0.011-0.048,0.268,0.01,0.174-0.125
					c-0.019-0.027-0.076,0.015-0.105,0.035c0.137-0.178,0.131-0.375-0.137-0.384c0.057-0.041,0.177-0.05,0.219-0.114l-0.002-0.002
					c-0.032,0.019-0.103,0.034-0.13,0.053l0.102-0.073l-0.06-0.039c-0.037,0.004-0.071,0.012-0.098,0.031l0.067-0.048
					c-0.05-0.028-0.101-0.052-0.151-0.073c-0.144-0.018-0.314-0.077-0.358-0.045C105.902,147.381,105.534,147.615,105.195,147.881z"
					/>
			</g>
		</g>
	</g>
	<g>
		<polygon fill="#E6F9FF" points="102.774,62.011 86.271,73.471 80.97,73.458 102.748,58.432 		"/>
		<g>
			<path fill="#E6F9FF" d="M102.018,60.716c-3.788,2.63-7.577,5.261-11.365,7.891c-1.661,1.154-3.322,2.307-4.983,3.46
				c0.541-0.375-0.157-0.099-1.265-0.101c-1.145-0.003-2.29-0.006-3.435-0.009c0.252,0.932,0.505,1.863,0.757,2.795
				c7.26-5.009,14.52-10.018,21.778-15.026c-0.752-0.432-1.505-0.864-2.257-1.295c0.009,1.193,0.018,2.386,0.026,3.58
				c0.015,1.934,3.015,1.935,3,0c-0.009-1.193-0.018-2.386-0.026-3.58c-0.008-1.069-1.294-1.96-2.257-1.295
				c-7.26,5.009-14.52,10.018-21.778,15.026c-1.188,0.819-0.813,2.792,0.757,2.795c1.754,0.004,4.002,0.427,5.699-0.041
				c1.467-0.403,3.008-1.991,4.225-2.835c4.213-2.925,8.425-5.85,12.638-8.775C105.108,62.211,103.611,59.609,102.018,60.716z"/>
		</g>
	</g>
	<g>
		<polygon fill="#E6F9FF" points="97.817,73.471 102.774,70.029 102.76,68.116 95.048,73.47 		"/>
		<g>
			<path fill="#E6F9FF" d="M98.574,74.766c1.362-0.946,2.726-1.892,4.088-2.838c0.568-0.395,1.363-0.789,1.559-1.5
				c0.195-0.708,0.045-1.587,0.039-2.312c-0.008-1.067-1.295-1.963-2.257-1.295c-2.571,1.785-5.142,3.569-7.712,5.354
				c-1.181,0.82-0.817,2.795,0.757,2.795c0.923,0,1.847,0,2.77,0c1.935,0,1.935-3,0-3c-0.923,0-1.847,0-2.77,0
				c0.252,0.932,0.505,1.863,0.757,2.795c2.571-1.785,5.142-3.569,7.712-5.354c-0.752-0.432-1.505-0.864-2.257-1.295
				c0.005,0.638,0.01,1.275,0.015,1.913c0.248-0.432,0.495-0.863,0.743-1.295c-1.652,1.147-3.305,2.294-4.957,3.441
				C95.483,73.271,96.98,75.873,98.574,74.766z"/>
		</g>
	</g>
	<g>
		<polygon fill="#E6F9FF" points="26.106,35.666 42.61,24.207 47.911,24.22 26.133,39.246 		"/>
		<g>
			<path fill="#E6F9FF" d="M26.863,36.961c3.788-2.63,7.577-5.261,11.365-7.891c1.661-1.154,3.322-2.307,4.983-3.46
				c-0.541,0.375,0.157,0.099,1.265,0.101c1.145,0.003,2.29,0.006,3.435,0.009c-0.252-0.932-0.505-1.863-0.757-2.795
				c-7.26,5.009-14.52,10.018-21.778,15.026c0.752,0.432,1.505,0.864,2.257,1.295c-0.009-1.193-0.018-2.386-0.026-3.58
				c-0.015-1.934-3.015-1.935-3,0c0.009,1.193,0.018,2.386,0.026,3.58c0.008,1.069,1.294,1.96,2.257,1.295
				c7.26-5.009,14.52-10.018,21.778-15.026c1.188-0.819,0.813-2.792-0.757-2.795c-1.754-0.004-4.002-0.427-5.699,0.041
				c-1.467,0.403-3.008,1.991-4.225,2.835c-4.213,2.925-8.425,5.85-12.638,8.775C23.772,35.466,25.27,38.068,26.863,36.961z"/>
		</g>
	</g>
	<g>
		<polygon fill="#E6F9FF" points="31.063,24.207 26.106,27.648 26.121,29.561 33.833,24.207 		"/>
		<g>
			<path fill="#E6F9FF" d="M30.307,22.911c-1.362,0.946-2.726,1.892-4.088,2.838c-0.568,0.395-1.363,0.789-1.559,1.5
				c-0.195,0.708-0.045,1.587-0.039,2.312c0.008,1.067,1.295,1.963,2.257,1.295c2.571-1.785,5.142-3.569,7.712-5.354
				c1.181-0.82,0.817-2.795-0.757-2.795c-0.923,0-1.847,0-2.77,0c-1.935,0-1.935,3,0,3c0.923,0,1.847,0,2.77,0
				c-0.252-0.932-0.505-1.863-0.757-2.795c-2.571,1.785-5.142,3.569-7.712,5.354c0.752,0.432,1.505,0.864,2.257,1.295
				c-0.005-0.638-0.01-1.275-0.015-1.913c-0.248,0.432-0.495,0.863-0.743,1.295c1.652-1.147,3.305-2.294,4.957-3.441
				C33.397,24.407,31.9,21.805,30.307,22.911z"/>
		</g>
	</g>
</g>
<g id="_x37__-_NS__x28_Blocks_x3B__Prime_factorization_of_12_x29_">
</g>
<g id="_x36__-_LR__x28_Intersection_of_lines_x29_">
</g>
<g id="_x35__-_SS__x28_Pascal_x27_s_triangle_x29_">
</g>
<g id="_x34__-_MT__x28_Cone_and_Sphere_x29_">
</g>
<g id="_x33__-_QR__x28_Suspension_Bridge_x29_">
</g>
<g id="_x32__-_ET__x28_Sine_and_exponential_x29_">
</g>
<g id="_x31__-_IF__x28_Function_diagram_x29_">
</g>
</svg>
