<?xml version="1.0" encoding="utf-8"?>
<!-- Generator: Adobe Illustrator 16.0.0, SVG Export Plug-In . SVG Version: 6.00 Build 0)  -->
<!DOCTYPE svg PUBLIC "-//W3C//DTD SVG 1.1//EN" "http://www.w3.org/Graphics/SVG/1.1/DTD/svg11.dtd">
<svg version="1.1" xmlns="http://www.w3.org/2000/svg" xmlns:xlink="http://www.w3.org/1999/xlink" x="0px" y="0px" width="130px"
	 height="180px" viewBox="0 0 130 180" enable-background="new 0 0 130 180" xml:space="preserve">
<g id="_x31_3_-_Problem_Solving__x28_Lightbulb_x29_">
</g>
<g id="_x31_2_-_Calculus__x26__Vectors__x28_Unit_Vectors_x29_">
</g>
<g id="_x31_1_-_Advanced_Functions">
</g>
<g id="_x31_0_-_Grades_9_x2C_10__x26__11">
	<g>
		<g>
			<path fill="#E6F2BB" d="M23.86,74.184l-1.514-7.965c4.902-1.254,8.751-2.574,11.54-3.962s5.04-2.966,6.755-4.733
				c1.712-1.768,2.997-3.706,3.854-5.814c0.858-2.11,1.302-4.422,1.334-6.936c-1.951,2.156-3.88,3.791-5.786,4.909
				c-1.906,1.119-4.032,1.925-6.381,2.416c-3.765,0.79-7.294,0.679-10.584-0.335c-3.292-1.012-5.972-2.729-8.041-5.152
				c-2.071-2.422-3.452-5.46-4.147-9.113c-1.146-6.033-0.065-11.424,3.243-16.17c3.309-4.747,8.435-7.848,15.372-9.303
				c7.146-1.498,13.11-0.664,17.896,2.502c5.613,3.697,9.199,9.649,10.759,17.857c1.051,5.526,1.146,10.408,0.292,14.644
				c-0.856,4.235-2.695,8.207-5.515,11.909c-2.818,3.705-6.382,6.747-10.686,9.129C37.948,70.447,31.818,72.486,23.86,74.184z
				 M35.383,42.104c1.884-0.396,3.466-1.178,4.745-2.347c1.279-1.171,2.162-2.665,2.648-4.486c0.485-1.819,0.527-3.787,0.125-5.9
				c-0.587-3.086-1.949-5.421-4.087-7.002c-2.138-1.58-4.549-2.088-7.231-1.525c-2.733,0.573-4.812,2.021-6.234,4.35
				c-1.423,2.326-1.831,5.074-1.229,8.244c0.608,3.195,1.966,5.581,4.075,7.152C30.305,42.162,32.702,42.667,35.383,42.104z"/>
			<g>
				<path fill="#E6F2BB" d="M23.86,74.184l-1.514-7.965c4.902-1.254,8.751-2.574,11.54-3.962s5.04-2.966,6.755-4.733
					c1.712-1.768,2.997-3.706,3.854-5.814c0.858-2.11,1.302-4.422,1.334-6.936c-1.951,2.156-3.88,3.791-5.786,4.909
					c-1.906,1.119-4.032,1.925-6.381,2.416c-3.765,0.79-7.294,0.679-10.584-0.335c-3.292-1.012-5.972-2.729-8.041-5.152
					c-2.071-2.422-3.452-5.46-4.147-9.113c-1.146-6.033-0.065-11.424,3.243-16.17c3.309-4.747,8.435-7.848,15.372-9.303
					c7.146-1.498,13.11-0.664,17.896,2.502c5.613,3.697,9.199,9.649,10.759,17.857c1.051,5.526,1.146,10.408,0.292,14.644
					c-0.856,4.235-2.695,8.207-5.515,11.909c-2.818,3.705-6.382,6.747-10.686,9.129C37.948,70.447,31.818,72.486,23.86,74.184z
					 M35.383,42.104c1.884-0.396,3.466-1.178,4.745-2.347c1.279-1.171,2.162-2.665,2.648-4.486c0.485-1.819,0.527-3.787,0.125-5.9
					c-0.587-3.086-1.949-5.421-4.087-7.002c-2.138-1.58-4.549-2.088-7.231-1.525c-2.733,0.573-4.812,2.021-6.234,4.35
					c-1.423,2.326-1.831,5.074-1.229,8.244c0.608,3.195,1.966,5.581,4.075,7.152C30.305,42.162,32.702,42.667,35.383,42.104z"/>
				<g>
					<path fill="#E6F2BB" d="M23.86,74.184l-1.514-7.965c4.902-1.254,8.751-2.574,11.54-3.962s5.04-2.966,6.755-4.733
						c1.712-1.768,2.997-3.706,3.854-5.814c0.858-2.11,1.302-4.422,1.334-6.936c-1.951,2.156-3.88,3.791-5.786,4.909
						c-1.906,1.119-4.032,1.925-6.381,2.416c-3.765,0.79-7.294,0.679-10.584-0.335c-3.292-1.012-5.972-2.729-8.041-5.152
						c-2.071-2.422-3.452-5.46-4.147-9.113c-1.146-6.033-0.065-11.424,3.243-16.17c3.309-4.747,8.435-7.848,15.372-9.303
						c7.146-1.498,13.11-0.664,17.896,2.502c5.613,3.697,9.199,9.649,10.759,17.857c1.051,5.526,1.146,10.408,0.292,14.644
						c-0.856,4.235-2.695,8.207-5.515,11.909c-2.818,3.705-6.382,6.747-10.686,9.129C37.948,70.447,31.818,72.486,23.86,74.184z
						 M35.383,42.104c1.884-0.396,3.466-1.178,4.745-2.347c1.279-1.171,2.162-2.665,2.648-4.486c0.485-1.819,0.527-3.787,0.125-5.9
						c-0.587-3.086-1.949-5.421-4.087-7.002c-2.138-1.58-4.549-2.088-7.231-1.525c-2.733,0.573-4.812,2.021-6.234,4.35
						c-1.423,2.326-1.831,5.074-1.229,8.244c0.608,3.195,1.966,5.581,4.075,7.152C30.305,42.162,32.702,42.667,35.383,42.104z"/>
					<g>
						<path fill="#E6F2BB" d="M33.446,43.934c-0.33-0.031-0.661-0.063-0.981-0.095c-1.501-0.187-2.969-0.719-4.218-1.522
							c-1.244-0.786-2.354-1.835-3.2-3.065c-0.85-1.229-1.438-2.612-1.818-4.034c-0.373-1.42-0.594-2.898-0.559-4.455
							c0.06-2.163,0.674-4.56,2.011-6.507c1.252-1.998,3.34-3.496,5.432-4.154c-1.248,0.368-2.462,1-3.5,1.858
							c-1.043,0.858-1.89,1.918-2.544,3.079c-0.658,1.166-1.104,2.463-1.321,3.782c-0.204,1.322-0.187,2.65-0.04,3.938
							c0.139,1.289,0.444,2.539,0.878,3.782c0.438,1.235,1.061,2.446,1.912,3.507c0.846,1.067,1.879,1.974,3.042,2.678
							c1.168,0.71,2.513,1.192,3.877,1.388c-1.115,0.109-2.568-0.037-3.99-0.785c-1.657-0.922-3.087-2.223-4.089-3.766
							c-1.012-1.533-1.631-3.206-2.007-4.847c0.088-0.021,0.261-0.063,0.348-0.084c-0.328-1.127-0.477-2.293-0.549-3.475
							c-0.03-1.19,0.084-2.396,0.375-3.574c0.639-2.359,1.957-4.46,3.857-5.994c0.938-0.779,2.04-1.339,3.155-1.741
							c1.122-0.407,2.265-0.64,3.471-0.711c1.196-0.068,2.451,0.023,3.646,0.393c1.197,0.357,2.317,0.926,3.34,1.631
							c-0.247-0.262-0.041-0.188,0.053-0.188l0.056,0.045l-0.056-0.045c0.079,0.009,0.089-0.074-0.443-0.422
							c0.532,0.348,0.522,0.431,0.443,0.422c-0.999-0.732-2.118-1.329-3.323-1.707c-1.204-0.391-2.477-0.491-3.687-0.429
							c-1.222,0.063-2.37,0.31-3.498,0.716c-1.128,0.394-2.229,0.977-3.178,1.753c-1.922,1.539-3.25,3.622-3.941,5.962
							c-0.668,2.344-0.622,4.797-0.149,7.072c-0.367-1.776-0.508-3.643-0.239-5.532c0.265-1.887,1.021-3.738,2.116-5.291
							c1.074-1.578,2.654-2.899,4.413-3.706c1.765-0.812,3.599-1.194,5.579-1.128c1.972,0.049,3.953,0.765,5.538,1.864
							c1.616,1.071,2.941,2.62,3.821,4.328c0.886,1.719,1.385,3.528,1.589,5.364c0.217,1.844,0.148,3.798-0.374,5.699
							c-0.108,0.32-0.271,0.802-0.433,1.283c-0.192,0.475-0.446,0.935-0.595,1.245c-1.546,2.351-3.908,3.972-6.371,4.845
							c0.227-0.332-0.334-0.474-0.339-0.755c-0.002-0.125,0.12-0.302,0.519-0.535c0.197-0.124,0.474-0.24,0.819-0.425
							c0.329-0.215,0.772-0.419,1.27-0.752c-0.053-0.073-0.157-0.22-0.209-0.293c-2.037,1.186-3.736,0.904-4.16,0.646
							c-0.264-0.162-0.193-0.369,0.102-0.64c0.302-0.266,0.892-0.543,1.686-1.007c0.875-0.534,1.734-1.2,2.426-2.063
							c0.669-0.872,1.163-1.975,1.444-3.225c0.29-1.243,0.333-2.604,0.102-3.983c-0.19-1.38-0.621-2.703-1.265-3.771
							c-0.469-0.78-1.042-1.456-1.717-2.021c-0.674-0.572-1.455-1.023-2.236-1.288c-0.788-0.273-1.614-0.387-2.486-0.355
							c-0.86,0.036-1.814,0.195-2.646,0.494c-1.173,0.375-2.183,1.1-3.017,2.081c-0.855,1.002-1.411,2.227-1.692,3.535
							c-0.279,1.314-0.264,2.741-0.033,4.172c0.227,1.438,0.633,2.787,1.252,3.961c0.452,0.862,1.365,1.823,2.37,2.45
							c0.994,0.659,1.976,0.918,2.398,1.164c0.637,0.223,0.66,0.426,0.523,0.619c-1.64-0.202-3.173-1.016-4.38-2.164
							c-1.193-1.159-2.025-2.664-2.492-4.312c-0.293-1.005-0.465-2.068-0.522-3.104c-0.075-1.04,0.008-2.069,0.241-3.042
							c0.431-1.938,1.595-3.715,3.112-4.842c-1.511,1.07-2.697,2.827-3.145,4.773c-0.245,0.976-0.32,2.016-0.243,3.067
							c0.06,1.05,0.247,2.128,0.557,3.147c0.446,1.649,1.245,3.161,2.414,4.343c1.176,1.169,2.688,2.037,4.333,2.287
							c-0.143,0.164-0.301,0.334-0.112,0.543c0,0,0.271,0.063,0.618,0.063c0.346,0.02,0.76,0.034,1.038,0.001
							c1.122,0.154,1.615,0.27,1.672,0.558c0.058,0.264-0.338,0.604-0.943,0.927C34.234,43.682,33.868,43.807,33.446,43.934z"/>
					</g>
					<g>
						<path fill="#E6F2BB" d="M30.051,71.002c0.913-0.251,1.827-0.503,2.729-0.752c4.138-1.279,8.168-2.782,11.708-5.22
							c3.543-2.398,6.613-5.52,8.953-9.202c2.335-3.666,3.884-7.893,4.197-12.393c0.366-4.485-0.214-9.243-1.353-13.852
							c-0.832-3.221-2.196-6.425-4.252-9.205c-2.052-2.76-4.872-5.072-8.052-6.439c-3.187-1.414-6.788-1.729-10.256-1.419
							c-3.478,0.323-6.899,1.151-9.917,2.461c0.453-0.185,0.896-0.391,1.356-0.561l1.404-0.456c0.923-0.343,1.914-0.5,2.87-0.758
							c0.97-0.204,1.957-0.348,2.937-0.509c0.985-0.061,1.973-0.231,2.958-0.208l1.478-0.004c0.492,0.009,0.977,0.082,1.466,0.118
							c0.985,0.042,1.927,0.307,2.888,0.474c1.871,0.526,3.691,1.234,5.322,2.302c3.321,2.103,5.909,5.219,7.675,8.753
							c1.775,3.551,2.737,7.504,3.187,11.525c0.47,3.995,0.478,8.031-0.432,11.831c-0.906,3.8-2.679,7.35-5.064,10.425
							c-2.389,3.066-5.333,5.62-8.588,7.616l-1.229,0.734l-0.614,0.364l-0.65,0.298l-2.583,1.192
							c-0.886,0.352-1.804,0.647-2.7,0.973c-0.898,0.32-1.79,0.648-2.726,0.876c0.369-0.137,0.74-0.275,1.115-0.414
							c0.374-0.166,0.75-0.333,1.129-0.501c0.796-0.341,1.6-0.685,2.417-1.033c0.843-0.349,1.63-0.833,2.503-1.252
							c0.434-0.219,0.872-0.439,1.316-0.663c0.425-0.267,0.855-0.536,1.293-0.812c4.277-2.558,7.888-6.061,10.499-10.22
							c2.571-4.17,3.881-8.911,3.927-13.8c0.091,0.001,0.269,0.003,0.357,0.004c0.054-0.874-0.024-1.755-0.096-2.635
							c-0.088-0.878-0.077-1.756-0.241-2.629c-0.278-1.747-0.504-3.502-0.949-5.178c-0.823-3.366-2.096-6.573-3.981-9.325
							c-1.858-2.748-4.404-5.033-7.266-6.576c-2.909-1.464-6.215-2.08-9.568-1.996c-6.693,0.267-13.771,2.388-18.272,7.334
							c-0.59,0.587-1.042,1.296-1.571,1.938c-0.419,0.724-0.939,1.397-1.283,2.159l-0.554,1.125c-0.17,0.381-0.292,0.781-0.443,1.17
							c-0.33,0.771-0.467,1.6-0.687,2.405c-0.647,3.271-0.371,6.792,0.612,10.075c-0.187-0.959,0.023-0.415,0.126-0.236
							c0.016,0.064,0.032,0.127,0.046,0.187c-0.015-0.06-0.03-0.122-0.046-0.187c0.091,0.162,0.107,0.042-0.303-1.593
							c0.41,1.635,0.394,1.755,0.303,1.593c-0.893-3.225-1.123-6.648-0.463-9.812c0.703-3.14,2.219-6.157,4.395-8.533
							c4.327-4.803,11.145-6.999,17.707-7.389c3.275-0.149,6.513,0.367,9.38,1.706c2.858,1.316,5.419,3.509,7.312,6.114
							c1.92,2.62,3.25,5.707,4.121,8.972l0.554,2.489c0.168,0.837,0.259,1.703,0.394,2.555c0.318,1.711,0.317,3.426,0.449,5.146
							c-0.092-1.263-0.138-2.524-0.26-3.786c-0.194-1.26-0.362-2.526-0.572-3.778c-0.305-1.217-0.49-2.479-0.91-3.647
							c-0.193-0.592-0.356-1.196-0.57-1.776l-0.706-1.709c-1.035-2.216-2.263-4.345-3.918-6.09
							c-1.638-1.732-3.567-3.264-5.667-4.297c-4.235-2.134-9.32-2.134-14.172-1.19c-2.43,0.513-4.801,1.236-6.988,2.282
							c-2.176,1.063-4.135,2.476-5.759,4.202c-1.614,1.722-2.932,3.786-3.799,5.983c-0.871,2.202-1.271,4.568-1.23,6.97
							c0.015,2.401,0.534,4.862,1.337,7.096l0.317,0.836c0.095,0.285,0.212,0.558,0.366,0.808l0.837,1.555l1.043,1.406
							c0.327,0.488,0.802,0.841,1.19,1.272c1.682,1.599,3.743,2.781,6.037,3.513c2.293,0.672,4.701,0.884,7.136,0.707
							c1.209-0.216,2.449-0.311,3.626-0.662c1.19-0.299,2.323-0.742,3.424-1.243c0.522-0.3,1.086-0.536,1.58-0.88l0.755-0.493
							c0.532-0.342,1.055-0.888,1.574-1.324l1.563-1.387c0.539-0.522,1.105-1.137,1.658-1.701l3.206-3.331l-0.008,1.055
							c0.004,0.143-0.013,0.418-0.028,0.68l-0.042,0.777c-0.057,1.004-0.114,2.012-0.171,3.021l-0.086,1.444
							c-0.05,0.498-0.157,1.041-0.233,1.561c-0.087,0.525-0.157,1.049-0.259,1.576l-0.496,1.604
							c-0.127,0.395-0.28,0.944-0.429,1.347c-0.141,0.304-0.293,0.631-0.453,0.974c-0.292,0.701-0.747,1.389-1.162,2.099
							c-0.445,0.688-0.944,1.338-1.4,1.929c-0.495,0.556-0.934,1.07-1.309,1.46c-1.595,1.512-3.369,2.7-5.177,3.758
							c-1.83,0.978-3.733,1.867-5.653,2.532c-0.958,0.347-1.913,0.696-2.878,0.971c-0.963,0.288-1.92,0.612-2.888,0.853
							l-0.844,0.223L24.4,67.396c-0.05,0.021-0.15,0.01-0.109,0.087l0.291,1.557c-0.404-0.922-0.46,0.59-0.76,0.397
							c-0.075-0.049-0.166-0.203-0.28-0.529c-0.057-0.163-0.121-0.369-0.191-0.626c-0.061-0.227-0.126-0.47-0.199-0.741
							c-0.035-0.146-0.072-0.299-0.111-0.462c-0.02-0.085-0.04-0.172-0.06-0.262l-0.031-0.138c-0.003-0.043-0.047-0.111,0.023-0.11
							c0.378-0.11,0.8-0.233,1.276-0.372c0.514-0.152,1.299-0.347,2.051-0.578c0.774-0.239,1.63-0.503,2.58-0.796
							c-0.029-0.085-0.087-0.256-0.116-0.341c-0.937,0.264-1.847,0.52-2.731,0.769c-0.883,0.223-1.706,0.398-2.542,0.591
							c-0.425,0.095-0.842,0.188-1.253,0.28c-0.027,0.336,0.082,0.756,0.114,1.127c0.091,0.729,0.178,1.43,0.262,2.104
							c0.287,2.511,0.401,4.24,0.334,5.004c-0.067,0.763-0.314,0.56-0.751-0.796c-0.218-0.678-0.484-1.644-0.797-2.921
							c-0.161-0.687-0.333-1.423-0.521-2.223c-0.156-0.751-0.318-1.531-0.487-2.342c-0.065-0.4-0.217-0.864-0.216-1.244
							c0.419-0.12,0.846-0.243,1.281-0.369c2.771-0.802,3.455-0.958,4.779-1.421c0.616-0.204,1.238-0.41,1.865-0.618
							c0.612-0.233,1.228-0.468,1.85-0.705c2.448-0.967,4.885-2.179,7.033-3.797c0.535-0.402,1.068-0.812,1.532-1.281
							c0.503-0.432,0.948-0.935,1.391-1.447c0.471-0.49,0.811-1.071,1.232-1.603c0.318-0.589,0.736-1.132,0.99-1.758l0.43-0.912
							l0.059-0.161c0.051-0.137,0.035-0.11,0.056-0.177c0.007-0.046,0.021-0.093,0.024-0.143l0.008-0.077
							c-0.008-0.001-0.028,0.025-0.042,0.037c-0.045,0.046-0.099,0.091-0.157,0.136l-0.045,0.033l-0.023,0.017l0.044-0.028
							l-0.201,0.132c-0.549,0.341-1.071,0.737-1.653,1.018c-2.266,1.247-4.735,2.081-7.227,2.511
							c-1.251,0.196-2.497,0.42-3.785,0.406c-0.64-0.001-1.275,0.091-1.916,0.008L25.78,54.45c-2.536-0.401-5.025-1.091-7.262-2.376
							c-1.002-0.472-1.875-1.173-2.768-1.838c-0.467-0.31-0.835-0.73-1.235-1.117c-0.39-0.397-0.796-0.781-1.166-1.194
							c-1.374-1.734-2.594-3.626-3.327-5.676l-0.576-1.526l-0.396-1.56c-0.3-1.036-0.448-2.092-0.596-3.149
							c-0.242-2.121-0.301-4.309,0.062-6.468c0.112-1.088,0.442-2.14,0.705-3.201c0.386-1.02,0.697-2.081,1.223-3.037
							c0.912-1.985,2.188-3.747,3.617-5.396c0.755-0.787,1.503-1.582,2.368-2.242c0.813-0.729,1.734-1.294,2.631-1.894
							c0.445-0.308,0.937-0.521,1.403-0.785c0.478-0.237,0.935-0.531,1.432-0.717c0.981-0.399,1.948-0.857,2.958-1.141
							c2.75-0.918,5.571-1.477,8.504-1.707c2.923-0.232,5.975-0.091,8.945,0.713c2.966,0.778,5.803,2.306,8.13,4.256
							c2.357,1.965,4.313,4.388,5.807,7.023c1.538,2.629,2.472,5.501,3.198,8.355l0.479,2.155c0.123,0.72,0.215,1.44,0.322,2.159
							l0.307,2.154l0.13,2.185c0.222,2.901-0.039,5.847-0.541,8.723c-0.671,2.841-1.588,5.624-3.022,8.089
							c-0.249,0.456-0.508,0.931-0.776,1.424c-0.267,0.494-0.63,0.948-0.956,1.447c-0.336,0.491-0.682,0.996-1.034,1.511
							s-0.797,0.974-1.201,1.475c-0.415,0.492-0.836,0.99-1.259,1.492c-0.457,0.47-0.943,0.916-1.416,1.377
							c-0.481,0.45-0.941,0.928-1.44,1.352c-0.517,0.402-1.031,0.802-1.539,1.195c-0.516,0.382-0.994,0.809-1.522,1.135
							c-0.528,0.328-1.045,0.65-1.548,0.963c-0.506,0.31-0.991,0.623-1.475,0.898c-0.501,0.239-0.985,0.471-1.448,0.692
							c-0.929,0.427-1.761,0.857-2.503,1.132c-0.746,0.261-1.375,0.47-1.86,0.615c-2.754,0.915-2.929,0.698-2.577,0.38
							c1.544-0.553,3.084-1.126,4.616-1.717l2.238-1.073L42.531,69c0.373-0.18,0.71-0.423,1.067-0.631l2.112-1.303
							c0.682-0.467,1.323-0.995,1.986-1.491l0.986-0.755c0.318-0.264,0.607-0.563,0.912-0.844l1.803-1.709l1.611-1.89
							c0.263-0.318,0.547-0.621,0.793-0.953l0.702-1.022c0.455-0.69,0.963-1.345,1.371-2.064l1.174-2.188l0.292-0.548l0.23-0.577
							l0.459-1.154c0.311-0.769,0.63-1.533,0.808-2.346c0.209-0.801,0.44-1.598,0.627-2.401l0.352-2.451
							c0.433-4.016,0.186-8.053-0.494-11.977c-0.679-3.937-1.879-7.862-3.931-11.414c-2.053-3.553-5.064-6.561-8.662-8.643
							c-0.439-0.285-0.912-0.506-1.393-0.712c-0.479-0.207-0.948-0.443-1.437-0.624C42.906,11,41.926,10.61,40.897,10.45
							c-2.032-0.488-4.109-0.539-6.16-0.528c3.991-0.091,8.19,0.608,11.806,2.648c3.577,2.039,6.577,5.004,8.687,8.521
							c2.099,3.524,3.325,7.468,4.037,11.438c0.687,3.962,0.987,8.049,0.551,12.142l-0.359,2.442
							c-0.188,0.801-0.421,1.593-0.632,2.388c-0.181,0.807-0.496,1.567-0.809,2.329l-0.46,1.145
							c-0.144,0.386-0.309,0.762-0.519,1.116l-1.172,2.164c-0.395,0.719-0.91,1.359-1.36,2.041
							c-0.869,1.392-2.037,2.554-3.077,3.812c-0.574,0.58-1.185,1.125-1.775,1.688l-0.894,0.837l-0.971,0.744l-1.949,1.475
							l-2.082,1.271l-1.042,0.634c-0.36,0.188-0.732,0.353-1.097,0.529l-2.202,1.042c-1.487,0.636-3.02,1.133-4.527,1.703
							c0.384-0.34,0.739-0.677-0.048-0.572c0,0-0.225,0.104-0.612,0.209c-0.384,0.113-0.915,0.271-1.505,0.446
							c-1.183,0.342-2.593,0.79-3.548,1.03c-7.777,1.387-5.945,0.304-2.284-1.029C27.832,71.781,28.909,71.48,30.051,71.002z"/>
					</g>
				</g>
			</g>
		</g>
		<g>
			<path fill="#E6F2BB" d="M86.309,62.28L72.813,96.73c-0.583,1.49-0.874,2.407-0.87,2.754c-0.028,0.602,0.139,1.113,0.506,1.535
				c0.365,0.42,1.157,0.9,2.375,1.441l4.154,1.846l-2.393,6.107L51.116,99.11L53.51,93l4.202,1.865
				c1.478,0.656,2.464,0.979,2.955,0.963s0.931-0.203,1.314-0.563c0.382-0.359,0.858-1.261,1.425-2.709l9.623-24.563l-8.283-3.678
				l2.394-6.109c2.465,0.799,4.38,1.343,5.75,1.629c2.05,0.443,4.275,0.79,6.676,1.041c1.332,0.148,2.614,0.188,3.845,0.118
				L86.309,62.28z"/>
			<path fill="#E6F2BB" d="M112.577,73.939c3.669,1.628,6.493,3.886,8.477,6.775c1.981,2.887,3.094,6.266,3.341,10.131
				c0.243,3.865-0.604,8.277-2.544,13.23c-2.188,5.584-4.564,9.581-7.129,11.992c-2.899,2.729-6.016,4.376-9.35,4.941
				c-3.335,0.566-6.935-0.01-10.8-1.727c-3.767-1.672-6.615-3.928-8.548-6.768c-1.931-2.84-3.006-6.253-3.232-10.232
				c-0.222-3.979,0.669-8.53,2.676-13.652c2.014-5.144,4.415-9.014,7.202-11.606c2.787-2.595,5.866-4.173,9.234-4.733
				C105.273,71.727,108.831,72.277,112.577,73.939z M111.362,100.088c2.249-5.741,3.08-10.254,2.491-13.539
				c-0.542-2.873-1.967-4.82-4.271-5.845c-2.131-0.946-4.385-0.557-6.762,1.167c-2.377,1.725-4.706,5.498-6.987,11.324
				c-2.281,5.822-3.155,10.238-2.618,13.242c0.536,3.006,1.91,4.997,4.116,5.977c2.23,0.99,4.567,0.607,7.013-1.148
				C106.791,109.512,109.131,105.785,111.362,100.088z"/>
			<g>
				<path fill="#E6F2BB" d="M87.148,62.976L72.33,96.88c-0.639,1.466-0.965,2.372-0.975,2.718c-0.052,0.6,0.096,1.117,0.446,1.554
					c0.348,0.434,1.119,0.944,2.316,1.53l4.082,2.006l-2.629,6.011L50.558,98.42l2.627-6.014l4.129,2.025
					c1.45,0.714,2.424,1.073,2.916,1.077c0.491,0.003,0.938-0.167,1.334-0.513c0.396-0.344,0.906-1.227,1.528-2.65l10.565-24.174
					l-8.136-3.994l2.628-6.012c2.433,0.893,4.325,1.51,5.683,1.85c2.031,0.521,4.242,0.954,6.632,1.297
					c1.325,0.2,2.604,0.289,3.836,0.267L87.148,62.976z"/>
				<g>
					<path fill="#E6F2BB" d="M87.148,62.976L72.33,96.88c-0.639,1.466-0.965,2.372-0.975,2.718c-0.052,0.6,0.096,1.117,0.446,1.554
						c0.348,0.434,1.119,0.944,2.316,1.53l4.082,2.006l-2.629,6.011L50.558,98.42l2.627-6.014l4.129,2.025
						c1.45,0.714,2.424,1.073,2.916,1.077c0.491,0.003,0.938-0.167,1.334-0.513c0.396-0.344,0.906-1.227,1.528-2.65l10.565-24.174
						l-8.136-3.994l2.628-6.012c2.433,0.893,4.325,1.51,5.683,1.85c2.031,0.521,4.242,0.954,6.632,1.297
						c1.325,0.2,2.604,0.289,3.836,0.267L87.148,62.976z"/>
					<g>
						<path fill="#E6F2BB" d="M75.551,93.745c-0.488,1.168-0.984,2.355-1.488,3.56c-0.14,0.326-0.222,0.533-0.319,0.811
							c-0.094,0.266-0.178,0.548-0.258,0.832l-0.113,0.433l-0.07,0.305l-0.032,0.208c-0.001,0.069,0.086,0.106,0.129,0.155
							l0.401,0.312c0.231,0.171,0.468,0.33,0.699,0.468c0.228,0.138,0.43,0.234,0.774,0.402c1.748,0.857,3.511,1.723,5.285,2.594
							c-1.354,3.086-2.722,6.199-4.093,9.323c-4.5-2.219-9.021-4.448-13.438-6.626c-3.867-1.894-7.653-3.724-11.262-5.414
							c-1.224-0.585-2.452-1.172-3.706-1.771c1.361-3.203,2.734-6.433,4.115-9.682c2.057,0.986,4.124,1.977,6.196,2.971
							c0.289,0.13,0.599,0.249,0.919,0.355l0.486,0.149l0.232,0.063c0.051,0.014,0.026,0.005,0.043,0.009
							c0.028,0.003,0.055,0.005,0.08,0.002c0.019-0.02,0.032-0.045,0.045-0.066l0.146-0.218l0.271-0.429
							c0.173-0.288,0.329-0.578,0.455-0.856l0.937-2.178l1.922-4.464c2.295-5.288,4.589-10.572,6.838-15.754
							c-2.267-1.112-4.508-2.212-6.721-3.298c0.095-0.055,0.856,0.192,1.241,0.269c0.392,0.078,0.431-0.004-0.704-0.611
							c-0.448-0.237-0.874-0.463-1.192-0.632c0.486-1.015,0.916-1.912,1.298-2.711c0.092-0.188,0.182-0.372,0.269-0.549
							c0.101-0.209,0.121-0.231,0.183-0.351c0.103-0.187,0.2-0.361,0.291-0.526c0.182-0.322,0.34-0.587,0.478-0.806
							c0.149-0.243,0.231-0.33,0.389-0.59c0.542-0.834,0.657-0.666,0.795-0.551c0.035,0.033-0.093,0.382-0.286,0.853
							c-0.162,0.379-0.369,0.862-0.558,1.304c-0.194,0.444-0.346,0.791-0.446,1.048c-0.099,0.255-0.068,0.241,0.151-0.147
							c-0.333,0.768-0.701,1.613-1.078,2.481c2.576,1.251,4.395,2.113,5.604,2.657c1.159,0.52,1.411,0.576-0.277-0.339
							c-0.734-0.476-2.783-1.466-4.841-2.497c0.348-0.778,0.688-1.527,0.98-2.134c0.283-0.586,0.53-1.058,0.713-1.33
							c0.854-1.273-0.104,1.598,0.749,0.327l0.826-1.877c0.659,0.24,1.096,0.4,2.283,0.796c1.396,0.65-1.627,0.036-0.171,0.518
							c2.169,0.84,4.854,1.489,7.683,1.972c0.718,0.119,1.422,0.228,2.173,0.33c0.759,0.103,1.541,0.178,2.331,0.208l0.595,0.016
							l0.38,0.002c0.151,0.002,0.145,0.049,0.582,0.246l2.027,0.99c-0.08,0.163,1.196,0.991-1.55-0.255l-1.021-0.496
							c-0.026-0.011-0.05-0.025-0.076-0.032l-0.177,0.001c-0.829-0.008-1.653-0.058-2.468-0.146
							c-1.628-0.198-3.098-0.437-4.663-0.734c-1.548-0.308-3.061-0.636-4.628-1.102c-0.765-0.228-1.51-0.47-2.249-0.72l-0.426-0.141
							l-0.552,1.293c-0.607,1.399-0.447,1.045-0.526,1.236l0.292,0.133l2.038,0.99l5.854,2.854
							c-2.812,6.498-5.629,13.01-8.449,19.529l-1.918,4.437l-0.98,2.257c-0.21,0.459-0.44,0.881-0.684,1.286l-0.378,0.595
							l-0.198,0.29l-0.331,0.45c-0.482,0.608-0.989,1.269-1.637,1.518c-0.635,0.278-1.445,0.119-2.207-0.037
							c-0.193-0.038-0.384-0.093-0.576-0.139l-0.373-0.103l-0.67-0.21c-0.445-0.151-0.889-0.322-1.336-0.527l-2.224-1.077
							c-0.097-0.044-0.061-0.023-0.094-0.037l-0.012,0.04l-0.002,0.01l-0.001,0.004l-0.034,0.08l-0.326,0.753
							c-0.625,1.438-0.401,0.936-0.447,1.048c6.991,3.409,13.981,6.819,20.959,10.223l-0.009,0.016l-0.002,0.004l-0.001,0.002
							c-0.003,0.009-0.004,0.01,0.034-0.077l0.328-0.752c0.634-1.45,0.39-0.895,0.429-0.985l0.017,0.01l0.007,0.004l-0.651-0.32
							l-1.302-0.639c-0.181-0.087-0.542-0.271-0.79-0.418c-0.266-0.157-0.518-0.318-0.758-0.485
							c-0.24-0.168-0.473-0.338-0.697-0.517c-0.258-0.201-0.678-0.557-1.013-0.884c-0.735-0.665-1.13-1.45-0.961-2.413
							c0.055-0.449,0.172-0.999,0.258-1.373c0.09-0.37,0.14-0.558,0.22-0.845c0.15-0.528,0.322-1.057,0.538-1.601
							c1.559-3.56,3.116-7.114,4.67-10.664c3.109-7.045,6.208-14.07,9.296-21.067c2.497-5.485,1.019-1.198-0.542,3.053
							c0.52-1.416,0.77-1.307,1.29-2.726c0.25,0.109-0.542,3.053-2.872,8.612l1.811-4.143c0.687-1.345,0.25,0.108,0.416,0.182
							c-0.604,1.382-1.207,2.762-1.124,2.798c0.083,0.036,0.25,0.109,0.333,0.146c0.603-1.38,1.811-4.143,2.414-5.521
							c-0.603,1.379-1.207,2.76-1.124,2.796c0.083,0.037,0.25,0.109,0.333,0.146c-1.124,2.798-3.1,6.866-4.224,9.666l0.25,0.108
							c1.291-2.727,3.017-6.903,4.224-9.665c-0.521,1.419-0.438,1.455-0.271,1.527c-1.727,4.178-3.787,8.211-5.346,12.459
							l1.809-4.14C80.628,82.812,77.279,89.566,75.551,93.745z"/>
					</g>
				</g>
			</g>
			<g>
				<path fill="#E6F2BB" d="M109.792,73.027c3.839,1.177,6.911,3.08,9.226,5.711c2.314,2.629,3.824,5.85,4.533,9.659
					c0.703,3.808,0.39,8.289-0.942,13.439c-1.504,5.806-3.386,10.059-5.641,12.759c-2.554,3.057-5.449,5.065-8.691,6.026
					c-3.244,0.96-6.886,0.82-10.929-0.421c-3.94-1.209-7.039-3.107-9.296-5.695c-2.258-2.589-3.734-5.848-4.437-9.772
					c-0.696-3.924-0.357-8.549,1.021-13.874c1.384-5.348,3.304-9.478,5.762-12.386c2.456-2.909,5.323-4.845,8.601-5.805
					C102.276,71.705,105.874,71.825,109.792,73.027z M111.716,99.133c1.546-5.97,1.831-10.549,0.854-13.74
					c-0.882-2.787-2.53-4.549-4.941-5.291c-2.229-0.684-4.42-0.027-6.573,1.969c-2.154,1.997-4.014,6.022-5.582,12.078
					c-1.566,6.055-1.905,10.543-1.012,13.461c0.892,2.92,2.494,4.732,4.802,5.441c2.333,0.717,4.608,0.056,6.825-1.98
					C108.308,109.036,110.185,105.057,111.716,99.133z"/>
				<g>
					<path fill="#E6F2BB" d="M109.792,73.027c3.839,1.177,6.911,3.08,9.226,5.711c2.314,2.629,3.824,5.85,4.533,9.659
						c0.703,3.808,0.39,8.289-0.942,13.439c-1.504,5.806-3.386,10.059-5.641,12.759c-2.554,3.057-5.449,5.065-8.691,6.026
						c-3.244,0.96-6.886,0.82-10.929-0.421c-3.94-1.209-7.039-3.107-9.296-5.695c-2.258-2.589-3.734-5.848-4.437-9.772
						c-0.696-3.924-0.357-8.549,1.021-13.874c1.384-5.348,3.304-9.478,5.762-12.386c2.456-2.909,5.323-4.845,8.601-5.805
						C102.276,71.705,105.874,71.825,109.792,73.027z M111.716,99.133c1.546-5.97,1.831-10.549,0.854-13.74
						c-0.882-2.787-2.53-4.549-4.941-5.291c-2.229-0.684-4.42-0.027-6.573,1.969c-2.154,1.997-4.014,6.022-5.582,12.078
						c-1.566,6.055-1.905,10.543-1.012,13.461c0.892,2.92,2.494,4.732,4.802,5.441c2.333,0.717,4.608,0.056,6.825-1.98
						C108.308,109.036,110.185,105.057,111.716,99.133z"/>
					<g>
						<path fill="#E6F2BB" d="M112.559,102.063c-0.132,0.351-0.264,0.703-0.393,1.047c-0.598,1.605-1.252,3.204-2.099,4.769
							c-0.833,1.549-1.85,3.138-3.349,4.411c-0.712,0.617-1.527,1.176-2.449,1.608c-0.932,0.4-1.968,0.726-3.056,0.707
							c-2.147,0.015-4.262-0.932-5.706-2.586c-0.991-1.154-1.629-2.542-2.049-3.941c-0.433-1.46-0.547-2.958-0.562-4.411
							c0.053-2.903,0.548-5.696,1.138-8.252c-0.737,3.018-1.344,6.151-1.217,9.481c0.072,1.665,0.459,3.418,1.206,4.969
							c0.714,1.582,1.993,3.085,3.675,3.941c1.629,0.855,3.658,1.093,5.479,0.575c1.812-0.558,3.245-1.577,4.473-2.809
							c1.215-1.264,2.11-2.669,2.858-4.08c0.738-1.416,1.367-2.846,1.912-4.271c-0.176,1.238-0.545,2.708-1.288,4.337l-0.774,1.44
							l-0.904,1.412c-0.365,0.456-0.686,0.921-1.093,1.358c-0.422,0.429-0.836,0.884-1.295,1.227
							c-0.873,0.743-1.924,1.399-3.117,1.843c-1.181,0.45-2.558,0.646-3.847,0.448c0.011-0.09,0.033-0.266,0.044-0.354
							c-1.738-0.166-3.392-0.944-4.638-2.153c-1.247-1.198-2.012-2.68-2.501-4.117c-0.493-1.47-0.722-3.064-0.687-4.491
							c-0.033-0.738,0.06-1.437,0.087-2.154c0.078-0.7,0.158-1.399,0.257-2.091c0.434-2.756,1.095-5.398,1.86-8.047
							c0.798-2.647,1.62-5.324,3.056-7.991c-0.265,0.346-0.196,0.091-0.2-0.017l0.044-0.075l-0.044,0.075
							c0.007-0.095-0.081-0.076-0.438,0.588c0.356-0.664,0.444-0.683,0.438-0.588c-1.491,2.607-2.336,5.256-3.127,7.874
							c-0.76,2.618-1.378,5.237-1.793,7.966c-0.38,2.712-0.638,5.593,0.251,8.682c0.442,1.435,1.125,2.929,2.292,4.212
							c1.161,1.292,2.788,2.224,4.519,2.585c-1.351-0.271-2.64-0.865-3.703-1.768c-1.062-0.89-1.838-1.999-2.404-3.12
							c-0.574-1.13-0.894-2.255-1.16-3.505c-0.18-1.197-0.251-2.368-0.219-3.5c0.056-2.268,0.39-4.426,0.831-6.533
							c0.433-2.112,0.96-4.171,1.605-6.234c0.639-2.063,1.382-4.124,2.464-6.152c1.017-2.01,2.705-4.113,4.931-5.392
							c1.12-0.669,2.523-1.147,3.985-1.153c0.724,0.003,1.444,0.091,2.125,0.279c0.67,0.197,1.289,0.414,1.899,0.758
							c1.22,0.643,2.294,1.612,3.078,2.719c0.788,1.113,1.282,2.312,1.638,3.536c0.251,0.851,0.52,2.526,0.525,3.335
							c-0.095,3.281-0.68,6.286-1.343,9.25c-0.132-0.416-0.593,0.061-0.823-0.089c-0.244-0.153-0.185-0.897,0.36-3.83
							c-0.089-0.013-0.267-0.037-0.356-0.05c-0.65,2.899-1.626,4.735-2.139,5.16c-0.555,0.428-0.662-0.567-0.266-3.371
							c0.233-1.576,0.418-3.271,0.472-4.999c0.05-1.728-0.076-3.487-0.625-4.991c-0.965-3.101-4.415-4.704-6.784-2.8
							c-0.447,0.31-0.956,0.723-1.318,1.138c-0.385,0.384-0.732,0.902-1.076,1.414c-0.675,1.066-1.227,2.316-1.748,3.581
							c-1.006,2.565-1.793,5.345-2.504,8.096c-0.477,1.891-0.848,3.843-0.99,5.771c-0.026,0.479-0.074,0.967-0.049,1.429
							c0.001,0.473,0.008,0.943,0.074,1.383c0.027,0.463,0.127,0.877,0.221,1.292c0.093,0.413,0.258,0.863,0.415,1.265
							c0.664,1.648,1.723,2.78,3.196,3.267c1.46,0.5,2.941,0.15,4.394-0.802c0.257-0.176,0.522-0.413,0.81-0.642
							c0.24-0.267,0.511-0.516,0.759-0.824c0.493-0.628,0.953-1.367,1.353-2.113c0.805-1.494,1.338-3.004,1.714-3.616
							c0.482-0.906,0.65-0.903,0.812-0.679c-0.789,2.221-1.693,4.438-3.028,6.232c-1.271,1.744-3.217,3.197-5.164,3.344
							c-1.185,0.071-2.464-0.296-3.411-1.034c-0.962-0.725-1.669-1.793-2.132-3.02l-0.309-0.944l-0.199-0.941
							c-0.08-0.651-0.16-1.308-0.14-1.993c-0.021-1.355,0.158-2.753,0.386-4.139c-0.243,1.354-0.43,2.728-0.424,4.075
							c-0.025,0.683,0.05,1.334,0.118,1.992l0.197,0.943c0.09,0.315,0.203,0.631,0.302,0.948c0.446,1.247,1.165,2.334,2.141,3.072
							c0.96,0.751,2.263,1.131,3.471,1.04c1.944-0.126,3.905-1.545,5.198-3.261c1.356-1.765,2.297-3.936,3.112-6.117
							c0.12,0.222,0.24,0.44,0.508,0.228c0,0,0.442-1.398,0.663-2.098c1.217-2.708,1.639-1.871,1.669-0.295
							C112.613,101.123,112.616,101.57,112.559,102.063z"/>
					</g>
					<g>
						<path fill="#E6F2BB" d="M105.392,73.736c-0.555-0.049-1.115-0.147-1.667-0.146c-2.555-0.117-5.103,0.494-7.387,1.713
							c-2.268,1.223-4.277,3.083-5.855,5.257c-1.56,2.207-2.761,4.771-3.678,7.512c-0.231,0.686-0.462,1.375-0.654,2.085
							c-0.219,0.701-0.397,1.416-0.55,2.142c-0.166,0.722-0.332,1.448-0.5,2.18c-0.185,0.729-0.226,1.477-0.349,2.222
							c-0.077,0.525-0.153,1.053-0.23,1.582c-0.045,0.532-0.042,1.067-0.066,1.607c-0.017,0.542-0.034,1.086-0.051,1.632
							c0.03,0.541,0.101,1.081,0.149,1.626c0.068,0.542,0.075,1.096,0.193,1.635l0.38,1.62l0.19,0.813l0.289,0.777l0.581,1.557
							c0.977,1.963,2.145,3.868,3.737,5.316c1.575,1.461,3.408,2.597,5.327,3.395c-2.249-0.987-4.344-2.341-5.976-4.142
							c-1.561-1.853-2.919-3.941-3.625-6.341c-1.644-4.743-1.255-9.938-0.127-14.903c1.094-4.972,2.948-9.889,6.053-13.505
							c1.601-1.804,3.47-3.286,5.554-4.232c2.089-0.949,4.329-1.382,6.553-1.271c-1.809,0.194-3.833,0.659-6.041,1.671
							c-2.646,1.168-4.959,3.258-6.68,5.68c-1.736,2.448-2.93,5.383-3.869,8.379c-0.087-0.026-0.257-0.077-0.342-0.103
							c-1.133,4.365-1.988,8.781-1.645,13.008l0.156,1.572c0.023,0.528,0.214,1.032,0.311,1.55c0.125,0.513,0.222,1.035,0.364,1.54
							l0.537,1.467l0.264,0.735c0.103,0.237,0.238,0.457,0.354,0.687l0.718,1.368c0.265,0.439,0.598,0.83,0.89,1.251
							c0.302,0.414,0.588,0.843,0.954,1.198c2.742,3.019,6.86,4.798,11.047,5.58c2.089,0.347,4.219,0.385,6.23-0.091
							c2.01-0.476,3.917-1.421,5.564-2.765c-0.512,0.324-0.268,0.049-0.204-0.071l0.095-0.072l-0.095,0.072
							c0.052-0.121-0.005-0.069-0.866,0.498c0.861-0.567,0.918-0.619,0.866-0.498c-1.635,1.264-3.499,2.129-5.437,2.573
							c-1.943,0.439-3.997,0.402-6.024,0.072c-4.079-0.727-8.085-2.433-10.823-5.267c-2.782-2.831-4.253-6.85-4.662-10.944
							c-0.402-4.102,0.379-8.426,1.549-12.666c-1.929,6.574-2.47,13.52,0.317,19.356l0.563,1.039
							c0.193,0.342,0.346,0.712,0.605,1.007c0.49,0.605,0.896,1.288,1.438,1.843c1.052,1.137,2.295,2.103,3.668,2.895
							c2.735,1.563,6.033,2.57,9.17,2.803c3.156,0.242,6.215-0.538,8.825-2.3c1.304-0.868,2.494-1.955,3.566-3.182
							c1.059-1.193,1.883-2.523,2.632-4.018c1.446-2.976,2.516-6.343,3.25-9.718c0.823-3.354,1.137-6.809,0.748-10.095
							c-0.031-0.281-0.069-0.632-0.111-1.019c-0.058-0.384-0.19-0.793-0.285-1.208c-0.102-0.414-0.204-0.828-0.297-1.208
							c-0.083-0.384-0.255-0.691-0.344-0.958c-0.179-0.546-0.354-1.081-0.526-1.608c-0.255-0.509-0.505-1.009-0.753-1.503
							c-0.222-0.523-0.561-0.971-0.891-1.426c-0.345-0.441-0.611-0.957-1.021-1.342c-0.396-0.403-0.789-0.805-1.18-1.204
							c-0.382-0.415-0.89-0.692-1.328-1.048c-0.862-0.739-1.943-1.178-2.936-1.74c0.604,0.067-0.022-0.647,0.208-0.817
							c0.119-0.083,0.462-0.024,1.315,0.351c0.855,0.352,2.23,1.087,3.974,2.769c0.062-0.065,0.185-0.196,0.247-0.262l-0.621-0.67
							c-0.217-0.203-0.454-0.374-0.671-0.56c-0.427-0.354-0.848-0.704-1.265-1.05c-0.844-0.606-1.653-1.08-2.325-1.555
							c-1.414-0.793-2.417-1.345-2.807-1.724c-0.377-0.322-0.197-0.523,0.755-0.349c0.475,0.082,1.136,0.241,2,0.491
							c0.863,0.249,1.864,0.792,3.098,1.374c2.661,1.566,5.219,3.966,6.999,7.034c1.788,3.08,2.835,6.657,3.037,10.412
							c0.131,3.718-0.426,7.4-1.289,10.946c-0.889,3.502-2.003,6.975-3.694,10.277c-0.616,1.198-1.359,2.368-2.238,3.486
							c-0.871,1.058-1.782,2.06-2.835,2.967c-2.056,1.839-4.589,3.295-7.342,4.051c-2.774,0.773-5.665,0.765-8.357,0.3
							c-2.7-0.477-5.229-1.344-7.674-2.6c-1.663-0.885-3.266-1.993-4.681-3.351c-0.708-0.675-1.376-1.41-1.932-2.217l-0.869-1.19
							c-0.31-0.386-0.485-0.85-0.732-1.272c-1.885-3.457-2.763-7.29-2.887-11.154c-0.099-3.854,0.673-7.533,1.548-11.089
							c0.985-3.518,2.292-6.975,4.269-10.057c1.406-2.266,3.816-5.131,6.715-6.963c2.866-1.893,5.995-2.541,7.351-2.552
							c1.959-0.058,2.02,0.213,1.739,0.41c-4.341,0.073-8.598,1.957-11.671,4.928c-1.552,1.459-2.888,3.165-3.948,4.99
							c-1.065,1.823-1.904,3.743-2.604,5.69l-0.606,1.803l-0.533,1.819c-0.313,1.226-0.573,2.466-0.862,3.7
							c-0.262,1.241-0.371,2.521-0.562,3.782c-0.129,1.272-0.104,2.57-0.16,3.857l0.176,1.946c0.074,0.646,0.084,1.307,0.261,1.935
							c0.282,1.271,0.527,2.551,1.034,3.774c0.377,1.265,1.047,2.419,1.661,3.598c0.321,0.581,0.759,1.095,1.138,1.645l0.591,0.812
							c0.215,0.257,0.449,0.499,0.674,0.749l-0.656-0.736L86.4,114.59c-0.372-0.539-0.787-1.053-1.117-1.615
							c-0.587-1.167-1.271-2.296-1.638-3.548c-0.964-2.43-1.295-5.009-1.492-7.605c0.021-1.288,0.036-2.585,0.127-3.868
							c0.185-1.269,0.305-2.555,0.546-3.813c0.286-1.248,0.549-2.503,0.854-3.749l0.531-1.851l0.607-1.836
							c0.709-1.939,1.555-3.844,2.621-5.646c1.06-1.805,2.387-3.484,3.921-4.916c3.037-2.927,7.191-4.744,11.419-4.873
							c-0.301,0.209-0.57,0.423-0.063,0.56c0,0,0.157-0.012,0.414-0.009c0.256-0.001,0.611-0.003,1.005-0.005
							c0.787,0.041,1.729,0.12,2.35,0.23c1.227,0.307,2.029,0.64,2.516,0.914c0.489,0.27,0.669,0.459,0.63,0.588
							c-0.084,0.275-1.028,0.236-2.222,0.223C106.805,73.72,106.129,73.736,105.392,73.736z"/>
					</g>
				</g>
			</g>
		</g>
		<g>
			<path fill="#E6F2BB" d="M30.867,120.613l6.168,35.458c0.266,1.532,0.486,2.438,0.662,2.714c0.281,0.503,0.676,0.818,1.191,0.95
				c0.515,0.131,1.41,0.066,2.691-0.192l4.365-0.882l1.093,6.287l-26.761,5.406l-1.094-6.286l4.413-0.893
				c1.555-0.313,2.533-0.616,2.933-0.909c0.397-0.293,0.666-0.694,0.803-1.203c0.137-0.507,0.076-1.505-0.184-2.994l-4.396-25.283
				l-8.703,1.758l-1.094-6.287c2.443-0.762,4.302-1.416,5.58-1.965c1.918-0.813,3.934-1.802,6.047-2.968
				c1.178-0.64,2.256-1.338,3.237-2.097L30.867,120.613z"/>
			<path fill="#E6F2BB" d="M61.393,114.444l6.166,35.46c0.269,1.531,0.489,2.438,0.665,2.715c0.279,0.501,0.677,0.819,1.191,0.949
				c0.514,0.13,1.41,0.066,2.691-0.192l4.365-0.882l1.094,6.288l-26.764,5.406l-1.092-6.287l4.412-0.893
				c1.555-0.314,2.531-0.616,2.932-0.91c0.399-0.293,0.666-0.693,0.805-1.201c0.137-0.508,0.078-1.507-0.182-2.996l-4.396-25.283
				l-8.705,1.759l-1.092-6.288c2.439-0.761,4.3-1.416,5.576-1.965c1.918-0.813,3.936-1.801,6.048-2.967
				c1.177-0.639,2.257-1.339,3.24-2.098L61.393,114.444z"/>
			<g>
				<path fill="#E6F2BB" d="M31.652,120.649l5.072,35.632c0.219,1.54,0.412,2.451,0.578,2.732c0.266,0.512,0.65,0.84,1.162,0.986
					c0.51,0.146,1.407,0.109,2.695-0.108l4.392-0.747l0.898,6.315l-26.915,4.582l-0.9-6.316l4.439-0.756
					c1.564-0.267,2.551-0.539,2.958-0.819s0.688-0.675,0.842-1.177c0.151-0.504,0.122-1.503-0.093-3l-3.617-25.405l-8.752,1.489
					l-0.9-6.318c2.467-0.687,4.344-1.283,5.639-1.793c1.94-0.753,3.986-1.679,6.135-2.779c1.195-0.604,2.296-1.269,3.301-1.996
					L31.652,120.649z"/>
				<g>
					<path fill="#E6F2BB" d="M31.652,120.649l5.072,35.632c0.219,1.54,0.412,2.451,0.578,2.732c0.266,0.512,0.65,0.84,1.162,0.986
						c0.51,0.146,1.407,0.109,2.695-0.108l4.392-0.747l0.898,6.315l-26.915,4.582l-0.9-6.316l4.439-0.756
						c1.564-0.267,2.551-0.539,2.958-0.819s0.688-0.675,0.842-1.177c0.151-0.504,0.122-1.503-0.093-3l-3.617-25.405l-8.752,1.489
						l-0.9-6.318c2.467-0.687,4.344-1.283,5.639-1.793c1.94-0.753,3.986-1.679,6.135-2.779c1.195-0.604,2.296-1.269,3.301-1.996
						L31.652,120.649z"/>
					<g>
						<path fill="#E6F2BB" d="M27.577,123.651c-0.035-0.002-0.478,0.222-0.754,0.352c-0.311,0.148-0.621,0.297-0.928,0.444
							c-1.901,0.913-3.768,1.841-5.81,2.681c-1.046,0.415-2.075,0.745-3.104,1.059l-1.351,0.396l-0.58,0.151l0.07,0.589l0.185,1.369
							c0.08,0.603,0.16,1.207,0.24,1.815c2.861-0.472,5.76-0.95,8.713-1.437c0.548,4.083,1.109,8.261,1.69,12.586
							c0.513,4.146,1.11,8.538,1.733,12.963c0.144,1.101,0.358,2.214,0.368,3.489c0,0.32-0.023,0.798-0.142,1.179
							c-0.122,0.396-0.374,0.741-0.639,1.051c-0.269,0.302-0.413,0.447-0.75,0.744c-0.317,0.263-0.628,0.565-1.063,0.574
							c-1.884,0.328-3.753,0.653-5.583,0.972c0.156,1.081,0.309,2.142,0.458,3.18c-0.14-1.048-0.279-2.099-0.42-3.151
							c1.178-0.191,2.358-0.384,3.541-0.576l1.16-0.191l0.655-0.113l0.44-0.082c0.072-0.016,0.149-0.022,0.218-0.045l0.182-0.131
							c0.239-0.17,0.479-0.368,0.688-0.563c0.171-0.159,0.322-0.307,0.5-0.506c0.388-0.427,0.74-0.963,0.803-1.564
							c0.087-0.66,0.051-1.048,0.033-1.49c-0.027-0.43-0.071-0.843-0.123-1.252l-0.322-2.354l-0.645-4.688
							c-0.913-6.707-1.827-13.42-2.735-20.097c-1.923,0.313-3.844,0.624-5.762,0.935l-2.151,0.34l-0.754,0.1l-0.057-0.557
							l-0.139-1.146l-0.167-1.351l-0.038-0.47l0.47-0.105l0.056-0.012l0.115-0.03l0.389-0.109l0.777-0.224
							c1.036-0.305,2.072-0.627,3.13-1.037c2.06-0.827,3.921-1.733,5.804-2.622c-0.963,0.61-2.033,1.262-3.246,1.925
							c-0.608,0.33-1.248,0.664-1.957,0.993c-0.723,0.338-1.502,0.639-2.278,0.902c-0.744,0.244-1.479,0.466-2.211,0.679
							l-0.274,0.078c-0.096,0.029-0.025,0.006-0.05,0.013l-0.011-0.003l-0.03-0.003c-0.004,0.007-0.008,0.019-0.011,0.033
							l-0.001,0.006c0,0.006-0.004-0.02,0.008,0.074l0.053,0.396l0.105,0.792l0.106,0.791c0.026,0.191,0.011,0.094,0.015,0.127
							l-0.001,0.018l-0.002,0.081h0.107l2.152-0.351c2.152-0.356,4.298-0.711,6.439-1.065c0.222,1.596,0.441,3.173,0.661,4.748
							c-0.09,0.013-0.266,0.038-0.354,0.051c0.919,5.911,1.743,11.723,2.53,17.489l0.584,4.317c0.092,0.707,0.206,1.446,0.27,2.252
							c0.029,0.411,0.053,0.792,0.034,1.3c-0.021,0.597-0.136,1.26-0.495,1.775c-0.162,0.257-0.387,0.525-0.563,0.714
							c-0.162,0.173-0.315,0.321-0.487,0.479c-0.475,0.416-0.949,0.858-1.605,0.874l-2.285,0.378l-2.142,0.345l-0.637,0.091
							l0.212,1.648l0.213,1.608c2.77-0.474,5.544-0.947,8.348-1.427c3.317-0.586,6.655-1.197,10.024-1.845
							c-0.745,0.078-0.32-0.068-0.177-0.152c0.051-0.009,0.1-0.018,0.147-0.025c-0.047,0.008-0.096,0.017-0.147,0.025
							c0.129-0.073,0.038-0.099-1.251,0.121c1.289-0.22,1.38-0.194,1.251-0.121c-6.095,1.049-12.052,2.074-17.952,3.09
							c-0.125-0.905-0.251-1.809-0.375-2.709l2.427-0.4l2.133-0.358l0.949-0.186c0.262-0.187,0.524-0.37,0.771-0.581
							c0.282-0.243,0.407-0.365,0.572-0.531c0.147-0.149,0.346-0.36,0.551-0.631c0.405-0.509,0.647-1.127,0.699-1.776
							c0.06-0.69,0.029-1.001,0.009-1.439c-0.051-0.799-0.165-1.563-0.258-2.246c-0.192-1.402-0.384-2.807-0.576-4.214
							c-0.759-5.624-1.525-11.296-2.306-17.077c0.791,5.7,1.576,11.357,2.359,16.996l0.595,4.226
							c0.096,0.686,0.214,1.447,0.271,2.254c0.014,0.204,0.025,0.412,0.029,0.633c0.003,0.215,0.006,0.438-0.023,0.799
							c-0.043,0.668-0.268,1.313-0.676,1.843c-0.198,0.273-0.427,0.523-0.569,0.67c-0.183,0.184-0.271,0.274-0.566,0.533
							c-0.252,0.22-0.521,0.413-0.791,0.604c-0.305,0.112-0.646,0.142-0.967,0.216l-2.168,0.372l-2.324,0.396l0.353,2.447
							c7.635-1.314,15.285-2.632,23.009-3.962c-0.114-0.777-0.229-1.559-0.344-2.343l-0.597,0.106
							c-0.895,0.146-1.705,0.311-2.747,0.445c-0.544,0.05-0.957,0.123-1.879,0.05c-0.856-0.063-1.644-0.464-2.239-1.085
							c-0.149-0.148-0.302-0.319-0.411-0.453c-0.112-0.139-0.174-0.214-0.314-0.412c-0.124-0.176-0.239-0.356-0.344-0.543
							c-0.096-0.189-0.233-0.365-0.239-0.586l-0.106-0.634l-0.05-0.345l-0.096-0.667c-0.509-3.561-1.021-7.142-1.536-10.746
							c-0.197-1.386-0.592-4.161-0.79-5.549c-0.522-5.588-1.224-11.152-2.013-16.698c0.643,1.321,0.744-4.355,2.146,6.772
							c0.089-0.013,0.267-0.038,0.356-0.051c-1.135-11.166-0.48-15.507,1.457-4.455c0.983,5.731,1.941,12.369,2.918,19.352
							c0.486,3.49,0.985,7.068,1.486,10.661l0.16,1.143c0,0.017,0.009,0.029,0.017,0.043l0.128,0.163
							c0.124,0.043-0.188,0.086,0.815-0.001c0.732-0.086,1.685-0.272,2.564-0.419c1.592-0.275,3.181-0.551,4.767-0.825
							c0.283,1.913,0.565,3.815,0.846,5.711l0.699,4.763c-5.171,0.907-10.334,1.813-15.49,2.717
							c-5.211,0.869-10.409,1.737-15.65,2.612c-0.256-1.914-0.513-3.831-0.771-5.757c-0.209-1.573-0.419-3.151-0.633-4.758
							c2.176-0.351,4.363-0.702,6.56-1.057l1.718-0.271l0.049-0.033c0.065-0.056,0.201-0.187,0.273-0.264
							c0.08-0.082,0.077-0.078,0.097-0.135c0.005-0.03,0.006-0.009,0.011-0.149c0.003-0.137,0-0.294-0.009-0.458
							c-0.016-0.328-0.051-0.685-0.094-1.045l-0.31-2.322c-0.212-1.567-0.425-3.14-0.638-4.712c-0.423-3.146-0.847-6.295-1.27-9.434
							c-0.207-1.565-0.413-3.129-0.619-4.688l-0.302-2.331l-0.049-0.585l-0.404,0.039l-0.108,0.011l-0.419,0.063l-0.88,0.133
							c-1.286,0.193-2.567,0.387-3.846,0.579c-0.929,0.152-1.915,0.314-2.966,0.487c-0.409-2.817-0.879-6.06-1.344-9.263
							c0.879-0.252,1.755-0.504,2.62-0.752c0.566-0.174,1.125-0.345,1.672-0.513c0.942-0.301,1.828-0.603,2.599-0.904
							c1.525-0.613,2.851-1.257,3.617-1.54c1.842-0.775,2.001-0.651,1.825-0.318c-1.764,0.879-3.548,1.788-5.299,2.488
							c-0.888,0.344-1.809,0.645-2.736,0.931l-1.583,0.47l-2.044,0.574c0.387,2.766,0.768,5.479,1.146,8.181
							c2.947-0.491,5.841-0.974,8.726-1.454l0.026,0.195c0.688,5.228,1.377,10.457,2.066,15.695c0.358,2.76,0.717,5.521,1.076,8.287
							c0.09,0.681,0.162,1.331,0.174,1.937c0.002,0.141,0,0.31-0.007,0.394c-0.006,0.072-0.015,0.139-0.032,0.205
							c-0.043,0.145-0.118,0.218-0.246,0.355c-0.556,0.516-0.333,0.415-0.994,0.522l-2.064,0.318l2.024-0.3
							c0.7-0.106,0.48-0.003,1.008-0.482c0.171-0.178,0.219-0.22,0.287-0.369c0.041-0.151,0.052-0.209,0.055-0.553
							c0-0.587-0.068-1.24-0.151-1.901c-0.354-2.746-0.707-5.495-1.062-8.253c-0.708-5.253-1.418-10.536-2.135-15.855l-0.025-0.198
							l-8.685,1.398l-1.086-8.056c2.955-0.809,4.348-1.203,6.2-1.877c1.726-0.662,3.462-1.53,5.182-2.368
							c-0.212,0.313-0.41,0.627,0.163,0.537c0,0,0.624-0.318,1.403-0.716c0.392-0.2,0.822-0.422,1.233-0.632
							c0.473-0.207,0.864-0.294,1.206-0.416c5.476-1.291,4.332-0.261,1.807,1.025C29.071,122.952,28.34,123.294,27.577,123.651z"/>
					</g>
				</g>
			</g>
			<g>
				<path fill="#E6F2BB" d="M60.523,114.432l7.374,35.229c0.32,1.521,0.571,2.42,0.756,2.69c0.297,0.491,0.704,0.796,1.224,0.908
					c0.52,0.113,1.414,0.019,2.684-0.284l4.332-1.029l1.309,6.246l-26.563,6.317l-1.308-6.246l4.38-1.043
					c1.543-0.367,2.508-0.702,2.9-1.01c0.389-0.306,0.641-0.715,0.762-1.228c0.117-0.513,0.025-1.509-0.285-2.988l-5.258-25.117
					l-8.64,2.054l-1.305-6.246c2.411-0.844,4.248-1.563,5.505-2.154c1.891-0.878,3.872-1.935,5.942-3.173
					c1.154-0.679,2.21-1.414,3.167-2.206L60.523,114.432z"/>
				<g>
					<path fill="#E6F2BB" d="M60.523,114.432l7.374,35.229c0.32,1.521,0.571,2.42,0.756,2.69c0.297,0.491,0.704,0.796,1.224,0.908
						c0.52,0.113,1.414,0.019,2.684-0.284l4.332-1.029l1.309,6.246l-26.563,6.317l-1.308-6.246l4.38-1.043
						c1.543-0.367,2.508-0.702,2.9-1.01c0.389-0.306,0.641-0.715,0.762-1.228c0.117-0.513,0.025-1.509-0.285-2.988l-5.258-25.117
						l-8.64,2.054l-1.305-6.246c2.411-0.844,4.248-1.563,5.505-2.154c1.891-0.878,3.872-1.935,5.942-3.173
						c1.154-0.679,2.21-1.414,3.167-2.206L60.523,114.432z"/>
					<g>
						<g>
							<path fill="#E6F2BB" d="M57.422,118.201c-1.925,1.15-2.632,1.253-3.061,1.281c-0.439,0.008-0.594-0.15-1.341,0.064
								c0,0,0.435-0.289,0.869-0.578c0.429-0.294,0.857-0.588,0.857-0.588c0.62-0.313,1.332-0.695,2.021-1.102
								c0.318-0.193,0.635-0.387,0.942-0.574c0.221-0.121,0.429-0.294,0.616-0.254c0.104-0.006,0.154,0.002,0.285-0.009
								c0.144-0.013,0.28-0.025,0.41-0.037c0.254-0.02,0.471-0.028,0.636-0.023c0.331,0.01,0.458,0.072,0.285,0.211
								c-0.099,0.057-0.662,0.315-1.243,0.562l-0.147,0.11c-0.051,0.042-0.135,0.153-0.205,0.222
								C58.3,117.574,57.783,117.961,57.422,118.201z"/>
							<path fill="#E6F2BB" d="M60.417,115.199c-0.368,0.097-0.443,0.054-0.809,0.151l0.969-0.692L60.417,115.199z"/>
							<path fill="#E6F2BB" d="M50.391,121.155c0,0-0.435,0.224-0.869,0.448c-0.442,0.22-0.884,0.438-0.884,0.438
								c-0.442,0.148,0.557-0.403,0.465-0.43c0,0-0.526,0.187-1.053,0.374c-0.527,0.168-1.054,0.336-1.054,0.336
								C49.84,121.316,49.562,120.877,50.391,121.155z"/>
							<path fill="#E6F2BB" d="M52.442,129.76c-0.02,0.553-0.173,0.367-0.332,0.115c-0.161-0.264-0.329-0.607-0.438-0.653
								c-0.023-0.146-0.035-0.303-0.039-0.461c-0.318-0.024-0.549-0.174,0.014-0.47c0.128-0.03,0.248-0.058,0.333-0.078
								C52.157,128.991,52.33,129.3,52.442,129.76z"/>
							<g>
								<path fill="#E6F2BB" d="M45.13,125.691c-0.084-0.03-0.161-0.133-0.235-0.284c-0.091-0.235-0.158-0.418-0.224-0.634
									c-0.127-0.456-0.265-0.949-0.365-1.306c0.258-0.132,0.397-0.249,0.195-0.311c-0.251-0.073-0.515-0.14-0.937-0.105
									c-0.042,0.007-0.028,0.059-0.039,0.101l0.596,1.722c0.342,2.06,0.145,1.773-0.145,1.175
									c-0.283-0.566-0.698-1.624-0.512,0.232c0.181,0.778,0.271,1.164,0.396,1.432c0.544,1.516,0.496,0.755,0.504-0.265
									c0.076,0.339,0.137,0.646,0.183,0.917c1.46-0.287,1.938-0.112,2.387,0.053c0.215,0.085,0.443,0.163,0.75,0.188
									c0.293,0.027,0.68-0.001,1.291-0.147c0.46-0.129,0.814-0.242,1.025-0.328c0.236-0.092,0.419-0.179,0.56-0.26
									c0.283-0.164,0.396-0.308,0.423-0.434c0.07-0.257-0.279-0.429,0.25-0.689c-0.064,0.25,0.611,0.308,1.494,0.287
									c0.041,0.682,0.1,1.415,0.171,2.153c0.037,0.357,0.075,0.729,0.115,1.113c0.059,0.44,0.12,0.894,0.182,1.354
									c0.264,1.854,0.608,3.869,0.98,5.722c0.679,2.499,1.145,5.205,1.654,8.032c0.255,1.414,0.521,2.858,0.83,4.322
									c0.154,0.731,0.319,1.468,0.5,2.208c0.095,0.381,0.164,0.677,0.224,1.04c0.06,0.365,0.103,0.701,0.135,0.978
									c-0.007,0.251-0.023,0.508-0.054,0.768c-0.032,0.253-0.026,0.569-0.353,0.65c-0.252,0.128-0.516,0.241-0.785,0.344
									c-0.264,0.1-0.531,0.191-0.92,0.311c-0.711,0.218-1.461,0.329-2.401,0.536c-1.114,0.244-2.243,0.491-3.372,0.739
									c-0.039-0.03-0.087-0.057-0.118-0.088c-0.081,0.051-0.112,0.093-0.068,0.124c-0.159,0.019-0.318,0.037-0.48,0.057
									c0.083,1.013,0.392,2.602,0.717,4.134c0.334,1.555,0.68,3.165,0.972,4.523c1.66-0.378,2.919-0.588,3.252-0.355l0.904-0.288
									c0.445-0.108,0.777-0.188,1.025-0.248c0.21-0.046,0.349-0.068,0.436-0.075c0.175-0.013,0.145,0.04,0.077,0.108
									c-0.136,0.138-0.426,0.342,0.459,0.217c2.759-0.766,6.598-0.981,7.868-1.992c0.237-0.008-0.054,0.098,0.184,0.09
									l2.228-0.651c0.111-0.198,0.518-0.503,0.102-0.587c0.527-0.113,0.936-0.419,1.698-0.538c1.882-0.448,0.306,0.281,1.015,0.26
									c1.375-0.385,2.812-0.771,4.271-1.144c0.881-0.217,1.767-0.435,2.651-0.652c1.108-0.26,2.214-0.52,3.314-0.777
									c-0.156-0.793-0.311-1.584-0.465-2.368c-0.144-0.77-0.286-1.534-0.427-2.291c-0.274-1.514-0.555-3.131-0.812-4.717
									c0.061-0.087,0.083-0.304,0.068-0.643c-0.627-0.042-2.614,0.354-4.807,0.851c-0.549,0.127-1.106,0.256-1.659,0.384
									c-0.152,0.035-0.236,0.052-0.37,0.074l-0.273,0.04c-0.187,0.024-0.365,0.034-0.505,0.032
									c-0.157-0.032-0.142-0.272-0.188-0.396l-0.06-0.203l-0.153-0.466c-0.076-0.239-0.125-0.41-0.192-0.669l-0.22-0.849
									c-0.154-0.561-0.308-1.12-0.459-1.673c-0.616-2.202-1.207-4.271-1.31-5.986c0.785,1.892,1.089,5.381,1.576,5.673
									l-0.003-0.945c-0.3-2.07-0.701-5.382-1.385-6.502c0.003,1.182-0.19,1.302-0.286,1.716c-0.295-0.887-0.49-1.005-0.786-2.128
									c-0.394-1.655-0.693-3.49-0.402-3.551c0.295,0.889,0.396,1.895,0.594,2.722c0.39,0.237-0.205-2.721-0.305-3.727
									c-0.382,1.896-1.663-2.657-1.159,2.134l-0.69-2.542c-1.076-1.831,1.101,8.455-0.568,4.142
									c-0.294-0.412-0.389,0.238-0.88-1.24c-0.094,0.887,0.301,2.544,0.595,3.193c-0.287,1.245,1.288,6.442,0.609,6.744
									c0.369,1.05,0.609,1.978,0.773,2.84c0.09,0.456,0.127,0.792,0.213,1.308l0.127,0.69l0.07,0.339l0.105,0.423
									c0.163,0.607,0.35,1.223,0.588,1.825c0.25,0.595,0.541,1.173,1.078,1.463c0.533,0.299,1.235,0.414,1.991,0.475
									c0.379,0.031,0.778,0.035,1.19,0.025c0.421-0.013,0.833-0.052,1.127-0.092c0.209-0.03,0.411-0.065,0.609-0.107
									c0.071-0.014,0.137-0.026,0.2-0.038c0.105-0.023,0.198-0.044,0.28-0.062c0.164-0.041,0.285-0.082,0.378-0.124
									c0.186-0.085,0.26-0.175,0.287-0.271c0.071-0.197-0.14-0.397,0.36-0.718c0.32-0.024,0.634-0.078,0.958-0.154
									c0.087,0.414,0.224,0.758,0.385,1.137c0.043,0.108,0.072,0.141,0.143,0.372c0.043,0.097,0.085,0.191,0.126,0.283
									c0.087,0.202,0.167,0.39,0.238,0.554c0.079,0.349,0.079,0.606,0.028,0.698c-0.275-0.014-0.39-0.087-0.277-0.177
									c-0.009-0.013-0.02-0.035-0.03-0.061l0.001,0.043L75.316,157l-0.387,0.043l-0.185,0.02l-0.09,0.01l-0.205,0.037
									l-3.354,0.627c-2.24,0.446-4.474,0.891-6.706,1.335c-2.234,0.476-4.464,0.95-6.69,1.425l-3.335,0.737l-0.733,0.134
									l-0.052-0.335l-0.083-0.463c0.066-0.114,0.104-0.167,0.12-0.223c0.157-0.008,0.265-0.031,0.38-0.063
									c0.669-0.165,1.334-0.329,2.001-0.494l0.738-0.226l0.359-0.12l0.488-0.181c0.722-0.282,1.441-0.604,2.104-0.99
									c0.662-0.394,1.156-0.906,1.425-1.595c0.271-0.692,0.372-1.505,0.472-2.336c0,0-0.032,0.343-0.089,0.673
									c-0.046,0.333-0.117,0.649-0.118,0.649c-0.099,0.162-0.031-0.854-0.096-1.661c-0.157,1.29-0.342,2.512-1.061,3.224
									c0.59-0.767,0.633-1.921,0.669-3.01c0.005-0.582-0.019-1.076-0.048-1.408c-0.03-0.376-0.083-0.761-0.16-1.157
									c-0.857-1.312-1.44-6.933-2.374-8.544c-1.214-6.75-0.379-3.986-1.547-10.807c-0.257-0.964-0.527-1.977-0.805-3.021
									c-0.414-1.729-0.839-3.511-1.272-5.321c-1.749,0.447-3.522,0.902-5.307,1.359l-1.705,0.422l-0.746,0.175l-0.234,0.046
									c-0.317,0.061-0.533-0.015-0.527-0.138c0.034-0.124,0.077-0.202,0.113-0.236c-0.048-0.122-0.099-0.302-0.146-0.492
									c-0.031-0.141-0.062-0.283-0.093-0.42c-0.018-0.094-0.041-0.188-0.049-0.267c0.034-0.011,0.06-0.02,0.084-0.027
									c0.192-0.176,0.162-0.266,0.891-0.649c0.451-0.278,0.488-0.392,0.245-0.382c-0.121,0.003-0.312,0.037-0.556,0.091
									c-0.125,0.029-0.259,0.062-0.403,0.096c-0.115,0.026-0.144,0.016-0.23,0.031c-0.296,0.039-0.694,0.121-1.132,0.224
									c0.005,0.289,0.054,0.633,0.093,0.953c0.011,0.081,0.022,0.161,0.033,0.238c0.017,0.102,0.033,0.2,0.048,0.295
									C45.086,125.431,45.11,125.569,45.13,125.691z"/>
								<path fill="#E6F2BB" d="M81.081,158.896c0.25,0.378,0.208-0.384,0.074-1.474c-0.078-0.572-0.161-1.178-0.237-1.734
									c-0.041-0.287-0.079-0.562-0.114-0.812c-0.015-0.114-0.028-0.223-0.041-0.325c-0.001-0.053-0.002-0.103-0.004-0.148
									l-0.487-1.803c-1.079-4.575-1.353-4.021-0.986-1.286c0.218,0.346,0.575,1.717,0.916,3.225
									c0.157,0.74,0.322,1.516,0.479,2.255C80.827,157.564,80.966,158.292,81.081,158.896z"/>
								<path fill="#E6F2BB" d="M61.358,165.177l0.224-0.396l-2.758,0.766C58.948,165.737,60.298,165.404,61.358,165.177z"/>
								<path fill="#E6F2BB" d="M63.297,125.942c0.496,2.661,0.403,3.786,1.093,6.564l0.484-0.652
									c-0.302-2.779-0.507-5.735-1.2-8.988C62.598,120.8,64.079,126.887,63.297,125.942z"/>
								<path fill="#E6F2BB" d="M63.416,131.918c-1.573-4.728-1.885-10.584-3.65-14.485c-1.162,1.424,1.78,8.163,1.986,11.354
									c0.591,2.012,0.985,3.194,1.674,5.737C64.113,136.354,63.616,133.219,63.416,131.918z"/>
								<path fill="#E6F2BB" d="M60.149,116.012c-0.099-0.53-0.296-1.123-0.395-1.419c-0.195-0.354-0.094,0.653-0.093,1.125
									C59.761,116.249,60.35,117.552,60.149,116.012z"/>
							</g>
						</g>
					</g>
				</g>
			</g>
		</g>
	</g>
	<g>
		<g>
			<linearGradient id="SVGID_1_" gradientUnits="userSpaceOnUse" x1="10.4478" y1="42.7441" x2="59.0288" y2="42.7441">
				<stop  offset="0.4133" style="stop-color:#FF576C"/>
				<stop  offset="0.4956" style="stop-color:#FF5C70"/>
				<stop  offset="0.5869" style="stop-color:#FF697C"/>
				<stop  offset="0.6824" style="stop-color:#FF7F8F"/>
				<stop  offset="0.7809" style="stop-color:#FF9EAA"/>
				<stop  offset="0.8817" style="stop-color:#FFC6CD"/>
				<stop  offset="0.9831" style="stop-color:#FFF6F7"/>
				<stop  offset="1" style="stop-color:#FFFFFF"/>
			</linearGradient>
			<path fill="url(#SVGID_1_)" d="M23.86,74.184l-1.514-7.965c4.902-1.254,8.751-2.574,11.54-3.962s5.04-2.966,6.755-4.733
				c1.712-1.768,2.997-3.706,3.854-5.814c0.858-2.11,1.302-4.422,1.334-6.936c-1.951,2.156-3.88,3.791-5.786,4.909
				c-1.906,1.119-4.032,1.925-6.381,2.416c-3.765,0.79-7.294,0.679-10.584-0.335c-3.292-1.012-5.972-2.729-8.041-5.152
				c-2.071-2.422-3.452-5.46-4.147-9.113c-1.146-6.033-0.065-11.424,3.243-16.17c3.309-4.747,8.435-7.848,15.372-9.303
				c7.146-1.498,13.11-0.664,17.896,2.502c5.613,3.697,9.199,9.649,10.759,17.857c1.051,5.526,1.146,10.408,0.292,14.644
				c-0.856,4.235-2.695,8.207-5.515,11.909c-2.818,3.705-6.382,6.747-10.686,9.129C37.948,70.447,31.818,72.486,23.86,74.184z
				 M35.383,42.104c1.884-0.396,3.466-1.178,4.745-2.347c1.279-1.171,2.162-2.665,2.648-4.486c0.485-1.819,0.527-3.787,0.125-5.9
				c-0.587-3.086-1.949-5.421-4.087-7.002c-2.138-1.58-4.549-2.088-7.231-1.525c-2.733,0.573-4.812,2.021-6.234,4.35
				c-1.423,2.326-1.831,5.074-1.229,8.244c0.608,3.195,1.966,5.581,4.075,7.152C30.305,42.162,32.702,42.667,35.383,42.104z"/>
			<g>
				<g>
					<path fill="none" d="M23.86,74.184l-1.514-7.965c4.902-1.254,8.751-2.574,11.54-3.962s5.04-2.966,6.755-4.733
						c1.712-1.768,2.997-3.706,3.854-5.814c0.858-2.11,1.302-4.422,1.334-6.936c-1.951,2.156-3.88,3.791-5.786,4.909
						c-1.906,1.119-4.032,1.925-6.381,2.416c-3.765,0.79-7.294,0.679-10.584-0.335c-3.292-1.012-5.972-2.729-8.041-5.152
						c-2.071-2.422-3.452-5.46-4.147-9.113c-1.146-6.033-0.065-11.424,3.243-16.17c3.309-4.747,8.435-7.848,15.372-9.303
						c7.146-1.498,13.11-0.664,17.896,2.502c5.613,3.697,9.199,9.649,10.759,17.857c1.051,5.526,1.146,10.408,0.292,14.644
						c-0.856,4.235-2.695,8.207-5.515,11.909c-2.818,3.705-6.382,6.747-10.686,9.129C37.948,70.447,31.818,72.486,23.86,74.184z
						 M35.383,42.104c1.884-0.396,3.466-1.178,4.745-2.347c1.279-1.171,2.162-2.665,2.648-4.486c0.485-1.819,0.527-3.787,0.125-5.9
						c-0.587-3.086-1.949-5.421-4.087-7.002c-2.138-1.58-4.549-2.088-7.231-1.525c-2.733,0.573-4.812,2.021-6.234,4.35
						c-1.423,2.326-1.831,5.074-1.229,8.244c0.608,3.195,1.966,5.581,4.075,7.152C30.305,42.162,32.702,42.667,35.383,42.104z"/>
					<g>
						<path fill="#292D73" d="M33.446,43.934c-0.33-0.031-0.661-0.063-0.981-0.095c-1.501-0.187-2.969-0.719-4.218-1.522
							c-1.244-0.786-2.354-1.835-3.2-3.065c-0.85-1.229-1.438-2.612-1.818-4.034c-0.373-1.42-0.594-2.898-0.559-4.455
							c0.06-2.163,0.674-4.56,2.011-6.507c1.252-1.998,3.34-3.496,5.432-4.154c-1.248,0.368-2.462,1-3.5,1.858
							c-1.043,0.858-1.89,1.918-2.544,3.079c-0.658,1.166-1.104,2.463-1.321,3.782c-0.204,1.322-0.187,2.65-0.04,3.938
							c0.139,1.289,0.444,2.539,0.878,3.782c0.438,1.235,1.061,2.446,1.912,3.507c0.846,1.067,1.879,1.974,3.042,2.678
							c1.168,0.71,2.513,1.192,3.877,1.388c-1.115,0.109-2.568-0.037-3.99-0.785c-1.657-0.922-3.087-2.223-4.089-3.766
							c-1.012-1.533-1.631-3.206-2.007-4.847c0.088-0.021,0.261-0.063,0.348-0.084c-0.328-1.127-0.477-2.293-0.549-3.475
							c-0.03-1.19,0.084-2.396,0.375-3.574c0.639-2.359,1.957-4.46,3.857-5.994c0.938-0.779,2.04-1.339,3.155-1.741
							c1.122-0.407,2.265-0.64,3.471-0.711c1.196-0.068,2.451,0.023,3.646,0.393c1.197,0.357,2.317,0.926,3.34,1.631
							c-0.247-0.262-0.041-0.188,0.053-0.188l0.056,0.045l-0.056-0.045c0.079,0.009,0.089-0.074-0.443-0.422
							c0.532,0.348,0.522,0.431,0.443,0.422c-0.999-0.732-2.118-1.329-3.323-1.707c-1.204-0.391-2.477-0.491-3.687-0.429
							c-1.222,0.063-2.37,0.31-3.498,0.716c-1.128,0.394-2.229,0.977-3.178,1.753c-1.922,1.539-3.25,3.622-3.941,5.962
							c-0.668,2.344-0.622,4.797-0.149,7.072c-0.367-1.776-0.508-3.643-0.239-5.532c0.265-1.887,1.021-3.738,2.116-5.291
							c1.074-1.578,2.654-2.899,4.413-3.706c1.765-0.812,3.599-1.194,5.579-1.128c1.972,0.049,3.953,0.765,5.538,1.864
							c1.616,1.071,2.941,2.62,3.821,4.328c0.886,1.719,1.385,3.528,1.589,5.364c0.217,1.844,0.148,3.798-0.374,5.699
							c-0.108,0.32-0.271,0.802-0.433,1.283c-0.192,0.475-0.446,0.935-0.595,1.245c-1.546,2.351-3.908,3.972-6.371,4.845
							c0.227-0.332-0.334-0.474-0.339-0.755c-0.002-0.125,0.12-0.302,0.519-0.535c0.197-0.124,0.474-0.24,0.819-0.425
							c0.329-0.215,0.772-0.419,1.27-0.752c-0.053-0.073-0.157-0.22-0.209-0.293c-2.037,1.186-3.736,0.904-4.16,0.646
							c-0.264-0.162-0.193-0.369,0.102-0.64c0.302-0.266,0.892-0.543,1.686-1.007c0.875-0.534,1.734-1.2,2.426-2.063
							c0.669-0.872,1.163-1.975,1.444-3.225c0.29-1.243,0.333-2.604,0.102-3.983c-0.19-1.38-0.621-2.703-1.265-3.771
							c-0.469-0.78-1.042-1.456-1.717-2.021c-0.674-0.572-1.455-1.023-2.236-1.288c-0.788-0.273-1.614-0.387-2.486-0.355
							c-0.86,0.036-1.814,0.195-2.646,0.494c-1.173,0.375-2.183,1.1-3.017,2.081c-0.855,1.002-1.411,2.227-1.692,3.535
							c-0.279,1.314-0.264,2.741-0.033,4.172c0.227,1.438,0.633,2.787,1.252,3.961c0.452,0.862,1.365,1.823,2.37,2.45
							c0.994,0.659,1.976,0.918,2.398,1.164c0.637,0.223,0.66,0.426,0.523,0.619c-1.64-0.202-3.173-1.016-4.38-2.164
							c-1.193-1.159-2.025-2.664-2.492-4.312c-0.293-1.005-0.465-2.068-0.522-3.104c-0.075-1.04,0.008-2.069,0.241-3.042
							c0.431-1.938,1.595-3.715,3.112-4.842c-1.511,1.07-2.697,2.827-3.145,4.773c-0.245,0.976-0.32,2.016-0.243,3.067
							c0.06,1.05,0.247,2.128,0.557,3.147c0.446,1.649,1.245,3.161,2.414,4.343c1.176,1.169,2.688,2.037,4.333,2.287
							c-0.143,0.164-0.301,0.334-0.112,0.543c0,0,0.271,0.063,0.618,0.063c0.346,0.02,0.76,0.034,1.038,0.001
							c1.122,0.154,1.615,0.27,1.672,0.558c0.058,0.264-0.338,0.604-0.943,0.927C34.234,43.682,33.868,43.807,33.446,43.934z"/>
					</g>
					<g>
						<path fill="#292D73" d="M30.051,71.002c0.913-0.251,1.827-0.503,2.729-0.752c4.138-1.279,8.168-2.782,11.708-5.22
							c3.543-2.398,6.613-5.52,8.953-9.202c2.335-3.666,3.884-7.893,4.197-12.393c0.366-4.485-0.214-9.243-1.353-13.852
							c-0.832-3.221-2.196-6.425-4.252-9.205c-2.052-2.76-4.872-5.072-8.052-6.439c-3.187-1.414-6.788-1.729-10.256-1.419
							c-3.478,0.323-6.899,1.151-9.917,2.461c0.453-0.185,0.896-0.391,1.356-0.561l1.404-0.456c0.923-0.343,1.914-0.5,2.87-0.758
							c0.97-0.204,1.957-0.348,2.937-0.509c0.985-0.061,1.973-0.231,2.958-0.208l1.478-0.004c0.492,0.009,0.977,0.082,1.466,0.118
							c0.985,0.042,1.927,0.307,2.888,0.474c1.871,0.526,3.691,1.234,5.322,2.302c3.321,2.103,5.909,5.219,7.675,8.753
							c1.775,3.551,2.737,7.504,3.187,11.525c0.47,3.995,0.478,8.031-0.432,11.831c-0.906,3.8-2.679,7.35-5.064,10.425
							c-2.389,3.066-5.333,5.62-8.588,7.616l-1.229,0.734l-0.614,0.364l-0.65,0.298l-2.583,1.192
							c-0.886,0.352-1.804,0.647-2.7,0.973c-0.898,0.32-1.79,0.648-2.726,0.876c0.369-0.137,0.74-0.275,1.115-0.414
							c0.374-0.166,0.75-0.333,1.129-0.501c0.796-0.341,1.6-0.685,2.417-1.033c0.843-0.349,1.63-0.833,2.503-1.252
							c0.434-0.219,0.872-0.439,1.316-0.663c0.425-0.267,0.855-0.536,1.293-0.812c4.277-2.558,7.888-6.061,10.499-10.22
							c2.571-4.17,3.881-8.911,3.927-13.8c0.091,0.001,0.269,0.003,0.357,0.004c0.054-0.874-0.024-1.755-0.096-2.635
							c-0.088-0.878-0.077-1.756-0.241-2.629c-0.278-1.747-0.504-3.502-0.949-5.178c-0.823-3.366-2.096-6.573-3.981-9.325
							c-1.858-2.748-4.404-5.033-7.266-6.576c-2.909-1.464-6.215-2.08-9.568-1.996c-6.693,0.267-13.771,2.388-18.272,7.334
							c-0.59,0.587-1.042,1.296-1.571,1.938c-0.419,0.724-0.939,1.397-1.283,2.159l-0.554,1.125c-0.17,0.381-0.292,0.781-0.443,1.17
							c-0.33,0.771-0.467,1.6-0.687,2.405c-0.647,3.271-0.371,6.792,0.612,10.075c-0.187-0.959,0.023-0.415,0.126-0.236
							c0.016,0.064,0.032,0.127,0.046,0.187c-0.015-0.06-0.03-0.122-0.046-0.187c0.091,0.162,0.107,0.042-0.303-1.593
							c0.41,1.635,0.394,1.755,0.303,1.593c-0.893-3.225-1.123-6.648-0.463-9.812c0.703-3.14,2.219-6.157,4.395-8.533
							c4.327-4.803,11.145-6.999,17.707-7.389c3.275-0.149,6.513,0.367,9.38,1.706c2.858,1.316,5.419,3.509,7.312,6.114
							c1.92,2.62,3.25,5.707,4.121,8.972l0.554,2.489c0.168,0.837,0.259,1.703,0.394,2.555c0.318,1.711,0.317,3.426,0.449,5.146
							c-0.092-1.263-0.138-2.524-0.26-3.786c-0.194-1.26-0.362-2.526-0.572-3.778c-0.305-1.217-0.49-2.479-0.91-3.647
							c-0.193-0.592-0.356-1.196-0.57-1.776l-0.706-1.709c-1.035-2.216-2.263-4.345-3.918-6.09
							c-1.638-1.732-3.567-3.264-5.667-4.297c-4.235-2.134-9.32-2.134-14.172-1.19c-2.43,0.513-4.801,1.236-6.988,2.282
							c-2.176,1.063-4.135,2.476-5.759,4.202c-1.614,1.722-2.932,3.786-3.799,5.983c-0.871,2.202-1.271,4.568-1.23,6.97
							c0.015,2.401,0.534,4.862,1.337,7.096l0.317,0.836c0.095,0.285,0.212,0.558,0.366,0.808l0.837,1.555l1.043,1.406
							c0.327,0.488,0.802,0.841,1.19,1.272c1.682,1.599,3.743,2.781,6.037,3.513c2.293,0.672,4.701,0.884,7.136,0.707
							c1.209-0.216,2.449-0.311,3.626-0.662c1.19-0.299,2.323-0.742,3.424-1.243c0.522-0.3,1.086-0.536,1.58-0.88l0.755-0.493
							c0.532-0.342,1.055-0.888,1.574-1.324l1.563-1.387c0.539-0.522,1.105-1.137,1.658-1.701l3.206-3.331l-0.008,1.055
							c0.004,0.143-0.013,0.418-0.028,0.68l-0.042,0.777c-0.057,1.004-0.114,2.012-0.171,3.021l-0.086,1.444
							c-0.05,0.498-0.157,1.041-0.233,1.561c-0.087,0.525-0.157,1.049-0.259,1.576l-0.496,1.604
							c-0.127,0.395-0.28,0.944-0.429,1.347c-0.141,0.304-0.293,0.631-0.453,0.974c-0.292,0.701-0.747,1.389-1.162,2.099
							c-0.445,0.688-0.944,1.338-1.4,1.929c-0.495,0.556-0.934,1.07-1.309,1.46c-1.595,1.512-3.369,2.7-5.177,3.758
							c-1.83,0.978-3.733,1.867-5.653,2.532c-0.958,0.347-1.913,0.696-2.878,0.971c-0.963,0.288-1.92,0.612-2.888,0.853
							l-0.844,0.223L24.4,67.396c-0.05,0.021-0.15,0.01-0.109,0.087l0.291,1.557c-0.404-0.922-0.46,0.59-0.76,0.397
							c-0.075-0.049-0.166-0.203-0.28-0.529c-0.057-0.163-0.121-0.369-0.191-0.626c-0.061-0.227-0.126-0.47-0.199-0.741
							c-0.035-0.146-0.072-0.299-0.111-0.462c-0.02-0.085-0.04-0.172-0.06-0.262l-0.031-0.138c-0.003-0.043-0.047-0.111,0.023-0.11
							c0.378-0.11,0.8-0.233,1.276-0.372c0.514-0.152,1.299-0.347,2.051-0.578c0.774-0.239,1.63-0.503,2.58-0.796
							c-0.029-0.085-0.087-0.256-0.116-0.341c-0.937,0.264-1.847,0.52-2.731,0.769c-0.883,0.223-1.706,0.398-2.542,0.591
							c-0.425,0.095-0.842,0.188-1.253,0.28c-0.027,0.336,0.082,0.756,0.114,1.127c0.091,0.729,0.178,1.43,0.262,2.104
							c0.287,2.511,0.401,4.24,0.334,5.004c-0.067,0.763-0.314,0.56-0.751-0.796c-0.218-0.678-0.484-1.644-0.797-2.921
							c-0.161-0.687-0.333-1.423-0.521-2.223c-0.156-0.751-0.318-1.531-0.487-2.342c-0.065-0.4-0.217-0.864-0.216-1.244
							c0.419-0.12,0.846-0.243,1.281-0.369c2.771-0.802,3.455-0.958,4.779-1.421c0.616-0.204,1.238-0.41,1.865-0.618
							c0.612-0.233,1.228-0.468,1.85-0.705c2.448-0.967,4.885-2.179,7.033-3.797c0.535-0.402,1.068-0.812,1.532-1.281
							c0.503-0.432,0.948-0.935,1.391-1.447c0.471-0.49,0.811-1.071,1.232-1.603c0.318-0.589,0.736-1.132,0.99-1.758l0.43-0.912
							l0.059-0.161c0.051-0.137,0.035-0.11,0.056-0.177c0.007-0.046,0.021-0.093,0.024-0.143l0.008-0.077
							c-0.008-0.001-0.028,0.025-0.042,0.037c-0.045,0.046-0.099,0.091-0.157,0.136l-0.045,0.033l-0.023,0.017l0.044-0.028
							l-0.201,0.132c-0.549,0.341-1.071,0.737-1.653,1.018c-2.266,1.247-4.735,2.081-7.227,2.511
							c-1.251,0.196-2.497,0.42-3.785,0.406c-0.64-0.001-1.275,0.091-1.916,0.008L25.78,54.45c-2.536-0.401-5.025-1.091-7.262-2.376
							c-1.002-0.472-1.875-1.173-2.768-1.838c-0.467-0.31-0.835-0.73-1.235-1.117c-0.39-0.397-0.796-0.781-1.166-1.194
							c-1.374-1.734-2.594-3.626-3.327-5.676l-0.576-1.526l-0.396-1.56c-0.3-1.036-0.448-2.092-0.596-3.149
							c-0.242-2.121-0.301-4.309,0.062-6.468c0.112-1.088,0.442-2.14,0.705-3.201c0.386-1.02,0.697-2.081,1.223-3.037
							c0.912-1.985,2.188-3.747,3.617-5.396c0.755-0.787,1.503-1.582,2.368-2.242c0.813-0.729,1.734-1.294,2.631-1.894
							c0.445-0.308,0.937-0.521,1.403-0.785c0.478-0.237,0.935-0.531,1.432-0.717c0.981-0.399,1.948-0.857,2.958-1.141
							c2.75-0.918,5.571-1.477,8.504-1.707c2.923-0.232,5.975-0.091,8.945,0.713c2.966,0.778,5.803,2.306,8.13,4.256
							c2.357,1.965,4.313,4.388,5.807,7.023c1.538,2.629,2.472,5.501,3.198,8.355l0.479,2.155c0.123,0.72,0.215,1.44,0.322,2.159
							l0.307,2.154l0.13,2.185c0.222,2.901-0.039,5.847-0.541,8.723c-0.671,2.841-1.588,5.624-3.022,8.089
							c-0.249,0.456-0.508,0.931-0.776,1.424c-0.267,0.494-0.63,0.948-0.956,1.447c-0.336,0.491-0.682,0.996-1.034,1.511
							s-0.797,0.974-1.201,1.475c-0.415,0.492-0.836,0.99-1.259,1.492c-0.457,0.47-0.943,0.916-1.416,1.377
							c-0.481,0.45-0.941,0.928-1.44,1.352c-0.517,0.402-1.031,0.802-1.539,1.195c-0.516,0.382-0.994,0.809-1.522,1.135
							c-0.528,0.328-1.045,0.65-1.548,0.963c-0.506,0.31-0.991,0.623-1.475,0.898c-0.501,0.239-0.985,0.471-1.448,0.692
							c-0.929,0.427-1.761,0.857-2.503,1.132c-0.746,0.261-1.375,0.47-1.86,0.615c-2.754,0.915-2.929,0.698-2.577,0.38
							c1.544-0.553,3.084-1.126,4.616-1.717l2.238-1.073L42.531,69c0.373-0.18,0.71-0.423,1.067-0.631l2.112-1.303
							c0.682-0.467,1.323-0.995,1.986-1.491l0.986-0.755c0.318-0.264,0.607-0.563,0.912-0.844l1.803-1.709l1.611-1.89
							c0.263-0.318,0.547-0.621,0.793-0.953l0.702-1.022c0.455-0.69,0.963-1.345,1.371-2.064l1.174-2.188l0.292-0.548l0.23-0.577
							l0.459-1.154c0.311-0.769,0.63-1.533,0.808-2.346c0.209-0.801,0.44-1.598,0.627-2.401l0.352-2.451
							c0.433-4.016,0.186-8.053-0.494-11.977c-0.679-3.937-1.879-7.862-3.931-11.414c-2.053-3.553-5.064-6.561-8.662-8.643
							c-0.439-0.285-0.912-0.506-1.393-0.712c-0.479-0.207-0.948-0.443-1.437-0.624C42.906,11,41.926,10.61,40.897,10.45
							c-2.032-0.488-4.109-0.539-6.16-0.528c3.991-0.091,8.19,0.608,11.806,2.648c3.577,2.039,6.577,5.004,8.687,8.521
							c2.099,3.524,3.325,7.468,4.037,11.438c0.687,3.962,0.987,8.049,0.551,12.142l-0.359,2.442
							c-0.188,0.801-0.421,1.593-0.632,2.388c-0.181,0.807-0.496,1.567-0.809,2.329l-0.46,1.145
							c-0.144,0.386-0.309,0.762-0.519,1.116l-1.172,2.164c-0.395,0.719-0.91,1.359-1.36,2.041
							c-0.869,1.392-2.037,2.554-3.077,3.812c-0.574,0.58-1.185,1.125-1.775,1.688l-0.894,0.837l-0.971,0.744l-1.949,1.475
							l-2.082,1.271l-1.042,0.634c-0.36,0.188-0.732,0.353-1.097,0.529l-2.202,1.042c-1.487,0.636-3.02,1.133-4.527,1.703
							c0.384-0.34,0.739-0.677-0.048-0.572c0,0-0.225,0.104-0.612,0.209c-0.384,0.113-0.915,0.271-1.505,0.446
							c-1.183,0.342-2.593,0.79-3.548,1.03c-7.777,1.387-5.945,0.304-2.284-1.029C27.832,71.781,28.909,71.48,30.051,71.002z"/>
					</g>
				</g>
			</g>
		</g>
		<g>
			<path fill="#FF576C" d="M86.309,62.28L72.813,96.73c-0.583,1.49-0.874,2.407-0.87,2.754c-0.028,0.602,0.139,1.113,0.506,1.535
				c0.365,0.42,1.157,0.9,2.375,1.441l4.154,1.846l-2.393,6.107L51.116,99.11L53.51,93l4.202,1.865
				c1.478,0.656,2.464,0.979,2.955,0.963s0.931-0.203,1.314-0.563c0.382-0.359,0.858-1.261,1.425-2.709l9.623-24.563l-8.283-3.678
				l2.394-6.109c2.465,0.799,4.38,1.343,5.75,1.629c2.05,0.443,4.275,0.79,6.676,1.041c1.332,0.148,2.614,0.188,3.845,0.118
				L86.309,62.28z"/>
			<linearGradient id="SVGID_2_" gradientUnits="userSpaceOnUse" x1="82.7583" y1="96.6484" x2="124.4346" y2="96.6484">
				<stop  offset="0.4133" style="stop-color:#FF576C"/>
				<stop  offset="0.4956" style="stop-color:#FF5C70"/>
				<stop  offset="0.5869" style="stop-color:#FF697C"/>
				<stop  offset="0.6824" style="stop-color:#FF7F8F"/>
				<stop  offset="0.7809" style="stop-color:#FF9EAA"/>
				<stop  offset="0.8817" style="stop-color:#FFC6CD"/>
				<stop  offset="0.9831" style="stop-color:#FFF6F7"/>
				<stop  offset="1" style="stop-color:#FFFFFF"/>
			</linearGradient>
			<path fill="url(#SVGID_2_)" d="M112.577,73.939c3.669,1.628,6.493,3.886,8.477,6.775c1.981,2.887,3.094,6.266,3.341,10.131
				c0.243,3.865-0.604,8.277-2.544,13.23c-2.188,5.584-4.564,9.581-7.129,11.992c-2.899,2.729-6.016,4.376-9.35,4.941
				c-3.335,0.566-6.935-0.01-10.8-1.727c-3.767-1.672-6.615-3.928-8.548-6.768c-1.931-2.84-3.006-6.253-3.232-10.232
				c-0.222-3.979,0.669-8.53,2.676-13.652c2.014-5.144,4.415-9.014,7.202-11.606c2.787-2.595,5.866-4.173,9.234-4.733
				C105.273,71.727,108.831,72.277,112.577,73.939z M111.362,100.088c2.249-5.741,3.08-10.254,2.491-13.539
				c-0.542-2.873-1.967-4.82-4.271-5.845c-2.131-0.946-4.385-0.557-6.762,1.167c-2.377,1.725-4.706,5.498-6.987,11.324
				c-2.281,5.822-3.155,10.238-2.618,13.242c0.536,3.006,1.91,4.997,4.116,5.977c2.23,0.99,4.567,0.607,7.013-1.148
				C106.791,109.512,109.131,105.785,111.362,100.088z"/>
			<g>
				<g>
					<path fill="none" d="M87.148,62.976L72.33,96.88c-0.639,1.466-0.965,2.372-0.975,2.718c-0.052,0.6,0.096,1.117,0.446,1.554
						c0.348,0.434,1.119,0.944,2.316,1.53l4.082,2.006l-2.629,6.011L50.558,98.42l2.627-6.014l4.129,2.025
						c1.45,0.714,2.424,1.073,2.916,1.077c0.491,0.003,0.938-0.167,1.334-0.513c0.396-0.344,0.906-1.227,1.528-2.65l10.565-24.174
						l-8.136-3.994l2.628-6.012c2.433,0.893,4.325,1.51,5.683,1.85c2.031,0.521,4.242,0.954,6.632,1.297
						c1.325,0.2,2.604,0.289,3.836,0.267L87.148,62.976z"/>
					<g>
						<path fill="#292D73" d="M75.551,93.745c-0.488,1.168-0.984,2.355-1.488,3.56c-0.14,0.326-0.222,0.533-0.319,0.811
							c-0.094,0.266-0.178,0.548-0.258,0.832l-0.113,0.433l-0.07,0.305l-0.032,0.208c-0.001,0.069,0.086,0.106,0.129,0.155
							l0.401,0.312c0.231,0.171,0.468,0.33,0.699,0.468c0.228,0.138,0.43,0.234,0.774,0.402c1.748,0.857,3.511,1.723,5.285,2.594
							c-1.354,3.086-2.722,6.199-4.093,9.323c-4.5-2.219-9.021-4.448-13.438-6.626c-3.867-1.894-7.653-3.724-11.262-5.414
							c-1.224-0.585-2.452-1.172-3.706-1.771c1.361-3.203,2.734-6.433,4.115-9.682c2.057,0.986,4.124,1.977,6.196,2.971
							c0.289,0.13,0.599,0.249,0.919,0.355l0.486,0.149l0.232,0.063c0.051,0.014,0.026,0.005,0.043,0.009
							c0.028,0.003,0.055,0.005,0.08,0.002c0.019-0.02,0.032-0.045,0.045-0.066l0.146-0.218l0.271-0.429
							c0.173-0.288,0.329-0.578,0.455-0.856l0.937-2.178l1.922-4.464c2.295-5.288,4.589-10.572,6.838-15.754
							c-2.267-1.112-4.508-2.212-6.721-3.298c0.095-0.055,0.856,0.192,1.241,0.269c0.392,0.078,0.431-0.004-0.704-0.611
							c-0.448-0.237-0.874-0.463-1.192-0.632c0.486-1.015,0.916-1.912,1.298-2.711c0.092-0.188,0.182-0.372,0.269-0.549
							c0.101-0.209,0.121-0.231,0.183-0.351c0.103-0.187,0.2-0.361,0.291-0.526c0.182-0.322,0.34-0.587,0.478-0.806
							c0.149-0.243,0.231-0.33,0.389-0.59c0.542-0.834,0.657-0.666,0.795-0.551c0.035,0.033-0.093,0.382-0.286,0.853
							c-0.162,0.379-0.369,0.862-0.558,1.304c-0.194,0.444-0.346,0.791-0.446,1.048c-0.099,0.255-0.068,0.241,0.151-0.147
							c-0.333,0.768-0.701,1.613-1.078,2.481c2.576,1.251,4.395,2.113,5.604,2.657c1.159,0.52,1.411,0.576-0.277-0.339
							c-0.734-0.476-2.783-1.466-4.841-2.497c0.348-0.778,0.688-1.527,0.98-2.134c0.283-0.586,0.53-1.058,0.713-1.33
							c0.854-1.273-0.104,1.598,0.749,0.327l0.826-1.877c0.659,0.24,1.096,0.4,2.283,0.796c1.396,0.65-1.627,0.036-0.171,0.518
							c2.169,0.84,4.854,1.489,7.683,1.972c0.718,0.119,1.422,0.228,2.173,0.33c0.759,0.103,1.541,0.178,2.331,0.208l0.595,0.016
							l0.38,0.002c0.151,0.002,0.145,0.049,0.582,0.246l2.027,0.99c-0.08,0.163,1.196,0.991-1.55-0.255l-1.021-0.496
							c-0.026-0.011-0.05-0.025-0.076-0.032l-0.177,0.001c-0.829-0.008-1.653-0.058-2.468-0.146
							c-1.628-0.198-3.098-0.437-4.663-0.734c-1.548-0.308-3.061-0.636-4.628-1.102c-0.765-0.228-1.51-0.47-2.249-0.72l-0.426-0.141
							l-0.552,1.293c-0.607,1.399-0.447,1.045-0.526,1.236l0.292,0.133l2.038,0.99l5.854,2.854
							c-2.812,6.498-5.629,13.01-8.449,19.529l-1.918,4.437l-0.98,2.257c-0.21,0.459-0.44,0.881-0.684,1.286l-0.378,0.595
							l-0.198,0.29l-0.331,0.45c-0.482,0.608-0.989,1.269-1.637,1.518c-0.635,0.278-1.445,0.119-2.207-0.037
							c-0.193-0.038-0.384-0.093-0.576-0.139l-0.373-0.103l-0.67-0.21c-0.445-0.151-0.889-0.322-1.336-0.527l-2.224-1.077
							c-0.097-0.044-0.061-0.023-0.094-0.037l-0.012,0.04l-0.002,0.01l-0.001,0.004l-0.034,0.08l-0.326,0.753
							c-0.625,1.438-0.401,0.936-0.447,1.048c6.991,3.409,13.981,6.819,20.959,10.223l-0.009,0.016l-0.002,0.004l-0.001,0.002
							c-0.003,0.009-0.004,0.01,0.034-0.077l0.328-0.752c0.634-1.45,0.39-0.895,0.429-0.985l0.017,0.01l0.007,0.004l-0.651-0.32
							l-1.302-0.639c-0.181-0.087-0.542-0.271-0.79-0.418c-0.266-0.157-0.518-0.318-0.758-0.485
							c-0.24-0.168-0.473-0.338-0.697-0.517c-0.258-0.201-0.678-0.557-1.013-0.884c-0.735-0.665-1.13-1.45-0.961-2.413
							c0.055-0.449,0.172-0.999,0.258-1.373c0.09-0.37,0.14-0.558,0.22-0.845c0.15-0.528,0.322-1.057,0.538-1.601
							c1.559-3.56,3.116-7.114,4.67-10.664c3.109-7.045,6.208-14.07,9.296-21.067c2.497-5.485,1.019-1.198-0.542,3.053
							c0.52-1.416,0.77-1.307,1.29-2.726c0.25,0.109-0.542,3.053-2.872,8.612l1.811-4.143c0.687-1.345,0.25,0.108,0.416,0.182
							c-0.604,1.382-1.207,2.762-1.124,2.798c0.083,0.036,0.25,0.109,0.333,0.146c0.603-1.38,1.811-4.143,2.414-5.521
							c-0.603,1.379-1.207,2.76-1.124,2.796c0.083,0.037,0.25,0.109,0.333,0.146c-1.124,2.798-3.1,6.866-4.224,9.666l0.25,0.108
							c1.291-2.727,3.017-6.903,4.224-9.665c-0.521,1.419-0.438,1.455-0.271,1.527c-1.727,4.178-3.787,8.211-5.346,12.459
							l1.809-4.14C80.628,82.812,77.279,89.566,75.551,93.745z"/>
					</g>
				</g>
			</g>
			<g>
				<g>
					<path fill="none" d="M109.792,73.027c3.839,1.177,6.911,3.08,9.226,5.711c2.314,2.629,3.824,5.85,4.533,9.659
						c0.703,3.808,0.39,8.289-0.942,13.439c-1.504,5.806-3.386,10.059-5.641,12.759c-2.554,3.057-5.449,5.065-8.691,6.026
						c-3.244,0.96-6.886,0.82-10.929-0.421c-3.94-1.209-7.039-3.107-9.296-5.695c-2.258-2.589-3.734-5.848-4.437-9.772
						c-0.696-3.924-0.357-8.549,1.021-13.874c1.384-5.348,3.304-9.478,5.762-12.386c2.456-2.909,5.323-4.845,8.601-5.805
						C102.276,71.705,105.874,71.825,109.792,73.027z M111.716,99.133c1.546-5.97,1.831-10.549,0.854-13.74
						c-0.882-2.787-2.53-4.549-4.941-5.291c-2.229-0.684-4.42-0.027-6.573,1.969c-2.154,1.997-4.014,6.022-5.582,12.078
						c-1.566,6.055-1.905,10.543-1.012,13.461c0.892,2.92,2.494,4.732,4.802,5.441c2.333,0.717,4.608,0.056,6.825-1.98
						C108.308,109.036,110.185,105.057,111.716,99.133z"/>
					<g>
						<path fill="#292D73" d="M112.559,102.063c-0.132,0.351-0.264,0.703-0.393,1.047c-0.598,1.605-1.252,3.204-2.099,4.769
							c-0.833,1.549-1.85,3.138-3.349,4.411c-0.712,0.617-1.527,1.176-2.449,1.608c-0.932,0.4-1.968,0.726-3.056,0.707
							c-2.147,0.015-4.262-0.932-5.706-2.586c-0.991-1.154-1.629-2.542-2.049-3.941c-0.433-1.46-0.547-2.958-0.562-4.411
							c0.053-2.903,0.548-5.696,1.138-8.252c-0.737,3.018-1.344,6.151-1.217,9.481c0.072,1.665,0.459,3.418,1.206,4.969
							c0.714,1.582,1.993,3.085,3.675,3.941c1.629,0.855,3.658,1.093,5.479,0.575c1.812-0.558,3.245-1.577,4.473-2.809
							c1.215-1.264,2.11-2.669,2.858-4.08c0.738-1.416,1.367-2.846,1.912-4.271c-0.176,1.238-0.545,2.708-1.288,4.337l-0.774,1.44
							l-0.904,1.412c-0.365,0.456-0.686,0.921-1.093,1.358c-0.422,0.429-0.836,0.884-1.295,1.227
							c-0.873,0.743-1.924,1.399-3.117,1.843c-1.181,0.45-2.558,0.646-3.847,0.448c0.011-0.09,0.033-0.266,0.044-0.354
							c-1.738-0.166-3.392-0.944-4.638-2.153c-1.247-1.198-2.012-2.68-2.501-4.117c-0.493-1.47-0.722-3.064-0.687-4.491
							c-0.033-0.738,0.06-1.437,0.087-2.154c0.078-0.7,0.158-1.399,0.257-2.091c0.434-2.756,1.095-5.398,1.86-8.047
							c0.798-2.647,1.62-5.324,3.056-7.991c-0.265,0.346-0.196,0.091-0.2-0.017l0.044-0.075l-0.044,0.075
							c0.007-0.095-0.081-0.076-0.438,0.588c0.356-0.664,0.444-0.683,0.438-0.588c-1.491,2.607-2.336,5.256-3.127,7.874
							c-0.76,2.618-1.378,5.237-1.793,7.966c-0.38,2.712-0.638,5.593,0.251,8.682c0.442,1.435,1.125,2.929,2.292,4.212
							c1.161,1.292,2.788,2.224,4.519,2.585c-1.351-0.271-2.64-0.865-3.703-1.768c-1.062-0.89-1.838-1.999-2.404-3.12
							c-0.574-1.13-0.894-2.255-1.16-3.505c-0.18-1.197-0.251-2.368-0.219-3.5c0.056-2.268,0.39-4.426,0.831-6.533
							c0.433-2.112,0.96-4.171,1.605-6.234c0.639-2.063,1.382-4.124,2.464-6.152c1.017-2.01,2.705-4.113,4.931-5.392
							c1.12-0.669,2.523-1.147,3.985-1.153c0.724,0.003,1.444,0.091,2.125,0.279c0.67,0.197,1.289,0.414,1.899,0.758
							c1.22,0.643,2.294,1.612,3.078,2.719c0.788,1.113,1.282,2.312,1.638,3.536c0.251,0.851,0.52,2.526,0.525,3.335
							c-0.095,3.281-0.68,6.286-1.343,9.25c-0.132-0.416-0.593,0.061-0.823-0.089c-0.244-0.153-0.185-0.897,0.36-3.83
							c-0.089-0.013-0.267-0.037-0.356-0.05c-0.65,2.899-1.626,4.735-2.139,5.16c-0.555,0.428-0.662-0.567-0.266-3.371
							c0.233-1.576,0.418-3.271,0.472-4.999c0.05-1.728-0.076-3.487-0.625-4.991c-0.965-3.101-4.415-4.704-6.784-2.8
							c-0.447,0.31-0.956,0.723-1.318,1.138c-0.385,0.384-0.732,0.902-1.076,1.414c-0.675,1.066-1.227,2.316-1.748,3.581
							c-1.006,2.565-1.793,5.345-2.504,8.096c-0.477,1.891-0.848,3.843-0.99,5.771c-0.026,0.479-0.074,0.967-0.049,1.429
							c0.001,0.473,0.008,0.943,0.074,1.383c0.027,0.463,0.127,0.877,0.221,1.292c0.093,0.413,0.258,0.863,0.415,1.265
							c0.664,1.648,1.723,2.78,3.196,3.267c1.46,0.5,2.941,0.15,4.394-0.802c0.257-0.176,0.522-0.413,0.81-0.642
							c0.24-0.267,0.511-0.516,0.759-0.824c0.493-0.628,0.953-1.367,1.353-2.113c0.805-1.494,1.338-3.004,1.714-3.616
							c0.482-0.906,0.65-0.903,0.812-0.679c-0.789,2.221-1.693,4.438-3.028,6.232c-1.271,1.744-3.217,3.197-5.164,3.344
							c-1.185,0.071-2.464-0.296-3.411-1.034c-0.962-0.725-1.669-1.793-2.132-3.02l-0.309-0.944l-0.199-0.941
							c-0.08-0.651-0.16-1.308-0.14-1.993c-0.021-1.355,0.158-2.753,0.386-4.139c-0.243,1.354-0.43,2.728-0.424,4.075
							c-0.025,0.683,0.05,1.334,0.118,1.992l0.197,0.943c0.09,0.315,0.203,0.631,0.302,0.948c0.446,1.247,1.165,2.334,2.141,3.072
							c0.96,0.751,2.263,1.131,3.471,1.04c1.944-0.126,3.905-1.545,5.198-3.261c1.356-1.765,2.297-3.936,3.112-6.117
							c0.12,0.222,0.24,0.44,0.508,0.228c0,0,0.442-1.398,0.663-2.098c1.217-2.708,1.639-1.871,1.669-0.295
							C112.613,101.123,112.616,101.57,112.559,102.063z"/>
					</g>
					<g>
						<path fill="#292D73" d="M105.392,73.736c-0.555-0.049-1.115-0.147-1.667-0.146c-2.555-0.117-5.103,0.494-7.387,1.713
							c-2.268,1.223-4.277,3.083-5.855,5.257c-1.56,2.207-2.761,4.771-3.678,7.512c-0.231,0.686-0.462,1.375-0.654,2.085
							c-0.219,0.701-0.397,1.416-0.55,2.142c-0.166,0.722-0.332,1.448-0.5,2.18c-0.185,0.729-0.226,1.477-0.349,2.222
							c-0.077,0.525-0.153,1.053-0.23,1.582c-0.045,0.532-0.042,1.067-0.066,1.607c-0.017,0.542-0.034,1.086-0.051,1.632
							c0.03,0.541,0.101,1.081,0.149,1.626c0.068,0.542,0.075,1.096,0.193,1.635l0.38,1.62l0.19,0.813l0.289,0.777l0.581,1.557
							c0.977,1.963,2.145,3.868,3.737,5.316c1.575,1.461,3.408,2.597,5.327,3.395c-2.249-0.987-4.344-2.341-5.976-4.142
							c-1.561-1.853-2.919-3.941-3.625-6.341c-1.644-4.743-1.255-9.938-0.127-14.903c1.094-4.972,2.948-9.889,6.053-13.505
							c1.601-1.804,3.47-3.286,5.554-4.232c2.089-0.949,4.329-1.382,6.553-1.271c-1.809,0.194-3.833,0.659-6.041,1.671
							c-2.646,1.168-4.959,3.258-6.68,5.68c-1.736,2.448-2.93,5.383-3.869,8.379c-0.087-0.026-0.257-0.077-0.342-0.103
							c-1.133,4.365-1.988,8.781-1.645,13.008l0.156,1.572c0.023,0.528,0.214,1.032,0.311,1.55c0.125,0.513,0.222,1.035,0.364,1.54
							l0.537,1.467l0.264,0.735c0.103,0.237,0.238,0.457,0.354,0.687l0.718,1.368c0.265,0.439,0.598,0.83,0.89,1.251
							c0.302,0.414,0.588,0.843,0.954,1.198c2.742,3.019,6.86,4.798,11.047,5.58c2.089,0.347,4.219,0.385,6.23-0.091
							c2.01-0.476,3.917-1.421,5.564-2.765c-0.512,0.324-0.268,0.049-0.204-0.071l0.095-0.072l-0.095,0.072
							c0.052-0.121-0.005-0.069-0.866,0.498c0.861-0.567,0.918-0.619,0.866-0.498c-1.635,1.264-3.499,2.129-5.437,2.573
							c-1.943,0.439-3.997,0.402-6.024,0.072c-4.079-0.727-8.085-2.433-10.823-5.267c-2.782-2.831-4.253-6.85-4.662-10.944
							c-0.402-4.102,0.379-8.426,1.549-12.666c-1.929,6.574-2.47,13.52,0.317,19.356l0.563,1.039
							c0.193,0.342,0.346,0.712,0.605,1.007c0.49,0.605,0.896,1.288,1.438,1.843c1.052,1.137,2.295,2.103,3.668,2.895
							c2.735,1.563,6.033,2.57,9.17,2.803c3.156,0.242,6.215-0.538,8.825-2.3c1.304-0.868,2.494-1.955,3.566-3.182
							c1.059-1.193,1.883-2.523,2.632-4.018c1.446-2.976,2.516-6.343,3.25-9.718c0.823-3.354,1.137-6.809,0.748-10.095
							c-0.031-0.281-0.069-0.632-0.111-1.019c-0.058-0.384-0.19-0.793-0.285-1.208c-0.102-0.414-0.204-0.828-0.297-1.208
							c-0.083-0.384-0.255-0.691-0.344-0.958c-0.179-0.546-0.354-1.081-0.526-1.608c-0.255-0.509-0.505-1.009-0.753-1.503
							c-0.222-0.523-0.561-0.971-0.891-1.426c-0.345-0.441-0.611-0.957-1.021-1.342c-0.396-0.403-0.789-0.805-1.18-1.204
							c-0.382-0.415-0.89-0.692-1.328-1.048c-0.862-0.739-1.943-1.178-2.936-1.74c0.604,0.067-0.022-0.647,0.208-0.817
							c0.119-0.083,0.462-0.024,1.315,0.351c0.855,0.352,2.23,1.087,3.974,2.769c0.062-0.065,0.185-0.196,0.247-0.262l-0.621-0.67
							c-0.217-0.203-0.454-0.374-0.671-0.56c-0.427-0.354-0.848-0.704-1.265-1.05c-0.844-0.606-1.653-1.08-2.325-1.555
							c-1.414-0.793-2.417-1.345-2.807-1.724c-0.377-0.322-0.197-0.523,0.755-0.349c0.475,0.082,1.136,0.241,2,0.491
							c0.863,0.249,1.864,0.792,3.098,1.374c2.661,1.566,5.219,3.966,6.999,7.034c1.788,3.08,2.835,6.657,3.037,10.412
							c0.131,3.718-0.426,7.4-1.289,10.946c-0.889,3.502-2.003,6.975-3.694,10.277c-0.616,1.198-1.359,2.368-2.238,3.486
							c-0.871,1.058-1.782,2.06-2.835,2.967c-2.056,1.839-4.589,3.295-7.342,4.051c-2.774,0.773-5.665,0.765-8.357,0.3
							c-2.7-0.477-5.229-1.344-7.674-2.6c-1.663-0.885-3.266-1.993-4.681-3.351c-0.708-0.675-1.376-1.41-1.932-2.217l-0.869-1.19
							c-0.31-0.386-0.485-0.85-0.732-1.272c-1.885-3.457-2.763-7.29-2.887-11.154c-0.099-3.854,0.673-7.533,1.548-11.089
							c0.985-3.518,2.292-6.975,4.269-10.057c1.406-2.266,3.816-5.131,6.715-6.963c2.866-1.893,5.995-2.541,7.351-2.552
							c1.959-0.058,2.02,0.213,1.739,0.41c-4.341,0.073-8.598,1.957-11.671,4.928c-1.552,1.459-2.888,3.165-3.948,4.99
							c-1.065,1.823-1.904,3.743-2.604,5.69l-0.606,1.803l-0.533,1.819c-0.313,1.226-0.573,2.466-0.862,3.7
							c-0.262,1.241-0.371,2.521-0.562,3.782c-0.129,1.272-0.104,2.57-0.16,3.857l0.176,1.946c0.074,0.646,0.084,1.307,0.261,1.935
							c0.282,1.271,0.527,2.551,1.034,3.774c0.377,1.265,1.047,2.419,1.661,3.598c0.321,0.581,0.759,1.095,1.138,1.645l0.591,0.812
							c0.215,0.257,0.449,0.499,0.674,0.749l-0.656-0.736L86.4,114.59c-0.372-0.539-0.787-1.053-1.117-1.615
							c-0.587-1.167-1.271-2.296-1.638-3.548c-0.964-2.43-1.295-5.009-1.492-7.605c0.021-1.288,0.036-2.585,0.127-3.868
							c0.185-1.269,0.305-2.555,0.546-3.813c0.286-1.248,0.549-2.503,0.854-3.749l0.531-1.851l0.607-1.836
							c0.709-1.939,1.555-3.844,2.621-5.646c1.06-1.805,2.387-3.484,3.921-4.916c3.037-2.927,7.191-4.744,11.419-4.873
							c-0.301,0.209-0.57,0.423-0.063,0.56c0,0,0.157-0.012,0.414-0.009c0.256-0.001,0.611-0.003,1.005-0.005
							c0.787,0.041,1.729,0.12,2.35,0.23c1.227,0.307,2.029,0.64,2.516,0.914c0.489,0.27,0.669,0.459,0.63,0.588
							c-0.084,0.275-1.028,0.236-2.222,0.223C106.805,73.72,106.129,73.736,105.392,73.736z"/>
					</g>
				</g>
			</g>
		</g>
		<g>
			<path fill="#FF576C" d="M30.867,120.613l6.168,35.458c0.266,1.532,0.486,2.438,0.662,2.714c0.281,0.503,0.676,0.818,1.191,0.95
				c0.515,0.131,1.41,0.066,2.691-0.192l4.365-0.882l1.093,6.287l-26.761,5.406l-1.094-6.286l4.413-0.893
				c1.555-0.313,2.533-0.616,2.933-0.909c0.397-0.293,0.666-0.694,0.803-1.203c0.137-0.507,0.076-1.505-0.184-2.994l-4.396-25.283
				l-8.703,1.758l-1.094-6.287c2.443-0.762,4.302-1.416,5.58-1.965c1.918-0.813,3.934-1.802,6.047-2.968
				c1.178-0.64,2.256-1.338,3.237-2.097L30.867,120.613z"/>
			<linearGradient id="SVGID_3_" gradientUnits="userSpaceOnUse" x1="43.4839" y1="139.3164" x2="77.5659" y2="139.3164">
				<stop  offset="0.4133" style="stop-color:#FF576C"/>
				<stop  offset="0.4886" style="stop-color:#FF6E80"/>
				<stop  offset="0.8421" style="stop-color:#FFD6DB"/>
				<stop  offset="1" style="stop-color:#FFFFFF"/>
			</linearGradient>
			<path fill="url(#SVGID_3_)" d="M61.393,114.444l6.166,35.46c0.269,1.531,0.489,2.438,0.665,2.715
				c0.279,0.501,0.677,0.819,1.191,0.949c0.514,0.13,1.41,0.066,2.691-0.192l4.365-0.882l1.094,6.288l-26.764,5.406l-1.092-6.287
				l4.412-0.893c1.555-0.314,2.531-0.616,2.932-0.91c0.399-0.293,0.666-0.693,0.805-1.201c0.137-0.508,0.078-1.507-0.182-2.996
				l-4.396-25.283l-8.705,1.759l-1.092-6.288c2.439-0.761,4.3-1.416,5.576-1.965c1.918-0.813,3.936-1.801,6.048-2.967
				c1.177-0.639,2.257-1.339,3.24-2.098L61.393,114.444z"/>
			<g>
				<g>
					<path fill="none" d="M31.652,120.649l5.072,35.632c0.219,1.54,0.412,2.451,0.578,2.732c0.266,0.512,0.65,0.84,1.162,0.986
						c0.51,0.146,1.407,0.109,2.695-0.108l4.392-0.747l0.898,6.315l-26.915,4.582l-0.9-6.316l4.439-0.756
						c1.564-0.267,2.551-0.539,2.958-0.819s0.688-0.675,0.842-1.177c0.151-0.504,0.122-1.503-0.093-3l-3.617-25.405l-8.752,1.489
						l-0.9-6.318c2.467-0.687,4.344-1.283,5.639-1.793c1.94-0.753,3.986-1.679,6.135-2.779c1.195-0.604,2.296-1.269,3.301-1.996
						L31.652,120.649z"/>
					<g>
						<path fill="#292D73" d="M27.577,123.651c-0.035-0.002-0.478,0.222-0.754,0.352c-0.311,0.148-0.621,0.297-0.928,0.444
							c-1.901,0.913-3.768,1.841-5.81,2.681c-1.046,0.415-2.075,0.745-3.104,1.059l-1.351,0.396l-0.58,0.151l0.07,0.589l0.185,1.369
							c0.08,0.603,0.16,1.207,0.24,1.815c2.861-0.472,5.76-0.95,8.713-1.437c0.548,4.083,1.109,8.261,1.69,12.586
							c0.513,4.146,1.11,8.538,1.733,12.963c0.144,1.101,0.358,2.214,0.368,3.489c0,0.32-0.023,0.798-0.142,1.179
							c-0.122,0.396-0.374,0.741-0.639,1.051c-0.269,0.302-0.413,0.447-0.75,0.744c-0.317,0.263-0.628,0.565-1.063,0.574
							c-1.884,0.328-3.753,0.653-5.583,0.972c0.156,1.081,0.309,2.142,0.458,3.18c-0.14-1.048-0.279-2.099-0.42-3.151
							c1.178-0.191,2.358-0.384,3.541-0.576l1.16-0.191l0.655-0.113l0.44-0.082c0.072-0.016,0.149-0.022,0.218-0.045l0.182-0.131
							c0.239-0.17,0.479-0.368,0.688-0.563c0.171-0.159,0.322-0.307,0.5-0.506c0.388-0.427,0.74-0.963,0.803-1.564
							c0.087-0.66,0.051-1.048,0.033-1.49c-0.027-0.43-0.071-0.843-0.123-1.252l-0.322-2.354l-0.645-4.688
							c-0.913-6.707-1.827-13.42-2.735-20.097c-1.923,0.313-3.844,0.624-5.762,0.935l-2.151,0.34l-0.754,0.1l-0.057-0.557
							l-0.139-1.146l-0.167-1.351l-0.038-0.47l0.47-0.105l0.056-0.012l0.115-0.03l0.389-0.109l0.777-0.224
							c1.036-0.305,2.072-0.627,3.13-1.037c2.06-0.827,3.921-1.733,5.804-2.622c-0.963,0.61-2.033,1.262-3.246,1.925
							c-0.608,0.33-1.248,0.664-1.957,0.993c-0.723,0.338-1.502,0.639-2.278,0.902c-0.744,0.244-1.479,0.466-2.211,0.679
							l-0.274,0.078c-0.096,0.029-0.025,0.006-0.05,0.013l-0.011-0.003l-0.03-0.003c-0.004,0.007-0.008,0.019-0.011,0.033
							l-0.001,0.006c0,0.006-0.004-0.02,0.008,0.074l0.053,0.396l0.105,0.792l0.106,0.791c0.026,0.191,0.011,0.094,0.015,0.127
							l-0.001,0.018l-0.002,0.081h0.107l2.152-0.351c2.152-0.356,4.298-0.711,6.439-1.065c0.222,1.596,0.441,3.173,0.661,4.748
							c-0.09,0.013-0.266,0.038-0.354,0.051c0.919,5.911,1.743,11.723,2.53,17.489l0.584,4.317c0.092,0.707,0.206,1.446,0.27,2.252
							c0.029,0.411,0.053,0.792,0.034,1.3c-0.021,0.597-0.136,1.26-0.495,1.775c-0.162,0.257-0.387,0.525-0.563,0.714
							c-0.162,0.173-0.315,0.321-0.487,0.479c-0.475,0.416-0.949,0.858-1.605,0.874l-2.285,0.378l-2.142,0.345l-0.637,0.091
							l0.212,1.648l0.213,1.608c2.77-0.474,5.544-0.947,8.348-1.427c3.317-0.586,6.655-1.197,10.024-1.845
							c-0.745,0.078-0.32-0.068-0.177-0.152c0.051-0.009,0.1-0.018,0.147-0.025c-0.047,0.008-0.096,0.017-0.147,0.025
							c0.129-0.073,0.038-0.099-1.251,0.121c1.289-0.22,1.38-0.194,1.251-0.121c-6.095,1.049-12.052,2.074-17.952,3.09
							c-0.125-0.905-0.251-1.809-0.375-2.709l2.427-0.4l2.133-0.358l0.949-0.186c0.262-0.187,0.524-0.37,0.771-0.581
							c0.282-0.243,0.407-0.365,0.572-0.531c0.147-0.149,0.346-0.36,0.551-0.631c0.405-0.509,0.647-1.127,0.699-1.776
							c0.06-0.69,0.029-1.001,0.009-1.439c-0.051-0.799-0.165-1.563-0.258-2.246c-0.192-1.402-0.384-2.807-0.576-4.214
							c-0.759-5.624-1.525-11.296-2.306-17.077c0.791,5.7,1.576,11.357,2.359,16.996l0.595,4.226
							c0.096,0.686,0.214,1.447,0.271,2.254c0.014,0.204,0.025,0.412,0.029,0.633c0.003,0.215,0.006,0.438-0.023,0.799
							c-0.043,0.668-0.268,1.313-0.676,1.843c-0.198,0.273-0.427,0.523-0.569,0.67c-0.183,0.184-0.271,0.274-0.566,0.533
							c-0.252,0.22-0.521,0.413-0.791,0.604c-0.305,0.112-0.646,0.142-0.967,0.216l-2.168,0.372l-2.324,0.396l0.353,2.447
							c7.635-1.314,15.285-2.632,23.009-3.962c-0.114-0.777-0.229-1.559-0.344-2.343l-0.597,0.106
							c-0.895,0.146-1.705,0.311-2.747,0.445c-0.544,0.05-0.957,0.123-1.879,0.05c-0.856-0.063-1.644-0.464-2.239-1.085
							c-0.149-0.148-0.302-0.319-0.411-0.453c-0.112-0.139-0.174-0.214-0.314-0.412c-0.124-0.176-0.239-0.356-0.344-0.543
							c-0.096-0.189-0.233-0.365-0.239-0.586l-0.106-0.634l-0.05-0.345l-0.096-0.667c-0.509-3.561-1.021-7.142-1.536-10.746
							c-0.197-1.386-0.592-4.161-0.79-5.549c-0.522-5.588-1.224-11.152-2.013-16.698c0.643,1.321,0.744-4.355,2.146,6.772
							c0.089-0.013,0.267-0.038,0.356-0.051c-1.135-11.166-0.48-15.507,1.457-4.455c0.983,5.731,1.941,12.369,2.918,19.352
							c0.486,3.49,0.985,7.068,1.486,10.661l0.16,1.143c0,0.017,0.009,0.029,0.017,0.043l0.128,0.163
							c0.124,0.043-0.188,0.086,0.815-0.001c0.732-0.086,1.685-0.272,2.564-0.419c1.592-0.275,3.181-0.551,4.767-0.825
							c0.283,1.913,0.565,3.815,0.846,5.711l0.699,4.763c-5.171,0.907-10.334,1.813-15.49,2.717
							c-5.211,0.869-10.409,1.737-15.65,2.612c-0.256-1.914-0.513-3.831-0.771-5.757c-0.209-1.573-0.419-3.151-0.633-4.758
							c2.176-0.351,4.363-0.702,6.56-1.057l1.718-0.271l0.049-0.033c0.065-0.056,0.201-0.187,0.273-0.264
							c0.08-0.082,0.077-0.078,0.097-0.135c0.005-0.03,0.006-0.009,0.011-0.149c0.003-0.137,0-0.294-0.009-0.458
							c-0.016-0.328-0.051-0.685-0.094-1.045l-0.31-2.322c-0.212-1.567-0.425-3.14-0.638-4.712c-0.423-3.146-0.847-6.295-1.27-9.434
							c-0.207-1.565-0.413-3.129-0.619-4.688l-0.302-2.331l-0.049-0.585l-0.404,0.039l-0.108,0.011l-0.419,0.063l-0.88,0.133
							c-1.286,0.193-2.567,0.387-3.846,0.579c-0.929,0.152-1.915,0.314-2.966,0.487c-0.409-2.817-0.879-6.06-1.344-9.263
							c0.879-0.252,1.755-0.504,2.62-0.752c0.566-0.174,1.125-0.345,1.672-0.513c0.942-0.301,1.828-0.603,2.599-0.904
							c1.525-0.613,2.851-1.257,3.617-1.54c1.842-0.775,2.001-0.651,1.825-0.318c-1.764,0.879-3.548,1.788-5.299,2.488
							c-0.888,0.344-1.809,0.645-2.736,0.931l-1.583,0.47l-2.044,0.574c0.387,2.766,0.768,5.479,1.146,8.181
							c2.947-0.491,5.841-0.974,8.726-1.454l0.026,0.195c0.688,5.228,1.377,10.457,2.066,15.695c0.358,2.76,0.717,5.521,1.076,8.287
							c0.09,0.681,0.162,1.331,0.174,1.937c0.002,0.141,0,0.31-0.007,0.394c-0.006,0.072-0.015,0.139-0.032,0.205
							c-0.043,0.145-0.118,0.218-0.246,0.355c-0.556,0.516-0.333,0.415-0.994,0.522l-2.064,0.318l2.024-0.3
							c0.7-0.106,0.48-0.003,1.008-0.482c0.171-0.178,0.219-0.22,0.287-0.369c0.041-0.151,0.052-0.209,0.055-0.553
							c0-0.587-0.068-1.24-0.151-1.901c-0.354-2.746-0.707-5.495-1.062-8.253c-0.708-5.253-1.418-10.536-2.135-15.855l-0.025-0.198
							l-8.685,1.398l-1.086-8.056c2.955-0.809,4.348-1.203,6.2-1.877c1.726-0.662,3.462-1.53,5.182-2.368
							c-0.212,0.313-0.41,0.627,0.163,0.537c0,0,0.624-0.318,1.403-0.716c0.392-0.2,0.822-0.422,1.233-0.632
							c0.473-0.207,0.864-0.294,1.206-0.416c5.476-1.291,4.332-0.261,1.807,1.025C29.071,122.952,28.34,123.294,27.577,123.651z"/>
					</g>
				</g>
			</g>
			<g>
				<g>
					<path fill="none" d="M60.523,114.432l7.374,35.229c0.32,1.521,0.571,2.42,0.756,2.69c0.297,0.491,0.704,0.796,1.224,0.908
						c0.52,0.113,1.414,0.019,2.684-0.284l4.332-1.029l1.309,6.246l-26.563,6.317l-1.308-6.246l4.38-1.043
						c1.543-0.367,2.508-0.702,2.9-1.01c0.389-0.306,0.641-0.715,0.762-1.228c0.117-0.513,0.025-1.509-0.285-2.988l-5.258-25.117
						l-8.64,2.054l-1.305-6.246c2.411-0.844,4.248-1.563,5.505-2.154c1.891-0.878,3.872-1.935,5.942-3.173
						c1.154-0.679,2.21-1.414,3.167-2.206L60.523,114.432z"/>
					<g>
						<g>
							<path fill="#292D73" d="M57.422,118.201c-1.925,1.15-2.632,1.253-3.061,1.281c-0.439,0.008-0.594-0.15-1.341,0.064
								c0,0,0.435-0.289,0.869-0.578c0.429-0.294,0.857-0.588,0.857-0.588c0.62-0.313,1.332-0.695,2.021-1.102
								c0.318-0.193,0.635-0.387,0.942-0.574c0.221-0.121,0.429-0.294,0.616-0.254c0.104-0.006,0.154,0.002,0.285-0.009
								c0.144-0.013,0.28-0.025,0.41-0.037c0.254-0.02,0.471-0.028,0.636-0.023c0.331,0.01,0.458,0.072,0.285,0.211
								c-0.099,0.057-0.662,0.315-1.243,0.562l-0.147,0.11c-0.051,0.042-0.135,0.153-0.205,0.222
								C58.3,117.574,57.783,117.961,57.422,118.201z"/>
							<path fill="#292D73" d="M60.417,115.199c-0.368,0.097-0.443,0.054-0.809,0.151l0.969-0.692L60.417,115.199z"/>
							<path fill="#292D73" d="M50.391,121.155c0,0-0.435,0.224-0.869,0.448c-0.442,0.22-0.884,0.438-0.884,0.438
								c-0.442,0.148,0.557-0.403,0.465-0.43c0,0-0.526,0.187-1.053,0.374c-0.527,0.168-1.054,0.336-1.054,0.336
								C49.84,121.316,49.562,120.877,50.391,121.155z"/>
							<path fill="#292D73" d="M52.442,129.76c-0.02,0.553-0.173,0.367-0.332,0.115c-0.161-0.264-0.329-0.607-0.438-0.653
								c-0.023-0.146-0.035-0.303-0.039-0.461c-0.318-0.024-0.549-0.174,0.014-0.47c0.128-0.03,0.248-0.058,0.333-0.078
								C52.157,128.991,52.33,129.3,52.442,129.76z"/>
							<g>
								<path fill="#292D73" d="M45.13,125.691c-0.084-0.03-0.161-0.133-0.235-0.284c-0.091-0.235-0.158-0.418-0.224-0.634
									c-0.127-0.456-0.265-0.949-0.365-1.306c0.258-0.132,0.397-0.249,0.195-0.311c-0.251-0.073-0.515-0.14-0.937-0.105
									c-0.042,0.007-0.028,0.059-0.039,0.101l0.596,1.722c0.342,2.06,0.145,1.773-0.145,1.175
									c-0.283-0.566-0.698-1.624-0.512,0.232c0.181,0.778,0.271,1.164,0.396,1.432c0.544,1.516,0.496,0.755,0.504-0.265
									c0.076,0.339,0.137,0.646,0.183,0.917c1.46-0.287,1.938-0.112,2.387,0.053c0.215,0.085,0.443,0.163,0.75,0.188
									c0.293,0.027,0.68-0.001,1.291-0.147c0.46-0.129,0.814-0.242,1.025-0.328c0.236-0.092,0.419-0.179,0.56-0.26
									c0.283-0.164,0.396-0.308,0.423-0.434c0.07-0.257-0.279-0.429,0.25-0.689c-0.064,0.25,0.611,0.308,1.494,0.287
									c0.041,0.682,0.1,1.415,0.171,2.153c0.037,0.357,0.075,0.729,0.115,1.113c0.059,0.44,0.12,0.894,0.182,1.354
									c0.264,1.854,0.608,3.869,0.98,5.722c0.679,2.499,1.145,5.205,1.654,8.032c0.255,1.414,0.521,2.858,0.83,4.322
									c0.154,0.731,0.319,1.468,0.5,2.208c0.095,0.381,0.164,0.677,0.224,1.04c0.06,0.365,0.103,0.701,0.135,0.978
									c-0.007,0.251-0.023,0.508-0.054,0.768c-0.032,0.253-0.026,0.569-0.353,0.65c-0.252,0.128-0.516,0.241-0.785,0.344
									c-0.264,0.1-0.531,0.191-0.92,0.311c-0.711,0.218-1.461,0.329-2.401,0.536c-1.114,0.244-2.243,0.491-3.372,0.739
									c-0.039-0.03-0.087-0.057-0.118-0.088c-0.081,0.051-0.112,0.093-0.068,0.124c-0.159,0.019-0.318,0.037-0.48,0.057
									c0.083,1.013,0.392,2.602,0.717,4.134c0.334,1.555,0.68,3.165,0.972,4.523c1.66-0.378,2.919-0.588,3.252-0.355l0.904-0.288
									c0.445-0.108,0.777-0.188,1.025-0.248c0.21-0.046,0.349-0.068,0.436-0.075c0.175-0.013,0.145,0.04,0.077,0.108
									c-0.136,0.138-0.426,0.342,0.459,0.217c2.759-0.766,6.598-0.981,7.868-1.992c0.237-0.008-0.054,0.098,0.184,0.09
									l2.228-0.651c0.111-0.198,0.518-0.503,0.102-0.587c0.527-0.113,0.936-0.419,1.698-0.538c1.882-0.448,0.306,0.281,1.015,0.26
									c1.375-0.385,2.812-0.771,4.271-1.144c0.881-0.217,1.767-0.435,2.651-0.652c1.108-0.26,2.214-0.52,3.314-0.777
									c-0.156-0.793-0.311-1.584-0.465-2.368c-0.144-0.77-0.286-1.534-0.427-2.291c-0.274-1.514-0.555-3.131-0.812-4.717
									c0.061-0.087,0.083-0.304,0.068-0.643c-0.627-0.042-2.614,0.354-4.807,0.851c-0.549,0.127-1.106,0.256-1.659,0.384
									c-0.152,0.035-0.236,0.052-0.37,0.074l-0.273,0.04c-0.187,0.024-0.365,0.034-0.505,0.032
									c-0.157-0.032-0.142-0.272-0.188-0.396l-0.06-0.203l-0.153-0.466c-0.076-0.239-0.125-0.41-0.192-0.669l-0.22-0.849
									c-0.154-0.561-0.308-1.12-0.459-1.673c-0.616-2.202-1.207-4.271-1.31-5.986c0.785,1.892,1.089,5.381,1.576,5.673
									l-0.003-0.945c-0.3-2.07-0.701-5.382-1.385-6.502c0.003,1.182-0.19,1.302-0.286,1.716c-0.295-0.887-0.49-1.005-0.786-2.128
									c-0.394-1.655-0.693-3.49-0.402-3.551c0.295,0.889,0.396,1.895,0.594,2.722c0.39,0.237-0.205-2.721-0.305-3.727
									c-0.382,1.896-1.663-2.657-1.159,2.134l-0.69-2.542c-1.076-1.831,1.101,8.455-0.568,4.142
									c-0.294-0.412-0.389,0.238-0.88-1.24c-0.094,0.887,0.301,2.544,0.595,3.193c-0.287,1.245,1.288,6.442,0.609,6.744
									c0.369,1.05,0.609,1.978,0.773,2.84c0.09,0.456,0.127,0.792,0.213,1.308l0.127,0.69l0.07,0.339l0.105,0.423
									c0.163,0.607,0.35,1.223,0.588,1.825c0.25,0.595,0.541,1.173,1.078,1.463c0.533,0.299,1.235,0.414,1.991,0.475
									c0.379,0.031,0.778,0.035,1.19,0.025c0.421-0.013,0.833-0.052,1.127-0.092c0.209-0.03,0.411-0.065,0.609-0.107
									c0.071-0.014,0.137-0.026,0.2-0.038c0.105-0.023,0.198-0.044,0.28-0.062c0.164-0.041,0.285-0.082,0.378-0.124
									c0.186-0.085,0.26-0.175,0.287-0.271c0.071-0.197-0.14-0.397,0.36-0.718c0.32-0.024,0.634-0.078,0.958-0.154
									c0.087,0.414,0.224,0.758,0.385,1.137c0.043,0.108,0.072,0.141,0.143,0.372c0.043,0.097,0.085,0.191,0.126,0.283
									c0.087,0.202,0.167,0.39,0.238,0.554c0.079,0.349,0.079,0.606,0.028,0.698c-0.275-0.014-0.39-0.087-0.277-0.177
									c-0.009-0.013-0.02-0.035-0.03-0.061l0.001,0.043L75.316,157l-0.387,0.043l-0.185,0.02l-0.09,0.01l-0.205,0.037
									l-3.354,0.627c-2.24,0.446-4.474,0.891-6.706,1.335c-2.234,0.476-4.464,0.95-6.69,1.425l-3.335,0.737l-0.733,0.134
									l-0.052-0.335l-0.083-0.463c0.066-0.114,0.104-0.167,0.12-0.223c0.157-0.008,0.265-0.031,0.38-0.063
									c0.669-0.165,1.334-0.329,2.001-0.494l0.738-0.226l0.359-0.12l0.488-0.181c0.722-0.282,1.441-0.604,2.104-0.99
									c0.662-0.394,1.156-0.906,1.425-1.595c0.271-0.692,0.372-1.505,0.472-2.336c0,0-0.032,0.343-0.089,0.673
									c-0.046,0.333-0.117,0.649-0.118,0.649c-0.099,0.162-0.031-0.854-0.096-1.661c-0.157,1.29-0.342,2.512-1.061,3.224
									c0.59-0.767,0.633-1.921,0.669-3.01c0.005-0.582-0.019-1.076-0.048-1.408c-0.03-0.376-0.083-0.761-0.16-1.157
									c-0.857-1.312-1.44-6.933-2.374-8.544c-1.214-6.75-0.379-3.986-1.547-10.807c-0.257-0.964-0.527-1.977-0.805-3.021
									c-0.414-1.729-0.839-3.511-1.272-5.321c-1.749,0.447-3.522,0.902-5.307,1.359l-1.705,0.422l-0.746,0.175l-0.234,0.046
									c-0.317,0.061-0.533-0.015-0.527-0.138c0.034-0.124,0.077-0.202,0.113-0.236c-0.048-0.122-0.099-0.302-0.146-0.492
									c-0.031-0.141-0.062-0.283-0.093-0.42c-0.018-0.094-0.041-0.188-0.049-0.267c0.034-0.011,0.06-0.02,0.084-0.027
									c0.192-0.176,0.162-0.266,0.891-0.649c0.451-0.278,0.488-0.392,0.245-0.382c-0.121,0.003-0.312,0.037-0.556,0.091
									c-0.125,0.029-0.259,0.062-0.403,0.096c-0.115,0.026-0.144,0.016-0.23,0.031c-0.296,0.039-0.694,0.121-1.132,0.224
									c0.005,0.289,0.054,0.633,0.093,0.953c0.011,0.081,0.022,0.161,0.033,0.238c0.017,0.102,0.033,0.2,0.048,0.295
									C45.086,125.431,45.11,125.569,45.13,125.691z"/>
								<path fill="#292D73" d="M81.081,158.896c0.25,0.378,0.208-0.384,0.074-1.474c-0.078-0.572-0.161-1.178-0.237-1.734
									c-0.041-0.287-0.079-0.562-0.114-0.812c-0.015-0.114-0.028-0.223-0.041-0.325c-0.001-0.053-0.002-0.103-0.004-0.148
									l-0.487-1.803c-1.079-4.575-1.353-4.021-0.986-1.286c0.218,0.346,0.575,1.717,0.916,3.225
									c0.157,0.74,0.322,1.516,0.479,2.255C80.827,157.564,80.966,158.292,81.081,158.896z"/>
								<path fill="#292D73" d="M61.358,165.177l0.224-0.396l-2.758,0.766C58.948,165.737,60.298,165.404,61.358,165.177z"/>
								<path fill="#292D73" d="M63.297,125.942c0.496,2.661,0.403,3.786,1.093,6.564l0.484-0.652
									c-0.302-2.779-0.507-5.735-1.2-8.988C62.598,120.8,64.079,126.887,63.297,125.942z"/>
								<path fill="#292D73" d="M63.416,131.918c-1.573-4.728-1.885-10.584-3.65-14.485c-1.162,1.424,1.78,8.163,1.986,11.354
									c0.591,2.012,0.985,3.194,1.674,5.737C64.113,136.354,63.616,133.219,63.416,131.918z"/>
								<path fill="#292D73" d="M60.149,116.012c-0.099-0.53-0.296-1.123-0.395-1.419c-0.195-0.354-0.094,0.653-0.093,1.125
									C59.761,116.249,60.35,117.552,60.149,116.012z"/>
							</g>
						</g>
					</g>
				</g>
			</g>
		</g>
	</g>
</g>
<g id="_x39__-_Grades_7__x26__8">
</g>
<g id="_x38__-_CS__x28_Binary_Digits_x29_">
</g>
<g id="_x37__-_NS__x28_Blocks_x3B__Prime_factorization_of_12_x29_">
</g>
<g id="_x36__-_LR__x28_Intersection_of_lines_x29_">
</g>
<g id="_x35__-_SS__x28_Pascal_x27_s_triangle_x29_">
</g>
<g id="_x34__-_MT__x28_Cone_and_Sphere_x29_">
</g>
<g id="_x33__-_QR__x28_Suspension_Bridge_x29_">
</g>
<g id="_x32__-_ET__x28_Sine_and_exponential_x29_">
</g>
<g id="_x31__-_IF__x28_Function_diagram_x29_">
</g>
</svg>
