<?xml version="1.0" encoding="utf-8"?>
<!-- Generator: Adobe Illustrator 16.0.0, SVG Export Plug-In . SVG Version: 6.00 Build 0)  -->
<!DOCTYPE svg PUBLIC "-//W3C//DTD SVG 1.1//EN" "http://www.w3.org/Graphics/SVG/1.1/DTD/svg11.dtd">
<svg version="1.1" xmlns="http://www.w3.org/2000/svg" xmlns:xlink="http://www.w3.org/1999/xlink" x="0px" y="0px" width="130px"
	 height="180px" viewBox="0 0 130 180" enable-background="new 0 0 130 180" xml:space="preserve">
<g id="_x31_3_-_Problem_Solving__x28_Lightbulb_x29_">
</g>
<g id="_x31_2_-_Calculus__x26__Vectors__x28_Unit_Vectors_x29_">
</g>
<g id="_x31_1_-_Advanced_Functions">
</g>
<g id="_x39__-_Grades_7__x26__8">
</g>
<g id="_x38__-_CS__x28_Binary_Digits_x29_">
</g>
<g id="_x37__-_NS__x28_Blocks_x3B__Prime_factorization_of_12_x29_">
</g>
<g id="_x36__-_LR__x28_Intersection_of_lines_x29_">
</g>
<g id="_x35__-_SS__x28_Pascal_x27_s_triangle_x29_">
</g>
<g id="_x34__-_MT__x28_Cone_and_Sphere_x29_">
</g>
<g id="_x33__-_QR__x28_Suspension_Bridge_x29_">
</g>
<g id="_x32__-_ET__x28_Sine_and_exponential_x29_">
	
		<radialGradient id="SVGID_1_" cx="64" cy="194.0884" r="92.172" gradientTransform="matrix(1 0 0 1.3536 0 -60.8438)" gradientUnits="userSpaceOnUse">
		<stop  offset="0" style="stop-color:#B3E5FC"/>
		<stop  offset="0.3058" style="stop-color:#B6E6FC"/>
		<stop  offset="0.5126" style="stop-color:#BFE9FC"/>
		<stop  offset="0.6901" style="stop-color:#CEEEFD"/>
		<stop  offset="0.8501" style="stop-color:#E3F6FE"/>
		<stop  offset="0.9987" style="stop-color:#FFFFFF"/>
		<stop  offset="1" style="stop-color:#FFFFFF"/>
	</radialGradient>
	<path fill="url(#SVGID_1_)" d="M118.869,161.137c0,5.855-5.374,10.601-12.002,10.601H23.134c-6.629,0-12.002-4.746-12.002-10.601
		V87.181c0-5.855,5.374-10.601,12.002-10.601h83.732c6.629,0,12.002,4.746,12.002,10.601V161.137z"/>
	<g>
		<linearGradient id="SVGID_2_" gradientUnits="userSpaceOnUse" x1="93.7124" y1="16" x2="93.7124" y2="106">
			<stop  offset="0" style="stop-color:#FF576C"/>
			<stop  offset="0.0234" style="stop-color:#FF616D"/>
			<stop  offset="0.1139" style="stop-color:#FF806F"/>
			<stop  offset="0.2078" style="stop-color:#FF9971"/>
			<stop  offset="0.3056" style="stop-color:#FFAB72"/>
			<stop  offset="0.4096" style="stop-color:#FFB673"/>
			<stop  offset="0.5306" style="stop-color:#FFB973"/>
			<stop  offset="0.6523" style="stop-color:#FFB673"/>
			<stop  offset="0.7421" style="stop-color:#FFAD72"/>
			<stop  offset="0.8217" style="stop-color:#FF9D71"/>
			<stop  offset="0.8954" style="stop-color:#FF866F"/>
			<stop  offset="0.9644" style="stop-color:#FF696D"/>
			<stop  offset="1" style="stop-color:#FF576C"/>
		</linearGradient>
		<path fill="url(#SVGID_2_)" d="M123.007,21.087c-0.766,2.188-1.532,4.945-2.298,8.198c-2.085,8.854-4.17,21.375-6.255,33.895
			c-2.085,12.518-4.169,25.041-6.254,33.894c-2.085,8.852-4.17,14.039-6.255,14.039c-2.085,0-4.169-5.187-6.254-14.039
			c-2.085-8.853-4.169-21.375-6.254-33.894c-2.085-12.519-4.169-25.041-6.255-33.895c-2.085-8.851-4.169-14.038-6.253-14.038
			c-2.086,0-4.169,5.187-6.255,14.038c-2.085,8.854-4.168,21.375-6.254,33.895h57.581"/>
		<g>
			<g>
				<g>
					<path fill="#292D73" d="M122.542,28.607c-0.296,0.988-0.497,2.018-0.722,3.026c-1,4.681-2.013,9.36-2.959,14.094
						c-0.838,4.774-1.68,9.572-2.534,14.437c-0.85,4.875-1.71,9.815-2.588,14.856c-0.454,2.52-0.86,5.067-1.371,7.636
						c-0.534,2.565-1.074,5.159-1.621,7.791c-0.805,3.672-1.481,7.495-2.612,11.334c-0.545,1.921-1.147,3.852-1.948,5.771
						c-0.414,0.958-0.852,1.916-1.514,2.857c-0.169,0.235-0.432,0.579-0.698,0.806c-0.25,0.275-0.552,0.477-0.86,0.661
						c-0.326,0.139-0.661,0.262-1.02,0.293c-0.351,0.03-0.714-0.053-1.04-0.182c-0.667-0.246-1.216-0.782-1.673-1.358
						c-0.215-0.275-0.355-0.482-0.499-0.729c-0.152-0.237-0.289-0.475-0.408-0.713c-0.506-0.954-0.904-1.915-1.259-2.879
						c-0.714-1.928-1.279-3.863-1.792-5.789c-0.252-0.963-0.495-1.924-0.724-2.881c-0.219-0.958-0.395-1.915-0.592-2.863
						c-0.383-1.899-0.76-3.772-1.131-5.613c0.889,4.365,1.596,8.779,2.874,13.151c0.629,2.188,1.3,4.372,2.336,6.535
						c0.274,0.541,0.563,1.08,0.944,1.617c0.085,0.117,0.232,0.315,0.364,0.476c0.139,0.163,0.302,0.3,0.452,0.451
						c0.146,0.158,0.31,0.291,0.49,0.396c0.176,0.113,0.347,0.235,0.547,0.288c0.195,0.065,0.383,0.154,0.591,0.169
						c0.204,0.036,0.408,0.077,0.613,0.021c0.207-0.022,0.408-0.063,0.599-0.144c0.197-0.062,0.389-0.132,0.56-0.258
						c0.369-0.2,0.657-0.526,0.969-0.817c0.14-0.152,0.285-0.347,0.394-0.492c0.101-0.134,0.203-0.269,0.281-0.403
						c1.333-2.153,2.022-4.34,2.73-6.538c0.677-2.198,1.253-4.408,1.76-6.625c0.911-4.442,1.821-8.885,2.729-13.318
						c1.672-8.869,3.157-17.729,4.751-26.416c0.795-4.344,1.548-8.672,2.383-12.93c0.916-4.213,1.826-8.399,2.729-12.557
						c-0.467,3.406-1.105,7.447-2.042,12.112c-2.098,11.305-4.012,22.527-5.974,33.672c-0.089-0.016-0.264-0.046-0.352-0.062
						c-0.592,3.965-1.404,7.888-2.177,11.787c-0.391,1.949-0.78,3.891-1.168,5.829c-0.366,1.938-0.819,3.866-1.343,5.787
						c-0.519,1.921-1.088,3.833-1.807,5.742c-0.361,0.955-0.757,1.907-1.279,2.87c-0.121,0.239-0.265,0.481-0.42,0.725
						c-0.15,0.252-0.29,0.458-0.525,0.759c-0.528,0.658-1.164,1.253-1.912,1.539c-0.374,0.143-0.771,0.221-1.17,0.247l-0.595-0.093
						l-0.569-0.188c-0.729-0.328-1.364-0.914-1.869-1.586c-0.726-1-1.157-1.942-1.581-2.902c-0.792-1.907-1.38-3.807-1.912-5.712
						c-0.517-1.905-1.011-3.811-1.392-5.725l-1.127-5.744c-0.378-1.916-0.757-3.833-1.137-5.754c-0.389-1.92-0.77-3.843-1.077-5.773
						c-1.317-7.714-2.686-15.501-4.143-23.372c0.145,1.131-0.042,0.478-0.139,0.254c-0.013-0.078-0.026-0.152-0.039-0.224
						c0.012,0.072,0.025,0.146,0.039,0.224c-0.086-0.202-0.103-0.066,0.232,1.899c-0.335-1.965-0.318-2.101-0.232-1.899
						c1.34,7.782,2.657,15.433,3.964,23.021l0.493,2.846l0.569,2.839c0.378,1.892,0.756,3.78,1.134,5.667
						c0.774,3.772,1.411,7.542,2.487,11.297c0.523,1.879,1.079,3.753,1.837,5.64c0.372,0.943,0.804,1.89,1.396,2.861
						c0.15,0.256,0.284,0.452,0.532,0.773c0.255,0.362,0.59,0.635,0.901,0.934c0.648,0.569,1.445,0.856,2.274,0.922
						c0.83-0.065,1.628-0.354,2.277-0.925c0.314-0.298,0.649-0.573,0.906-0.937c0.245-0.314,0.381-0.515,0.533-0.769
						c0.598-0.971,1.038-1.919,1.416-2.865c0.772-1.892,1.341-3.775,1.879-5.668c1.105-3.782,1.768-7.593,2.58-11.422
						c0.395-1.915,0.791-3.836,1.188-5.764c0.198-0.964,0.396-1.93,0.594-2.897c0.17-0.967,0.341-1.937,0.513-2.908
						c-0.486,3.018-1.148,6.028-1.75,9.033c-0.611,3.005-1.22,6.005-1.829,9c-0.666,2.995-1.448,5.977-2.473,8.963
						c-0.539,1.498-1.083,2.981-2.023,4.527c-0.122,0.194-0.229,0.384-0.386,0.585l-0.282,0.37c-0.111,0.139-0.222,0.277-0.355,0.39
						c-0.496,0.488-1.035,0.957-1.68,1.137c-0.312,0.119-0.64,0.176-0.973,0.217c-0.165,0.049-0.33-0.02-0.496-0.033
						c-0.164-0.029-0.333-0.038-0.488-0.1c-0.318-0.098-0.64-0.183-0.922-0.383c-0.144-0.09-0.292-0.174-0.426-0.28l-0.382-0.357
						c-0.262-0.228-0.506-0.481-0.712-0.772c-0.179-0.238-0.308-0.41-0.424-0.609c-0.251-0.389-0.462-0.771-0.653-1.15
						c-0.39-0.76-0.701-1.508-0.996-2.256c-0.576-1.494-1.042-2.98-1.468-4.468c-0.424-1.487-0.813-2.974-1.167-4.462
						c-0.353-1.488-0.614-2.978-0.926-4.467c-1.181-5.957-2.477-11.913-3.421-17.88c-1.024-5.961-2.05-11.933-3.079-17.922
						c-0.514-2.989-1.028-5.983-1.544-8.982c-0.268-1.496-0.494-3.01-0.797-4.495l-0.902-4.465
						c-1.244-5.928-2.212-12.066-4.139-17.704c-0.473-1.395-1.009-2.78-1.642-3.92l-0.242-0.392c-0.039-0.07-0.08-0.127-0.12-0.176
						l-0.07-0.095c-0.018-0.028-0.042-0.05-0.068-0.069c-0.053-0.042-0.131-0.023-0.173,0.026c-0.011,0.012-0.023,0.022-0.032,0.036
						l-0.151,0.207c-0.159,0.262-0.325,0.516-0.476,0.826c-0.314,0.585-0.591,1.258-0.863,1.928
						c-0.529,1.365-0.986,2.812-1.404,4.28c-0.287,0.999-0.694,2.517-1.061,4.055c-0.373,1.535-0.643,3.117-0.866,4.152
						c-0.962,4.138-1.904,8.284-2.774,12.451c-0.774,4.202-1.516,8.409-2.234,12.618c-0.084-2.179-2.411,6.1,0.646-10.734
						c-0.089-0.016-0.266-0.047-0.354-0.063c-3.322,16.786-5.648,22.926-3.12,5.972c0.375-2.399,0.763-4.873,1.162-7.422
						c0.402-2.561,0.978-5.203,1.493-7.911c0.54-2.708,1.092-5.479,1.654-8.301c0.597-2.822,1.357-5.686,2.308-8.59
						c0.491-1.455,1.025-2.913,1.816-4.418c0.185-0.373,0.437-0.763,0.674-1.145l0.218-0.297l0.316-0.404
						c0.227-0.278,0.509-0.491,0.761-0.74c1.045-0.951,2.55-1.162,3.803-0.625c0.302,0.154,0.605,0.326,0.877,0.543
						c0.257,0.245,0.524,0.476,0.772,0.732c0.116,0.137,0.229,0.278,0.337,0.422l0.229,0.31c0.134,0.196,0.244,0.387,0.365,0.582
						c0.459,0.773,0.808,1.525,1.123,2.274c0.625,1.497,1.112,2.98,1.562,4.465c0.875,2.967,1.615,5.933,2.169,8.884
						c0.607,2.947,1.212,5.878,1.811,8.783c0.929,4.221,1.585,8.44,2.345,12.66c0.733,4.221,1.466,8.438,2.198,12.654
						c0.714,4.211,1.428,8.419,2.143,12.632c0.329,2.115,0.736,4.198,1.147,6.279c0.399,2.082,0.799,4.166,1.2,6.254
						c0.556,2.863,1.036,5.799,1.79,8.638c0.737,2.814,1.544,5.751,2.75,8.135c0.146,0.304,0.311,0.547,0.464,0.806l0.117,0.156
						l0.018,0.03l0.043,0.053c0.058,0.07,0.17,0.103,0.25,0.045c0.04-0.025,0.075-0.057,0.104-0.097
						c-0.018,0.015,0.122-0.145,0.187-0.256l0.243-0.39c0.314-0.563,0.621-1.179,0.89-1.842c1.089-2.65,1.899-5.589,2.636-8.518
						c0.698-2.956,1.253-5.975,1.888-8.95c0.6-2.99,1.271-5.946,1.815-8.933c1.084-5.957,2.159-11.858,3.217-17.668
						c0.765-4.215,1.711-10.028,2.59-15.31c0.404-2.642,0.963-5.145,1.384-7.251c0.437-2.106,0.814-3.813,1.092-4.853
						c0.735-3,0.945-3.076,1.061-2.567c-0.701,3.457-1.402,6.911-2.102,10.36c-0.37,1.723-0.664,3.452-0.957,5.18l-0.893,5.178
						c-1.191,6.893-2.378,13.76-3.558,20.592c-0.738,4.184-1.447,8.376-2.358,12.51l-1.292,6.22
						c-0.454,2.065-0.808,4.165-1.358,6.194c-0.524,2.038-1.097,4.06-1.777,6.015c-0.337,0.978-0.709,1.937-1.134,2.837
						c-0.208,0.453-0.437,0.887-0.68,1.28c-0.12,0.195-0.248,0.4-0.372,0.546c-0.063,0.093-0.142,0.17-0.22,0.248
						c-0.159,0.144-0.367,0.263-0.586,0.225c-0.215-0.04-0.391-0.19-0.525-0.354c-0.038-0.038-0.064-0.086-0.096-0.128l-0.172-0.239
						l-0.351-0.594c-0.225-0.419-0.434-0.863-0.631-1.321c-0.772-1.853-1.382-3.851-1.919-5.867
						c0.516,1.976,1.107,3.936,1.854,5.773c0.196,0.448,0.392,0.898,0.614,1.312c0.103,0.221,0.228,0.399,0.341,0.599
						c0.112,0.206,0.262,0.371,0.295,0.437c0.138,0.166,0.295,0.336,0.51,0.409c0.216,0.074,0.455-0.013,0.622-0.161
						c0.237-0.129,0.859-1.097,1.263-1.951c0.436-0.882,0.802-1.841,1.15-2.808c0.687-1.943,1.264-3.961,1.793-5.999
						c0.555-2.031,0.924-4.133,1.371-6.213c0.43-2.087,0.861-4.178,1.293-6.272c0.413-2.102,0.902-4.186,1.252-6.314
						c0.369-2.123,0.739-4.25,1.11-6.381l3.61-20.434c0.627-3.405,1.151-6.822,1.864-10.218l2.116-10.187
						c0.08,0.538,0.171,1.055,0.511,0.266c0,0,0.21-1.049,0.474-2.36c0.229-1.318,0.667-2.867,0.924-3.906
						c0.605-2.059,1.211-3.416,1.601-4.269c0.4-0.852,0.645-1.186,0.772-1.142c0.254,0.09,0.041,1.692-0.362,3.746
						C122.973,26.096,122.765,27.31,122.542,28.607z"/>
				</g>
			</g>
		</g>
	</g>
	<g opacity="0.75">
		<linearGradient id="SVGID_3_" gradientUnits="userSpaceOnUse" x1="62.2925" y1="130.9595" x2="64.9117" y2="174.5348">
			<stop  offset="0.4133" style="stop-color:#6AE87D"/>
			<stop  offset="0.5399" style="stop-color:#6DE880"/>
			<stop  offset="0.6354" style="stop-color:#77EA88"/>
			<stop  offset="0.7208" style="stop-color:#87EC96"/>
			<stop  offset="0.8003" style="stop-color:#9EF0AA"/>
			<stop  offset="0.8757" style="stop-color:#BBF5C4"/>
			<stop  offset="0.9469" style="stop-color:#DFFAE3"/>
			<stop  offset="1" style="stop-color:#FFFFFF"/>
		</linearGradient>
		<path fill="url(#SVGID_3_)" d="M121.158,172.001c-60.588-55.067-114.865,0-114.865,0s-2.6,6.583,65.147,5.957
			S121.158,172.001,121.158,172.001z"/>
	</g>
	<g>
		<g>
			<g>
				<path fill="#292D73" d="M116.758,167.96c-0.425-0.289-0.851-0.578-1.269-0.862c-7.91-5.107-16.685-8.736-26.709-11.645
					c-0.869-0.292-1.772-0.518-2.692-0.731c-0.924-0.216-1.854-0.435-2.79-0.654c-1.884-0.416-3.833-0.672-5.766-1.003
					c-1.951-0.202-3.899-0.452-5.824-0.576c-1.928-0.078-3.818-0.258-5.651-0.228l1.629,0.039l1.63,0.114
					c1.088,0.076,2.179,0.152,3.271,0.229c1.088,0.128,2.178,0.256,3.27,0.385l1.637,0.195l1.628,0.277l3.259,0.553l3.228,0.725
					c2.164,0.433,4.264,1.122,6.381,1.709c8.423,2.54,16.326,6.403,23.258,10.95c-0.903-0.347-1.779-0.683-2.596-0.997
					c-0.931-0.376-1.911-0.824-2.934-1.367c-4.914-2.619-9.937-4.918-15.122-6.609c0.042-0.13,0.125-0.383,0.167-0.51
					c-7.456-2.225-14.807-3.871-22.302-4.652c-7.487-0.732-15.111-0.561-22.781,0.87c0.56,0.002,0.25,0.152,0.149,0.253
					l-0.109,0.014l0.109-0.014c-0.091,0.088-0.02,0.139,0.938,0.018c-0.958,0.122-1.029,0.071-0.938-0.018
					c7.56-1.137,14.998-1.401,22.355-0.788c7.355,0.642,14.619,2.183,21.824,4.623c-5.61-1.844-11.333-3.174-17.119-3.953
					c-5.787-0.776-11.63-0.954-17.462-0.646c-11.671,0.621-23.299,3.334-34.558,7.884c-0.95,0.406-2.87,1.188-3.803,1.636
					c-3.937,1.334-7.724,3.134-11.224,5.292c0.257-0.56-0.664-0.58-0.761-0.978c-0.091-0.384,0.633-1.231,4.408-3.143
					c-0.063-0.119-0.192-0.356-0.255-0.476c-3.906,1.716-6.676,2.79-7.751,2.784c-1.038,0.001-0.247-1.456,3.407-3.913
					c8.282-5.478,20.715-10.045,32.422-12.785c8.517-2.027,17.348-2.995,26.124-2.509c12.032,0.732,25.115,3.374,35.979,8.497
					c0.511,0.211,1.055,0.438,1.633,0.677c0.573,0.258,1.176,0.529,1.796,0.808c1.239,0.552,2.545,1.134,3.786,1.687
					c2.432,1.208,4.582,2.378,5.445,3.057c1.271,0.917,1.154,1.236,0.799,1.38c-6.13-3.54-12.56-6.534-19.152-8.882
					c-8.067-2.94-16.507-4.916-25.091-5.904c8.385,1.069,16.848,2.986,25.091,5.904c6.556,2.405,12.855,5.45,18.833,8.992
					c-0.355,0.108-0.704,0.233-0.476,0.682c0,0,1.827,1.101,2.741,1.651c3.303,2.778,1.849,3.004-0.291,2.504
					C117.991,168.34,117.384,168.153,116.758,167.96z"/>
			</g>
		</g>
	</g>
	<g>
		<g>
			<g>
				<g>
					<g>
						<path fill="#292D73" d="M50.368,151.586c-0.105-0.813-0.211-1.627-0.315-2.431c-2.071-15.079-4.085-29.75-6.363-46.335
							c-0.807-5.843-1.66-12.014-2.514-18.2c-0.77-5.423-1.54-10.847-2.258-15.907c1.802,12.982,3.646,26.267,5.476,39.453
							c1.927,13.939,3.807,27.749,5.514,40.952c-0.481-2.65-1.015-5.823-1.539-9.53c-1.232-8.943-2.445-17.746-3.646-26.471
							c0.045-0.006,0.133-0.019,0.177-0.025c-1.248-8.503-2.411-16.821-3.55-25.079c-0.887-6.471-1.769-12.907-2.656-19.377
							c-0.793,5.788-1.589,11.588-2.418,17.64c0.148-0.879,0.111-0.351,0.114-0.164c-0.009,0.061-0.017,0.12-0.025,0.176
							c0.008-0.056,0.016-0.115,0.025-0.176c0.002,0.168,0.036,0.07,0.254-1.473c-0.218,1.543-0.252,1.642-0.254,1.473
							c0.782-5.577,1.547-11.034,2.305-16.438c1.956,14.093,3.877,27.939,5.89,42.444c-1.983-14.125-3.934-28.012-5.89-41.944
							c-2.656,18.891-5.322,37.854-8.08,57.473c-0.233,1.651-0.701,4.96-0.935,6.614c-1.068,6.597-2.047,13.209-2.981,19.82
							c0.01-1.682-1.37,4.87,0.589-8.351c-0.044-0.006-0.134-0.019-0.178-0.025c-2.092,13.202-3.417,18.077-1.726,4.818
							c1.924-14.908,4.906-34.73,7.386-52.933c0.798-5.767,1.597-11.531,2.394-17.287c1.177-8.287,2.351-16.555,3.532-24.867
							c0.471,3.405,0.943,6.815,1.417,10.238c1.37,9.978,2.787,20.29,4.207,30.627c1.286,9.472,2.569,18.92,3.82,28.135
							c0.891,6.625,2.66,18.184,2.993,21.512c0.271,2.385,0.19,2.493,0.033,2.144c-1.523-10.877-3.04-21.715-4.542-32.44
							c-1.789-13.133-3.578-26.266-5.377-39.472c1.693,12.871,3.51,26.077,5.377,39.472c1.469,10.699,2.938,21.399,4.408,32.111
							c-0.146-0.378-0.294-0.741-0.29-0.076c0,0,0.467,3.306,0.701,4.96c0.712,6.65,0.166,5.036-0.523,1.765
							C50.752,153.558,50.565,152.599,50.368,151.586z"/>
					</g>
				</g>
			</g>
			<path fill="#292D73" stroke="#F2F2F2" stroke-width="0.05" stroke-miterlimit="10" d="M24.424,164.207
				c-3.412-4.34,14.27-101.027,14.27-101.027s15.86,97.815,14.27,101.027S27.835,168.547,24.424,164.207z"/>
		</g>
		<g>
			<radialGradient id="SVGID_4_" cx="39.5396" cy="58.4634" r="43.9485" gradientUnits="userSpaceOnUse">
				<stop  offset="0" style="stop-color:#FFB973"/>
				<stop  offset="0.2211" style="stop-color:#FFBB76"/>
				<stop  offset="0.388" style="stop-color:#FFBF80"/>
				<stop  offset="0.5373" style="stop-color:#FFC790"/>
				<stop  offset="0.676" style="stop-color:#FFD3A7"/>
				<stop  offset="0.8076" style="stop-color:#FFE2C4"/>
				<stop  offset="0.9321" style="stop-color:#FFF4E8"/>
				<stop  offset="1" style="stop-color:#FFFFFF"/>
			</radialGradient>
			<path fill="url(#SVGID_4_)" d="M38.694,63.179c8.242-14.683,16.484-29.365,24.727-44.048
				C28.782,20.172,35.739,35.61,38.694,63.179z"/>
			<radialGradient id="SVGID_5_" cx="37.2114" cy="71.6689" r="34.0719" fx="65.7855" fy="90.2274" gradientUnits="userSpaceOnUse">
				<stop  offset="0" style="stop-color:#FFB973"/>
				<stop  offset="0.2211" style="stop-color:#FFBB76"/>
				<stop  offset="0.388" style="stop-color:#FFBF80"/>
				<stop  offset="0.5373" style="stop-color:#FFC790"/>
				<stop  offset="0.676" style="stop-color:#FFD3A7"/>
				<stop  offset="0.8076" style="stop-color:#FFE2C4"/>
				<stop  offset="0.9321" style="stop-color:#FFF4E8"/>
				<stop  offset="1" style="stop-color:#FFFFFF"/>
			</radialGradient>
			<path fill="url(#SVGID_5_)" d="M38.693,63.18C28.896,76.875,19.1,90.569,9.303,104.264C43.849,107.013,38.62,90.907,38.693,63.18
				z"/>
			<radialGradient id="SVGID_6_" cx="44.6621" cy="63.9619" r="34.1656" gradientUnits="userSpaceOnUse">
				<stop  offset="0" style="stop-color:#FFB973"/>
				<stop  offset="0.2211" style="stop-color:#FFBB76"/>
				<stop  offset="0.388" style="stop-color:#FFBF80"/>
				<stop  offset="0.5373" style="stop-color:#FFC790"/>
				<stop  offset="0.676" style="stop-color:#FFD3A7"/>
				<stop  offset="0.8076" style="stop-color:#FFE2C4"/>
				<stop  offset="0.9321" style="stop-color:#FFF4E8"/>
				<stop  offset="1" style="stop-color:#FFFFFF"/>
			</radialGradient>
			<path fill="url(#SVGID_6_)" d="M38.694,63.181c15.518,6.536,31.035,13.072,46.552,19.608
				C80.312,48.487,65.756,57.139,38.694,63.181z"/>
			<radialGradient id="SVGID_7_" cx="22.6396" cy="55.5928" r="13.4849" gradientUnits="userSpaceOnUse">
				<stop  offset="0" style="stop-color:#FFB973"/>
				<stop  offset="0.2211" style="stop-color:#FFBB76"/>
				<stop  offset="0.388" style="stop-color:#FFBF80"/>
				<stop  offset="0.5373" style="stop-color:#FFC790"/>
				<stop  offset="0.676" style="stop-color:#FFD3A7"/>
				<stop  offset="0.8076" style="stop-color:#FFE2C4"/>
				<stop  offset="0.9321" style="stop-color:#FFF4E8"/>
				<stop  offset="1" style="stop-color:#FFFFFF"/>
			</radialGradient>
			<path fill="url(#SVGID_7_)" d="M7.682,65.276c7.396,1.734,17.81-0.636,31.012-2.097c-10.703-5.96-21.405-11.92-32.108-17.88"/>
			<g>
				<g>
					<g>
						<path fill="#292D73" d="M60.156,28.23c-0.106,0.151-0.213,0.302-0.314,0.446c-1.865,2.771-3.417,5.719-5.384,8.856
							c-1.424,2.17-2.794,4.794-4.062,7.052c3.149-5.27,6.251-10.925,9.681-15.762c-0.106,0.624-0.308,1.328-0.713,2.051
							c-1.05,1.699-2.065,3.388-3.056,5.071c-0.079-0.044-0.234-0.131-0.312-0.175c-2.481,4.971-5.644,9.135-7.968,14.194
							c0.138-0.149,0.145-0.011,0.175,0.053l-0.019,0.035l0.019-0.035c0.027,0.057,0.072,0.057,0.241-0.244
							c-0.169,0.301-0.214,0.301-0.241,0.244c2.596-4.803,5.17-9.211,7.991-13.88c-4.29,7.299-8.132,14.501-12.379,22.067
							c-0.181,0.322-0.543,0.968-0.724,1.29c-0.959,1.158-1.763,2.405-2.487,3.695c-0.211-0.542-1.721,0.307-0.115-2.186
							c-0.078-0.044-0.235-0.132-0.314-0.176c-1.841,2.361-3.483,2.712-2.348-0.045c1.315-3.079,3.802-6.774,5.637-10.41
							c1.37-2.625,2.741-5.25,4.346-7.742c2.228-3.416,4.322-7.332,6.627-10.703c0.803-1.247,1.835-3.637,2.433-4.15
							c0.373-0.4,0.55-0.325,0.697-0.149c-1.217,2.112-2.416,4.194-3.622,6.287c-1.528,2.516-3.065,5.026-4.661,7.502
							c1.623-2.386,3.151-4.914,4.661-7.502c1.241-2.039,2.469-4.056,3.735-6.136c0.117,0.166,0.243,0.333,0.469,0.293
							c0,0,0.362-0.645,0.543-0.967c1.117-1.071,1.485-0.439,1.516,0.425C60.192,27.745,60.174,27.987,60.156,28.23z"/>
					</g>
				</g>
			</g>
			<g>
				<g>
					<g>
						<path fill="#292D73" d="M36.853,61.203c-0.018-0.307-0.035-0.616-0.052-0.915c-0.374-5.611-1.392-11.168-1.736-17.523
							c-0.08-2.226-0.149-4.628,0.024-7.059c0.174-2.423,0.667-4.906,1.685-7.056c-1.26,2.534-1.703,5.343-1.854,8.063
							c-0.146,2.735,0.006,5.441,0.221,8.104c0.454,5.322,1.114,10.512,1.383,15.483c-0.332-0.972-0.645-2.14-0.826-3.529
							c-0.372-3.418-0.733-6.736-1.089-10.008c0.09-0.01,0.267-0.03,0.355-0.04c-0.334-2.352-0.547-4.704-0.588-7.074
							c-0.035-2.369,0.102-4.769,0.623-7.169c0.508-2.394,1.536-4.794,3.136-6.811c1.587-2.042,3.724-3.566,5.97-4.729
							c-0.35,0.101-0.187-0.051-0.143-0.134l0.066-0.029l-0.066,0.029c0.044-0.061-0.021-0.12-0.59,0.19
							c0.569-0.31,0.634-0.251,0.59-0.19c-2.262,1.081-4.428,2.591-6.029,4.638c-1.621,2.024-2.62,4.443-3.137,6.827
							c-0.973,4.806-0.615,9.456-0.224,14.11c-0.345-3.618-0.629-7.27-0.325-11.045c0.149-1.882,0.51-3.811,1.19-5.688
							c0.678-1.875,1.743-3.685,3.146-5.172c1.399-1.487,3.069-2.681,4.822-3.546c1.756-0.849,3.567-1.551,5.403-2.002
							c1.833-0.505,3.683-0.826,5.541-1.111c0.928-0.11,1.859-0.221,2.793-0.333l1.4-0.112l2.031-0.137
							c1.191-0.055,3.579-0.165,4.771-0.22c0.279,0.004,0.552,0.008,0.819,0.012l0.404,0.005l0.201,0.002
							c0.058-0.015,0.007,0.038-0.008,0.068l-0.063,0.102c-0.337,0.55-0.659,1.076-0.97,1.584c-0.641,1.07-1.234,2.059-1.798,3.001
							c-0.481,0.818-0.938,1.596-1.386,2.358c-0.316,0.551-0.626,1.09-0.936,1.63c-0.043-0.383-0.568-0.138-0.755-0.333
							c-0.094-0.098-0.103-0.305,0.075-0.756c0.088-0.226,0.224-0.512,0.418-0.876c0.103-0.184,0.212-0.379,0.339-0.606
							c0.144-0.243,0.303-0.514,0.488-0.827c-0.088-0.027-0.263-0.083-0.35-0.11c-2.877,4.206-4.876,5.192-2.74,0.653
							c0.917-1.818,0.558-1.27,0.646-1.466c0.034-0.049-0.041-0.026-0.08-0.026c-0.068,0.003-0.023-0.006-0.204,0.003
							c-3.351,0.215-6.845,0.625-9.942,1.573c-2.25,0.667-4.373,1.575-6.124,2.816c-1.784,1.218-3.042,2.851-3.966,4.775
							c-1.229,2.7-1.515,6.154-1.42,9.624c0.076,3.484,0.471,7.045,0.721,10.473c0.235,2.489,1.083,6.818,0.96,8.105
							c-0.019,0.914-0.205,0.972-0.434,0.86c-0.461-4.109-1.04-8.184-1.477-12.202c-0.237-2.467-0.431-4.932-0.457-7.371
							c-0.023-2.434,0.127-4.855,0.671-7.11c-1.122,4.437-0.729,9.493-0.214,14.48c0.43,4.026,0.857,8.038,1.291,12.094
							c-0.201-0.125-0.408-0.244-0.555,0.023c0,0,0.147,1.246,0.221,1.869c-0.166,2.545-0.864,1.981-1.45,0.795
							C37.141,61.919,36.998,61.563,36.853,61.203z"/>
					</g>
				</g>
			</g>
			<g>
				<g>
					<g>
						<path fill="#292D73" d="M40.319,66.622c-0.013,0.488-0.025,0.977-0.038,1.457c-0.071,4.471,0.054,8.958-0.015,13.62
							c-0.049,2.333-0.152,4.713-0.475,7.155c-0.327,2.431-0.865,4.963-2.061,7.378c-0.832,1.679-2.01,3.311-3.523,4.619
							c-1.509,1.308-3.292,2.313-5.146,2.974c-3.717,1.328-7.583,1.731-11.125,1.825c4.19-0.106,8.573-0.501,12.702-2.354
							c2.044-0.935,3.958-2.353,5.385-4.176c1.441-1.815,2.376-3.945,2.974-6.076c1.166-4.293,1.303-8.592,1.411-12.747
							c0.084-4.165,0.05-8.231,0.15-12.188c0.238,1.596,0.447,3.502,0.497,5.74c-0.002,5.385,0.168,10.766-0.698,16.284
							c-0.09-0.014-0.265-0.042-0.353-0.056c-0.273,1.941-0.714,3.894-1.499,5.775c-0.78,1.875-1.949,3.663-3.464,5.084
							c-1.509,1.431-3.308,2.461-5.138,3.184c-0.913,0.397-1.853,0.629-2.782,0.908c-0.937,0.19-1.872,0.439-2.809,0.548
							l-1.404,0.202l-1.401,0.125c-0.936,0.103-1.864,0.112-2.795,0.155c-0.933,0.054-1.855,0.012-2.786,0.025
							c-0.465,0.007-0.928-0.007-1.39-0.026l-1.493-0.053c-1.517-0.054-3.051-0.177-4.593-0.265l-1.161-0.07l-0.583-0.035
							l-0.146-0.009c-0.052-0.001-0.115,0.002-0.056-0.051l0.165-0.235c0.44-0.628,0.882-1.258,1.325-1.891
							c0.84-1.208,1.687-2.424,2.543-3.657c0.515-0.76,1.036-1.529,1.567-2.313c-0.349,0.404-0.225,0.105-0.208-0.018l0.061-0.086
							l-0.061,0.086c0.016-0.111-0.051-0.084-0.593,0.672c0.542-0.756,0.609-0.783,0.593-0.672
							c-1.449,2.048-2.886,4.079-4.313,6.095l-1.419,2.005l-0.177,0.25l-0.042,0.061l0.077,0.005l0.153,0.01l0.614,0.039
							l1.225,0.079c1.629,0.095,3.261,0.229,4.87,0.29l1.551,0.056c0.457,0.015,0.913,0.035,1.373,0.026
							c0.919-0.013,1.832,0.014,2.753-0.033c1.839-0.075,3.684-0.188,5.539-0.494c1.852-0.262,3.716-0.723,5.545-1.409
							c1.828-0.674,3.631-1.669,5.174-3.047c1.551-1.364,2.794-3.094,3.657-4.934c0.872-1.843,1.407-3.774,1.776-5.695
							c-0.289,1.493-0.64,2.998-1.227,4.471c-0.252,0.743-0.638,1.458-0.983,2.176c-0.423,0.693-0.816,1.399-1.341,2.033
							c-0.47,0.669-1.072,1.235-1.64,1.819c-0.625,0.521-1.234,1.07-1.923,1.486c-1.333,0.917-2.79,1.539-4.24,2.064
							c-2.925,0.982-5.887,1.39-8.801,1.586l-2.184,0.102l-2.173,0.015c-0.726,0.01-1.441-0.035-2.163-0.05l-1.733-0.075
							l-1.978-0.121l-3.968-0.253c-0.067-0.013-0.201,0.006-0.213-0.033l0.143-0.202l0.287-0.405l0.574-0.81l1.149-1.622
							c1.159-1.633,2.319-3.269,3.481-4.907c1.642-2.307,3.288-4.621,4.942-6.946c3.314-4.646,6.658-9.334,10.051-14.093
							c0.579-0.81,1.74-2.432,2.319-3.243c2.54-3.086,4.934-6.278,7.252-9.519c-0.213,1.071,2.839-1.648-1.948,4.735
							c0.073,0.052,0.22,0.157,0.292,0.209c5.007-6.226,7.772-7.925,3.424-1.229C32.725,75.458,25.472,84.978,19.239,94
							c-1.939,2.769-3.876,5.534-5.804,8.287c0.017-0.002-0.017-0.003,0.008,0.014l1.213,0.053c0.486,0.028,0.969,0.038,1.45,0.038
							c0.964,0.008,1.932,0.037,2.884-0.005c2.629-0.053,5.306-0.313,7.801-1.02l0.932-0.274c0.303-0.104,0.593-0.23,0.892-0.344
							c0.611-0.207,1.145-0.526,1.711-0.801c1.062-0.637,2.062-1.36,2.866-2.278c0.798-0.921,1.477-1.96,1.996-3.12
							c0.493-1.174,0.919-2.404,1.186-3.71c0.593-2.586,0.795-5.325,0.959-8.009c0.203-3.911-0.301-10.888-0.052-12.896
							c0.103-1.438,0.293-1.498,0.511-1.282c0.049,3.276,0.098,6.544,0.147,9.802c0.013,3.242-0.009,6.473-0.386,9.603
							c-0.466,3.808-1.503,7.626-4.014,10.231c-2.481,2.613-6.154,3.869-9.904,4.335c3.67-0.421,7.341-1.625,9.862-4.227
							c2.548-2.595,3.61-6.458,4.056-10.339c0.396-3.121,0.447-6.328,0.464-9.536c-0.016-3.218-0.033-6.439-0.05-9.667
							c0.188,0.233,0.384,0.457,0.554,0.06c0,0-0.027-1.994-0.04-2.991c0.436-3.996,1.071-2.983,1.525-1.007
							C40.104,65.437,40.21,66.021,40.319,66.622z"/>
					</g>
				</g>
			</g>
			<g>
				<g>
					<g>
						<path fill="#292D73" d="M41.693,60.836c0.479-0.095,0.958-0.19,1.429-0.284c4.376-0.917,8.725-2.028,13.288-2.989
							c2.286-0.467,4.631-0.891,7.083-1.115c2.444-0.217,5.032-0.25,7.651,0.384c1.821,0.441,3.673,1.23,5.282,2.418
							c1.609,1.183,2.981,2.701,4.035,4.363c2.115,3.333,3.361,7.015,4.233,10.449c-1.027-4.064-2.379-8.251-5.096-11.871
							c-1.362-1.787-3.168-3.341-5.261-4.332c-2.088-1.005-4.372-1.448-6.582-1.561c-4.444-0.19-8.668,0.624-12.744,1.435
							c-4.08,0.836-8.039,1.766-11.921,2.541c1.504-0.584,3.317-1.209,5.489-1.751c5.253-1.185,10.463-2.538,16.037-2.909
							c0.006,0.09,0.017,0.268,0.023,0.356c1.954-0.162,3.956-0.162,5.963,0.188c2.001,0.347,4.003,1.094,5.723,2.258
							c1.729,1.157,3.129,2.684,4.238,4.31c0.588,0.803,1.022,1.668,1.499,2.514c0.393,0.872,0.842,1.729,1.154,2.619l0.506,1.325
							l0.43,1.339c0.307,0.89,0.52,1.793,0.768,2.692c0.259,0.898,0.421,1.808,0.639,2.712c0.109,0.452,0.197,0.907,0.28,1.362
							l0.277,1.468c0.282,1.491,0.5,3.015,0.754,4.538l0.187,1.147l0.094,0.576l0.024,0.145c0.01,0.05,0.028,0.112-0.037,0.067
							l-0.266-0.109c-0.709-0.291-1.421-0.583-2.136-0.876c-1.363-0.553-2.737-1.11-4.128-1.674
							c-0.855-0.335-1.72-0.673-2.601-1.019c0.471,0.25,0.152,0.196,0.028,0.207l-0.098-0.041l0.098,0.041
							c-0.111,0.009-0.07,0.069,0.787,0.43c-0.857-0.361-0.898-0.421-0.787-0.43c2.318,0.962,4.615,1.915,6.896,2.862l2.269,0.943
							l0.283,0.118c0.022,0.008,0.049,0.022,0.068,0.026l-0.012-0.076l-0.024-0.152l-0.097-0.607l-0.194-1.212
							c-0.266-1.61-0.495-3.231-0.792-4.814l-0.287-1.525c-0.087-0.449-0.167-0.898-0.278-1.345c-0.215-0.894-0.39-1.79-0.639-2.678
							c-0.479-1.778-0.996-3.552-1.703-5.293c-0.664-1.748-1.525-3.465-2.597-5.098c-1.06-1.634-2.429-3.174-4.112-4.375
							c-1.672-1.213-3.634-2.043-5.619-2.479c-1.99-0.444-3.991-0.54-5.947-0.476c1.521-0.048,3.065-0.037,4.631,0.21
							c0.78,0.083,1.563,0.301,2.34,0.479c0.769,0.259,1.545,0.487,2.278,0.86c0.756,0.311,1.44,0.773,2.136,1.199
							c0.646,0.495,1.316,0.968,1.874,1.548c1.189,1.098,2.116,2.381,2.948,3.68c1.603,2.637,2.653,5.435,3.487,8.235l0.581,2.108
							l0.493,2.116c0.17,0.705,0.284,1.414,0.429,2.121l0.309,1.707l0.318,1.956l0.628,3.926c0.003,0.068,0.05,0.194,0.016,0.216
							l-0.229-0.095l-0.458-0.19l-0.917-0.381l-1.835-0.763c-1.849-0.771-3.7-1.542-5.554-2.314
							c-2.612-1.092-5.232-2.188-7.865-3.289c-5.263-2.208-10.572-4.436-15.962-6.697c-0.917-0.386-2.755-1.161-3.674-1.547
							c-3.57-1.797-7.211-3.428-10.884-4.975c1.092-0.028-2.234-2.406,5.047,0.856c0.035-0.083,0.105-0.249,0.14-0.332
							c-7.176-3.511-9.444-5.833-1.953-3.069c8.407,3.15,19.292,8.126,29.466,12.216c3.129,1.281,6.253,2.56,9.362,3.833
							c-0.006-0.016,0,0.018,0.011-0.011l-0.215-1.195c-0.08-0.48-0.176-0.954-0.283-1.423c-0.205-0.942-0.39-1.893-0.641-2.813
							c-0.631-2.553-1.475-5.105-2.715-7.384l-0.472-0.848c-0.168-0.273-0.356-0.527-0.532-0.794c-0.337-0.551-0.766-1-1.158-1.492
							c-0.856-0.896-1.781-1.711-2.854-2.293c-1.074-0.575-2.237-1.008-3.483-1.259c-1.254-0.222-2.547-0.366-3.88-0.338
							c-2.653-0.009-5.369,0.398-8.023,0.83c-3.859,0.665-10.553,2.694-12.567,2.894c-1.426,0.217-1.526,0.044-1.363-0.216
							c3.185-0.77,6.362-1.539,9.528-2.305c3.16-0.728,6.315-1.418,9.452-1.741c3.816-0.385,7.77-0.215,10.864,1.659
							c3.096,1.844,5.13,5.149,6.412,8.705c-1.219-3.487-3.204-6.802-6.296-8.688c-3.093-1.913-7.096-2.097-10.979-1.676
							c-3.132,0.301-6.271,0.959-9.403,1.649c-3.136,0.726-6.273,1.452-9.417,2.18c0.186-0.235,0.36-0.475-0.064-0.554
							c0,0-1.939,0.466-2.909,0.699c-3.993,0.456-3.145-0.387-1.319-1.266C40.584,61.308,41.131,61.075,41.693,60.836z"/>
					</g>
				</g>
			</g>
			<g>
				<g>
					<g>
						<path fill="#292D73" d="M10.299,45.527c0.242,0.156,0.485,0.313,0.721,0.465c4.455,2.79,9.084,5.265,14.092,8.259
							c1.74,1.072,3.639,2.156,5.55,3.22c2.416,1.336,4.836,2.675,7.091,3.923c-4.708-2.695-9.455-5.411-14.236-8.147
							c-4.252-2.463-8.436-4.953-12.345-7.487c0.924,0.272,1.988,0.67,3.13,1.306c2.708,1.604,5.392,3.166,8.063,4.699
							c-0.044,0.08-0.13,0.234-0.174,0.313c3.887,2.01,7.527,4.166,11.177,6.301c1.522,0.87,3.038,1.737,4.546,2.599
							c1.557,0.877,3.104,1.748,4.655,2.621l0.591,0.329l0.297,0.165c0.1,0.037-0.053,0.025-0.08,0.038l-0.166,0.021l-1.326,0.168
							c-0.873,0.116-1.752,0.232-2.647,0.351c-1.772,0.243-3.547,0.492-5.437,0.794c0.573-0.025,0.3,0.084,0.211,0.154
							c-0.04,0.005-0.077,0.01-0.113,0.015c0.037-0.005,0.074-0.01,0.113-0.015c-0.078,0.062,0.007,0.091,1.029-0.039
							c-1.022,0.13-1.107,0.101-1.029,0.039c1.949-0.25,3.876-0.498,5.79-0.744c0.953-0.119,1.903-0.238,2.85-0.356l1.42-0.176
							l0.354-0.044c-0.078-0.053-0.202-0.115-0.301-0.172l-0.627-0.349c-3.314-1.854-6.598-3.691-9.894-5.536
							c-3.62-2.053-7.223-4.134-10.935-6.301c2.917,1.652,5.788,3.277,8.649,4.896c2.001,1.115,3.998,2.228,5.996,3.341l4.072,2.262
							l2.043,1.134l1.024,0.568l0.256,0.142l0.128,0.071c0.014,0.01,0.058,0.026,0.048,0.032l-0.072,0.009l-0.575,0.071
							c-3.08,0.386-6.165,0.773-9.26,1.162c-2.071,0.278-4.148,0.557-6.234,0.837c-1.661,0.225-3.315,0.47-5.015,0.668
							c-0.847,0.103-1.696,0.207-2.547,0.311c-0.865,0.078-1.731,0.156-2.602,0.234c-0.296,0.026-0.742,0.066-1.187,0.105
							c-0.454,0.017-0.908,0.034-1.21,0.045c-1.218-0.1-2.413-0.099-3.648-0.25c-0.641-0.05-1.245-0.097-1.835-0.144
							c-0.612-0.049-1.236-0.195-1.854-0.282c0.343-0.173-0.063-0.58,0.059-0.822c0.059-0.122,0.245-0.203,0.706-0.196
							c0.23,0.003,0.53,0.029,0.918,0.083c0.39,0.013,0.869,0.038,1.459,0.087c0.005-0.09,0.014-0.27,0.019-0.36
							c-0.581-0.091-1.117-0.154-1.589-0.294c-0.47-0.155-0.881-0.31-1.23-0.46c-0.697-0.301-1.139-0.584-1.298-0.82
							c-0.325-0.485,0.485-0.749,2.594-0.598c4.842,0.19,11.75-0.408,18.078-1.435c1.053-0.162,2.106-0.324,3.152-0.484
							c0.013-0.02-0.002-0.032-0.012-0.037c-0.051-0.018,0.102,0.044,0.157-0.029c0.02-0.027-0.001-0.071-0.047-0.125
							c-0.02-0.015,0.021,0.004-0.051-0.039L31.5,61.47l-0.531-0.314l-1.07-0.628c-1.444-0.838-2.887-1.675-4.335-2.516
							c-2.902-1.681-5.799-3.371-8.514-5.089c-1.995-1.214-5.693-2.964-6.582-3.768c-0.669-0.521-0.605-0.704-0.389-0.829
							c3.34,1.891,6.654,3.768,9.953,5.635c4.002,2.344,8,4.699,11.961,7.109c-3.84-2.42-7.86-4.769-11.961-7.109
							c-3.25-1.906-6.486-3.805-9.764-5.727c0.21-0.094,0.419-0.196,0.304-0.464c0,0-1.019-0.567-1.528-0.851
							c-1.82-1.529-1.003-1.795,0.233-1.622C9.591,45.369,9.943,45.447,10.299,45.527z"/>
					</g>
				</g>
			</g>
		</g>
		<g>
			<g>
				<g>
					<path fill="#3C46A5" d="M41.75,91.581c0.02,0.279,0.04,0.56,0.059,0.831c0.434,5.087,1.225,10.125,1.826,15.761
						c0.367,3.953,1.08,8.429,1.625,12.355c-1.129-9.331-2.55-19.105-3.175-28.135c0.336,0.875,0.654,1.932,0.829,3.19
						c0.337,3.038,0.694,6.033,1.066,9.001c-0.09,0.013-0.266,0.037-0.354,0.049c1.437,8.379,1.814,16.334,3.429,24.688
						c0.006-0.306,0.103-0.139,0.169-0.084l0.009,0.06l-0.009-0.06c0.059,0.049,0.093,0.009,0.02-0.514
						c0.073,0.523,0.039,0.563-0.02,0.514c-1.237-8.268-2.226-16.021-3.202-24.314c1.616,12.862,3.509,25.216,5.337,38.376
						c0.078,0.56,0.234,1.683,0.312,2.244c0.044,2.282,0.267,4.54,0.578,6.782c-0.523-0.498-1.103,1.87-1.548-2.645
						c-0.089,0.013-0.268,0.037-0.356,0.05c0.178,4.551-0.836,6.409-1.816,1.968c-1.058-5-1.637-11.783-2.672-17.929
						c-0.713-4.478-1.426-8.954-1.871-13.466c-0.59-6.209-1.614-12.93-2.115-19.15c-0.223-2.258-1.036-6.148-0.924-7.309
						c0.016-0.824,0.202-0.882,0.43-0.788c0.486,3.696,0.968,7.363,1.448,11.015c0.52,4.476,1.029,8.953,1.471,13.436
						c-0.361-4.395-0.888-8.886-1.471-13.436c-0.419-3.635-0.837-7.254-1.261-10.923c0.2,0.107,0.408,0.208,0.553-0.037
						c0,0-0.156-1.122-0.234-1.683c0.134-2.307,0.836-1.832,1.438-0.773C41.453,90.94,41.601,91.259,41.75,91.581z"/>
				</g>
			</g>
		</g>
		<g>
			<g>
				<g>
					<path fill="#5064D8" d="M48.212,155.327c-0.021-0.256-0.042-0.513-0.063-0.761c-0.423-4.662-1.024-9.302-1.554-14.474
						c-0.344-3.624-0.883-7.748-1.316-11.36c0.944,8.572,2.054,17.568,2.731,25.832c-0.206-0.819-0.409-1.803-0.547-2.96
						c-0.309-2.84-0.606-5.576-0.899-8.268c0.045-0.005,0.133-0.016,0.178-0.021c-1.063-7.726-1.571-14.996-2.723-22.711
						c0.009,0.278-0.047,0.119-0.083,0.066l-0.007-0.055l0.007,0.055c-0.031-0.049-0.047-0.015,0.011,0.467
						c-0.058-0.481-0.042-0.516-0.011-0.467c0.957,7.611,1.768,14.738,2.593,22.354c-1.332-11.82-2.785-23.196-4.236-35.302
						c-0.062-0.515-0.186-1.548-0.248-2.064c-0.113-2.081-0.316-4.151-0.563-6.214c0.285,0.488,0.484-1.63,0.89,2.511
						c0.044-0.005,0.134-0.016,0.179-0.021c-0.272-4.157,0.168-5.78,0.842-1.672c0.736,4.623,1.299,10.839,2.069,16.504
						c0.54,4.125,1.08,8.249,1.485,12.387c0.546,5.694,1.334,11.882,1.835,17.58c0.203,2.071,0.771,5.668,0.76,6.717
						c0.024,0.749-0.067,0.79-0.187,0.689c-0.394-3.399-0.784-6.768-1.173-10.127c-0.419-4.032-0.838-8.067-1.281-12.333
						c0.358,4.026,0.804,8.151,1.281,12.333c0.357,3.337,0.713,6.658,1.075,10.031c-0.105-0.111-0.215-0.217-0.279-0.003
						c0,0,0.124,1.032,0.186,1.548c0.024,2.092-0.351,1.612-0.697,0.608C48.389,155.931,48.301,155.63,48.212,155.327z"/>
				</g>
			</g>
		</g>
		<g>
			<g>
				<g>
					<path fill="#C2CBF2" d="M44.658,113.265c0.025,0.216,0.051,0.434,0.075,0.643c0.596,4.535,1.017,7.735,1.608,12.234
						c0.379,3.062,0.887,6.551,1.311,9.605c-0.964-7.247-2.037-14.855-2.849-21.834c0.15,0.696,0.309,1.531,0.445,2.509
						c0.319,2.417,0.625,4.725,0.924,6.989c-0.022,0.003-0.066,0.009-0.088,0.013c0.976,6.538,1.646,12.674,2.667,19.207
						c-0.021-0.235,0.017-0.099,0.038-0.053l0.006,0.046l-0.006-0.046c0.019,0.042,0.025,0.014-0.032-0.394
						c0.057,0.407,0.05,0.435,0.032,0.394c-0.916-6.438-1.731-12.464-2.581-18.903c1.404,10.107,2.728,19.636,4.147,29.855
						c0.061,0.436,0.182,1.309,0.243,1.746c0.175,1.755,0.396,3.505,0.638,5.25c-0.172-0.42-0.152,1.356-0.593-2.143
						c-0.022,0.003-0.067,0.009-0.089,0.013c0.374,3.508,0.244,4.861-0.331,1.381c-0.635-3.916-1.273-9.167-1.984-13.961
						c-0.507-3.49-1.015-6.979-1.455-10.476c-0.667-5.143-1.201-9.262-1.927-14.859c-0.22-1.75-0.711-4.796-0.766-5.679
						c-0.055-0.632-0.011-0.663,0.055-0.575c0.392,2.875,0.78,5.719,1.168,8.563c0.438,3.385,0.876,6.774,1.349,10.424
						c-0.41-3.401-0.87-6.888-1.349-10.424c-0.37-2.819-0.738-5.618-1.113-8.479c0.06,0.097,0.121,0.19,0.141,0.011
						c0,0-0.122-0.873-0.182-1.309c-0.131-1.762,0.086-1.346,0.318-0.49C44.535,112.751,44.597,113.007,44.658,113.265z"/>
				</g>
			</g>
		</g>
	</g>
</g>
<g id="_x31__-_IF__x28_Function_diagram_x29_">
</g>
</svg>
