<?xml version="1.0" encoding="utf-8"?>
<!-- Generator: Adobe Illustrator 16.0.0, SVG Export Plug-In . SVG Version: 6.00 Build 0)  -->
<!DOCTYPE svg PUBLIC "-//W3C//DTD SVG 1.1//EN" "http://www.w3.org/Graphics/SVG/1.1/DTD/svg11.dtd">
<svg version="1.1" xmlns="http://www.w3.org/2000/svg" xmlns:xlink="http://www.w3.org/1999/xlink" x="0px" y="0px" width="130px"
	 height="180px" viewBox="0 0 130 180" enable-background="new 0 0 130 180" xml:space="preserve">
<g id="_x31_3_-_Problem_Solving__x28_Lightbulb_x29_">
</g>
<g id="_x31_2_-_Calculus__x26__Vectors__x28_Unit_Vectors_x29_">
</g>
<g id="_x31_1_-_Advanced_Functions">
</g>
<g id="_x39__-_Grades_7__x26__8">
</g>
<g id="_x38__-_CS__x28_Binary_Digits_x29_">
</g>
<g id="_x37__-_NS__x28_Blocks_x3B__Prime_factorization_of_12_x29_">
</g>
<g id="_x36__-_LR__x28_Intersection_of_lines_x29_">
	<linearGradient id="SVGID_1_" gradientUnits="userSpaceOnUse" x1="19.647" y1="57.4253" x2="118.9806" y2="130.0922">
		<stop  offset="0" style="stop-color:#FFFFFF"/>
		<stop  offset="0.0613" style="stop-color:#D9F9DE"/>
		<stop  offset="0.1366" style="stop-color:#B1F3BB"/>
		<stop  offset="0.2109" style="stop-color:#92EEA0"/>
		<stop  offset="0.2829" style="stop-color:#7CEB8D"/>
		<stop  offset="0.3516" style="stop-color:#6FE981"/>
		<stop  offset="0.4133" style="stop-color:#6AE87D"/>
		<stop  offset="0.5399" style="stop-color:#6DE880"/>
		<stop  offset="0.6354" style="stop-color:#77EA88"/>
		<stop  offset="0.7208" style="stop-color:#87EC96"/>
		<stop  offset="0.8003" style="stop-color:#9EF0AA"/>
		<stop  offset="0.8757" style="stop-color:#BBF5C4"/>
		<stop  offset="0.9469" style="stop-color:#DFFAE3"/>
		<stop  offset="1" style="stop-color:#FFFFFF"/>
	</linearGradient>
	<path opacity="0.75" fill="url(#SVGID_1_)" d="M114.368,154.148c0,6.899-5.526,12.492-12.344,12.492H27.719
		c-6.818,0-12.344-5.593-12.344-12.492V26.869c0-6.899,5.526-12.492,12.344-12.492h74.304c6.818,0,12.344,5.593,12.344,12.492
		V154.148z"/>
	<g>
		<g>
			<g>
				<g>
					<path fill="#5D5F85" d="M22.204,48.567c0.061,0.021,0.122-0.559,0.149,0.341c0.058,2.832-0.146,5.107-0.088,7.941l0.098,0.204
						c-0.046,2.189-0.094,4.478-0.143,6.808c0.024,4.292,0.047,8.563,0.07,12.82c0.036-0.111,0.069-0.164,0.082,0.26
						c0.026,1.769-0.008,4.219-0.019,6.759c0.006,0.375,0.011,0.75,0.017,1.119c0.021,0.289,0.056,0.363,0.077,0.41
						c-0.009,1.146-0.016,2.167-0.023,3.114c0.207,12.455,0.417,25.124,0.644,38.839c0.09,2.9,0.181,5.803,0.222,8.598
						c0.038,4.141-0.026,9.426-0.038,13.463c0.346-0.619,0.515,9.224,0.865,7.259c-0.007,2.69-0.019,6.732,0.079,6.94
						c0.293,0.625,0.632,2.697,0.809,9.845c0.042,2.798-0.082,7.094-0.023,8.08c0.094,1.553,0.207-3.626,0.301-2.073
						c0.106-20.791-0.021-40.812-0.019-61.746c-0.153-7.126-0.221-55.188-0.153-67.532l-0.004-1.122
						c0.019-6.734-0.007-14.913-0.139-20.613c-0.091-2.601-0.184-5.268-0.276-7.918c-0.062,1.22-0.12,2.356-0.17,3.358
						c0.007-2.694,0.015-5.387-0.047-6.422c-0.148-5.736-0.321-2.487-0.557-0.28c-0.103,1.587-0.261-0.559-0.366,1.926
						c0.005-1.791,0.007-2.689,0.013-4.488c-0.098-0.206,0.05,5.528-0.11,4.282c0.037-1.727-0.022-3.661-0.018-5.454
						c-0.133,0.621-0.05,6.214-0.181,5.938c-0.03-0.968,0.178-5.041,0.015-5.388c-0.033-0.068-0.038,1.727-0.041,2.625
						c-0.05-5.525-0.206-8.568-0.383-3.526c0.005-1.751,0.074-4.226,0.052-6.077L22.896,6.87c-0.011,0.921-0.031,2.52-0.042,3.37
						c0.003-1.049,0.006-2.102,0.009-3.152c-0.021,0.174-0.044,0.359-0.068,0.551c-0.013,0.791-0.025,1.578-0.039,2.392
						c0.002-0.696,0.004-1.394,0.006-2.094c-0.047,0.548-0.098,1.146-0.152,1.783c-0.105,2.487-0.26,4.869-0.264,6.214
						C22.299,26.808,22.251,37.716,22.204,48.567z"/>
				</g>
			</g>
		</g>
		<g>
			<g>
				<g>
					<path fill="#5D5F85" d="M19.487,10.217c0.045,0.041,0.119,0.047,0.097,0.116c-0.092,0.198-0.357,0.195-0.449,0.394l0.065,0.075
						c-0.13,0.088-0.293,0.198-0.436,0.294c-0.196,0.253-0.384,0.51-0.563,0.773c0.033,0.017,0.06,0.035,0.05,0.067
						c-0.065,0.117-0.209,0.234-0.339,0.372l-0.041,0.074c0.002,0.03,0.025,0.057,0.039,0.073c-0.058,0.063-0.114,0.115-0.167,0.162
						c-0.422,0.803-0.896,1.703-1.377,2.619c-0.07,0.223-0.141,0.446-0.244,0.631c-0.17,0.259-0.473,0.518-0.676,0.739
						c0.294,0.188-0.05,0.856,0.311,0.971c-0.135,0.147-0.338,0.37-0.274,0.445c0.194,0.225,0.353,0.562,0.144,1.081
						c-0.103,0.186-0.404,0.349-0.406,0.443c-0.003,0.149,0.332-0.072,0.329,0.077c1.081-1.11,1.946-2.328,2.955-3.514
						c0.226-0.503,2.485-3.273,3.131-3.929l0.051-0.066c0.338-0.37,0.711-0.851,0.885-1.259c0.063-0.201,0.116-0.416,0.17-0.627
						c-0.103,0.033-0.201,0.061-0.292,0.08c0.135-0.148,0.271-0.296,0.272-0.395c0.163-0.421-0.125-0.349-0.411-0.375
						c-0.155,0.023-0.172-0.201-0.372-0.128c0.09-0.098,0.135-0.147,0.226-0.246c-0.065-0.075-0.228,0.346-0.29,0.171
						c0.111-0.074,0.159-0.222,0.249-0.321c-0.131-0.05-0.337,0.32-0.423,0.22c0.023-0.075,0.378-0.171,0.271-0.296
						c-0.021-0.025-0.112,0.074-0.157,0.123c0.228-0.346,0.255-0.619-0.123-0.448c0.088-0.096,0.26-0.192,0.332-0.311L22.021,8.3
						c-0.049,0.049-0.151,0.117-0.194,0.164l0.158-0.173l-0.079-0.013c-0.053,0.031-0.103,0.065-0.145,0.11l0.105-0.115
						c-0.066-0.005-0.134-0.004-0.202,0.002c-0.2,0.073-0.432,0.108-0.5,0.182C20.584,9.025,20.018,9.609,19.487,10.217z"/>
				</g>
			</g>
		</g>
		<g>
			<g>
				<g>
					<path fill="#5D5F85" d="M23.242,12.453c0.051-0.033,0.076-0.104,0.139-0.061c0.173,0.154,0.106,0.417,0.28,0.572l0.09-0.041
						c0.056,0.158,0.124,0.354,0.184,0.527c0.203,0.275,0.411,0.543,0.627,0.805c0.025-0.027,0.05-0.049,0.08-0.029
						c0.1,0.102,0.18,0.282,0.285,0.455l0.063,0.064c0.031,0.007,0.063-0.007,0.082-0.016c0.048,0.078,0.085,0.15,0.119,0.218
						c0.693,0.675,1.468,1.428,2.258,2.197c0.203,0.14,0.407,0.281,0.565,0.442c0.215,0.251,0.396,0.635,0.566,0.907
						c0.259-0.234,0.836,0.319,1.039-0.006c0.113,0.182,0.283,0.454,0.374,0.413c0.271-0.123,0.644-0.176,1.107,0.196
						c0.158,0.161,0.247,0.513,0.34,0.544c0.147,0.049,0.01-0.354,0.157-0.305c-0.835-1.428-1.829-2.674-2.756-4.054
						c-0.443-0.383-2.632-3.509-3.124-4.359l-0.054-0.071c-0.283-0.454-0.668-0.978-1.03-1.279
						c-0.184-0.126-0.384-0.246-0.581-0.367c0.007,0.113,0.011,0.22,0.008,0.316c-0.113-0.182-0.227-0.363-0.324-0.396
						c-0.377-0.295-0.376,0.016-0.474,0.293c-0.015,0.162-0.241,0.109-0.218,0.332c-0.075-0.121-0.113-0.181-0.189-0.303
						c-0.09,0.042,0.287,0.336,0.099,0.344c-0.045-0.135-0.181-0.229-0.256-0.349c-0.083,0.115,0.234,0.437,0.114,0.492
						c-0.068-0.047-0.076-0.431-0.227-0.363c-0.03,0.014,0.046,0.134,0.083,0.195c-0.287-0.335-0.551-0.449-0.475-0.018
						c-0.074-0.118-0.126-0.319-0.227-0.429l-0.001,0.002c0.037,0.064,0.079,0.188,0.115,0.245l-0.133-0.212l-0.032,0.074
						c0.018,0.063,0.04,0.124,0.074,0.179l-0.088-0.141c-0.021,0.064-0.037,0.132-0.047,0.203c0.023,0.222,0,0.465,0.057,0.556
						C22.331,10.984,22.77,11.732,23.242,12.453z"/>
				</g>
			</g>
		</g>
	</g>
	<g>
		<g>
			<g>
				<g>
					<path fill="#5D5F85" d="M31.604,156.281c0.014-0.061-0.391-0.122,0.239-0.149c1.983-0.058,3.577,0.146,5.562,0.088l0.143-0.098
						c1.53,0.046,3.138,0.094,4.768,0.143c3.005-0.024,5.995-0.047,8.979-0.07c-0.078-0.036-0.114-0.069,0.182-0.082
						c1.239-0.026,2.955,0.008,4.734,0.019c0.263-0.006,0.525-0.011,0.784-0.017c0.202-0.021,0.254-0.056,0.287-0.077
						c0.802,0.009,1.516,0.016,2.181,0.023c8.717-0.207,17.598-0.417,27.202-0.644c2.031-0.09,4.064-0.18,6.022-0.222
						c2.9-0.038,6.601,0.026,9.429,0.038c-0.434-0.346,6.459-0.515,5.084-0.865c1.884,0.007,4.715,0.019,4.861-0.079
						c0.438-0.293,1.889-0.632,6.895-0.809c1.959-0.042,4.968,0.082,5.659,0.023c1.088-0.094-2.54-0.207-1.452-0.301
						c-14.561-0.106-28.583,0.021-43.244,0.019c-4.991,0.153-38.652,0.221-47.297,0.153l-0.785,0.004
						c-4.717-0.019-10.445,0.007-14.437,0.139c-1.813,0.09-3.686,0.184-5.546,0.276c0.848,0.062,1.643,0.119,2.352,0.17
						c-1.887-0.007-3.773-0.015-4.498,0.047c-4.018,0.148-1.742,0.321-0.196,0.557c1.112,0.103-0.391,0.261,1.349,0.366
						c-1.254-0.005-1.883-0.007-3.143-0.013c-0.144,0.098,3.872-0.05,2.999,0.11c-1.209-0.037-2.564,0.022-3.82,0.018
						c0.435,0.133,4.353,0.05,4.159,0.181c-0.678,0.03-3.53-0.178-3.773-0.015c-0.048,0.033,1.209,0.038,1.838,0.041
						c-3.869,0.05-6.001,0.205-2.469,0.383c-1.226-0.005-2.959-0.074-4.256-0.052l0.01,0.002c0.644,0.012,1.767,0.031,2.36,0.042
						l-2.208-0.009c0.124,0.021,0.253,0.044,0.385,0.068c0.55,0.02,1.102,0.036,1.676,0.039l-1.466-0.006
						c0.366,0.053,0.787,0.104,1.249,0.152c1.742,0.105,3.41,0.26,4.353,0.264C16.358,156.215,24.001,156.27,31.604,156.281z"/>
				</g>
			</g>
		</g>
		<g>
			<g>
				<g>
					<path fill="#5D5F85" d="M123.241,150.522c-0.041,0.045-0.047,0.119-0.116,0.097c-0.198-0.092-0.195-0.357-0.394-0.449
						l-0.075,0.065c-0.088-0.13-0.198-0.293-0.294-0.436c-0.253-0.196-0.51-0.384-0.773-0.563c-0.017,0.033-0.035,0.06-0.067,0.05
						c-0.117-0.065-0.234-0.209-0.372-0.339l-0.074-0.041c-0.03,0.002-0.057,0.025-0.073,0.039
						c-0.063-0.058-0.115-0.114-0.162-0.167c-0.803-0.422-1.703-0.896-2.619-1.377c-0.223-0.07-0.446-0.141-0.631-0.244
						c-0.259-0.17-0.518-0.473-0.739-0.676c-0.188,0.294-0.856-0.05-0.971,0.311c-0.147-0.135-0.37-0.338-0.445-0.274
						c-0.225,0.194-0.562,0.353-1.081,0.144c-0.186-0.103-0.349-0.404-0.443-0.406c-0.149-0.003,0.072,0.332-0.077,0.329
						c1.11,1.081,2.328,1.946,3.514,2.955c0.503,0.226,3.273,2.485,3.929,3.131l0.066,0.051c0.37,0.338,0.851,0.711,1.259,0.885
						c0.201,0.063,0.416,0.116,0.627,0.17c-0.033-0.103-0.061-0.201-0.08-0.292c0.148,0.135,0.296,0.271,0.395,0.272
						c0.421,0.163,0.349-0.125,0.375-0.411c-0.023-0.155,0.201-0.172,0.128-0.372c0.098,0.09,0.147,0.135,0.246,0.226
						c0.075-0.065-0.346-0.228-0.171-0.29c0.074,0.111,0.222,0.159,0.321,0.249c0.05-0.131-0.32-0.337-0.22-0.423
						c0.075,0.023,0.171,0.378,0.296,0.271c0.025-0.021-0.074-0.112-0.123-0.157c0.346,0.228,0.619,0.255,0.448-0.123
						c0.096,0.088,0.192,0.26,0.311,0.332l0.001-0.002c-0.049-0.049-0.117-0.151-0.164-0.194l0.173,0.158l0.013-0.079
						c-0.031-0.053-0.065-0.103-0.11-0.145l0.115,0.105c0.005-0.066,0.004-0.134-0.002-0.202c-0.073-0.2-0.108-0.432-0.182-0.5
						C124.433,151.619,123.85,151.052,123.241,150.522z"/>
				</g>
			</g>
		</g>
		<g>
			<g>
				<g>
					<path fill="#5D5F85" d="M121.005,154.277c0.033,0.051,0.104,0.076,0.061,0.139c-0.154,0.173-0.417,0.106-0.572,0.28l0.041,0.09
						c-0.158,0.055-0.354,0.124-0.527,0.184c-0.275,0.203-0.543,0.411-0.805,0.627c0.027,0.025,0.049,0.05,0.029,0.08
						c-0.102,0.1-0.282,0.18-0.455,0.285l-0.064,0.063c-0.007,0.031,0.007,0.063,0.016,0.082c-0.078,0.048-0.15,0.085-0.218,0.119
						c-0.675,0.693-1.428,1.468-2.197,2.258c-0.14,0.203-0.281,0.407-0.442,0.565c-0.251,0.215-0.635,0.396-0.907,0.566
						c0.234,0.259-0.319,0.836,0.006,1.039c-0.182,0.113-0.454,0.283-0.413,0.374c0.123,0.271,0.176,0.644-0.196,1.107
						c-0.161,0.158-0.513,0.247-0.544,0.34c-0.049,0.147,0.354,0.01,0.305,0.157c1.428-0.835,2.674-1.829,4.054-2.756
						c0.383-0.443,3.509-2.632,4.359-3.124l0.071-0.054c0.454-0.283,0.978-0.668,1.279-1.03c0.126-0.184,0.246-0.384,0.367-0.581
						c-0.113,0.007-0.22,0.011-0.316,0.008c0.182-0.113,0.363-0.227,0.396-0.324c0.295-0.377-0.016-0.376-0.293-0.474
						c-0.162-0.015-0.109-0.241-0.332-0.218c0.121-0.075,0.181-0.113,0.303-0.189c-0.042-0.09-0.336,0.287-0.344,0.099
						c0.135-0.045,0.229-0.181,0.349-0.256c-0.115-0.083-0.437,0.234-0.492,0.114c0.047-0.068,0.431-0.076,0.363-0.227
						c-0.014-0.03-0.134,0.046-0.195,0.083c0.335-0.287,0.449-0.551,0.018-0.475c0.118-0.074,0.319-0.126,0.429-0.227L124.137,153
						c-0.064,0.037-0.188,0.079-0.245,0.115l0.212-0.133l-0.074-0.032c-0.063,0.018-0.124,0.04-0.179,0.074l0.141-0.088
						c-0.064-0.021-0.132-0.037-0.203-0.047c-0.222,0.023-0.465,0-0.556,0.057C122.475,153.365,121.726,153.804,121.005,154.277z"/>
				</g>
			</g>
		</g>
	</g>
	<g>
		<g>
			<g>
				<path fill="#292D73" d="M100.605,35.84c-0.411,0.256-0.822,0.512-1.226,0.763c-7.459,4.768-14.606,9.977-22.79,15.422
					c-5.775,3.745-12.119,8.387-17.737,12.352c13.461-9.194,27.403-19.149,40.738-27.415c-1.109,1.173-2.509,2.472-4.308,3.742
					c-4.403,2.953-8.728,5.897-13.001,8.839c-0.078-0.111-0.232-0.329-0.309-0.438c-11.808,8.829-23.67,15.878-35.322,24.927
					c0.469-0.243,0.279,0.026,0.24,0.16l-0.085,0.061l0.085-0.061c-0.036,0.119,0.047,0.133,0.797-0.396
					c-0.75,0.529-0.833,0.515-0.797,0.396c11.771-8.467,22.922-16.178,34.903-24.312C63.279,62.635,45.72,75.348,26.892,88.635
					c-0.801,0.566-2.408,1.699-3.21,2.266c-3.445,1.936-6.735,4.092-9.944,6.356c0.412-1.117-3.578,0.046,3.001-4.267
					c-0.078-0.11-0.233-0.331-0.311-0.441c-6.813,3.981-10.312,4.137-4.199-0.837c6.913-5.539,16.858-11.896,25.531-18.348
					c6.346-4.644,12.69-9.286,19.266-13.596c9.063-5.9,18.62-12.81,27.76-18.599c3.29-2.157,8.677-6.454,10.517-7.256
					c1.265-0.655,1.477-0.453,1.485-0.066c-5.303,3.693-10.582,7.368-15.813,11.011c-6.47,4.381-12.95,8.749-19.484,13.031
					c6.453-4.1,12.942-8.504,19.484-13.031c5.262-3.558,10.518-7.113,15.797-10.683c-0.031,0.359-0.047,0.723,0.423,0.717
					c0,0,1.605-1.132,2.407-1.699c3.602-1.716,3.342-0.375,2.128,1.307C101.387,34.909,101.001,35.368,100.605,35.84z"/>
			</g>
		</g>
	</g>
	<g>
		<g>
			<g>
				<path fill="#292D73" d="M120.421,118.912c-0.294-0.455-0.589-0.91-0.878-1.357c-5.471-8.261-11.379-16.205-17.604-25.277
					c-4.292-6.398-9.555-13.451-14.064-19.689c10.487,14.934,21.797,30.422,31.31,45.179c-1.296-1.25-2.743-2.817-4.188-4.815
					c-3.374-4.882-6.732-9.68-10.085-14.422c0.11-0.08,0.326-0.236,0.435-0.314c-9.993-13.134-18.139-26.249-28.35-39.225
					c0.285,0.518-0.008,0.3-0.15,0.252l-0.069-0.094l0.069,0.094c-0.126-0.044-0.135,0.045,0.466,0.877
					c-0.601-0.832-0.592-0.921-0.466-0.877c9.615,13.078,18.399,25.454,27.682,38.745C89.99,77.441,75.563,57.929,60.451,37.021
					c-0.643-0.89-1.932-2.673-2.577-3.564c-2.249-3.803-4.718-7.45-7.293-11.013c1.19,0.495-0.292-3.862,4.644,3.429
					c0.109-0.079,0.328-0.237,0.438-0.316c-4.608-7.528-5.01-11.311,0.583-4.494c6.235,7.706,13.53,18.72,20.834,28.366
					c5.265,7.054,10.529,14.107,15.463,21.394c6.759,10.043,14.601,20.662,21.249,30.782c2.469,3.646,7.308,9.65,8.269,11.671
					c0.769,1.395,0.572,1.613,0.171,1.605c-4.205-5.887-8.391-11.747-12.538-17.554c-5-7.176-9.987-14.363-14.89-21.604
					c4.707,7.145,9.733,14.344,14.89,21.604c4.063,5.836,8.122,11.669,12.195,17.521c-0.375-0.05-0.755-0.084-0.717,0.424
					c0,0,1.288,1.782,1.932,2.673c2.031,3.963,0.62,3.623-1.214,2.238C121.444,119.797,120.94,119.361,120.421,118.912z"/>
			</g>
		</g>
	</g>
	<g>
		
			<rect x="78.326" y="45.676" transform="matrix(0.8318 -0.555 0.555 0.8318 -14.7441 55.9506)" fill="#F2F2F2" width="13.259" height="13.258"/>
		<g>
			<g>
				<path fill="#292D73" d="M92.587,53.247c-0.12-0.196-0.239-0.393-0.355-0.582c-0.94-1.512-1.907-3.006-2.901-4.525
					c-0.882-1.351-1.766-2.704-2.714-4.156c-0.382,0.243-0.775,0.492-1.186,0.752c-2.736,1.718-5.854,3.852-8.482,5.605
					c3.205-2.098,6.402-4.19,9.661-6.324c0.864,1.348,1.735,2.707,2.643,4.124c0.981,1.545,1.938,3.077,2.855,4.587
					c-0.503-0.563-1.07-1.259-1.647-2.125c-1.35-2.079-2.643-4.071-3.912-6.026c0.032-0.034,0.094-0.101,0.125-0.135l-0.118-0.152
					c0.107-0.053-1.24,0.851-2.077,1.405c-0.917,0.601-1.838,1.205-2.771,1.816c-1.636,1.061-3.289,2.133-4.89,3.172
					c0.439,0.655,0.874,1.301,1.325,1.974c0.565,0.81,1.153,1.652,1.823,2.613c-0.118-0.219-0.005-0.118,0.047-0.091l0.027,0.041
					l-0.027-0.041c0.047,0.024,0.047-0.01-0.193-0.371c0.24,0.36,0.24,0.395,0.193,0.371c-1.021-1.52-2.011-2.994-2.994-4.455
					c1.581-1.043,3.149-2.079,4.743-3.13c0.916-0.6,1.838-1.203,2.771-1.814c0.464-0.302,0.931-0.606,1.4-0.913
					c0.652-0.427,0.504-0.321,0.578-0.361l0.024,0.049l-0.025-0.045c-3.186,2.113-6.277,4.165-9.394,6.233
					c2.075,3.09,4.159,6.194,6.282,9.356c1.006-0.673,2.02-1.352,3.042-2.036c0.385-0.257,1.158-0.772,1.544-1.03
					c1.62-0.918,3.19-1.912,4.733-2.942c-0.261,0.444,1.534-0.212-1.606,1.775c0.025,0.038,0.075,0.112,0.1,0.15
					c3.215-1.875,4.723-2.124,1.733,0.088c-1.288,0.941-2.773,1.952-4.351,3.003c-1.852,1.228-3.815,2.53-5.761,3.819
					c-0.535-0.798-1.066-1.592-1.603-2.393c-0.341-0.498-0.683-0.997-1.035-1.512c-0.907-1.33-1.811-2.656-2.697-3.956
					c-1.078-1.626-2.127-3.208-3.245-4.894c0.72-0.469,1.455-0.947,2.222-1.446c1.696-1.091,3.277-2.109,4.876-3.138
					c1.881-1.227,3.753-2.448,5.682-3.706c0.525,0.813,1.056,1.633,1.602,2.477c0.347,0.555,0.702,1.123,1.075,1.719
					c0.994,1.57,2.91,4.198,3.313,5.046c0.316,0.591,0.251,0.666,0.106,0.64c-1.686-2.55-3.354-5.073-5.02-7.595l-1.174-1.799
					c-1.461,0.945-2.929,1.895-4.421,2.86c-1.303,0.831-2.625,1.673-3.988,2.542c1.404-0.885,2.703-1.704,3.964-2.499
					c1.512-0.983,2.979-1.938,4.442-2.889l1.176,1.785c1.628,2.515,3.246,5.014,4.895,7.563c-0.137-0.04-0.276-0.075-0.248,0.127
					c0,0,0.515,0.772,0.773,1.158c0.844,1.67,0.324,1.458-0.378,0.812C92.98,53.65,92.785,53.449,92.587,53.247z"/>
			</g>
		</g>
	</g>
</g>
<g id="_x35__-_SS__x28_Pascal_x27_s_triangle_x29_">
</g>
<g id="_x34__-_MT__x28_Cone_and_Sphere_x29_">
</g>
<g id="_x33__-_QR__x28_Suspension_Bridge_x29_">
</g>
<g id="_x32__-_ET__x28_Sine_and_exponential_x29_">
</g>
<g id="_x31__-_IF__x28_Function_diagram_x29_">
</g>
</svg>
