<?xml version="1.0" encoding="utf-8"?>
<!-- Generator: Adobe Illustrator 16.0.0, SVG Export Plug-In . SVG Version: 6.00 Build 0)  -->
<!DOCTYPE svg PUBLIC "-//W3C//DTD SVG 1.1//EN" "http://www.w3.org/Graphics/SVG/1.1/DTD/svg11.dtd">
<svg version="1.1" xmlns="http://www.w3.org/2000/svg" xmlns:xlink="http://www.w3.org/1999/xlink" x="0px" y="0px" width="130px"
	 height="180px" viewBox="0 0 130 180" enable-background="new 0 0 130 180" xml:space="preserve">
<g id="_x31_3_-_Problem_Solving__x28_Lightbulb_x29_">
</g>
<g id="_x31_2_-_Calculus__x26__Vectors__x28_Unit_Vectors_x29_">
</g>
<g id="_x31_1_-_Advanced_Functions">
</g>
<g id="_x39__-_Grades_7__x26__8">
</g>
<g id="_x38__-_CS__x28_Binary_Digits_x29_">
</g>
<g id="_x37__-_NS__x28_Blocks_x3B__Prime_factorization_of_12_x29_">
	<g>
		<linearGradient id="SVGID_1_" gradientUnits="userSpaceOnUse" x1="9.9238" y1="46.8921" x2="87.2988" y2="46.8921">
			<stop  offset="0.4133" style="stop-color:#F18FFF"/>
			<stop  offset="0.5948" style="stop-color:#F7BCFF"/>
			<stop  offset="0.7689" style="stop-color:#FBE1FF"/>
			<stop  offset="0.9099" style="stop-color:#FEF7FF"/>
			<stop  offset="1" style="stop-color:#FFFFFF"/>
		</linearGradient>
		<path fill="url(#SVGID_1_)" stroke="#F2F2F2" stroke-width="0.05" stroke-miterlimit="10" d="M41.619,80.14l-20.145,3.345
			l-3.266-19.672l6.449-1.071l5.9-11.252L19.322,39.769l-6.133,1.018L9.924,21.115l25.959-4.311L48.09,32.076l6.879-18.441
			l20.092-3.336l3.266,19.672l-7.189,1.194l-5.1,10.192l12.074,12.509l5.92-0.983l3.268,19.672l-25.432,4.223l-12.723-15.45
			L41.619,80.14z"/>
		<g>
			<g>
				<path fill="none" d="M39.318,78.495L19.174,81.84l-3.266-19.673l6.451-1.071l5.9-11.252L17.021,38.123l-6.133,1.018
					L7.623,19.469l25.959-4.311l12.207,15.272l6.879-18.441L72.76,8.654l3.266,19.672l-7.189,1.194l-5.1,10.192l12.074,12.509
					l5.922-0.983l3.266,19.672l-25.43,4.224L46.844,59.682L39.318,78.495z"/>
				<g>
					<path fill="#292D73" d="M40.868,68.125c0.562-1.329,1.124-2.659,1.681-3.975c1.206-2.945,2.412-5.887,3.617-8.829
						C50.9,61.162,55.633,67,60.408,72.892c7.332-1.183,14.744-2.378,22.327-3.601c-0.832-5.198-1.678-10.489-2.544-15.899
						c-1.65,0.26-3.334,0.525-5.03,0.792c-1.31-1.377-2.653-2.789-4.005-4.209c-3.078-3.244-6.235-6.571-9.444-9.953
						c1.99-3.945,4.009-7.947,6.039-11.972c2.131-0.352,4.271-0.704,6.411-1.057c-0.924-5.523-1.849-11.053-2.752-16.452
						c-3.999,0.668-7.916,1.323-11.717,1.958c3.867-0.622,7.753-1.246,11.655-1.874c0.871,5.387,1.745,10.801,2.622,16.23
						c-2.111,0.343-4.226,0.686-6.341,1.029c-2.043,4.053-4.087,8.111-6.132,12.169c4.546,4.743,9.093,9.488,13.632,14.225l5-0.8
						c0.83,5.259,1.658,10.505,2.482,15.725c-7.423,1.146-14.797,2.283-22.1,3.41l-0.229-0.303l-0.11-0.147l-0.386-0.482
						l-1.575-1.966c-1.047-1.31-2.092-2.616-3.134-3.92c-3.024-3.759-6.034-7.5-9.029-11.224c-1.287,3.12-2.569,6.229-3.849,9.33
						c1.054-2.952,2.318-6.406,3.72-10.154c2.063,2.383,4.321,5.025,6.733,7.885c0.659,0.773,1.329,1.56,2.014,2.364
						c0.637,0.764,1.286,1.542,1.95,2.339c0.914,1.127,1.827,2.254,2.737,3.376l1.363,1.682l0.153,0.189l0.001,0.004l0.004,0.01
						l0.009,0.023c6.912-1.096,13.756-2.18,20.55-3.257l-0.02-0.209c-0.159-0.992-0.319-1.981-0.479-2.97
						c-0.335-2.071-0.669-4.136-1.003-6.198c0.135-0.022,0.397-0.066,0.529-0.088c-0.212-1.211-0.423-2.42-0.633-3.626l-0.205-1.088
						L78.95,54.31c-1.354,0.229-2.706,0.457-4.057,0.685c-4.796-4.968-9.553-9.896-14.29-14.804
						c2.186-4.334,4.364-8.655,6.538-12.967l4.878-0.79l1.129-0.166c-0.782-4.967-1.563-9.923-2.344-14.881
						c-5.477,0.879-10.956,1.758-16.457,2.642C51.755,21,49.152,27.997,46.528,35.052c-2.878-3.563-5.768-7.14-8.674-10.738
						c-1.03-1.261-2.063-2.525-3.1-3.792l-1.56-1.9l-0.346-0.418l-0.104-0.116l-0.201-0.223l-0.103,0.023
						c0.039,0.001,0.069,0.005,0.09,0.01c0.098,0.224-0.032,0.197-0.092,0.239l-0.026,0.028l-0.051,0.009l0.051-0.009
						c-0.035,0.041-0.047,0.075-0.021,0.094c0.007,0.031,0.022,0.069,0.05,0.117c0.015,0.022,0.031,0.048,0.051,0.079
						c0.113,0.143,0.243,0.308,0.393,0.496c-0.149-0.188-0.279-0.353-0.393-0.496c-0.02-0.03-0.036-0.057-0.051-0.079
						c-0.027-0.047-0.043-0.085-0.05-0.117c-0.026-0.02-0.015-0.053,0.021-0.094l0.017-0.003c4.811,5.995,9.572,11.93,14.233,17.74
						c2.691-7.222,5.361-14.389,8.006-21.484c5.296-0.871,10.566-1.737,15.828-2.603c0.767,4.733,1.533,9.46,2.302,14.202
						l-0.827,0.124c-1.672,0.273-3.346,0.546-5.023,0.82c-2.227,4.415-4.459,8.839-6.7,13.282
						c4.807,5.022,9.638,10.069,14.509,15.159c1.405-0.228,2.813-0.455,4.222-0.684l0.282-0.029l0.028,0.266l0.36,2.276
						l-0.367-2.274l-0.032-0.253l-0.27,0.035l-4.233,0.693c-4.877-5.072-9.739-10.129-14.592-15.176
						c2.243-4.47,4.483-8.934,6.721-13.394l5.775-0.952c-0.768-4.636-1.533-9.265-2.3-13.894c-5.176,0.862-10.35,1.725-15.528,2.587
						c-2.692,7.237-5.389,14.482-8.089,21.74c-4.784-5.973-9.58-11.96-14.39-17.963c-7.051,1.182-14.136,2.37-21.257,3.564
						c0.761,4.545,1.526,9.114,2.296,13.704c1.559-0.26,3.139-0.524,4.721-0.789c4.583,4.777,9.216,9.605,13.869,14.455
						c-1.132,2.158-2.283,4.355-3.438,6.555l-4.184,7.979l-4.758,0.79c-0.074-0.014-0.165-0.024-0.271-0.031
						c-0.008,0.273-0.146-0.267,0.19,2.011c0.235,1.65,0.471,3.295,0.705,4.937c0.433,3.013,1.161,7.695,1.066,7.326l0.731-0.093
						l3.187-0.509l6.445-1.056c-1.358,0.56,0.759,0.704,0.583,1.123c-0.088,0.209-0.749,0.487-2.705,0.919
						c-0.979,0.216-2.28,0.471-3.996,0.775c-0.86,0.147-1.82,0.311-2.896,0.495c-0.858,0.137-1.808,0.289-2.859,0.457
						c-0.061-0.398-0.126-0.826-0.193-1.27c-0.122,0.089-0.366,0.269-0.487,0.358c0.072,0.544,0.144,1.081,0.209,1.572
						c2.523-0.329,5.175-0.661,7.442-0.917c2.292-0.26,4.332-0.465,6.087-0.616c3.511-0.301,5.884-0.38,6.86-0.234
						c1.953,0.292-1.678,1.488-12.959,3.629c-1.145,0.212-2.303,0.426-3.479,0.644c-2.155,0.376-4.342,0.757-6.563,1.144
						c-0.705-4.069-1.432-8.256-2.176-12.548c-0.726-4.294-1.468-8.692-2.226-13.174c2.638-0.439,5.306-0.884,8.007-1.333
						c1.359-2.58,2.743-5.206,4.145-7.865c-2.812-2.949-5.663-5.94-8.526-8.944c-2.52,0.416-5.044,0.833-7.567,1.249
						c-1.448-8.634-2.896-17.27-4.325-25.792c2.786-0.476,5.56-0.949,8.321-1.42c7.532-1.288,15.064-2.575,22.593-3.863l7.328,9.116
						l2.457,3.059c0.002-0.001,0.001-0.005,0-0.006l0.001,0.006l1.405-3.734l4.143-10.97c4.021-0.636,8.043-1.272,12.07-1.909
						c4.269-0.672,8.573-1.351,12.929-2.037c1.352,8.43,2.721,16.971,4.101,25.582c-2.152,0.351-4.307,0.702-6.465,1.054l-1.8,0.289
						l-0.359,0.05c-1.199,2.354-2.4,4.714-3.604,7.076c3.214,3.375,6.429,6.753,9.629,10.114l0.268-0.034l1.546-0.246
						c1.784-0.289,3.566-0.577,5.346-0.865c1.315,8.339,2.62,16.616,3.909,24.786c-2.14,0.336-4.272,0.671-6.399,1.006
						c-1.314,0.197-2.624,0.393-3.931,0.589c-2.451,0.399-5.278,0.86-8.277,1.349c-3.432,0.583-7.058,1.2-10.628,1.808
						c-2.979-3.6-5.896-7.124-8.39-10.138c-0.554-0.679-1.083-1.33-1.585-1.947c-0.086-0.111-0.17-0.22-0.251-0.325
						c-0.065-0.088-0.128-0.174-0.189-0.256c-0.246-0.339-0.472-0.669-0.673-0.995c-0.021,0.029-0.041,0.055-0.06,0.079
						c-0.591,0.956-0.979,1.152-1.075,0.531c0.298-0.736,0.596-1.472,0.888-2.195c3.934,4.796,7.841,9.561,11.701,14.268
						c9.363-1.537,18.594-3.053,27.769-4.56c-0.504-3.081-0.997-6.093-1.489-9.102l-2.188-13.681l-6.666,1.064l-10.492-11.06
						l4.188-8.152l2.65-0.406l5.532-0.883l-2.745-17.563c0.39,2.592,0.781,5.19,1.174,7.795c0.502,3.232,1.005,6.473,1.51,9.723
						c-1.82,0.289-3.644,0.577-5.471,0.867c-0.896,0.136-1.793,0.271-2.694,0.408c-1.404,2.732-2.814,5.473-4.229,8.224
						c3.504,3.683,7.023,7.383,10.56,11.1c2.214-0.358,4.432-0.717,6.653-1.076c0.737,4.534,1.478,9.081,2.219,13.64l1.457,9.079
						c-9.225,1.477-18.451,2.953-27.68,4.43L47.201,61.98l-0.868,2.097c-0.037-0.649,0.045-1.627-0.512-0.953
						c0,0-2.128,5.32-3.192,7.98c-4.997,10.674-4.779,7.585-3.226,1.884C39.842,71.534,40.334,69.9,40.868,68.125z"/>
				</g>
			</g>
		</g>
	</g>
	<g>
		<linearGradient id="SVGID_2_" gradientUnits="userSpaceOnUse" x1="46.1934" y1="129.3345" x2="122.376" y2="129.3345">
			<stop  offset="0.4133" style="stop-color:#F18FFF"/>
			<stop  offset="0.5948" style="stop-color:#F7BCFF"/>
			<stop  offset="0.7689" style="stop-color:#FBE1FF"/>
			<stop  offset="0.9099" style="stop-color:#FEF7FF"/>
			<stop  offset="1" style="stop-color:#FFFFFF"/>
		</linearGradient>
		<path fill="url(#SVGID_2_)" stroke="#F2F2F2" stroke-width="0.05" stroke-miterlimit="10" d="M69.994,172.363l-23.801-5.251
			l3.582-16.239l9.15,2.019l3.952-4.844l-12.188-44.021l-4.21-0.929l3.704-16.791l37.106,8.186l-3.704,16.791l-6.007-1.325
			l4.86,23.066l13.385-19.042l-5.277-1.164l3.704-16.791l28.125,6.205l-3.704,16.79l-5.445-1.201L69.994,172.363z"/>
		<g>
			<g>
				<path fill="none" d="M68.566,170.125l-23.803-5.251l3.582-16.239l9.151,2.019l3.952-4.844l-9.188-44.021l-7.211-0.929
					l3.703-16.79l37.107,8.186l-3.703,16.79l-6.007-1.325l4.86,23.066l13.385-19.042l-5.277-1.164l3.703-16.79l28.125,6.204
					l-3.703,16.79l-5.445-1.201L68.566,170.125z"/>
				<g>
					<path fill="#292D73" d="M73.808,159.629c1.03-1.254,2.062-2.511,3.082-3.753c5.535-6.791,11.033-13.611,16.567-20.513
						c5.778-7.234,11.611-14.536,17.559-21.982c1.566,0.352,3.146,0.706,4.733,1.063c0.964-4.269,1.943-8.602,2.938-13.005
						c-4.692-1.071-9.479-2.164-14.352-3.276c-3.342-0.773-6.76-1.563-10.232-2.366c-1.001,4.445-2.021,8.983-3.049,13.548
						c2.019,0.446,4.042,0.894,6.065,1.342c-5.687,8.103-11.383,16.219-16.937,24.131c-1.306-6.178-2.585-12.227-3.827-18.103
						c1.259,6.066,2.522,12.158,3.791,18.279c5.726-8.103,11.481-16.248,17.254-24.417c-2.043-0.456-4.087-0.913-6.134-1.369
						c0.988-4.398,1.978-8.803,2.967-13.207c8.133,1.833,16.266,3.666,24.366,5.492c-0.979,4.288-1.957,8.565-2.931,12.826
						l-1.024-0.246l-3.68-0.832c-5.948,7.368-11.856,14.686-17.708,21.933c-5.601,6.859-11.146,13.649-16.622,20.354
						c3.063-4.376,6.82-9.526,11.428-15.339c7.57-9.444,15.074-18.804,22.503-28.071c1.387,0.31,2.767,0.619,4.141,0.926
						l0.183,0.053l0.068-0.246c0.244-1.087,0.488-2.172,0.731-3.255c0.486-2.167,0.971-4.327,1.455-6.484
						c0.133,0.029,0.393,0.086,0.523,0.115l0.175-0.862l0.084-0.442c-3.416-0.688-20.008-4.336-23.132-5.044
						c-0.89,3.939-1.775,7.862-2.659,11.775l0.62,0.15l5.85,1.305c-6.272,8.849-12.529,17.675-18.791,26.507
						c-2.205-10.61-4.411-21.226-6.628-31.889c2.409,0.533,4.821,1.067,7.237,1.603c0.887-4.083,1.777-8.183,2.673-12.31
						c-5.758-1.207-11.561-2.423-17.435-3.655c1.708,0.45,0.662,0.333,0.285,0.339c-0.119-0.026-0.232-0.051-0.344-0.075
						c0.111,0.024,0.225,0.049,0.344,0.075c-0.339,0.003-0.153,0.105,2.861,0.77c-3.015-0.665-3.2-0.767-2.861-0.77
						c5.628,1.228,11.205,2.444,16.653,3.633c-0.846,3.855-1.687,7.687-2.516,11.462c-2.503-0.553-5.002-1.104-7.47-1.648
						c2.347,11.177,4.681,22.293,7.011,33.387c6.495-9.208,12.981-18.402,19.487-27.626c-2.078-0.461-4.158-0.923-6.239-1.385
						l-0.391-0.095c0.843-3.719,1.688-7.448,2.537-11.199c7.367,1.671,14.795,3.357,22.32,5.064l-0.046,0.163l0.042-0.16
						c-7.452-1.667-14.868-3.328-22.263-4.982c-0.819,3.682-1.638,7.356-2.454,11.027l6.707,1.484
						c-6.604,9.392-13.198,18.77-19.791,28.146c-2.398-11.366-4.796-22.729-7.196-34.102c2.525,0.555,5.052,1.111,7.58,1.667
						c0.805-3.674,1.61-7.352,2.417-11.035c-10.389-2.277-20.813-4.562-31.299-6.86c-0.773,3.531-1.55,7.081-2.328,10.641
						c2.01,0.257,4.04,0.516,6.074,0.775c2.873,13.735,5.776,27.613,8.71,41.638l1.233,5.91l-6.056,7.422l-4.17-0.92
						c-1.131-0.284-2.259-0.567-3.385-0.85l-0.171-0.043l-0.023-0.011l-0.049-0.023l-0.107-0.046l-0.247-0.099l-0.104,0.254
						l-0.056,0.149c-0.009,0.035,0.002-0.023-0.024,0.089l-0.062,0.252l-0.122,0.505c-0.324,1.35-0.646,2.698-0.97,4.043
						l-0.955,4.047l-0.203,0.858l-0.06,0.216l-0.123,0.454l0.425,0.113l0.221,0.057l0.757,0.175l3.925,0.89l7.854,1.751
						c-1.675-0.026,0.604,0.991,0.149,1.287c-0.228,0.148-1.138,0.116-3.566-0.316c-1.215-0.216-2.809-0.533-4.888-0.977
						c-1.039-0.228-2.198-0.482-3.494-0.766c-1.073-0.246-2.259-0.517-3.569-0.817c0.024-0.104,0.052-0.222,0.08-0.341
						c-0.157,0.084-0.472,0.255-0.628,0.34c-0.036,0.145-0.072,0.289-0.104,0.418c2.862,0.719,5.935,1.503,8.521,2.195
						c2.625,0.7,4.959,1.349,6.966,1.935c4.012,1.172,6.713,2.09,7.814,2.651c2.202,1.121-1.995,0.812-14.904-1.761
						c-1.498-0.305-3.019-0.615-4.565-0.931c-2.519-0.536-5.077-1.08-7.679-1.633c1.541-7.14,3.147-14.588,4.807-22.278
						c3.388,0.743,6.832,1.498,10.323,2.264c0.589-0.72,1.183-1.447,1.782-2.181c-2.712-13.083-5.561-26.825-8.378-40.415
						c-2.806-0.356-5.606-0.711-8.397-1.065c1.084-5.014,2.163-10.001,3.232-14.944l1.802-8.293c14.503,3.155,29,6.31,43.492,9.462
						l-5.152,23.242l-5.983-1.333l-0.373-0.083l-0.094-0.021l0.033,0.007l0.075,0.016l0.298,0.064l0.593,0.127l1.175,0.25
						c-0.004,0.009-0.008,0.022-0.011,0.042l-0.004,0.035c0.004,0.023-0.01-0.037,0.008,0.054l0.08,0.391l0.158,0.782l1.26,6.258
						c0.175,0.874,0.35,1.75,0.524,2.628l0.065,0.33l0.032,0.158v0.01l0.002,0.041l0.005,0.089l0.046,0.455l0.28-0.32l0.083-0.101
						l0.022-0.026l0.183-0.256l0.421-0.59l1.688-2.367c1.126-1.581,2.254-3.167,3.386-4.756l0.555-0.776l0.107-0.139l0.225-0.294
						l1.444,0.312l0.718,0.155l-1.049-0.235c-1.643-0.367-3.287-0.733-4.936-1.102c1.664-7.424,3.333-14.877,5.004-22.332
						c11.177,2.521,22.355,5.042,33.415,7.537c-1.668,7.311-3.325,14.574-4.966,21.764c-1.593-0.363-3.183-0.725-4.77-1.086
						l-1.056-0.242l-0.188-0.05l-0.369-0.1l-0.405,0.464l-1.34,1.641c-8.33,10.292-22.401,28.696-26.831,33.633
						c-3.104,3.604-3.447,3.574-3.247,2.805c10.55-13.26,21.072-26.487,31.465-39.551c2.035,0.453,4.021,0.895,6.006,1.337
						c0.688-3.089,1.36-6.109,2.032-9.125l2.414-10.688L91.468,91.67l-4.626,20.365l4.15,0.938l0.925,0.21l-0.264-0.053
						l-0.546-0.108l-1.106,1.505l-2.49,3.471l-2.645,3.687l-1.237,1.722l-0.486,0.651l0.49-0.642l1.235-1.704l2.652-3.672
						l2.515-3.484l1.164-1.568l0.493,0.095l0.237,0.045l-0.902-0.207c-1.365-0.31-2.734-0.621-4.11-0.933
						c1.526-6.71,3.061-13.452,4.604-20.235c10.358,2.333,20.796,4.685,31.295,7.049c-0.793,3.549-1.587,7.105-2.383,10.668
						l-2.052,9.096l-6.004-1.357c-10.406,12.965-20.816,25.936-31.226,38.905c0.271-0.785,0.512-1.553-0.508-0.695
						c0,0-4.108,5.184-6.164,7.776c-8.753,9.957-7.434,6.77-3.858,1.174C71.573,162.953,72.642,161.363,73.808,159.629z"/>
				</g>
			</g>
		</g>
	</g>
</g>
<g id="_x36__-_LR__x28_Intersection_of_lines_x29_">
</g>
<g id="_x35__-_SS__x28_Pascal_x27_s_triangle_x29_">
</g>
<g id="_x34__-_MT__x28_Cone_and_Sphere_x29_">
</g>
<g id="_x33__-_QR__x28_Suspension_Bridge_x29_">
</g>
<g id="_x32__-_ET__x28_Sine_and_exponential_x29_">
</g>
<g id="_x31__-_IF__x28_Function_diagram_x29_">
</g>
</svg>
