<?xml version="1.0" encoding="utf-8"?>
<!-- Generator: Adobe Illustrator 16.0.0, SVG Export Plug-In . SVG Version: 6.00 Build 0)  -->
<!DOCTYPE svg PUBLIC "-//W3C//DTD SVG 1.1//EN" "http://www.w3.org/Graphics/SVG/1.1/DTD/svg11.dtd">
<svg version="1.1" xmlns="http://www.w3.org/2000/svg" xmlns:xlink="http://www.w3.org/1999/xlink" x="0px" y="0px" width="130px"
	 height="180px" viewBox="0 0 130 180" enable-background="new 0 0 130 180" xml:space="preserve">
<g id="_x31_3_-_Problem_Solving__x28_Lightbulb_x29_">
</g>
<g id="_x31_2_-_Calculus__x26__Vectors__x28_Unit_Vectors_x29_">
</g>
<g id="_x31_1_-_Advanced_Functions">
</g>
<g id="_x39__-_Grades_7__x26__8">
</g>
<g id="_x38__-_CS__x28_Binary_Digits_x29_">
</g>
<g id="_x37__-_NS__x28_Blocks_x3B__Prime_factorization_of_12_x29_">
</g>
<g id="_x36__-_LR__x28_Intersection_of_lines_x29_">
</g>
<g id="_x35__-_SS__x28_Pascal_x27_s_triangle_x29_">
</g>
<g id="_x34__-_MT__x28_Cone_and_Sphere_x29_">
</g>
<g id="_x33__-_QR__x28_Suspension_Bridge_x29_">
</g>
<g id="_x32__-_ET__x28_Sine_and_exponential_x29_">
</g>
<g id="_x31__-_IF__x28_Function_diagram_x29_">
	<g>
		<g>
			<linearGradient id="SVGID_1_" gradientUnits="userSpaceOnUse" x1="15.2173" y1="91.5005" x2="60.4512" y2="91.5005">
				<stop  offset="0.4286" style="stop-color:#57D7FF"/>
				<stop  offset="1" style="stop-color:#FFFFFF"/>
			</linearGradient>
			<ellipse fill="url(#SVGID_1_)" cx="37.834" cy="91.501" rx="22.617" ry="73.349"/>
			<linearGradient id="SVGID_2_" gradientUnits="userSpaceOnUse" x1="73.9814" y1="91.5005" x2="110.8423" y2="91.5005">
				<stop  offset="0" style="stop-color:#F6FDFF"/>
				<stop  offset="0.6739" style="stop-color:#57D7FF"/>
			</linearGradient>
			<ellipse fill="url(#SVGID_2_)" cx="95.933" cy="91.501" rx="22.617" ry="73.349"/>
			<g>
				<g>
					<g>
						<path fill="#292D73" d="M56.477,78.768c-0.023-1.376-0.091-2.751-0.144-4.114c-0.302-6.305-0.884-12.599-1.826-18.877
							c-0.937-6.276-2.233-12.547-4.09-18.715c-0.945-3.074-2.031-6.128-3.387-9.061c-0.69-1.456-1.402-2.913-2.252-4.272
							c-0.829-1.372-1.748-2.691-2.814-3.832c-1.053-1.146-2.244-2.151-3.557-2.75c-1.308-0.604-2.721-0.756-4.092-0.397
							c-1.375,0.35-2.69,1.2-3.855,2.286c-1.164,1.094-2.223,2.384-3.15,3.801c-2.624,3.967-4.547,8.688-6.119,13.573
							c-1.556,4.904-2.768,10.029-3.695,15.206c-1.875,10.357-2.725,20.898-2.979,30.731c0.349-11.651,1.506-23.453,3.948-35.014
							c1.255-5.763,2.805-11.49,5.027-16.904c1.117-2.696,2.393-5.33,3.983-7.693c0.778-1.196,1.672-2.279,2.618-3.278
							c0.977-0.95,2.042-1.772,3.186-2.287c1.141-0.519,2.347-0.697,3.525-0.49c1.18,0.195,2.319,0.807,3.354,1.609
							c1.037,0.807,1.99,1.798,2.824,2.913c0.863,1.087,1.597,2.305,2.313,3.525c2.755,4.994,4.592,10.544,6.043,16.105
							c2.86,11.176,4.173,22.6,4.688,33.741c-0.506-4.492-1.13-9.842-2.002-16.034c-1.005-7.449-2.425-14.807-4.603-21.832
							c-1.098-3.501-2.377-6.932-3.989-10.114c-1.619-3.127-3.594-6.188-6.099-7.961c0.057-0.082,0.168-0.242,0.224-0.323
							c-0.926-0.616-1.894-1.057-2.866-1.226c-0.975-0.136-1.946-0.002-2.897,0.368c-1.924,0.728-3.633,2.492-5.075,4.394
							c-2.884,3.92-4.82,8.689-6.452,13.445c-1.605,4.798-2.822,9.734-3.809,14.709c-0.995,4.975-1.72,10.003-2.279,15.05
							c-1.104,10.099-1.479,20.296-1.183,30.555c0.309,10.253,1.314,20.59,3.357,30.87c-0.219-1.475,0.022-0.621,0.137-0.328
							c0.021,0.101,0.04,0.197,0.058,0.291c-0.019-0.094-0.038-0.19-0.058-0.291c0.107,0.263,0.115,0.088-0.337-2.476
							c0.452,2.563,0.445,2.738,0.337,2.476c-1.888-10.123-2.847-20.276-3.163-30.355c-0.302-10.083,0.015-20.108,1.039-30.043
							c1.043-9.92,2.725-19.815,5.745-29.299c1.526-4.71,3.405-9.374,6.055-13.366c0.336-0.491,0.668-0.987,1.042-1.433l0.544-0.686
							l0.581-0.629c0.373-0.446,0.808-0.771,1.207-1.16c0.433-0.302,0.842-0.688,1.293-0.903c0.875-0.546,1.783-0.839,2.674-0.879
							c0.892-0.042,1.79,0.112,2.678,0.557c-1.385-0.622-2.775-0.782-4.165-0.236c-1.393,0.517-2.755,1.598-3.942,2.932
							c-2.394,2.695-4.186,6.182-5.69,9.731c-2.952,7.189-4.809,14.909-6.169,22.661c-1.336,7.772-2.153,15.642-2.548,23.533
							c-0.398,7.893-0.395,15.813,0.006,23.719c0.403,7.904,1.22,15.799,2.564,23.606c1.37,7.788,3.232,15.56,6.214,22.799
							c1.516,3.574,3.326,7.095,5.76,9.778c1.205,1.329,2.586,2.392,3.989,2.881c1.402,0.421,2.808,0.325,4.206-0.416
							c1.395-0.74,2.708-1.99,3.856-3.438c1.148-1.456,2.178-3.092,3.068-4.835c1.806-3.473,3.209-7.255,4.406-11.116
							c0.851-2.621,2.175-8.021,2.714-10.754c2.521-10.859,3.708-22.079,4.055-33.276c0.212,1.408,0.636-0.687,0.911-0.329
							c0.142,0.181,0.243,0.976,0.225,3.137c-0.016,2.159-0.146,5.688-0.702,11.301c0.098,0.01,0.295,0.027,0.394,0.037
							c1.27-11.233,1.646-19.033,2.136-21.162c0.226-1.057,0.463-0.714,0.638,1.335c0.182,2.046,0.313,5.791,0.115,11.496
							c-0.245,6.414-0.832,13.362-1.943,20.616c-1.121,7.249-2.704,14.827-5.346,22.37c-1.337,3.764-2.913,7.532-5.135,11.118
							c-1.127,1.783-2.404,3.531-4.045,5.094c-1.626,1.541-3.723,2.952-6.304,3.435c-2.595,0.467-5.302-0.335-7.281-1.635
							c-2.019-1.302-3.523-2.977-4.808-4.692c-2.548-3.463-4.297-7.192-5.772-10.92c-2.128-5.439-3.622-11.023-4.833-16.643
							c-1.173-5.625-2.069-11.292-2.678-16.98c-1.238-11.378-1.534-22.821-0.984-34.224c0.382-7.841,1.145-15.848,2.438-23.883
							c1.313-8.027,3.108-16.108,6.032-23.931c1.506-3.894,3.267-7.745,5.81-11.281c1.298-1.746,2.805-3.432,4.772-4.76
							c1.947-1.321,4.595-2.11,7.138-1.692c2.532,0.455,4.59,1.85,6.188,3.378c1.611,1.55,2.863,3.293,3.962,5.07
							c2.168,3.576,3.687,7.337,4.962,11.093c1.893,5.459,3.822,13.112,5.011,20.156c1.205,7.041,1.82,13.436,1.889,16.287
							c0.172,4.091-0.044,4.264-0.317,3.657c-0.604-9.314-1.766-18.596-3.772-27.698c-1-4.55-2.251-9.048-3.843-13.438
							c-1.634-4.365-3.549-8.693-6.518-12.479c-0.429-0.595-0.969-1.121-1.457-1.68c-0.558-0.508-1.069-1.058-1.706-1.499
							c-1.204-0.929-2.627-1.719-4.239-2.02c-1.597-0.323-3.301-0.14-4.789,0.443c-1.502,0.57-2.795,1.484-3.891,2.517
							c-2.242,2.052-3.832,4.541-5.236,7.063c-1.387,2.539-2.521,5.178-3.521,7.854c-1.004,2.676-1.844,5.398-2.594,8.14
							c-0.758,2.74-1.408,5.504-1.978,8.281c-1.155,5.553-1.994,11.158-2.62,16.782c0.635-5.498,1.461-11.015,2.606-16.511
							c1.139-5.494,2.551-10.984,4.516-16.351c0.986-2.681,2.106-5.333,3.479-7.893c1.392-2.542,2.968-5.058,5.179-7.163
							c1.074-1.067,2.387-1.979,3.865-2.608c1.479-0.628,3.196-0.866,4.824-0.572c1.641,0.277,3.088,1.074,4.327,1.999
							c0.648,0.446,1.176,0.997,1.746,1.513c0.498,0.566,1.049,1.101,1.487,1.705c2.953,3.784,4.843,8.095,6.458,12.43
							c1.566,4.361,2.8,8.816,3.777,13.316c1.962,9,3.084,18.143,3.667,27.298c-0.25-0.656-0.505-1.281-0.621-0.154
							c0,0,0.111,1.41,0.199,3.176c0.111,1.765,0.18,3.886,0.238,5.299c-0.083,5.668-0.438,7.782-0.714,7.782
							c-0.305,0-0.592-2.113-0.898-4.911C56.823,82.156,56.669,80.553,56.477,78.768z"/>
					</g>
				</g>
			</g>
			<g>
				<g>
					<g>
						<path fill="#292D73" d="M73.29,98.232c0.023,1.376,0.091,2.751,0.144,4.114c0.302,6.305,0.884,12.599,1.826,18.877
							c0.937,6.276,2.233,12.547,4.09,18.714c0.945,3.075,2.031,6.129,3.387,9.062c0.69,1.456,1.402,2.913,2.252,4.272
							c0.829,1.371,1.748,2.691,2.814,3.832c1.053,1.146,2.244,2.151,3.557,2.75c1.308,0.604,2.721,0.756,4.092,0.397
							c1.375-0.35,2.69-1.2,3.855-2.286c1.164-1.094,2.223-2.384,3.15-3.801c2.624-3.967,4.547-8.688,6.119-13.573
							c1.556-4.904,2.768-10.029,3.695-15.206c1.875-10.357,2.725-20.898,2.979-30.731c-0.349,11.651-1.506,23.453-3.948,35.014
							c-1.255,5.763-2.805,11.49-5.027,16.904c-1.117,2.696-2.393,5.33-3.983,7.693c-0.778,1.196-1.672,2.279-2.618,3.278
							c-0.977,0.95-2.042,1.772-3.186,2.287c-1.141,0.519-2.347,0.697-3.525,0.49c-1.18-0.195-2.319-0.807-3.354-1.609
							c-1.037-0.807-1.99-1.798-2.824-2.913c-0.863-1.087-1.597-2.305-2.313-3.525c-2.755-4.994-4.591-10.544-6.043-16.105
							c-2.86-11.176-4.173-22.6-4.688-33.741c0.506,4.492,1.13,9.842,2.002,16.034c1.005,7.449,2.425,14.807,4.603,21.832
							c1.098,3.501,2.377,6.932,3.989,10.114c1.619,3.127,3.594,6.188,6.099,7.961c-0.057,0.082-0.168,0.242-0.224,0.323
							c0.926,0.616,1.894,1.057,2.866,1.226c0.975,0.136,1.946,0.002,2.897-0.368c1.924-0.728,3.633-2.492,5.075-4.394
							c2.884-3.92,4.82-8.689,6.452-13.445c1.605-4.798,2.822-9.734,3.809-14.709c0.995-4.975,1.72-10.003,2.279-15.05
							c1.104-10.099,1.479-20.296,1.183-30.555c-0.309-10.253-1.314-20.59-3.357-30.87c0.219,1.475-0.022,0.621-0.137,0.328
							c-0.021-0.101-0.04-0.197-0.058-0.291c0.019,0.094,0.038,0.19,0.058,0.291c-0.107-0.263-0.115-0.088,0.337,2.476
							c-0.452-2.563-0.445-2.738-0.337-2.476c1.888,10.123,2.847,20.276,3.163,30.355c0.302,10.083-0.015,20.108-1.039,30.043
							c-1.043,9.92-2.725,19.815-5.745,29.299c-1.526,4.71-3.405,9.374-6.055,13.366c-0.336,0.491-0.668,0.987-1.042,1.433
							l-0.544,0.686l-0.581,0.629c-0.373,0.446-0.808,0.771-1.207,1.16c-0.433,0.302-0.842,0.688-1.293,0.903
							c-0.875,0.546-1.783,0.839-2.674,0.879c-0.892,0.042-1.79-0.112-2.678-0.557c1.385,0.622,2.775,0.782,4.165,0.236
							c1.393-0.517,2.755-1.598,3.942-2.932c2.394-2.695,4.186-6.182,5.69-9.731c2.952-7.189,4.809-14.909,6.169-22.661
							c1.336-7.772,2.153-15.642,2.548-23.533c0.398-7.893,0.395-15.813-0.006-23.719c-0.403-7.904-1.22-15.799-2.564-23.607
							c-1.37-7.787-3.232-15.559-6.214-22.798c-1.516-3.574-3.326-7.095-5.76-9.778c-1.205-1.33-2.586-2.392-3.989-2.881
							c-1.402-0.421-2.808-0.325-4.206,0.416c-1.395,0.74-2.708,1.99-3.856,3.438c-1.148,1.456-2.178,3.092-3.068,4.835
							c-1.806,3.473-3.209,7.255-4.406,11.116c-0.851,2.621-2.175,8.021-2.714,10.754c-2.521,10.859-3.708,22.079-4.055,33.276
							c-0.212-1.408-0.636,0.687-0.911,0.329c-0.142-0.181-0.243-0.976-0.225-3.137c0.016-2.159,0.146-5.688,0.702-11.301
							c-0.098-0.01-0.295-0.027-0.394-0.037c-1.27,11.233-1.646,19.033-2.136,21.162c-0.226,1.057-0.463,0.714-0.638-1.335
							c-0.182-2.046-0.313-5.791-0.115-11.496c0.245-6.414,0.832-13.362,1.943-20.616c1.121-7.249,2.704-14.827,5.346-22.37
							c1.337-3.764,2.913-7.533,5.135-11.118c1.127-1.783,2.404-3.532,4.045-5.094c1.626-1.541,3.723-2.952,6.304-3.435
							c2.595-0.467,5.302,0.335,7.281,1.635c2.019,1.302,3.523,2.977,4.808,4.692c2.548,3.463,4.297,7.192,5.772,10.92
							c2.128,5.439,3.622,11.023,4.833,16.643c1.173,5.625,2.069,11.292,2.678,16.98c1.238,11.378,1.534,22.821,0.984,34.224
							c-0.382,7.841-1.145,15.848-2.438,23.883c-1.313,8.027-3.108,16.108-6.032,23.931c-1.506,3.894-3.267,7.745-5.81,11.281
							c-1.298,1.746-2.805,3.432-4.772,4.76c-1.947,1.321-4.595,2.11-7.138,1.692c-2.532-0.455-4.59-1.851-6.188-3.378
							c-1.611-1.55-2.863-3.293-3.962-5.07c-2.168-3.576-3.687-7.337-4.962-11.093c-1.893-5.459-3.822-13.112-5.011-20.156
							c-1.205-7.041-1.82-13.436-1.889-16.287c-0.172-4.091,0.044-4.264,0.317-3.657c0.604,9.314,1.766,18.596,3.772,27.698
							c1,4.55,2.251,9.048,3.843,13.438c1.634,4.365,3.549,8.693,6.518,12.479c0.429,0.595,0.969,1.121,1.457,1.68
							c0.558,0.508,1.069,1.058,1.706,1.499c1.204,0.929,2.627,1.719,4.239,2.02c1.597,0.323,3.301,0.14,4.789-0.443
							c1.502-0.57,2.795-1.484,3.891-2.517c2.242-2.052,3.832-4.541,5.236-7.063c1.387-2.539,2.521-5.178,3.521-7.854
							c1.004-2.676,1.844-5.398,2.594-8.14c0.758-2.74,1.408-5.504,1.978-8.281c1.155-5.553,1.994-11.158,2.62-16.782
							c-0.635,5.498-1.461,11.015-2.606,16.511c-1.139,5.494-2.551,10.984-4.516,16.351c-0.986,2.681-2.106,5.333-3.479,7.893
							c-1.392,2.542-2.968,5.058-5.179,7.163c-1.074,1.067-2.387,1.979-3.865,2.608c-1.479,0.628-3.196,0.866-4.824,0.572
							c-1.641-0.277-3.088-1.074-4.327-1.999c-0.648-0.446-1.176-0.997-1.746-1.513c-0.498-0.566-1.049-1.101-1.487-1.705
							c-2.953-3.784-4.843-8.095-6.458-12.43c-1.566-4.361-2.8-8.816-3.777-13.316c-1.962-9-3.084-18.143-3.667-27.298
							c0.25,0.656,0.505,1.281,0.621,0.154c0,0-0.111-1.41-0.199-3.176c-0.111-1.765-0.18-3.886-0.238-5.299
							c0.083-5.668,0.438-7.782,0.714-7.782c0.305,0,0.592,2.113,0.898,4.911C72.943,94.844,73.097,96.447,73.29,98.232z"/>
					</g>
				</g>
			</g>
		</g>
		<g>
			<g>
				<circle fill="#F2F2F2" cx="36.234" cy="42.209" r="6.225"/>
				<g>
					<g>
						<path fill="#5D5F85" d="M33.127,35.178c0.322-0.149,0.67-0.231,1.007-0.344c-1.487,0.309-2.861,1.188-3.88,2.358
							c-0.553,0.563-0.907,1.273-1.282,1.965c-0.253,0.744-0.545,1.489-0.583,2.281c-0.146,0.781-0.017,1.565,0.047,2.345
							c0.208,0.752,0.366,1.533,0.765,2.207c0.309,0.723,0.819,1.309,1.289,1.918c0.563,0.514,1.091,1.086,1.763,1.447
							c0.157,0.112,0.393,0.281,0.628,0.45c0.241,0.164,0.515,0.264,0.689,0.355c1.437,0.623,3.291,0.688,4.984,0.207
							c0.417-0.146,0.859-0.234,1.238-0.458c0.386-0.207,0.766-0.423,1.131-0.643c0.664-0.535,1.32-1.054,1.76-1.701
							c0.511-0.594,0.68-1.288,0.767-1.764c0.104-0.471,0.041-0.78,0.041-0.78c0.018-0.385-0.079-0.77-0.278-0.474
							c-0.07,0.155-0.129,0.385-0.247,0.609c-0.129,0.215-0.267,0.445-0.404,0.673c-0.249,0.445-0.573,0.724-0.654,0.661
							c-0.051-0.038,0.193-0.264,0.33-0.564c-0.177-0.131-0.053-1.113,0.011-1.387c-0.012-0.164,0.076-0.688,0.079-1.192
							c-0.051-0.519-0.105-1.004-0.141-1.14c-0.076-0.439-0.294,0.038-0.602,0.59c-0.07,0.147-0.142,0.297-0.211,0.443
							c-0.103,0.147-0.203,0.292-0.295,0.426c-0.181,0.278-0.332,0.534-0.5,0.703c-0.304,0.342-0.226-0.123-0.367-0.184
							c-0.078,0.191-0.172,0.317-0.263,0.44c-0.094,0.122-0.237,0.206-0.339,0.384c-0.01-0.009-0.068,0.042-0.154,0.131
							c-0.075,0.099-0.205,0.208-0.367,0.309c-0.151,0.115-0.314,0.239-0.47,0.357c-0.18,0.082-0.344,0.167-0.474,0.24
							c0,0-0.135,0.184-0.723,0.332c-0.19,0.062-0.178,0.113-0.167,0.163c-0.012-0.05-0.012-0.05-0.023-0.1
							c-0.169,0.176-0.603,0.061-0.795,0.153c-0.002-0.051-0.002-0.051-0.005-0.103c-0.196,0.102-0.399,0.043-0.598,0.022
							c-0.196-0.043-0.404-0.021-0.597-0.073c0.012-0.05,0.012-0.05,0.023-0.1c-0.186-0.065-0.373-0.121-0.356-0.169
							c0.016-0.049,0.016-0.049,0.033-0.098c-0.08-0.057-0.227-0.064-0.335-0.11c-0.104-0.056-0.187-0.102-0.164-0.147
							c-0.023,0.046-0.023,0.046-0.046,0.092c-0.167-0.092-0.324-0.177-0.475-0.259c-0.123-0.116-0.241-0.227-0.356-0.335
							c-0.254-0.183-0.378-0.457-0.547-0.68c-0.333-0.666-0.701-1.41-0.698-2.271c-0.028-0.841,0.152-1.707,0.572-2.447
							c0.125-0.137,0.167-0.35-0.039-0.264c0.128-0.149,0.251-0.303,0.371-0.461c0.312-0.242,0.054-0.231,0.367-0.493
							c0.615-0.521,1.39-0.927,2.23-0.969c0.415-0.102,0.832,0.01,1.25,0.025c0.208,0.027,0.398,0.125,0.599,0.176
							c0.204,0.051,0.401,0.116,0.575,0.239c0.777,0.331,1.35,0.996,1.818,1.667c0.475,0.699,0.631,1.531,0.744,2.367
							c-0.036-0.827-0.009-1.537-0.512-2.259c0.045-0.025,0.134-0.073,0.03-0.271c-0.136-0.309-0.413-0.541-0.61-0.824
							c-0.244-0.243-0.53-0.437-0.765-0.658c-0.283-0.151-0.542-0.3-0.763-0.45c-0.235-0.116-0.447-0.192-0.595-0.3
							c-0.103-0.056-0.197-0.152-0.359-0.236c-0.167-0.059-0.4-0.117-0.758-0.157l0.715,0.07c0.01-0.051,0.028-0.151,0.028-0.151
							c-0.967-0.24-2.24-0.125-3.196,0.221c0,0-0.042-0.094-0.062-0.14L33.5,37.302c-0.159-0.016-0.121-0.108,0.054-0.257
							c0.087-0.074,0.208-0.162,0.354-0.259c0.154-0.077,0.343-0.138,0.543-0.213c0.203-0.067,0.416-0.161,0.645-0.212
							c0.234-0.027,0.472-0.057,0.704-0.084c0.467-0.099,0.914,0.007,1.26,0.012c0.007-0.05,0.021-0.151,0.028-0.202l-0.57-0.058
							l0.005-0.103c1.735,0.102,3.173,0.77,4.359,2.044c-0.155-0.256-0.647-0.583-0.86-0.781c0.031-0.041,0.062-0.081-0.167-0.27
							c0.992,0.679,1.868,1.888,2.393,2.957c0.114,0.276,0.265-0.093-0.167-0.926c-0.117-0.201-0.203-0.399-0.324-0.562
							c-0.129-0.157-0.252-0.307-0.375-0.457c-0.124-0.148-0.248-0.298-0.378-0.454c-0.149-0.138-0.318-0.27-0.496-0.419
							l0.065-0.079c0.247,0.197,0.545,0.453,0.772,0.778c0.231,0.315,0.526,0.586,0.673,0.866c0.213,0.244-0.201-0.627,0.01-0.387
							c0.173,0.273,0.317,0.563,0.521,0.826c-0.12-0.214-0.249-0.445-0.383-0.687c-0.136-0.239-0.349-0.438-0.524-0.662
							c-0.34-0.464-0.792-0.811-1.158-1.14c-0.209-0.264-0.478-0.46-0.426-0.545c-1.446-0.889-2.785-1.124-3.827-1.466
							c-0.174-0.037-0.708-0.006-1.326,0.066C34.298,34.736,33.618,34.987,33.127,35.178z"/>
					</g>
				</g>
			</g>
			<g>
				<circle fill="#F2F2F2" cx="36.234" cy="65.354" r="6.225"/>
				<g>
					<g>
						<path fill="#5D5F85" d="M36.556,70.001c0,0.062,0.105,0.11-0.048,0.155c-0.244,0.081-0.468,0.002-0.683-0.059
							c-0.213-0.074-0.431-0.082-0.666-0.132l-0.056,0.084c-0.347-0.173-0.727-0.279-1.033-0.551l-0.485-0.246l-0.426-0.34
							c-0.319-0.19-0.513-0.509-0.775-0.767c-0.016,0.036-0.037,0.063-0.096,0.014c-0.198-0.235-0.372-0.639-0.542-1.038
							l-0.071-0.181c-0.035-0.041-0.071-0.043-0.093-0.044c-0.053-0.191-0.1-0.364-0.146-0.529
							c-0.291-1.063-0.268-2.261,0.181-3.384c0.444-1.119,1.331-2.157,2.561-2.775c0.272-0.13,0.543-0.26,0.797-0.382
							c0.273-0.116,0.569-0.14,0.854-0.202c0.426-0.109,0.916,0.019,1.398,0.06c0.473,0.096,0.925,0.285,1.311,0.426
							c0.01-0.19,0.49-0.074,0.979,0.043c0.472,0.13,0.884,0.367,0.826,0.072c0.535,0.366,1.092,1.149,1.208,1.125
							c0.151-0.021,0.428-0.021,0.719,0.248c0.281,0.269,0.786,0.699,1.108,1.616c0.065,0.177,0.127,0.383,0.184,0.594
							c0.034,0.215,0.04,0.44,0.055,0.647c0.025,0.415,0.039,0.766,0.08,0.897c0.127,0.414,0.123-0.982,0.25-0.576
							c-0.019-1.46-0.625-2.853-1.43-4.024c-0.829-1.189-2.047-2.031-3.348-2.612c-0.685-0.209-1.363-0.47-2.085-0.487
							c-0.356-0.019-0.713-0.098-1.069-0.052l-1.069,0.115c-1.392,0.288-2.79,0.852-3.847,1.869
							c-0.086,0.089-0.216,0.196-0.356,0.348c-0.13,0.167-0.281,0.36-0.451,0.578c-0.377,0.418-0.692,1.038-1.041,1.741
							c-0.609,1.443-0.848,3.46-0.235,5.347c0.58,1.896,1.997,3.489,3.506,4.319c0.736,0.468,1.522,0.646,2.173,0.853
							c0.676,0.08,1.248,0.166,1.666,0.166l0.304-0.031c0.918-0.03,1.926-0.285,2.803-0.722c0.417-0.256,0.868-0.448,1.197-0.765
							c0.335-0.307,0.662-0.583,0.904-0.877c0.395-0.592,0.781-1.177,0.982-1.85c-0.208,0.249-0.377,0.486-0.572,0.652
							c0.353-0.573,0.699-1.171,0.713-1.441c0.288-1.416-0.131-0.655-0.499-0.266c-0.22,0.297-0.168-0.193-0.504,0.252
							c0.197-0.337,0.2-0.546,0.338-0.91c-0.041-0.034-0.117,0.253-0.192,0.514c-0.055,0.27-0.218,0.462-0.214,0.316
							c0.205-0.313,0.225-0.748,0.358-1.103c-0.165,0.096-0.433,1.239-0.586,1.107c0.121-0.155,0.505-0.931,0.391-1.037
							c-0.027-0.021-0.143,0.329-0.198,0.505c0.071-0.275,0.127-0.521,0.165-0.716c0.027-0.198-0.012-0.356-0.03-0.441
							c-0.059-0.176-0.127-0.072-0.294,0.384c0.07-0.324,0.158-0.799,0.187-1.156l-0.003,0.003
							c-0.027,0.179-0.093,0.481-0.111,0.644l0.073-0.603l-0.08,0.104c-0.037,0.148-0.069,0.294-0.086,0.447l0.047-0.392
							c-0.064,0.096-0.127,0.203-0.188,0.318c-0.109,0.455-0.416,0.803-0.486,1.021C40.14,68.673,38.374,69.925,36.556,70.001z"/>
					</g>
				</g>
			</g>
			<g>
				<circle fill="#F2F2F2" cx="36.233" cy="88.5" r="6.225"/>
				<g>
					<g>
						<path fill="#464873" d="M41.774,93.509c-1.335,1.675-3.779,2.787-6.193,2.527c-2.412-0.242-4.581-1.683-5.808-3.503
							c-1.55-2.137-1.797-5.39-0.391-7.863l0.552-0.911c0.229-0.271,0.47-0.534,0.71-0.796c0.122-0.129,0.24-0.263,0.368-0.384
							l0.424-0.318c0.286-0.209,0.571-0.418,0.863-0.612l0.957-0.441l0.481-0.209l0.509-0.124l1.018-0.222
							c0.345-0.012,0.689-0.023,1.031-0.034c-0.007,0.136-0.439,0.351-0.003,0.408c0.434,0.021,0.743,0.143,0.969,0.24
							c0.227,0.096,0.368,0.184,0.457,0.264c0.176,0.16,0.14,0.292,0.108,0.424c-0.03,0.131-1.145-0.192-0.785,0.006
							c-0.28-0.07-0.615-0.051-0.936-0.03c-0.319,0.031-0.633,0.006-0.858,0.096c-0.458,0.138-0.621,0.228-0.067,0.172
							c0.369,0.016,1.848-0.1,2.164,0.228c0.301,0.257-0.407,0.346-0.11,0.603c0.331,0.008,0.929,0.255,1.231,0.367
							c0.236,0.23-0.452,0.27-0.164,0.375c0.75,0.483,1.744,1.135,2.36,2.173c-0.059,0.034-0.073,0.146-0.125,0.176
							c-0.051,0.024-0.145-0.036-0.336-0.226c-0.663-1.005-1.726-1.722-2.901-1.972c-1.174-0.258-2.421-0.041-3.439,0.581
							c-1.029,0.612-1.762,1.641-2.056,2.782c-0.298,1.145-0.135,2.381,0.453,3.391c0.578,1.016,1.534,1.78,2.642,2.112
							c1.105,0.338,2.322,0.232,3.341-0.293c1.024-0.518,1.833-1.418,2.221-2.496c0.397-1.075,0.369-2.292-0.084-3.348
							c-0.358-0.999,0.179-0.445,0.728,0.319c-0.152-0.255,0.011-0.318-0.168-0.569c0.093-0.042,0.278,0.039,0.525,0.29
							c0.119,0.127,0.194,0.316,0.299,0.544c0.084,0.232,0.235,0.504,0.23,0.841c0.025-0.338-0.107-0.656-0.165-0.984
							c-0.007-0.345,0.197-0.054,0.33-0.083c0.078,0.346,0.157,0.689,0.225,0.682c0.067-0.009,0.203-0.027,0.27-0.036
							c-0.103-0.356-0.198-1.11-0.38-1.44c0.182,0.331,0.194,0.719,0.282,0.695c0.066-0.017,0.198-0.051,0.264-0.067
							c0.12,0.377,0.239,0.86,0.199,1.356c0,0.249-0.001,0.494-0.002,0.724c-0.026,0.223-0.05,0.423-0.076,0.645l0.202,0.032
							c0.046-0.197,0.104-0.421,0.126-0.66c-0.006-0.243-0.013-0.494-0.02-0.75c0.013-0.513-0.142-1.001-0.23-1.396
							c0.156,0.38,0.223,0.371,0.357,0.345c0.04,0.163,0.077,0.312,0.114,0.461c0.005,0.158,0.009,0.314,0.014,0.475
							c-0.003,0.311-0.006,0.632-0.009,0.945c-0.056,0.311-0.111,0.619-0.154,0.931c-0.019,0.147-0.038,0.298-0.06,0.471
							c-0.04,0.152-0.075,0.307-0.106,0.464c0.173-0.391,0.239-0.811,0.305-1.23c0.044,0.222,0.057,0.529-0.008,0.867
							c-0.093,0.331-0.23,0.703-0.385,1.079C42.706,92.314,42.222,93.04,41.774,93.509z"/>
					</g>
				</g>
			</g>
			<g>
				<circle fill="#F2F2F2" cx="36.234" cy="111.645" r="6.225"/>
				<g>
					<g>
						<path fill="#464873" d="M38.527,118.753c-1.993,0.783-4.666,0.523-6.627-0.908c-1.967-1.416-3.125-3.748-3.277-5.938
							c-0.273-2.626,1.139-5.566,3.594-7.006l0.934-0.513c0.333-0.119,0.673-0.227,1.012-0.333c0.17-0.051,0.339-0.108,0.511-0.149
							l0.526-0.063c0.352-0.038,0.704-0.077,1.054-0.1l1.049,0.097l0.521,0.06l0.502,0.147l0.993,0.316l0.91,0.486
							c-0.074,0.114-0.556,0.084-0.208,0.353c0.366,0.234,0.572,0.494,0.72,0.691c0.148,0.197,0.227,0.344,0.264,0.457
							c0.072,0.227-0.025,0.323-0.119,0.422c-0.092,0.098-0.895-0.739-0.682-0.388c-0.208-0.2-0.507-0.352-0.795-0.494
							c-0.292-0.133-0.551-0.312-0.792-0.346c-0.465-0.11-0.651-0.114-0.144,0.115c0.312,0.197,1.65,0.837,1.76,1.278
							c0.132,0.373-0.525,0.097-0.397,0.467c0.283,0.172,0.677,0.686,0.883,0.934c0.089,0.318-0.526,0.008-0.329,0.243
							c0.407,0.794,0.942,1.854,0.957,3.062c-0.068,0-0.136,0.09-0.196,0.09c-0.057-0.004-0.107-0.104-0.178-0.363
							c-0.072-1.202-0.634-2.354-1.526-3.157c-0.888-0.811-2.076-1.246-3.269-1.217c-1.197,0.015-2.346,0.539-3.171,1.381
							c-0.831,0.842-1.308,1.994-1.303,3.163c-0.007,1.167,0.438,2.309,1.231,3.149c0.788,0.845,1.894,1.362,3.04,1.416
							c1.146,0.065,2.295-0.311,3.171-1.05c0.881-0.732,1.465-1.801,1.601-2.941c0.189-1.044,0.378-0.295,0.47,0.641
							c-0.004-0.297,0.169-0.271,0.139-0.577c0.102,0.011,0.222,0.173,0.311,0.514c0.039,0.17,0.01,0.371-0.014,0.621
							c-0.042,0.243-0.048,0.554-0.221,0.843c0.191-0.28,0.236-0.621,0.35-0.935c0.166-0.303,0.198,0.052,0.328,0.093
							c-0.105,0.339-0.209,0.676-0.146,0.702c0.063,0.026,0.188,0.078,0.251,0.104c0.09-0.36,0.384-1.061,0.391-1.438
							c-0.008,0.377-0.191,0.719-0.103,0.743c0.065,0.019,0.196,0.056,0.262,0.074c-0.084,0.386-0.224,0.864-0.506,1.273
							c-0.125,0.215-0.249,0.428-0.364,0.626c-0.133,0.189-0.28,0.355-0.389,0.52l0.159,0.129c0.139-0.147,0.301-0.313,0.44-0.509
							c0.116-0.214,0.235-0.435,0.358-0.659c0.268-0.438,0.378-0.938,0.499-1.324c-0.054,0.407,0.008,0.433,0.137,0.478
							c-0.046,0.16-0.089,0.308-0.132,0.456l-0.225,0.417c-0.158,0.268-0.321,0.544-0.481,0.814c-0.204,0.24-0.406,0.48-0.599,0.729
							c-0.089,0.118-0.181,0.239-0.287,0.378c-0.11,0.111-0.218,0.228-0.324,0.349c0.345-0.252,0.612-0.582,0.879-0.913
							c-0.073,0.213-0.215,0.486-0.441,0.747c-0.246,0.24-0.551,0.493-0.872,0.741C39.93,118.185,39.149,118.57,38.527,118.753z"/>
					</g>
				</g>
			</g>
			<g>
				<circle fill="#F2F2F2" cx="36.234" cy="134.789" r="6.225"/>
				<g>
					<g>
						<path fill="#5D5F85" d="M36.556,139.436c0,0.062,0.104,0.11-0.049,0.155c-0.244,0.081-0.468,0.001-0.683-0.059
							c-0.213-0.074-0.431-0.082-0.666-0.133l-0.056,0.085c-0.347-0.173-0.726-0.279-1.032-0.551l-0.485-0.246l-0.427-0.34
							c-0.319-0.191-0.513-0.509-0.774-0.767c-0.017,0.036-0.037,0.063-0.096,0.014c-0.198-0.235-0.372-0.639-0.543-1.038
							l-0.07-0.181c-0.035-0.041-0.071-0.043-0.093-0.044c-0.053-0.191-0.101-0.364-0.146-0.529
							c-0.291-1.063-0.268-2.261,0.182-3.384c0.444-1.119,1.331-2.156,2.561-2.774c0.272-0.13,0.543-0.26,0.797-0.382
							c0.273-0.116,0.569-0.14,0.854-0.202c0.427-0.109,0.917,0.019,1.398,0.06c0.474,0.097,0.925,0.285,1.312,0.426
							c0.01-0.19,0.49-0.074,0.979,0.043c0.473,0.13,0.884,0.367,0.826,0.072c0.535,0.366,1.092,1.149,1.208,1.125
							c0.151-0.021,0.428-0.02,0.719,0.248c0.281,0.269,0.786,0.699,1.108,1.616c0.065,0.178,0.127,0.383,0.184,0.594
							c0.034,0.215,0.04,0.44,0.055,0.647c0.025,0.415,0.039,0.766,0.08,0.897c0.127,0.414,0.123-0.982,0.25-0.576
							c-0.019-1.46-0.625-2.853-1.43-4.023c-0.829-1.19-2.046-2.032-3.348-2.613c-0.685-0.208-1.363-0.47-2.085-0.487
							c-0.356-0.019-0.713-0.098-1.069-0.052l-1.069,0.115c-1.392,0.288-2.79,0.852-3.846,1.868
							c-0.086,0.09-0.216,0.197-0.356,0.349c-0.13,0.166-0.281,0.359-0.451,0.578c-0.377,0.417-0.692,1.037-1.041,1.74
							c-0.609,1.443-0.848,3.46-0.236,5.347c0.581,1.896,1.998,3.489,3.506,4.319c0.736,0.468,1.522,0.646,2.173,0.853
							c0.676,0.08,1.248,0.165,1.666,0.166l0.305-0.031c0.918-0.03,1.926-0.285,2.803-0.722c0.417-0.255,0.868-0.448,1.197-0.764
							c0.335-0.307,0.662-0.584,0.904-0.878c0.394-0.591,0.781-1.177,0.982-1.849c-0.208,0.249-0.377,0.486-0.572,0.652
							c0.353-0.573,0.699-1.171,0.713-1.441c0.288-1.416-0.131-0.655-0.499-0.266c-0.22,0.297-0.168-0.193-0.504,0.251
							c0.198-0.336,0.2-0.545,0.339-0.909c-0.041-0.034-0.117,0.253-0.192,0.514c-0.055,0.27-0.219,0.462-0.214,0.316
							c0.205-0.313,0.225-0.748,0.358-1.103c-0.165,0.096-0.433,1.239-0.586,1.107c0.121-0.155,0.505-0.931,0.391-1.037
							c-0.028-0.021-0.143,0.329-0.199,0.504c0.071-0.274,0.128-0.52,0.165-0.715c0.027-0.198-0.012-0.356-0.03-0.441
							c-0.059-0.176-0.127-0.072-0.294,0.383c0.07-0.323,0.158-0.798,0.187-1.155l-0.003,0.003
							c-0.027,0.179-0.093,0.481-0.111,0.644l0.073-0.603l-0.08,0.104c-0.037,0.148-0.069,0.294-0.086,0.447l0.047-0.392
							c-0.064,0.096-0.127,0.203-0.188,0.318c-0.109,0.455-0.416,0.803-0.486,1.021C40.139,138.108,38.374,139.359,36.556,139.436z"
							/>
					</g>
				</g>
			</g>
		</g>
		<g>
			<g>
				<circle fill="#F2F2F2" cx="93.933" cy="42.209" r="6.225"/>
				<g>
					<g>
						<path fill="#464873" d="M86.837,44.541c-0.794-1.989-0.549-4.663,0.872-6.632c1.405-1.976,3.731-3.146,5.919-3.31
							c2.624-0.288,5.572,1.107,7.025,3.555l0.518,0.932c0.122,0.333,0.231,0.672,0.339,1.011c0.052,0.17,0.11,0.339,0.152,0.51
							l0.066,0.526c0.04,0.352,0.081,0.703,0.104,1.053l-0.09,1.05l-0.056,0.521l-0.145,0.503l-0.311,0.995l-0.481,0.912
							c-0.115-0.073-0.087-0.555-0.353-0.205c-0.232,0.367-0.492,0.575-0.688,0.724c-0.196,0.148-0.342,0.229-0.455,0.266
							c-0.226,0.073-0.323-0.023-0.422-0.116c-0.099-0.091,0.734-0.898,0.384-0.684c0.2-0.209,0.349-0.51,0.49-0.799
							c0.131-0.293,0.308-0.553,0.341-0.793c0.107-0.466,0.11-0.652-0.116-0.144c-0.196,0.313-0.828,1.655-1.269,1.768
							c-0.373,0.134-0.1-0.525-0.469-0.395c-0.17,0.283-0.682,0.681-0.929,0.888c-0.318,0.091-0.011-0.526-0.245-0.328
							c-0.792,0.411-1.85,0.952-3.057,0.974c0-0.067-0.091-0.136-0.091-0.195c0.004-0.057,0.103-0.107,0.363-0.18
							c1.202-0.078,2.35-0.646,3.149-1.543c0.806-0.893,1.235-2.083,1.199-3.275c-0.021-1.198-0.552-2.344-1.398-3.164
							c-0.846-0.826-2-1.297-3.17-1.286c-1.168-0.001-2.307,0.45-3.143,1.249c-0.841,0.792-1.352,1.901-1.4,3.047
							c-0.058,1.146,0.324,2.294,1.067,3.166c0.738,0.877,1.809,1.455,2.95,1.584c1.045,0.184,0.297,0.376-0.638,0.475
							c0.297-0.007,0.271,0.167,0.578,0.136c-0.01,0.102-0.172,0.223-0.513,0.313c-0.169,0.041-0.371,0.013-0.621-0.01
							c-0.243-0.041-0.554-0.045-0.845-0.216c0.282,0.189,0.623,0.231,0.937,0.344c0.304,0.165-0.051,0.198-0.091,0.328
							c-0.339-0.104-0.676-0.205-0.703-0.143c-0.026,0.063-0.077,0.189-0.103,0.252c0.361,0.088,1.063,0.378,1.439,0.384
							c-0.377-0.006-0.72-0.188-0.743-0.1c-0.018,0.066-0.055,0.197-0.073,0.263c-0.386-0.082-0.866-0.219-1.277-0.499
							c-0.215-0.123-0.429-0.246-0.627-0.36c-0.19-0.132-0.357-0.277-0.522-0.386l-0.127,0.159c0.148,0.139,0.314,0.3,0.511,0.438
							c0.214,0.114,0.436,0.233,0.661,0.354c0.439,0.266,0.939,0.373,1.327,0.491c-0.408-0.053-0.433,0.01-0.477,0.14
							c-0.161-0.046-0.308-0.088-0.457-0.13l-0.418-0.223c-0.269-0.157-0.546-0.318-0.817-0.477
							c-0.242-0.202-0.483-0.403-0.732-0.595c-0.118-0.089-0.239-0.181-0.379-0.285c-0.112-0.109-0.229-0.217-0.351-0.321
							c0.254,0.344,0.585,0.608,0.918,0.874c-0.214-0.072-0.488-0.213-0.75-0.438c-0.242-0.244-0.497-0.548-0.746-0.868
							C87.413,45.941,87.022,45.162,86.837,44.541z"/>
					</g>
				</g>
			</g>
			<g>
				<circle fill="#F2F2F2" cx="93.933" cy="65.354" r="6.225"/>
				<g>
					<g>
						<path fill="#5D5F85" d="M94.254,70.001c0,0.062,0.105,0.11-0.048,0.155c-0.244,0.081-0.468,0.002-0.683-0.059
							c-0.213-0.074-0.431-0.082-0.666-0.132l-0.056,0.084c-0.347-0.173-0.727-0.279-1.033-0.551l-0.485-0.246l-0.426-0.34
							c-0.319-0.19-0.513-0.509-0.775-0.767c-0.016,0.036-0.037,0.063-0.096,0.014c-0.198-0.235-0.372-0.639-0.542-1.038
							l-0.071-0.181c-0.035-0.041-0.071-0.043-0.093-0.044c-0.053-0.191-0.1-0.364-0.146-0.529
							c-0.291-1.063-0.268-2.261,0.181-3.384c0.444-1.119,1.331-2.157,2.561-2.775c0.272-0.13,0.543-0.26,0.797-0.382
							c0.273-0.116,0.569-0.14,0.854-0.202c0.426-0.109,0.916,0.019,1.398,0.06c0.473,0.096,0.925,0.285,1.311,0.426
							c0.01-0.19,0.49-0.074,0.979,0.043c0.472,0.13,0.884,0.367,0.826,0.072c0.535,0.366,1.092,1.149,1.208,1.125
							c0.151-0.021,0.428-0.021,0.719,0.248c0.281,0.269,0.786,0.699,1.108,1.616c0.065,0.177,0.127,0.383,0.184,0.594
							c0.034,0.215,0.04,0.44,0.055,0.647c0.025,0.415,0.039,0.766,0.08,0.897c0.127,0.414,0.123-0.982,0.25-0.576
							c-0.019-1.46-0.625-2.853-1.43-4.024c-0.829-1.189-2.047-2.031-3.348-2.612c-0.685-0.209-1.363-0.47-2.085-0.487
							c-0.356-0.019-0.713-0.098-1.069-0.052l-1.069,0.115c-1.392,0.288-2.79,0.852-3.847,1.869
							c-0.086,0.089-0.216,0.196-0.356,0.348c-0.13,0.167-0.281,0.36-0.451,0.578c-0.377,0.418-0.692,1.038-1.041,1.741
							c-0.609,1.443-0.848,3.46-0.235,5.347c0.58,1.896,1.997,3.489,3.506,4.319c0.736,0.468,1.522,0.646,2.173,0.853
							c0.676,0.08,1.248,0.166,1.666,0.166l0.304-0.031c0.918-0.03,1.926-0.285,2.803-0.722c0.417-0.256,0.868-0.448,1.197-0.765
							c0.335-0.307,0.662-0.583,0.904-0.877c0.395-0.592,0.781-1.177,0.982-1.85c-0.208,0.249-0.377,0.486-0.572,0.652
							c0.353-0.573,0.699-1.171,0.713-1.441c0.288-1.416-0.131-0.655-0.499-0.266c-0.22,0.297-0.168-0.193-0.504,0.252
							c0.197-0.337,0.2-0.546,0.338-0.91c-0.041-0.034-0.117,0.253-0.192,0.514c-0.055,0.27-0.218,0.462-0.214,0.316
							c0.205-0.313,0.225-0.748,0.358-1.103c-0.165,0.096-0.433,1.239-0.586,1.107c0.121-0.155,0.505-0.931,0.391-1.037
							c-0.027-0.021-0.143,0.329-0.198,0.505c0.071-0.275,0.127-0.521,0.165-0.716c0.027-0.198-0.012-0.356-0.03-0.441
							c-0.059-0.176-0.127-0.072-0.294,0.384c0.07-0.324,0.158-0.799,0.187-1.156l-0.003,0.003C99.284,65.535,99.217,65.838,99.2,66
							l0.073-0.603l-0.08,0.104c-0.037,0.148-0.069,0.294-0.086,0.447l0.047-0.392c-0.064,0.096-0.127,0.203-0.188,0.318
							c-0.109,0.455-0.416,0.803-0.486,1.021C97.838,68.673,96.073,69.925,94.254,70.001z"/>
					</g>
				</g>
			</g>
			<g>
				<circle fill="#F2F2F2" cx="93.932" cy="88.499" r="6.225"/>
				<g>
					<g>
						<path fill="#464873" d="M101.387,88.965c-0.001,2.142-1.219,4.534-3.269,5.836c-2.037,1.313-4.631,1.537-6.725,0.879
							c-2.543-0.705-4.764-3.096-5.206-5.907l-0.135-1.058c0.01-0.354,0.035-0.709,0.06-1.063c0.015-0.177,0.023-0.355,0.048-0.53
							l0.134-0.513c0.093-0.341,0.186-0.683,0.293-1.017l0.474-0.941l0.246-0.464l0.321-0.413l0.658-0.809l0.786-0.669
							c0.079,0.11-0.125,0.548,0.252,0.321c0.352-0.254,0.669-0.352,0.907-0.416c0.237-0.065,0.403-0.086,0.521-0.078
							c0.237,0.016,0.291,0.141,0.349,0.264c0.058,0.122-1.015,0.563-0.61,0.493c-0.263,0.12-0.513,0.344-0.751,0.56
							c-0.23,0.224-0.491,0.399-0.611,0.61c-0.273,0.394-0.344,0.564,0.055,0.176c0.298-0.218,1.383-1.229,1.833-1.17
							c0.396,0.014-0.102,0.524,0.29,0.54c0.263-0.2,0.885-0.38,1.192-0.48c0.329,0.033-0.186,0.493,0.105,0.396
							c0.888-0.089,2.071-0.199,3.2,0.229c-0.025,0.063,0.034,0.159,0.013,0.215c-0.025,0.052-0.136,0.062-0.404,0.033
							c-1.146-0.373-2.423-0.271-3.498,0.266c-1.079,0.53-1.919,1.477-2.328,2.598c-0.424,1.12-0.356,2.381,0.125,3.457
							c0.479,1.081,1.377,1.946,2.467,2.369c1.085,0.435,2.31,0.438,3.382,0.007c1.075-0.424,1.961-1.265,2.43-2.312
							c0.48-1.043,0.551-2.25,0.183-3.335c-0.36-1.089-1.141-2.023-2.152-2.567c-0.903-0.558-0.137-0.459,0.768-0.203
							c-0.278-0.104-0.189-0.256-0.486-0.341c0.047-0.091,0.242-0.143,0.592-0.101c0.172,0.025,0.349,0.127,0.572,0.24
							c0.21,0.129,0.498,0.248,0.705,0.514c-0.191-0.28-0.493-0.446-0.742-0.667c-0.221-0.266,0.12-0.165,0.206-0.271
							c0.276,0.222,0.552,0.441,0.6,0.393c0.047-0.049,0.142-0.146,0.189-0.196c-0.302-0.215-0.847-0.744-1.195-0.89
							c0.348,0.146,0.599,0.44,0.653,0.368c0.042-0.055,0.124-0.163,0.166-0.217c0.328,0.22,0.722,0.524,1,0.937
							c0.154,0.195,0.307,0.388,0.449,0.567c0.128,0.193,0.229,0.391,0.342,0.552l0.177-0.101c-0.087-0.183-0.181-0.395-0.313-0.595
							c-0.156-0.187-0.318-0.378-0.483-0.574c-0.309-0.409-0.734-0.695-1.05-0.949c0.359,0.2,0.406,0.151,0.494,0.048
							c0.133,0.102,0.254,0.195,0.376,0.289l0.306,0.362c0.192,0.245,0.389,0.498,0.583,0.746c0.149,0.277,0.298,0.553,0.459,0.823
							c0.077,0.127,0.156,0.257,0.247,0.405c0.063,0.144,0.132,0.286,0.206,0.429c-0.108-0.413-0.318-0.782-0.528-1.151
							c0.172,0.146,0.374,0.378,0.534,0.683c0.133,0.317,0.258,0.693,0.371,1.084C101.371,87.451,101.445,88.319,101.387,88.965z"/>
					</g>
				</g>
			</g>
			<g>
				<circle fill="#F2F2F2" cx="93.933" cy="111.645" r="6.225"/>
				<g>
					<g>
						<path fill="#5D5F85" d="M94.254,116.29c0,0.062,0.105,0.11-0.049,0.155c-0.244,0.081-0.468,0.001-0.683-0.059
							c-0.213-0.074-0.432-0.082-0.666-0.133l-0.056,0.084c-0.347-0.172-0.727-0.278-1.033-0.55l-0.485-0.246l-0.426-0.34
							c-0.319-0.191-0.513-0.509-0.774-0.767c-0.017,0.036-0.037,0.063-0.096,0.014c-0.197-0.235-0.372-0.639-0.542-1.038
							l-0.07-0.181c-0.035-0.041-0.071-0.043-0.094-0.044c-0.053-0.191-0.1-0.364-0.146-0.529c-0.292-1.063-0.267-2.261,0.182-3.383
							c0.444-1.119,1.331-2.156,2.561-2.774c0.272-0.13,0.543-0.261,0.797-0.382c0.273-0.116,0.569-0.14,0.854-0.202
							c0.427-0.109,0.917,0.019,1.398,0.06c0.473,0.097,0.925,0.285,1.311,0.426c0.01-0.19,0.49-0.074,0.979,0.043
							c0.472,0.13,0.884,0.368,0.826,0.072c0.535,0.366,1.091,1.149,1.208,1.125c0.151-0.021,0.428-0.02,0.719,0.249
							c0.281,0.268,0.786,0.698,1.108,1.615c0.065,0.178,0.127,0.383,0.184,0.594c0.034,0.215,0.04,0.44,0.055,0.647
							c0.025,0.415,0.039,0.766,0.08,0.897c0.127,0.414,0.123-0.982,0.25-0.576c-0.019-1.46-0.625-2.853-1.43-4.023
							c-0.829-1.19-2.046-2.032-3.347-2.613c-0.686-0.208-1.363-0.47-2.085-0.487c-0.356-0.019-0.713-0.098-1.069-0.052
							l-1.069,0.115c-1.392,0.287-2.79,0.852-3.846,1.868c-0.086,0.089-0.216,0.196-0.356,0.348c-0.13,0.166-0.281,0.36-0.451,0.578
							c-0.377,0.417-0.692,1.038-1.041,1.74c-0.609,1.443-0.849,3.459-0.236,5.347c0.58,1.896,1.997,3.489,3.506,4.318
							c0.736,0.469,1.522,0.646,2.173,0.854c0.675,0.08,1.247,0.165,1.665,0.166l0.305-0.031c0.918-0.03,1.925-0.285,2.803-0.721
							c0.418-0.256,0.868-0.448,1.197-0.765c0.335-0.307,0.662-0.583,0.904-0.877c0.394-0.591,0.782-1.177,0.982-1.849
							c-0.208,0.249-0.377,0.486-0.572,0.652c0.353-0.573,0.699-1.172,0.713-1.441c0.288-1.416-0.131-0.655-0.498-0.266
							c-0.22,0.297-0.168-0.193-0.504,0.251c0.198-0.336,0.2-0.546,0.339-0.91c-0.041-0.034-0.117,0.254-0.192,0.515
							c-0.055,0.27-0.219,0.462-0.214,0.315c0.205-0.313,0.226-0.747,0.358-1.102c-0.165,0.096-0.434,1.239-0.586,1.107
							c0.121-0.155,0.505-0.931,0.391-1.037c-0.028-0.021-0.143,0.329-0.199,0.504c0.071-0.275,0.128-0.52,0.165-0.715
							c0.027-0.198-0.012-0.356-0.03-0.441c-0.059-0.176-0.127-0.072-0.294,0.383c0.07-0.323,0.158-0.798,0.187-1.155l-0.003,0.003
							c-0.027,0.179-0.093,0.481-0.111,0.644l0.073-0.603l-0.08,0.104c-0.037,0.147-0.069,0.294-0.086,0.447l0.047-0.392
							c-0.064,0.096-0.127,0.203-0.188,0.318c-0.109,0.455-0.416,0.802-0.486,1.021C97.838,114.963,96.072,116.214,94.254,116.29z"
							/>
					</g>
				</g>
			</g>
			<g>
				<circle fill="#F2F2F2" cx="93.933" cy="134.791" r="6.225"/>
				<g>
					<g>
						<path fill="#5D5F85" d="M91.221,141.983c-0.334-0.118-0.64-0.305-0.959-0.461c1.277,0.821,2.873,1.158,4.421,1.036
							c0.789-0.014,1.539-0.272,2.292-0.503c0.702-0.354,1.432-0.681,2.014-1.219c0.652-0.454,1.109-1.104,1.61-1.705
							c0.379-0.683,0.813-1.351,1.001-2.11c0.286-0.732,0.333-1.508,0.425-2.271c-0.042-0.761-0.018-1.539-0.243-2.268
							c-0.033-0.19-0.083-0.476-0.133-0.761c-0.057-0.286-0.182-0.55-0.243-0.737c-0.588-1.451-1.865-2.797-3.41-3.641
							c-0.4-0.188-0.777-0.436-1.204-0.541c-0.421-0.123-0.843-0.235-1.258-0.335c-0.849-0.083-1.68-0.173-2.448-0.02
							c-0.781,0.065-1.388,0.442-1.783,0.721c-0.404,0.264-0.576,0.528-0.577,0.528c-0.282,0.262-0.483,0.604-0.133,0.533
							c0.159-0.063,0.362-0.185,0.604-0.262c0.242-0.063,0.502-0.13,0.76-0.197c0.489-0.143,0.917-0.115,0.93-0.014
							c0.009,0.063-0.323,0.054-0.631,0.172c0.034,0.218-0.743,0.831-0.98,0.981c-0.106,0.126-0.535,0.438-0.891,0.795
							c-0.328,0.406-0.629,0.79-0.698,0.912c-0.254,0.366,0.236,0.18,0.843,0.001c0.154-0.056,0.31-0.112,0.461-0.167
							c0.177-0.034,0.349-0.067,0.509-0.098c0.324-0.072,0.611-0.148,0.85-0.151c0.458-0.03,0.076,0.246,0.134,0.388
							c0.189-0.082,0.345-0.105,0.496-0.13c0.153-0.021,0.313,0.02,0.511-0.035c0.001,0.013,0.078,0.018,0.201,0.015
							c0.123-0.019,0.292-0.006,0.479,0.036c0.188,0.023,0.392,0.05,0.585,0.074c0.186,0.067,0.363,0.122,0.507,0.161
							c0,0,0.225-0.036,0.748,0.27c0.179,0.089,0.207,0.044,0.233,0.001c-0.026,0.043-0.026,0.043-0.053,0.087
							c0.245-0.007,0.473,0.38,0.675,0.448c-0.034,0.038-0.034,0.038-0.068,0.076c0.211,0.064,0.315,0.249,0.442,0.403
							c0.11,0.168,0.273,0.298,0.375,0.47c-0.043,0.027-0.043,0.027-0.086,0.056c0.087,0.176,0.181,0.347,0.136,0.369
							c-0.046,0.023-0.046,0.023-0.092,0.047c0.018,0.097,0.116,0.205,0.162,0.314c0.036,0.112,0.062,0.203,0.013,0.22
							c0.048-0.017,0.048-0.017,0.097-0.033c0.056,0.183,0.107,0.353,0.158,0.518c0.007,0.169,0.013,0.33,0.02,0.488
							c0.053,0.309-0.05,0.592-0.086,0.868c-0.23,0.708-0.488,1.497-1.093,2.108c-0.569,0.619-1.305,1.111-2.124,1.345
							c-0.185,0.011-0.365,0.133-0.157,0.216c-0.196,0.017-0.392,0.04-0.587,0.068c-0.392-0.045-0.201,0.128-0.607,0.095
							c-0.805-0.059-1.642-0.313-2.271-0.871c-0.368-0.219-0.586-0.59-0.873-0.895c-0.129-0.164-0.197-0.368-0.305-0.546
							c-0.109-0.178-0.205-0.363-0.242-0.572c-0.323-0.781-0.265-1.657-0.128-2.464c0.151-0.832,0.623-1.534,1.128-2.209
							c-0.554,0.614-1.072,1.102-1.218,1.969c-0.05-0.014-0.147-0.041-0.212,0.173c-0.119,0.315-0.084,0.676-0.143,1.016
							c0.004,0.345,0.072,0.683,0.084,1.005c0.096,0.307,0.177,0.595,0.229,0.856c0.086,0.247,0.184,0.451,0.214,0.631
							c0.035,0.111,0.034,0.247,0.091,0.421c0.079,0.158,0.204,0.364,0.431,0.643l-0.461-0.551
							c-0.042,0.029-0.126,0.088-0.126,0.088c0.521,0.85,1.51,1.659,2.435,2.082c0,0-0.036,0.096-0.054,0.144l0.5,0.143
							c0.102,0.122,0.01,0.162-0.219,0.146c-0.114-0.009-0.262-0.031-0.434-0.063c-0.164-0.053-0.341-0.143-0.537-0.229
							c-0.191-0.095-0.41-0.177-0.608-0.301c-0.187-0.145-0.376-0.29-0.562-0.434c-0.402-0.257-0.647-0.645-0.89-0.892
							c-0.04,0.031-0.122,0.094-0.162,0.125L89.399,139l-0.075,0.069c-1.167-1.289-1.724-2.773-1.678-4.514
							c-0.068,0.291,0.053,0.87,0.066,1.16c-0.051,0.008-0.102,0.015-0.07,0.309c-0.232-1.18-0.009-2.655,0.365-3.786
							c0.111-0.277-0.255-0.119-0.529,0.777c-0.058,0.226-0.136,0.427-0.163,0.628c-0.018,0.203-0.036,0.396-0.053,0.589
							c-0.016,0.193-0.032,0.386-0.049,0.589c0.01,0.202,0.039,0.415,0.061,0.646l-0.102,0.01c-0.038-0.313-0.072-0.705-0.006-1.096
							c0.057-0.388,0.036-0.787,0.127-1.09c0.019-0.323-0.295,0.589-0.278,0.27c0.068-0.316,0.168-0.625,0.208-0.955
							c-0.065,0.236-0.135,0.492-0.208,0.759c-0.071,0.266-0.059,0.557-0.09,0.839c-0.082,0.569-0.002,1.134,0.027,1.624
							c-0.036,0.336,0.019,0.663-0.078,0.688c0.409,1.646,1.199,2.752,1.703,3.727c0.098,0.148,0.501,0.5,0.992,0.883
							C90.077,141.478,90.738,141.775,91.221,141.983z"/>
					</g>
				</g>
			</g>
		</g>
	</g>
	<g>
		<g>
			<line fill="#403B3B" x1="32.64" y1="42.285" x2="94.285" y2="43.132"/>
			<g>
				<g>
					<path fill="#F2F2F2" d="M88.452,41.712c-0.482,0.038-0.928,0.096-1.313,0.18c-2.068-0.299-3.127,0.324-5.271,0.166
						c-1.906-0.019-3.259,0.101-5.088-0.059c-0.604,0.592-3.561-0.151-4.924,0.221c-0.913,0.061-1.41,0.287-0.716,0.396
						c-1.26,0.006-0.933-0.248-1.987-0.159l0.358-0.198c-0.346-0.055-0.728-0.165-1.184-0.135l-0.516,0.199
						c-1.249-0.246-1.965,0.15-3.322-0.012c0.884,0.164-0.407,0.114-0.311,0.283c-0.206-0.084-1.025-0.136-0.744-0.193
						c-1.149-0.078-2.214,0.264-2.865-0.042l-0.423,0.086c-0.722,0.116-1.292-0.05-1.955-0.103l-0.093,0.113
						c-0.438,0.058-1.242,0.034-1.623-0.076c-1.151-0.079-2.596,0.153-3.79,0.271c-1.182-0.135-0.672,0.199-1.742,0.261
						c-0.678-0.081-1.857,0.065-2.269-0.101c0.943-0.005,1.079-0.314,2.072-0.235c-0.378-0.11,1.684-0.093,0.799-0.257
						c-1.916,0.234-4.283-0.035-6.042,0.198c0.135-0.309-2.178-0.214-2.949-0.182l-0.048-0.084
						c-0.662-0.053-1.152-0.079-2.205,0.011c-1.259,0.006-2.502,0.04-3.562-0.151c-1.563-0.245-3.43,0.073-4.104,0.273
						c1.91,0.3,3.713-0.131,5.125,0.396c-1.325-0.106-1.417,0.007-2.438,0.152l0.537,0.109l-0.439,0.059
						c0.222,0.111-0.358,0.198-0.293,0.31l1.59,0.021c-0.852-0.108-0.288-0.223-0.037-0.337l0.819,0.053
						c-0.19-0.056-0.695-0.109-0.097-0.168c0.329,0.026,0.769-0.032,1.133,0.05l-0.655,0.229c1.003-0.174,1.752,0.3,2.758,0.127
						l0.301,0.251l0.946-0.005l-0.108,0.085l1.134,0.051c0.613-0.031,0.706-0.145,0.815-0.229c0.472-0.003,0.928-0.033,1.118,0.022
						l-0.55,0.143l0.506,0.054c-0.346-0.055,0.423-0.086,0.549-0.143c1.135,0.05,0.803,0.023,1.514,0.16
						c0.738-0.088,1.638,0.104,1.683-0.092c1.343,0.134,2.774,0.154,4.051,0.177l0.564-0.115c1.514,0.161,2.204-0.011,3.778-0.019
						l-0.125,0.057l0.863-0.145c1.184,0.134,1.65-0.149,3.025,0.041c1.481,0.104,2.153-0.095,2.638-0.351
						c0.721-0.115,1.623,0.076,2.268,0.102l-0.422,0.086l0.536,0.11c0.929-0.033,0.978,0.051,2.19-0.039
						c1.656,0.132,1.41-0.288,2.116-0.432l1.581,0.272l-0.034-0.056c0.94-0.285,0.722-0.116,2.944-0.099l-0.099-0.168
						c0.745,0.192,1.07-0.062,2.031-0.038c0.471-0.003,1.91,0.3,2.742,0.099c1.688,0.188,2.513-0.293,3.962-0.244
						c0.869,0.136,1.494-0.147,1.656,0.132l-0.157,0.001l0.32,0.279l0.042-0.197c0.522,0.082,1.277,0.022,1.722,0.245l1.222-0.344
						c-0.299,0.03-0.629,0.004-0.961-0.022l0.033,0.056c-0.316,0.001-1.086,0.033-1.45-0.049l0.439-0.059
						c-0.504-0.054-0.082-0.14,0.06-0.169c1.01,0.107,0.737-0.088,1.51-0.119c0.173,0.026,0.504,0.054,0.381,0.11
						c0.455-0.03,1.655,0.132,1.697-0.065c0.033,0.011,0.058,0.019,0.09,0.029C89.616,42.401,89.107,42.047,88.452,41.712z"/>
				</g>
				<g>
					<path fill="#F2F2F2" d="M94.285,43.132c-2.141,0.761-4.801,2.073-6.459,3.479l1.339-3.549l-1.241-3.584
						C89.542,40.929,92.166,42.313,94.285,43.132z"/>
				</g>
			</g>
		</g>
		<g>
			<line fill="#403B3B" x1="32.64" y1="64.584" x2="94.285" y2="88.575"/>
			<g>
				<g>
					<path fill="#F2F2F2" d="M89.22,85.166c-0.5-0.146-0.97-0.262-1.388-0.328c-1.985-1.063-3.273-0.88-5.382-1.838
						c-1.919-0.739-3.328-1.14-5.119-1.981c-0.817,0.327-3.544-1.488-5.052-1.656c-0.943-0.288-1.524-0.264-0.862,0.101
						c-1.275-0.471-0.855-0.586-1.952-0.9l0.431-0.051c-0.33-0.182-0.678-0.43-1.148-0.574l-0.59-0.008
						c-1.175-0.704-2.037-0.604-3.352-1.269c0.835,0.488-0.451-0.047-0.412,0.147c-0.179-0.156-0.988-0.515-0.684-0.463
						c-1.134-0.508-2.329-0.59-2.88-1.123l-0.458-0.079c-0.77-0.165-1.289-0.536-1.938-0.836l-0.134,0.07
						c-0.463-0.111-1.267-0.438-1.612-0.686c-1.136-0.51-2.676-0.839-3.923-1.18c-1.147-0.573-0.749-0.067-1.851-0.414
						c-0.656-0.333-1.898-0.642-2.256-0.953c0.955,0.353,1.199,0.113,2.175,0.563c-0.344-0.246,1.733,0.551,0.896,0.062
						c-2.017-0.505-4.314-1.653-6.172-2.1c0.244-0.239-2.125-1.024-2.916-1.287l-0.019-0.097c-0.65-0.3-1.136-0.51-2.231-0.824
						c-1.274-0.471-2.542-0.909-3.545-1.489c-1.493-0.821-3.491-1.229-4.24-1.297c1.825,1.004,3.796,1.282,5.04,2.311
						c-1.302-0.601-1.434-0.529-2.517-0.779l0.504,0.306l-0.464-0.111c0.186,0.188-0.431,0.05-0.404,0.18l1.6,0.621
						c-0.823-0.424-0.212-0.318,0.08-0.33l0.81,0.359c-0.173-0.124-0.664-0.365-0.04-0.194c0.323,0.149,0.788,0.261,1.127,0.477
						l-0.741-0.035c1.074,0.218,1.665,0.944,2.741,1.162l0.217,0.35l0.957,0.354l-0.138,0.038l1.127,0.477
						c0.631,0.203,0.764,0.132,0.904,0.094c0.478,0.177,0.949,0.321,1.122,0.445l-0.606-0.075l0.492,0.242
						c-0.331-0.182,0.458,0.079,0.604,0.073c1.129,0.477,0.803,0.327,1.473,0.724c0.776,0.197,1.619,0.718,1.732,0.551
						c1.309,0.633,2.749,1.194,4.031,1.698l0.61,0.105c1.473,0.724,2.23,0.824,3.823,1.412l-0.146,0.006l0.923,0.191
						c1.149,0.574,1.719,0.485,3.041,1.184c1.46,0.659,2.208,0.726,2.788,0.67c0.768,0.164,1.612,0.686,2.256,0.953l-0.457-0.079
						l0.503,0.306c0.95,0.321,0.97,0.418,2.226,0.792c1.626,0.751,1.525,0.264,2.289,0.396l1.501,0.854l-0.015-0.065
						c1.05,0.089,0.77,0.165,3.008,1.021l-0.042-0.194c0.685,0.462,1.102,0.347,2.065,0.732c0.476,0.177,1.825,1.004,2.735,1.131
						c1.64,0.814,2.641,0.676,4.088,1.271c0.831,0.456,1.561,0.427,1.627,0.75l-0.159-0.059l0.226,0.383l0.111-0.169
						c0.5,0.274,1.282,0.504,1.655,0.881l1.354,0.141c-0.312-0.085-0.636-0.234-0.962-0.385l0.014,0.064
						c-0.32-0.118-1.108-0.379-1.447-0.595l0.464,0.112c-0.49-0.241-0.034-0.162,0.12-0.136c0.983,0.482,0.775,0.196,1.567,0.459
						c0.166,0.091,0.49,0.241,0.346,0.248c0.471,0.144,1.625,0.75,1.737,0.581c0.03,0.023,0.052,0.039,0.081,0.062
						C90.155,86.253,89.765,85.729,89.22,85.166z"/>
				</g>
				<g>
					<path fill="#F2F2F2" d="M94.285,88.575c-2.271-0.036-5.223,0.262-7.268,0.999l2.496-2.856l0.091-3.791
						C90.613,84.852,92.586,87.066,94.285,88.575z"/>
				</g>
			</g>
		</g>
		<g>
			<line fill="#403B3B" x1="32.64" y1="87.729" x2="94.285" y2="65.431"/>
			<g>
				<g>
					<path fill="#F2F2F2" d="M88.241,66.192c-0.469,0.217-0.894,0.438-1.249,0.661c-2.174,0.499-3.013,1.48-5.211,2.139
						c-1.913,0.7-3.224,1.32-5.108,1.859c-0.395,0.781-3.614,1.199-4.846,2.06c-0.891,0.4-1.308,0.8-0.576,0.641
						c-1.257,0.479-1.021,0.119-2.042,0.599l0.288-0.319c-0.365,0.079-0.786,0.119-1.231,0.319l-0.445,0.38
						c-1.335,0.239-1.911,0.88-3.326,1.239c0.941-0.179-0.367,0.26-0.21,0.381c-0.235,0-1.073,0.259-0.812,0.1
						c-1.177,0.359-2.121,1.079-2.88,1.039L60.2,77.528c-0.681,0.381-1.31,0.44-1.991,0.64l-0.053,0.141
						c-0.418,0.22-1.23,0.5-1.649,0.539c-1.179,0.36-2.542,1.12-3.693,1.68c-1.229,0.319-0.601,0.44-1.649,0.9
						c-0.706,0.18-1.833,0.76-2.304,0.759c0.941-0.359,0.967-0.699,1.989-0.999c-0.417,0.039,1.65-0.721,0.708-0.541
						c-1.833,0.939-4.295,1.579-5.971,2.459c0.025-0.341-2.253,0.619-3.013,0.939l-0.078-0.061c-0.68,0.199-1.179,0.359-2.201,0.84
						c-1.256,0.479-2.487,0.979-3.614,1.198c-1.649,0.359-3.404,1.359-4.006,1.8c2.016-0.438,3.666-1.52,5.265-1.559
						c-1.363,0.4-1.414,0.54-2.384,1.061l0.575-0.1l-0.418,0.22c0.262,0.021-0.288,0.32-0.183,0.4l1.597-0.579
						c-0.89,0.22-0.366-0.101-0.156-0.301l0.838-0.26c-0.21,0.02-0.733,0.159-0.157-0.121c0.339-0.099,0.758-0.319,1.151-0.379
						l-0.575,0.46c0.942-0.54,1.858-0.379,2.802-0.919l0.391,0.121l0.944-0.36l-0.078,0.12l1.151-0.379
						c0.603-0.26,0.655-0.4,0.734-0.521c0.472-0.18,0.917-0.379,1.126-0.399l-0.5,0.341l0.524-0.14
						c-0.365,0.079,0.393-0.24,0.498-0.34c1.153-0.381,0.812-0.28,1.571-0.42c0.707-0.359,1.675-0.519,1.65-0.72
						c1.389-0.38,2.829-0.898,4.113-1.359l0.523-0.319c1.571-0.419,2.2-0.84,3.771-1.439l-0.105,0.101l0.812-0.46
						c1.231-0.32,1.598-0.761,3.039-1.1c1.519-0.46,2.12-0.899,2.514-1.32c0.679-0.38,1.649-0.539,2.304-0.759l-0.392,0.239
						l0.574-0.099c0.918-0.381,0.996-0.32,2.176-0.86c1.703-0.5,1.308-0.8,1.963-1.2l1.677-0.339l-0.054-0.04
						c0.839-0.621,0.681-0.38,2.908-1.2l-0.158-0.12c0.813-0.1,1.048-0.459,2.018-0.8c0.47-0.179,2.016-0.438,2.776-0.938
						c1.754-0.46,2.409-1.221,3.875-1.72c0.917-0.2,1.441-0.7,1.703-0.499l-0.157,0.06l0.419,0.141l-0.028-0.2
						c0.551-0.12,1.284-0.46,1.809-0.419l1.1-0.781c-0.289,0.141-0.628,0.24-0.969,0.34l0.052,0.04
						c-0.315,0.121-1.073,0.44-1.467,0.5l0.419-0.22c-0.522,0.139-0.131-0.101,0-0.181c1.048-0.28,0.706-0.359,1.467-0.68
						c0.184-0.04,0.523-0.14,0.42-0.041c0.445-0.199,1.702-0.499,1.675-0.698c0.037-0.003,0.064-0.005,0.1-0.008
						C89.649,66.398,89.015,66.259,88.241,66.192z"/>
				</g>
				<g>
					<path fill="#F2F2F2" d="M94.285,65.431c-1.734,1.468-3.76,3.635-4.815,5.535v-3.794l-2.426-2.914
						C89.07,65.044,92.014,65.413,94.285,65.431z"/>
				</g>
			</g>
		</g>
		<g>
			<line fill="#403B3B" x1="32.64" y1="111.721" x2="94.285" y2="112.567"/>
			<g>
				<g>
					<path fill="#F2F2F2" d="M88.452,111.147c-0.482,0.038-0.928,0.096-1.313,0.18c-2.068-0.299-3.127,0.324-5.271,0.166
						c-1.906-0.019-3.259,0.101-5.088-0.06c-0.604,0.593-3.561-0.15-4.924,0.222c-0.913,0.061-1.41,0.287-0.716,0.396
						c-1.26,0.006-0.933-0.248-1.987-0.159l0.358-0.198c-0.346-0.055-0.728-0.165-1.184-0.135l-0.516,0.199
						c-1.249-0.246-1.965,0.15-3.322-0.012c0.884,0.164-0.407,0.114-0.311,0.283c-0.206-0.084-1.025-0.136-0.744-0.193
						c-1.149-0.078-2.214,0.264-2.865-0.042l-0.423,0.086c-0.722,0.116-1.292-0.049-1.955-0.103l-0.093,0.113
						c-0.438,0.058-1.242,0.034-1.623-0.076c-1.151-0.079-2.596,0.153-3.79,0.271c-1.182-0.135-0.672,0.199-1.742,0.261
						c-0.678-0.081-1.857,0.065-2.269-0.101c0.943-0.005,1.079-0.314,2.072-0.235c-0.378-0.11,1.684-0.093,0.799-0.257
						c-1.916,0.234-4.283-0.035-6.042,0.198c0.135-0.309-2.178-0.214-2.949-0.182l-0.048-0.084
						c-0.662-0.053-1.152-0.079-2.205,0.011c-1.259,0.006-2.502,0.04-3.562-0.151c-1.563-0.245-3.43,0.073-4.104,0.273
						c1.91,0.3,3.713-0.131,5.125,0.396c-1.325-0.106-1.417,0.007-2.438,0.152l0.537,0.109l-0.439,0.059
						c0.222,0.111-0.358,0.198-0.293,0.31l1.59,0.021c-0.852-0.108-0.288-0.223-0.037-0.337l0.819,0.053
						c-0.19-0.056-0.695-0.109-0.097-0.168c0.329,0.026,0.769-0.032,1.133,0.05l-0.655,0.229c1.003-0.174,1.752,0.3,2.758,0.127
						l0.301,0.251l0.946-0.005l-0.108,0.085l1.134,0.051c0.613-0.031,0.706-0.145,0.815-0.229c0.472-0.003,0.928-0.033,1.118,0.022
						l-0.55,0.143l0.506,0.054c-0.346-0.055,0.423-0.086,0.549-0.143c1.135,0.05,0.803,0.023,1.514,0.16
						c0.738-0.088,1.638,0.104,1.683-0.092c1.343,0.134,2.774,0.154,4.051,0.177l0.564-0.115c1.514,0.161,2.204-0.011,3.778-0.019
						l-0.125,0.057l0.863-0.145c1.184,0.134,1.65-0.149,3.025,0.041c1.481,0.104,2.153-0.095,2.638-0.351
						c0.721-0.115,1.623,0.076,2.268,0.102l-0.422,0.086l0.536,0.11c0.929-0.033,0.978,0.051,2.19-0.039
						c1.656,0.132,1.41-0.288,2.116-0.432l1.581,0.272l-0.034-0.056c0.94-0.285,0.722-0.116,2.944-0.099l-0.099-0.168
						c0.745,0.192,1.07-0.062,2.031-0.038c0.471-0.003,1.91,0.3,2.742,0.099c1.688,0.188,2.513-0.293,3.962-0.244
						c0.869,0.136,1.494-0.147,1.656,0.132l-0.157,0.001l0.32,0.279l0.042-0.197c0.522,0.082,1.277,0.022,1.722,0.245l1.222-0.344
						c-0.299,0.03-0.629,0.004-0.961-0.022l0.033,0.056c-0.316,0.001-1.086,0.033-1.45-0.049l0.439-0.059
						c-0.504-0.054-0.082-0.14,0.06-0.169c1.01,0.107,0.737-0.088,1.51-0.119c0.173,0.026,0.504,0.054,0.381,0.11
						c0.455-0.03,1.655,0.132,1.697-0.065c0.033,0.011,0.058,0.019,0.09,0.029C89.616,111.837,89.107,111.482,88.452,111.147z"/>
				</g>
				<g>
					<path fill="#F2F2F2" d="M94.285,112.567c-2.141,0.761-4.801,2.073-6.459,3.479l1.339-3.549l-1.241-3.584
						C89.542,110.364,92.166,111.749,94.285,112.567z"/>
				</g>
			</g>
		</g>
		<g>
			<line fill="#403B3B" x1="32.64" y1="134.442" x2="94.285" y2="135.289"/>
			<g>
				<g>
					<path fill="#F2F2F2" d="M88.452,133.869c-0.482,0.038-0.928,0.096-1.313,0.18c-2.068-0.299-3.127,0.324-5.271,0.166
						c-1.906-0.019-3.259,0.101-5.088-0.059c-0.604,0.592-3.561-0.151-4.924,0.221c-0.913,0.061-1.41,0.287-0.716,0.396
						c-1.26,0.006-0.933-0.248-1.987-0.159l0.358-0.198c-0.346-0.055-0.728-0.165-1.184-0.135l-0.516,0.199
						c-1.249-0.246-1.965,0.15-3.322-0.012c0.884,0.164-0.407,0.114-0.311,0.283c-0.206-0.084-1.025-0.136-0.744-0.193
						c-1.149-0.078-2.214,0.264-2.865-0.042l-0.423,0.086c-0.722,0.116-1.292-0.05-1.955-0.103l-0.093,0.113
						c-0.438,0.058-1.242,0.034-1.623-0.076c-1.151-0.079-2.596,0.153-3.79,0.271c-1.182-0.135-0.672,0.199-1.742,0.261
						c-0.678-0.081-1.857,0.065-2.269-0.101c0.943-0.005,1.079-0.314,2.072-0.235c-0.378-0.11,1.684-0.093,0.799-0.257
						c-1.916,0.234-4.283-0.035-6.042,0.198c0.135-0.31-2.178-0.214-2.949-0.182l-0.048-0.084c-0.662-0.053-1.152-0.079-2.205,0.011
						c-1.259,0.006-2.502,0.04-3.562-0.15c-1.563-0.246-3.43,0.072-4.104,0.272c1.91,0.3,3.713-0.131,5.125,0.396
						c-1.325-0.105-1.417,0.008-2.438,0.152l0.537,0.11l-0.439,0.059c0.222,0.111-0.358,0.198-0.293,0.31l1.59,0.021
						c-0.852-0.108-0.288-0.224-0.037-0.337l0.819,0.053c-0.19-0.056-0.695-0.109-0.097-0.168c0.329,0.026,0.769-0.032,1.133,0.05
						l-0.655,0.229c1.003-0.174,1.752,0.3,2.758,0.127l0.301,0.251l0.946-0.005l-0.108,0.085l1.134,0.051
						c0.613-0.031,0.706-0.145,0.815-0.229c0.472-0.003,0.928-0.033,1.118,0.022l-0.55,0.143l0.506,0.054
						c-0.346-0.055,0.423-0.086,0.549-0.143c1.135,0.05,0.803,0.023,1.514,0.16c0.738-0.088,1.638,0.104,1.683-0.092
						c1.343,0.134,2.774,0.154,4.051,0.177l0.564-0.115c1.514,0.161,2.204-0.011,3.778-0.019l-0.125,0.057l0.863-0.145
						c1.184,0.134,1.65-0.148,3.025,0.041c1.481,0.104,2.153-0.095,2.638-0.351c0.721-0.115,1.623,0.076,2.268,0.102l-0.422,0.086
						l0.536,0.11c0.929-0.033,0.978,0.051,2.19-0.039c1.656,0.132,1.41-0.288,2.116-0.432l1.581,0.272l-0.034-0.056
						c0.94-0.285,0.722-0.116,2.944-0.099l-0.099-0.168c0.745,0.192,1.07-0.062,2.031-0.038c0.471-0.002,1.91,0.299,2.742,0.099
						c1.688,0.188,2.513-0.293,3.962-0.244c0.869,0.136,1.494-0.147,1.656,0.132l-0.157,0.001l0.32,0.279l0.042-0.196
						c0.522,0.081,1.277,0.021,1.722,0.244l1.222-0.344c-0.299,0.03-0.629,0.004-0.961-0.023l0.033,0.057
						c-0.316,0.001-1.086,0.033-1.45-0.049l0.439-0.059c-0.504-0.054-0.082-0.14,0.06-0.169c1.01,0.107,0.737-0.088,1.51-0.119
						c0.173,0.026,0.504,0.054,0.381,0.11c0.455-0.03,1.655,0.132,1.697-0.064c0.033,0.01,0.058,0.018,0.09,0.028
						C89.616,134.559,89.107,134.204,88.452,133.869z"/>
				</g>
				<g>
					<path fill="#F2F2F2" d="M94.285,135.289c-2.141,0.761-4.801,2.073-6.459,3.479l1.339-3.549l-1.241-3.584
						C89.542,133.086,92.166,134.471,94.285,135.289z"/>
				</g>
			</g>
		</g>
	</g>
	<g>
		<g>
			<line fill="#403B3B" x1="33.174" y1="41.785" x2="94.819" y2="42.632"/>
			<g>
				<g>
					<path fill="#403B3B" d="M88.986,41.212c-0.482,0.038-0.928,0.096-1.313,0.18c-2.068-0.299-3.127,0.324-5.271,0.166
						c-1.906-0.019-3.259,0.101-5.088-0.059c-0.604,0.592-3.561-0.151-4.924,0.221c-0.913,0.061-1.41,0.287-0.716,0.396
						c-1.26,0.006-0.933-0.248-1.987-0.159l0.358-0.198c-0.346-0.055-0.728-0.165-1.184-0.135l-0.516,0.199
						c-1.249-0.246-1.965,0.15-3.322-0.012c0.884,0.164-0.407,0.114-0.311,0.283c-0.206-0.084-1.025-0.136-0.744-0.193
						c-1.149-0.078-2.214,0.264-2.865-0.042l-0.423,0.086c-0.722,0.116-1.292-0.05-1.955-0.103l-0.093,0.113
						c-0.438,0.058-1.242,0.034-1.623-0.076c-1.151-0.079-2.596,0.153-3.79,0.271c-1.182-0.135-0.672,0.199-1.742,0.261
						c-0.678-0.081-1.857,0.065-2.269-0.101c0.943-0.005,1.079-0.314,2.072-0.235c-0.378-0.11,1.684-0.093,0.799-0.257
						c-1.916,0.234-4.283-0.035-6.042,0.198c0.135-0.309-2.178-0.214-2.949-0.182l-0.048-0.084
						c-0.662-0.053-1.152-0.079-2.205,0.011c-1.259,0.006-2.502,0.04-3.562-0.151c-1.563-0.245-3.43,0.073-4.104,0.273
						c1.91,0.3,3.713-0.131,5.125,0.396c-1.325-0.106-1.417,0.007-2.438,0.152l0.537,0.109l-0.439,0.059
						c0.222,0.111-0.358,0.198-0.293,0.31l1.59,0.021c-0.852-0.108-0.288-0.223-0.037-0.337l0.819,0.053
						c-0.19-0.056-0.695-0.109-0.097-0.168c0.329,0.026,0.769-0.032,1.133,0.05l-0.655,0.229c1.003-0.174,1.752,0.3,2.758,0.127
						l0.301,0.251l0.946-0.005l-0.108,0.085l1.134,0.051c0.613-0.031,0.706-0.145,0.815-0.229c0.472-0.003,0.928-0.033,1.118,0.022
						l-0.55,0.143l0.506,0.054c-0.346-0.055,0.423-0.086,0.549-0.143c1.135,0.05,0.803,0.023,1.514,0.16
						c0.738-0.088,1.638,0.104,1.683-0.092c1.343,0.134,2.774,0.154,4.051,0.177l0.564-0.115c1.514,0.161,2.204-0.011,3.778-0.019
						l-0.125,0.057l0.863-0.145c1.184,0.134,1.65-0.149,3.025,0.041c1.481,0.104,2.153-0.095,2.638-0.351
						c0.721-0.115,1.623,0.076,2.268,0.102l-0.422,0.086l0.536,0.11c0.929-0.033,0.978,0.051,2.19-0.039
						c1.656,0.132,1.41-0.288,2.116-0.432l1.581,0.272l-0.034-0.056c0.94-0.285,0.722-0.116,2.944-0.099l-0.099-0.168
						c0.745,0.192,1.07-0.062,2.031-0.038c0.471-0.003,1.91,0.3,2.742,0.099c1.688,0.188,2.513-0.293,3.962-0.244
						c0.869,0.136,1.494-0.147,1.656,0.132l-0.157,0.001l0.32,0.279l0.042-0.197c0.522,0.082,1.277,0.022,1.722,0.245l1.222-0.344
						c-0.299,0.03-0.629,0.004-0.961-0.022l0.033,0.056c-0.316,0.001-1.086,0.033-1.45-0.049l0.439-0.059
						c-0.504-0.054-0.082-0.14,0.06-0.169c1.01,0.107,0.737-0.088,1.51-0.119c0.173,0.026,0.504,0.054,0.381,0.11
						c0.455-0.03,1.655,0.132,1.697-0.065c0.033,0.011,0.058,0.019,0.09,0.029C90.15,41.901,89.641,41.547,88.986,41.212z"/>
				</g>
				<g>
					<path fill="#403B3B" d="M94.819,42.632c-2.141,0.761-4.801,2.073-6.459,3.479l1.339-3.549l-1.241-3.584
						C90.076,40.429,92.7,41.813,94.819,42.632z"/>
				</g>
			</g>
		</g>
		<g>
			<line fill="#403B3B" x1="33.174" y1="64.084" x2="94.819" y2="88.075"/>
			<g>
				<g>
					<path fill="#403B3B" d="M89.754,84.666c-0.5-0.146-0.97-0.262-1.388-0.328c-1.985-1.063-3.273-0.88-5.382-1.838
						c-1.919-0.739-3.328-1.14-5.119-1.981c-0.817,0.327-3.544-1.488-5.052-1.656c-0.943-0.288-1.524-0.264-0.862,0.101
						c-1.275-0.471-0.855-0.586-1.952-0.9l0.431-0.051c-0.33-0.182-0.678-0.43-1.148-0.574l-0.59-0.008
						c-1.175-0.704-2.037-0.604-3.352-1.269c0.835,0.488-0.451-0.047-0.412,0.147c-0.179-0.156-0.988-0.515-0.684-0.463
						c-1.134-0.508-2.329-0.59-2.88-1.123l-0.458-0.079c-0.77-0.165-1.289-0.536-1.938-0.836l-0.134,0.07
						c-0.463-0.111-1.267-0.438-1.612-0.686c-1.136-0.51-2.676-0.839-3.923-1.18c-1.147-0.573-0.749-0.067-1.851-0.414
						c-0.656-0.333-1.898-0.642-2.256-0.953c0.955,0.353,1.199,0.113,2.175,0.563c-0.344-0.246,1.733,0.551,0.896,0.062
						c-2.017-0.505-4.314-1.653-6.172-2.1c0.244-0.239-2.125-1.024-2.916-1.287l-0.019-0.097c-0.65-0.3-1.136-0.51-2.231-0.824
						c-1.274-0.471-2.542-0.909-3.545-1.489c-1.493-0.821-3.491-1.229-4.24-1.297c1.825,1.004,3.796,1.282,5.04,2.311
						c-1.302-0.601-1.434-0.529-2.517-0.779l0.504,0.306l-0.464-0.111c0.186,0.188-0.431,0.05-0.404,0.18l1.6,0.621
						c-0.823-0.424-0.212-0.318,0.08-0.33l0.81,0.359c-0.173-0.124-0.664-0.365-0.04-0.194c0.323,0.149,0.788,0.261,1.127,0.477
						l-0.741-0.035c1.074,0.218,1.665,0.944,2.741,1.162l0.217,0.35l0.957,0.354l-0.138,0.038l1.127,0.477
						c0.631,0.203,0.764,0.132,0.904,0.094c0.478,0.177,0.949,0.321,1.122,0.445l-0.606-0.075l0.492,0.242
						c-0.331-0.182,0.458,0.079,0.604,0.073c1.129,0.477,0.803,0.327,1.473,0.724c0.776,0.197,1.619,0.718,1.732,0.551
						c1.309,0.633,2.749,1.194,4.031,1.698l0.61,0.105c1.473,0.724,2.23,0.824,3.823,1.412l-0.146,0.006l0.923,0.191
						c1.149,0.574,1.719,0.485,3.041,1.184c1.46,0.659,2.208,0.726,2.788,0.67c0.768,0.164,1.612,0.686,2.256,0.953l-0.457-0.079
						l0.503,0.306c0.95,0.321,0.97,0.418,2.226,0.792c1.626,0.751,1.525,0.264,2.289,0.396l1.501,0.854l-0.015-0.065
						c1.05,0.089,0.77,0.165,3.008,1.021l-0.042-0.194c0.685,0.462,1.102,0.347,2.065,0.732c0.476,0.177,1.825,1.004,2.735,1.131
						c1.64,0.814,2.641,0.676,4.088,1.271c0.831,0.456,1.561,0.427,1.627,0.75l-0.159-0.059l0.226,0.383l0.111-0.169
						c0.5,0.274,1.282,0.504,1.655,0.881l1.354,0.141c-0.312-0.085-0.636-0.234-0.962-0.385l0.014,0.064
						c-0.32-0.118-1.108-0.379-1.447-0.595l0.464,0.112c-0.49-0.241-0.034-0.162,0.12-0.136c0.983,0.482,0.775,0.196,1.567,0.459
						c0.166,0.091,0.49,0.241,0.346,0.248c0.471,0.144,1.625,0.75,1.737,0.581c0.03,0.023,0.052,0.039,0.081,0.062
						C90.689,85.753,90.299,85.229,89.754,84.666z"/>
				</g>
				<g>
					<path fill="#403B3B" d="M94.819,88.075c-2.271-0.036-5.223,0.262-7.268,0.999l2.496-2.856l0.091-3.791
						C91.147,84.352,93.12,86.566,94.819,88.075z"/>
				</g>
			</g>
		</g>
		<g>
			<line fill="#403B3B" x1="33.174" y1="87.229" x2="94.819" y2="64.931"/>
			<g>
				<g>
					<path fill="#403B3B" d="M88.775,65.692c-0.469,0.217-0.894,0.438-1.249,0.661c-2.174,0.499-3.013,1.48-5.211,2.139
						c-1.913,0.7-3.224,1.32-5.108,1.859c-0.395,0.781-3.614,1.199-4.846,2.06c-0.891,0.4-1.308,0.8-0.576,0.641
						c-1.257,0.479-1.021,0.119-2.042,0.599l0.288-0.319c-0.365,0.079-0.786,0.119-1.231,0.319l-0.445,0.38
						c-1.335,0.239-1.911,0.88-3.326,1.239c0.941-0.179-0.367,0.26-0.21,0.381c-0.235,0-1.073,0.259-0.812,0.1
						c-1.177,0.359-2.121,1.079-2.88,1.039l-0.393,0.239c-0.681,0.381-1.31,0.44-1.991,0.64l-0.053,0.141
						c-0.418,0.22-1.23,0.5-1.649,0.539c-1.179,0.36-2.542,1.12-3.693,1.68c-1.229,0.319-0.601,0.44-1.649,0.9
						c-0.706,0.18-1.833,0.76-2.304,0.759c0.941-0.359,0.967-0.699,1.989-0.999c-0.417,0.039,1.65-0.721,0.708-0.541
						c-1.833,0.939-4.295,1.579-5.971,2.459c0.025-0.341-2.253,0.619-3.013,0.939l-0.078-0.061c-0.68,0.199-1.179,0.359-2.201,0.84
						c-1.256,0.479-2.487,0.979-3.614,1.198c-1.649,0.359-3.404,1.359-4.006,1.8c2.016-0.438,3.666-1.52,5.265-1.559
						c-1.363,0.4-1.414,0.54-2.384,1.061l0.575-0.1l-0.418,0.22c0.262,0.021-0.288,0.32-0.183,0.4l1.597-0.579
						c-0.89,0.22-0.366-0.101-0.156-0.301l0.838-0.26c-0.21,0.02-0.733,0.159-0.157-0.121c0.339-0.099,0.758-0.319,1.151-0.379
						l-0.575,0.46c0.942-0.54,1.858-0.379,2.802-0.919l0.391,0.121l0.944-0.36l-0.078,0.12l1.151-0.379
						c0.603-0.26,0.655-0.4,0.734-0.521c0.472-0.18,0.917-0.379,1.126-0.399l-0.5,0.341l0.524-0.14
						c-0.365,0.079,0.393-0.24,0.498-0.34c1.153-0.381,0.812-0.28,1.571-0.42c0.707-0.359,1.675-0.519,1.65-0.72
						c1.389-0.38,2.829-0.898,4.113-1.359l0.523-0.319c1.571-0.419,2.2-0.84,3.771-1.439l-0.105,0.101l0.812-0.46
						c1.231-0.32,1.598-0.761,3.039-1.1c1.519-0.46,2.12-0.899,2.514-1.32c0.679-0.38,1.649-0.539,2.304-0.759l-0.392,0.239
						l0.574-0.099c0.918-0.381,0.996-0.32,2.176-0.86c1.703-0.5,1.308-0.8,1.963-1.2l1.677-0.339l-0.054-0.04
						c0.839-0.621,0.681-0.38,2.908-1.2l-0.158-0.12c0.813-0.1,1.048-0.459,2.018-0.8c0.47-0.179,2.016-0.438,2.776-0.938
						c1.754-0.46,2.409-1.221,3.875-1.72c0.917-0.2,1.441-0.7,1.703-0.499l-0.157,0.06l0.419,0.141l-0.028-0.2
						c0.551-0.12,1.284-0.46,1.809-0.419l1.1-0.781c-0.289,0.141-0.628,0.24-0.969,0.34l0.052,0.04
						c-0.315,0.121-1.073,0.44-1.467,0.5l0.419-0.22c-0.522,0.139-0.131-0.101,0-0.181c1.048-0.28,0.706-0.359,1.467-0.68
						c0.184-0.04,0.523-0.14,0.42-0.041c0.445-0.199,1.702-0.499,1.675-0.698c0.037-0.003,0.064-0.005,0.1-0.008
						C90.183,65.898,89.549,65.759,88.775,65.692z"/>
				</g>
				<g>
					<path fill="#403B3B" d="M94.819,64.931c-1.734,1.468-3.76,3.635-4.815,5.535v-3.794l-2.426-2.914
						C89.604,64.544,92.548,64.913,94.819,64.931z"/>
				</g>
			</g>
		</g>
		<g>
			<line fill="#403B3B" x1="33.174" y1="111.221" x2="94.819" y2="112.067"/>
			<g>
				<g>
					<path fill="#403B3B" d="M88.986,110.647c-0.482,0.038-0.928,0.096-1.313,0.18c-2.068-0.299-3.127,0.324-5.271,0.166
						c-1.906-0.019-3.259,0.101-5.088-0.06c-0.604,0.593-3.561-0.15-4.924,0.222c-0.913,0.061-1.41,0.287-0.716,0.396
						c-1.26,0.006-0.933-0.248-1.987-0.159l0.358-0.198c-0.346-0.055-0.728-0.165-1.184-0.135l-0.516,0.199
						c-1.249-0.246-1.965,0.15-3.322-0.012c0.884,0.164-0.407,0.114-0.311,0.283c-0.206-0.084-1.025-0.136-0.744-0.193
						c-1.149-0.078-2.214,0.264-2.865-0.042l-0.423,0.086c-0.722,0.116-1.292-0.049-1.955-0.103l-0.093,0.113
						c-0.438,0.058-1.242,0.034-1.623-0.076c-1.151-0.079-2.596,0.153-3.79,0.271c-1.182-0.135-0.672,0.199-1.742,0.261
						c-0.678-0.081-1.857,0.065-2.269-0.101c0.943-0.005,1.079-0.314,2.072-0.235c-0.378-0.11,1.684-0.093,0.799-0.257
						c-1.916,0.234-4.283-0.035-6.042,0.198c0.135-0.309-2.178-0.214-2.949-0.182l-0.048-0.084
						c-0.662-0.053-1.152-0.079-2.205,0.011c-1.259,0.006-2.502,0.04-3.562-0.151c-1.563-0.245-3.43,0.073-4.104,0.273
						c1.91,0.3,3.713-0.131,5.125,0.396c-1.325-0.106-1.417,0.007-2.438,0.152l0.537,0.109l-0.439,0.059
						c0.222,0.111-0.358,0.198-0.293,0.31l1.59,0.021c-0.852-0.108-0.288-0.223-0.037-0.337l0.819,0.053
						c-0.19-0.056-0.695-0.109-0.097-0.168c0.329,0.026,0.769-0.032,1.133,0.05l-0.655,0.229c1.003-0.174,1.752,0.3,2.758,0.127
						l0.301,0.251l0.946-0.005l-0.108,0.085l1.134,0.051c0.613-0.031,0.706-0.145,0.815-0.229c0.472-0.003,0.928-0.033,1.118,0.022
						l-0.55,0.143l0.506,0.054c-0.346-0.055,0.423-0.086,0.549-0.143c1.135,0.05,0.803,0.023,1.514,0.16
						c0.738-0.088,1.638,0.104,1.683-0.092c1.343,0.134,2.774,0.154,4.051,0.177l0.564-0.115c1.514,0.161,2.204-0.011,3.778-0.019
						l-0.125,0.057l0.863-0.145c1.184,0.134,1.65-0.149,3.025,0.041c1.481,0.104,2.153-0.095,2.638-0.351
						c0.721-0.115,1.623,0.076,2.268,0.102l-0.422,0.086l0.536,0.11c0.929-0.033,0.978,0.051,2.19-0.039
						c1.656,0.132,1.41-0.288,2.116-0.432l1.581,0.272l-0.034-0.056c0.94-0.285,0.722-0.116,2.944-0.099l-0.099-0.168
						c0.745,0.192,1.07-0.062,2.031-0.038c0.471-0.003,1.91,0.3,2.742,0.099c1.688,0.188,2.513-0.293,3.962-0.244
						c0.869,0.136,1.494-0.147,1.656,0.132l-0.157,0.001l0.32,0.279l0.042-0.197c0.522,0.082,1.277,0.022,1.722,0.245l1.222-0.344
						c-0.299,0.03-0.629,0.004-0.961-0.022l0.033,0.056c-0.316,0.001-1.086,0.033-1.45-0.049l0.439-0.059
						c-0.504-0.054-0.082-0.14,0.06-0.169c1.01,0.107,0.737-0.088,1.51-0.119c0.173,0.026,0.504,0.054,0.381,0.11
						c0.455-0.03,1.655,0.132,1.697-0.065c0.033,0.011,0.058,0.019,0.09,0.029C90.15,111.337,89.641,110.982,88.986,110.647z"/>
				</g>
				<g>
					<path fill="#403B3B" d="M94.819,112.067c-2.141,0.761-4.801,2.073-6.459,3.479l1.339-3.549l-1.241-3.584
						C90.076,109.864,92.7,111.249,94.819,112.067z"/>
				</g>
			</g>
		</g>
		<g>
			<line fill="#403B3B" x1="33.174" y1="133.942" x2="94.819" y2="134.789"/>
			<g>
				<g>
					<path fill="#403B3B" d="M88.986,133.369c-0.482,0.038-0.928,0.096-1.313,0.18c-2.068-0.299-3.127,0.324-5.271,0.166
						c-1.906-0.019-3.259,0.101-5.088-0.059c-0.604,0.592-3.561-0.151-4.924,0.221c-0.913,0.061-1.41,0.287-0.716,0.396
						c-1.26,0.006-0.933-0.248-1.987-0.159l0.358-0.198c-0.346-0.055-0.728-0.165-1.184-0.135l-0.516,0.199
						c-1.249-0.246-1.965,0.15-3.322-0.012c0.884,0.164-0.407,0.114-0.311,0.283c-0.206-0.084-1.025-0.136-0.744-0.193
						c-1.149-0.078-2.214,0.264-2.865-0.042l-0.423,0.086c-0.722,0.116-1.292-0.05-1.955-0.103l-0.093,0.113
						c-0.438,0.058-1.242,0.034-1.623-0.076c-1.151-0.079-2.596,0.153-3.79,0.271c-1.182-0.135-0.672,0.199-1.742,0.261
						c-0.678-0.081-1.857,0.065-2.269-0.101c0.943-0.005,1.079-0.314,2.072-0.235c-0.378-0.11,1.684-0.093,0.799-0.257
						c-1.916,0.234-4.283-0.035-6.042,0.198c0.135-0.31-2.178-0.214-2.949-0.182l-0.048-0.084c-0.662-0.053-1.152-0.079-2.205,0.011
						c-1.259,0.006-2.502,0.04-3.562-0.15c-1.563-0.246-3.43,0.072-4.104,0.272c1.91,0.3,3.713-0.131,5.125,0.396
						c-1.325-0.105-1.417,0.008-2.438,0.152l0.537,0.11l-0.439,0.059c0.222,0.111-0.358,0.198-0.293,0.31l1.59,0.021
						c-0.852-0.108-0.288-0.224-0.037-0.337l0.819,0.053c-0.19-0.056-0.695-0.109-0.097-0.168c0.329,0.026,0.769-0.032,1.133,0.05
						l-0.655,0.229c1.003-0.174,1.752,0.3,2.758,0.127l0.301,0.251l0.946-0.005l-0.108,0.085l1.134,0.051
						c0.613-0.031,0.706-0.145,0.815-0.229c0.472-0.003,0.928-0.033,1.118,0.022l-0.55,0.143l0.506,0.054
						c-0.346-0.055,0.423-0.086,0.549-0.143c1.135,0.05,0.803,0.023,1.514,0.16c0.738-0.088,1.638,0.104,1.683-0.092
						c1.343,0.134,2.774,0.154,4.051,0.177l0.564-0.115c1.514,0.161,2.204-0.011,3.778-0.019l-0.125,0.057l0.863-0.145
						c1.184,0.134,1.65-0.148,3.025,0.041c1.481,0.104,2.153-0.095,2.638-0.351c0.721-0.115,1.623,0.076,2.268,0.102l-0.422,0.086
						l0.536,0.11c0.929-0.033,0.978,0.051,2.19-0.039c1.656,0.132,1.41-0.288,2.116-0.432l1.581,0.272l-0.034-0.056
						c0.94-0.285,0.722-0.116,2.944-0.099l-0.099-0.168c0.745,0.192,1.07-0.062,2.031-0.038c0.471-0.002,1.91,0.299,2.742,0.099
						c1.688,0.188,2.513-0.293,3.962-0.244c0.869,0.136,1.494-0.147,1.656,0.132l-0.157,0.001l0.32,0.279l0.042-0.196
						c0.522,0.081,1.277,0.021,1.722,0.244l1.222-0.344c-0.299,0.03-0.629,0.004-0.961-0.023l0.033,0.057
						c-0.316,0.001-1.086,0.033-1.45-0.049l0.439-0.059c-0.504-0.054-0.082-0.14,0.06-0.169c1.01,0.107,0.737-0.088,1.51-0.119
						c0.173,0.026,0.504,0.054,0.381,0.11c0.455-0.03,1.655,0.132,1.697-0.064c0.033,0.01,0.058,0.018,0.09,0.028
						C90.15,134.059,89.641,133.704,88.986,133.369z"/>
				</g>
				<g>
					<path fill="#403B3B" d="M94.819,134.789c-2.141,0.761-4.801,2.073-6.459,3.479l1.339-3.549l-1.241-3.584
						C90.076,132.586,92.7,133.971,94.819,134.789z"/>
				</g>
			</g>
		</g>
	</g>
</g>
</svg>
