<?xml version="1.0" encoding="utf-8"?>
<!-- Generator: Adobe Illustrator 16.0.0, SVG Export Plug-In . SVG Version: 6.00 Build 0)  -->
<!DOCTYPE svg PUBLIC "-//W3C//DTD SVG 1.1//EN" "http://www.w3.org/Graphics/SVG/1.1/DTD/svg11.dtd">
<svg version="1.1" xmlns="http://www.w3.org/2000/svg" xmlns:xlink="http://www.w3.org/1999/xlink" x="0px" y="0px" width="130px"
	 height="180px" viewBox="0 0 130 180" enable-background="new 0 0 130 180" xml:space="preserve">
<g id="_x31_3_-_Problem_Solving__x28_Lightbulb_x29_">
</g>
<g id="_x31_2_-_Calculus__x26__Vectors__x28_Unit_Vectors_x29_">
</g>
<g id="_x31_1_-_Advanced_Functions">
</g>
<g id="_x39__-_Grades_7__x26__8">
</g>
<g id="_x38__-_CS__x28_Binary_Digits_x29_">
</g>
<g id="_x37__-_NS__x28_Blocks_x3B__Prime_factorization_of_12_x29_">
</g>
<g id="_x36__-_LR__x28_Intersection_of_lines_x29_">
</g>
<g id="_x35__-_SS__x28_Pascal_x27_s_triangle_x29_">
</g>
<g id="_x34__-_MT__x28_Cone_and_Sphere_x29_">
</g>
<g id="_x33__-_QR__x28_Suspension_Bridge_x29_">
	<linearGradient id="SVGID_1_" gradientUnits="userSpaceOnUse" x1="29.999" y1="101.5181" x2="82.7591" y2="157.535">
		<stop  offset="0" style="stop-color:#57D7FF"/>
		<stop  offset="0.0402" style="stop-color:#66DBFF"/>
		<stop  offset="0.1732" style="stop-color:#95E6FF"/>
		<stop  offset="0.3065" style="stop-color:#BBEFFF"/>
		<stop  offset="0.438" style="stop-color:#D9F6FF"/>
		<stop  offset="0.5671" style="stop-color:#EEFBFF"/>
		<stop  offset="0.6929" style="stop-color:#FBFEFF"/>
		<stop  offset="0.8112" style="stop-color:#FFFFFF"/>
	</linearGradient>
	<path fill="url(#SVGID_1_)" d="M74.792,166.711c0,0,64.596-18.417,45.139-41.37c-14.264-16.826-42.002-33.644-55.19-38.779
		s-27.702-4.974-32.406,5.729c-7.971,18.135-22.52,69.144-7.482,74.42S74.792,166.711,74.792,166.711z"/>
	<g>
		<path fill="#BFA25A" d="M107.442,108.516c0,0-22.956-21.591-32.466-22.778s-26.789-7.47-33.236-6.938s0-42.559,0-42.559
			l73.859-6.024L107.442,108.516z"/>
		<g>
			<g>
				<g>
					<path fill="#292D73" d="M53.646,82.589c0.292,0.039,0.586,0.078,0.869,0.116c5.267,0.676,10.512,1.481,15.944,3.783
						c1.886,0.816,3.854,1.8,5.795,2.839c0.958,0.537,1.9,1.127,2.818,1.687c0.875,0.588,1.734,1.166,2.563,1.724
						c-0.969-0.689-1.915-1.392-2.929-2.07c-1.045-0.658-2.075-1.361-3.184-1.922c-2.17-1.221-4.475-2.185-6.798-3.033
						c-4.67-1.677-9.456-2.71-14.17-3.419c0.975-0.271,2.153-0.453,3.489-0.294c3.199,0.484,6.31,1.18,9.332,2.128
						c-0.038,0.131-0.113,0.386-0.15,0.515c4.325,1.081,8.303,3.011,11.881,5.485c3.434,2.413,6.705,4.939,10.293,7.297
						c-0.197-0.243,0.014-0.219,0.117-0.25l0.048,0.037l-0.048-0.037c0.092-0.026,0.101-0.094-0.321-0.42
						c0.422,0.326,0.413,0.394,0.321,0.42c-3.369-2.532-6.675-4.953-10.093-7.268c-3.6-2.4-7.518-4.25-11.705-5.665
						c3.266,1.05,6.429,2.381,9.415,4.068l2.196,1.342c0.724,0.45,1.36,0.914,2.045,1.368c1.359,0.9,2.665,1.862,3.996,2.799
						c2.623,1.915,5.201,3.893,7.747,5.89c2.547,1.981,5.074,4.025,7.621,5.706c0.217,0.141,0.541,0.352,0.866,0.563
						c0.321,0.182,0.643,0.363,0.857,0.484c1.513,1.308,3.208,2.009,4.632,1.821c-0.149,0.347,0.216,0.827,0.23,1.205
						c0.003,0.212-0.107,0.374-0.484,0.487c-0.188,0.055-0.442,0.106-0.777,0.127c-0.337-0.038-0.753-0.108-1.256-0.209
						c-0.029,0.131-0.089,0.395-0.119,0.526c0.527,0.148,1.021,0.361,1.49,0.495c0.472,0.098,0.915,0.211,1.319,0.332
						c0.788,0.104,1.434,0.267,1.782,0.497c0.273,0.225,0.41,0.537-0.043,0.923c-0.438,0.375-1.362,0.929-2.961,1.042
						c-1.749,0.088-3.616-0.312-5.159-1.023c-1.624-0.669-3.01-1.586-4.404-2.52c-2.706-1.907-5.195-4.026-7.711-5.841
						c-3.608-2.697-7.183-5.279-10.66-7.998c-0.617-0.473-1.224-0.937-1.827-1.399c-0.61-0.434-1.217-0.824-1.836-1.24
						c-1.262-0.78-2.586-1.508-3.967-2.139c-2.752-1.282-5.661-2.271-8.503-3.146c-1.041-0.292-2.52-0.479-3.859-0.623
						c-1.342-0.14-2.545-0.236-3.069-0.475c-0.76-0.24-0.78-0.524-0.643-0.839c3.594,0.241,7.172,0.832,10.575,1.826
						c4.165,1.251,8.092,3.184,11.509,5.688c-3.282-2.543-7.249-4.489-11.509-5.688c-3.379-1.053-6.899-1.733-10.448-2.078
						c0.145-0.268,0.289-0.548,0.084-0.826c0,0-1.119-0.059-1.679-0.064c-1.111-0.354-1.558-0.732-1.587-1.138
						c-0.018-0.404,0.438-0.831,1.029-1.163C52.92,82.879,53.263,82.732,53.646,82.589z"/>
				</g>
			</g>
		</g>
	</g>
	<polygon fill="#9B8D6F" points="9.654,44.192 14.267,49.416 116.947,20.231 108.82,14.537 	"/>
	<linearGradient id="SVGID_2_" gradientUnits="userSpaceOnUse" x1="66.4238" y1="51.6641" x2="66.4238" y2="74.3306">
		<stop  offset="0.3673" style="stop-color:#FFDA75"/>
		<stop  offset="1" style="stop-color:#FFB973"/>
	</linearGradient>
	<path fill="url(#SVGID_2_)" d="M13.081,155.154V54.476l106.685-29.821v91.824c0,0-13.502-71.893-44.425-65.012
		S13.839,146.612,13.081,155.154z"/>
	<g>
		<g>
			<g>
				<path fill="#292D73" d="M106.428,16.807c-0.438,0.092-0.877,0.186-1.308,0.276c-7.988,1.8-15.833,4.119-24.661,6.292
					c-6.201,1.443-13.169,3.519-19.297,5.222c14.592-3.796,29.833-8.129,44.039-11.106c-1.325,0.699-2.943,1.413-4.906,1.958
					c-4.757,1.191-9.441,2.402-14.08,3.628c-0.037-0.131-0.108-0.388-0.144-0.517c-13.025,4.04-25.573,6.405-38.526,10.705
					c0.486-0.061,0.238,0.123,0.165,0.233l-0.093,0.027l0.093-0.027c-0.066,0.098,0.003,0.14,0.82-0.087
					c-0.817,0.227-0.887,0.185-0.82,0.087c12.886-3.717,25.001-6.948,37.975-10.281c-20.103,5.323-39.348,10.944-59.884,16.65
					c-0.874,0.243-2.626,0.73-3.502,0.973c-3.61,0.583-7.15,1.426-10.65,2.399c0.693-0.893-3.17-1.221,3.908-2.907
					c-0.036-0.13-0.108-0.39-0.145-0.521c-7.187,1.296-10.32,0.206-3.459-2.262c7.735-2.709,18.387-5.109,27.944-8.044
					c6.97-2.077,13.938-4.153,21.014-5.839c9.739-2.286,20.21-5.335,29.984-7.491c3.54-0.843,9.562-2.937,11.422-3.033
					c1.31-0.163,1.437,0.101,1.33,0.462c-5.771,1.561-11.512,3.114-17.204,4.654c-7.002,1.789-14.01,3.562-21.039,5.236
					c6.904-1.534,13.931-3.337,21.039-5.236c5.692-1.45,11.378-2.899,17.093-4.354c-0.134,0.323-0.256,0.655,0.161,0.816
					c0,0,1.75-0.486,2.626-0.729c3.685-0.323,3.06,0.831,1.492,1.967C107.392,16.217,106.916,16.508,106.428,16.807z"/>
			</g>
		</g>
	</g>
	<g>
		<g>
			<g>
				<path fill="#292D73" d="M13.35,51.961c0.473-0.103,0.946-0.205,1.41-0.305c8.621-1.975,17.097-4.471,26.627-6.838
					c6.692-1.579,14.222-3.812,20.841-5.65c-15.756,4.12-32.221,8.792-47.546,12.08c1.439-0.73,3.191-1.481,5.312-2.07
					c5.136-1.296,10.194-2.611,15.204-3.94c0.036,0.131,0.107,0.387,0.144,0.516c14.077-4.332,27.608-6.971,41.614-11.563
					c-0.524,0.07-0.254-0.119-0.173-0.232l0.101-0.028l-0.101,0.028c0.074-0.1,0-0.141-0.883,0.104
					c0.883-0.245,0.957-0.204,0.883-0.104c-13.921,4.005-27.006,7.505-41.013,11.126c21.708-5.77,42.502-11.821,64.685-17.984
					c0.943-0.262,2.836-0.788,3.781-1.051c3.892-0.661,7.713-1.583,11.493-2.633c-0.764,0.913,3.381,1.162-4.259,3.005
					c0.036,0.13,0.108,0.39,0.145,0.52c7.748-1.452,11.092-0.42,3.669,2.203c-8.366,2.885-19.86,5.519-30.189,8.669
					c-7.531,2.233-15.063,4.465-22.698,6.307c-10.511,2.5-21.824,5.784-32.37,8.154c-3.821,0.921-10.334,3.151-12.335,3.287
					c-1.41,0.19-1.541-0.071-1.419-0.438c6.231-1.689,12.433-3.371,18.58-5.037c7.561-1.944,15.126-3.872,22.713-5.701
					c-7.449,1.686-15.036,3.644-22.713,5.701c-6.146,1.576-12.287,3.151-18.454,4.733c0.149-0.328,0.288-0.665-0.156-0.818
					c0,0-1.892,0.525-2.837,0.789c-3.965,0.401-3.27-0.773-1.563-1.948C12.301,52.574,12.818,52.271,13.35,51.961z"/>
			</g>
		</g>
	</g>
	<g>
		<g>
			<g>
				<path fill="#292D73" d="M112.011,116.842c-0.164-0.86-0.329-1.722-0.491-2.573c-1.617-7.87-3.714-15.657-6.45-23.423
					c-1.37-3.882-2.909-7.757-4.7-11.587c-1.795-3.824-3.828-7.626-6.333-11.183c-1.744-2.484-3.779-4.906-6.221-6.829
					c-2.421-1.932-5.275-3.331-8.285-3.614c-3.012-0.312-6.064,0.541-8.818,1.941c-1.348,0.828-2.755,1.516-3.987,2.494
					c-0.627,0.466-1.273,0.891-1.874,1.378c-0.591,0.503-1.177,1.002-1.757,1.497c2.688-2.424,5.782-4.394,8.945-5.887
					c3.195-1.361,6.684-1.774,9.913-0.768c3.239,0.968,6.144,3.129,8.612,5.732c2.482,2.611,4.576,5.667,6.422,8.86
					c3.683,6.415,6.434,13.384,8.712,20.373c2.266,7.004,4.031,14.081,5.403,21.05c-0.954-2.727-2.021-5.988-3.087-9.822
					c-2.462-9.246-5.456-18.254-9.523-26.527c0.122-0.062,0.359-0.181,0.479-0.241c-1.521-2.916-3.161-5.717-4.984-8.311
					c-1.816-2.594-3.835-4.982-6.105-6.914c-2.271-1.917-4.813-3.338-7.5-3.838c-2.684-0.539-5.497-0.049-8.176,1.07
					c-1.337,0.542-2.643,1.413-3.969,2.132l-1.889,1.334c-0.314,0.225-0.636,0.438-0.943,0.673l-0.897,0.752l-1.797,1.506
					l-1.7,1.648c-1.165,1.064-2.189,2.302-3.276,3.469c-4.23,4.81-7.866,10.283-11.172,16.054c0.547-0.776,0.353-0.236,0.327-0.022
					c-0.033,0.056-0.065,0.11-0.097,0.162c0.031-0.052,0.063-0.106,0.097-0.162c-0.023,0.193,0.076,0.125,0.934-1.287
					c-0.857,1.412-0.957,1.48-0.934,1.287c3.364-5.597,6.972-10.929,11.099-15.648l1.573-1.734l0.787-0.864l0.83-0.809l1.655-1.617
					c0.563-0.521,1.16-0.993,1.737-1.492c1.133-1.037,2.395-1.842,3.606-2.732c0.612-0.433,1.273-0.754,1.905-1.14
					c0.639-0.379,1.276-0.753,1.919-1.023c2.566-1.2,5.265-1.705,7.854-1.332c2.593,0.356,5.094,1.598,7.326,3.414
					c2.247,1.794,4.233,4.101,6.023,6.605c1.78,2.522,3.371,5.258,4.816,8.119c-2.273-4.41-4.871-8.645-8.09-12.06
					c-3.175-3.433-7.087-5.911-11.188-6.049c-2.045-0.117-4.133,0.382-6.159,1.214c-0.501,0.247-1.005,0.45-1.506,0.732
					l-1.504,0.881c-1.025,0.535-1.956,1.287-2.921,1.964c-3.801,2.839-7.19,6.399-10.291,10.221
					c-3.1,3.833-5.924,7.954-8.565,12.223c-2.615,4.291-5.056,8.726-7.372,13.26c-4.616,9.083-8.717,18.569-12.528,28.338
					c-0.645,1.666-1.918,5.011-2.528,6.693c-2.858,6.575-5.293,13.337-7.412,20.169c-0.058-0.953-0.938,0.182-1.244-0.146
					c-0.293-0.324-0.07-2.141,2.324-8.934c-0.127-0.043-0.384-0.128-0.512-0.171c-2.607,6.731-4.615,11.3-5.597,12.455
					c-0.958,1.151-0.987-1.256,0.957-8.262c4.469-15.737,12.577-36.016,21.566-53.987c3.313-6.52,6.932-12.924,11.134-19.025
					c4.188-6.091,9.025-11.909,15.069-16.684c1.032-0.822,2.182-1.545,3.274-2.324c1.139-0.733,2.371-1.369,3.562-2.055
					c2.528-1.27,5.408-2.203,8.458-2.411c1.525-0.087,3.069,0.02,4.582,0.294c1.503,0.315,2.959,0.792,4.328,1.415
					c2.72,1.28,5.076,3.053,7.086,5.031c4.045,3.966,6.945,8.607,9.428,13.273c2.447,4.694,4.402,9.497,6.051,14.256
					c1.239,3.449,2.897,8.191,4.21,12.558c1.322,4.364,2.324,8.342,2.558,10.159c0.428,2.587,0.16,2.753-0.239,2.438
					c-2.711-11.604-6.132-23.051-11.039-33.849c-1.503-3.311-3.175-6.563-5.115-9.69c-1.967-3.107-4.164-6.13-6.92-8.754
					c-2.729-2.604-6.099-4.873-10.066-5.786c-1.966-0.458-4.034-0.554-6.033-0.296c-2.003,0.252-3.926,0.84-5.722,1.62
					c1.763-0.75,3.646-1.321,5.613-1.574c1.963-0.257,3.998-0.177,5.944,0.26c3.926,0.869,7.303,3.084,10.053,5.667
					c2.76,2.613,5.011,5.623,7.004,8.755c1.98,3.145,3.692,6.435,5.242,9.798c4.835,10.8,8.112,22.124,10.701,33.544
					c-0.367-0.354-0.742-0.686-0.837,0.069c0,0,0.821,3.515,1.186,5.283c0.414,3.605,0.228,5.012-0.168,5.073
					c-0.396,0.076-1.028-1.167-1.714-2.845C112.757,118.875,112.395,117.888,112.011,116.842z"/>
			</g>
		</g>
	</g>
	<g>
		<g>
			<g>
				<g>
					<path fill="#5D5F85" d="M17.423,74.163c0.061,0.008,0.121-0.222,0.148,0.136c0.058,1.127-0.146,2.033-0.088,3.161l0.098,0.081
						c-0.045,0.865-0.094,1.787-0.142,2.709c0.023,1.705,0.047,3.403,0.07,5.103c0.035-0.044,0.068-0.065,0.082,0.104
						c0.025,0.704-0.009,1.68-0.019,2.69c0.005,0.149,0.011,0.299,0.017,0.445c0.021,0.115,0.056,0.145,0.076,0.163
						c-0.008,0.454-0.016,0.859-0.022,1.24c0.205,4.938,0.416,10.005,0.643,15.459c0.091,1.154,0.181,2.31,0.223,3.422
						c0.037,1.648-0.026,3.751-0.038,5.359c0.346-0.247,0.516,3.671,0.865,2.889c-0.008,1.071-0.02,2.68,0.079,2.763
						c0.293,0.249,0.632,1.073,0.808,3.918c0.042,1.114-0.082,2.824-0.022,3.216c0.095,0.618,0.207-1.443,0.301-0.825
						c0.106-8.276-0.021-16.245-0.018-24.577c-0.153-2.836-0.221-21.967-0.153-26.88l-0.004-0.447
						c0.019-2.681-0.008-5.936-0.14-8.205c-0.088-1.014-0.183-2.089-0.275-3.152c-0.061,0.472-0.117,0.922-0.171,1.336
						c0.008-1.072,0.016-2.144-0.047-2.556c-0.148-2.283-0.321-0.99-0.557-0.112c-0.104,0.632-0.261-0.222-0.366,0.767
						c0.005-0.713,0.008-1.07,0.013-1.787c-0.098-0.082,0.05,2.201-0.11,1.705c0.037-0.687-0.022-1.457-0.018-2.171
						c-0.133,0.247-0.05,2.474-0.181,2.364c-0.03-0.386,0.178-2.006,0.015-2.145c-0.032-0.027-0.037,0.687-0.04,1.044
						c-0.05-2.199-0.205-3.411-0.383-1.403c0.004-0.697,0.073-1.682,0.051-2.419l-0.002,0.006c-0.012,0.362-0.031,1.008-0.042,1.341
						l0.009-1.255l-0.067,0.219c-0.021,0.313-0.037,0.626-0.039,0.952l0.006-0.833c-0.053,0.208-0.104,0.447-0.152,0.71
						c-0.105,0.99-0.26,1.938-0.264,2.474C17.488,65.499,17.434,69.842,17.423,74.163z"/>
				</g>
			</g>
		</g>
		<g>
			<g>
				<g>
					<path fill="#5D5F85" d="M33.754,62.617c0.061,0.004,0.121-0.125,0.148,0.076c0.058,0.633-0.146,1.141-0.088,1.774l0.098,0.045
						c-0.044,0.478-0.094,1.008-0.142,1.521c0.023,0.951,0.046,1.901,0.07,2.864c0.035-0.025,0.068-0.037,0.081,0.058
						c0.026,0.396-0.008,0.943-0.018,1.51l0.017,0.25c0.021,0.064,0.056,0.081,0.076,0.091c-0.008,0.251-0.016,0.479-0.022,0.696
						c0.203,2.75,0.416,5.622,0.643,8.679c0.091,0.648,0.181,1.296,0.223,1.921c0.037,0.925-0.027,2.106-0.038,3.008
						c0.346-0.138,0.516,2.061,0.865,1.622c-0.008,0.601-0.02,1.504,0.079,1.551c0.293,0.14,0.631,0.603,0.808,2.2
						c0.042,0.625-0.082,1.585-0.022,1.806c0.094,0.347,0.207-0.811,0.301-0.463c0.106-4.646-0.021-9.119-0.018-13.797
						c-0.153-1.592-0.221-12.332-0.153-15.09l-0.004-0.25c0.019-1.505-0.008-3.333-0.14-4.606c-0.086-0.552-0.182-1.167-0.275-1.769
						c-0.059,0.258-0.116,0.51-0.17,0.75c0.007-0.602,0.015-1.204-0.048-1.435c-0.148-1.282-0.321-0.556-0.557-0.063
						c-0.104,0.355-0.261-0.125-0.366,0.431c0.005-0.4,0.008-0.601,0.013-1.003c-0.098-0.046,0.05,1.235-0.11,0.957
						c0.037-0.386-0.022-0.818-0.018-1.219c-0.133,0.139-0.05,1.389-0.181,1.327c-0.03-0.216,0.178-1.126,0.015-1.204
						c-0.032-0.016-0.037,0.386-0.04,0.586c-0.05-1.235-0.205-1.915-0.384-0.788c0.006-0.391,0.074-0.944,0.052-1.358L34.446,53.3
						c-0.011,0.197-0.032,0.574-0.042,0.753l0.009-0.705l-0.067,0.123c-0.021,0.175-0.037,0.352-0.039,0.535l0.006-0.468
						c-0.053,0.117-0.104,0.251-0.152,0.398c-0.105,0.556-0.26,1.088-0.264,1.389C33.819,57.753,33.765,60.191,33.754,62.617z"/>
				</g>
			</g>
		</g>
		<g>
			<g>
				<g>
					<path fill="#5D5F85" d="M50.085,52.71c0.061,0.001,0.121-0.049,0.148,0.03c0.058,0.25-0.146,0.45-0.088,0.7l0.098,0.018
						c-0.042,0.181-0.095,0.402-0.142,0.6c0.014,0.378,0.037,0.755,0.07,1.13c0.035-0.01,0.068-0.015,0.082,0.023
						c0.025,0.156-0.009,0.372-0.019,0.596l0.017,0.099c0.021,0.026,0.056,0.032,0.076,0.036c-0.003,0.102-0.012,0.191-0.022,0.275
						c0.198,1.055,0.418,2.226,0.643,3.424c0.091,0.255,0.181,0.512,0.223,0.758c0.037,0.365-0.026,0.831-0.038,1.187
						c0.346-0.054,0.516,0.813,0.865,0.64c-0.008,0.237-0.02,0.594,0.079,0.612c0.293,0.055,0.632,0.238,0.808,0.868
						c0.042,0.247-0.082,0.625-0.022,0.712c0.095,0.137,0.207-0.32,0.301-0.183c0.106-1.833-0.021-3.599-0.018-5.444
						c-0.153-0.628-0.221-4.866-0.153-5.954l-0.004-0.099c0.019-0.594-0.008-1.315-0.14-1.817c-0.081-0.23-0.18-0.465-0.275-0.698
						c-0.057,0.108-0.114,0.209-0.171,0.296c0.008-0.237,0.016-0.475-0.047-0.566c-0.148-0.505-0.321-0.219-0.557-0.024
						c-0.104,0.14-0.261-0.049-0.366,0.17c0.005-0.158,0.008-0.237,0.013-0.396c-0.098-0.018,0.05,0.488-0.11,0.378
						c0.037-0.152-0.022-0.323-0.018-0.481c-0.133,0.055-0.05,0.548-0.181,0.523c-0.03-0.085,0.178-0.444,0.015-0.475
						c-0.032-0.006-0.037,0.152-0.04,0.231c-0.05-0.487-0.205-0.755-0.383-0.311c0.004-0.154,0.073-0.373,0.051-0.536l-0.002,0.001
						c-0.006,0.081-0.039,0.222-0.042,0.297l0.009-0.278l-0.067,0.048c-0.021,0.069-0.037,0.139-0.039,0.211l0.006-0.185
						c-0.053,0.046-0.104,0.099-0.152,0.157c-0.105,0.219-0.26,0.429-0.264,0.548C50.15,50.791,50.096,51.753,50.085,52.71z"/>
				</g>
			</g>
		</g>
		<g>
			<g>
				<g>
					<path fill="#5D5F85" d="M66.415,47.018c0.061,0.001,0.121-0.03,0.148,0.019c0.058,0.153-0.146,0.275-0.088,0.428l0.098,0.011
						c-0.042,0.109-0.096,0.247-0.142,0.367c0.014,0.232,0.037,0.462,0.07,0.692c0.035-0.006,0.068-0.009,0.082,0.014
						c0.025,0.096-0.009,0.228-0.019,0.365l0.017,0.06c0.021,0.016,0.056,0.02,0.076,0.022c-0.003,0.062-0.012,0.117-0.022,0.168
						c0.195,0.637,0.419,1.363,0.643,2.095c0.091,0.156,0.181,0.313,0.223,0.464c0.037,0.223-0.026,0.508-0.038,0.726
						c0.346-0.034,0.516,0.497,0.865,0.391c-0.008,0.146-0.02,0.363,0.079,0.375c0.293,0.034,0.632,0.146,0.808,0.531
						c0.042,0.151-0.082,0.382-0.022,0.436c0.095,0.084,0.207-0.196,0.301-0.112c0.106-1.122-0.021-2.201-0.018-3.33
						c-0.153-0.384-0.221-2.977-0.153-3.643l-0.004-0.061c0.019-0.363-0.008-0.804-0.14-1.112c-0.081-0.141-0.18-0.284-0.275-0.427
						c-0.057,0.066-0.114,0.128-0.171,0.181c0.008-0.146,0.016-0.291-0.047-0.347c-0.148-0.309-0.321-0.134-0.557-0.015
						c-0.104,0.086-0.261-0.03-0.366,0.104c0.005-0.096,0.008-0.145,0.013-0.242c-0.098-0.011,0.05,0.298-0.11,0.231
						c0.037-0.093-0.022-0.197-0.018-0.294c-0.133,0.034-0.05,0.335-0.181,0.32c-0.03-0.052,0.178-0.272,0.015-0.291
						c-0.032-0.004-0.037,0.093-0.04,0.142c-0.05-0.298-0.205-0.462-0.383-0.19c0.004-0.094,0.073-0.228,0.051-0.328l-0.002,0.001
						c-0.006,0.05-0.039,0.136-0.042,0.182l0.009-0.17l-0.067,0.029c-0.021,0.042-0.037,0.085-0.039,0.129l0.006-0.113
						c-0.053,0.028-0.104,0.061-0.152,0.096c-0.105,0.134-0.26,0.263-0.264,0.335C66.48,45.844,66.426,46.433,66.415,47.018z"/>
				</g>
			</g>
		</g>
		<g>
			<g>
				<g>
					<path fill="#5D5F85" d="M82.746,42.866c0.061,0.001,0.121-0.032,0.148,0.02c0.058,0.16-0.146,0.289-0.088,0.45l0.098,0.011
						c-0.042,0.115-0.096,0.26-0.142,0.385c0.014,0.243,0.037,0.485,0.07,0.726c0.035-0.006,0.068-0.009,0.081,0.015
						c0.026,0.1-0.008,0.239-0.018,0.383l0.017,0.063c0.021,0.017,0.056,0.021,0.076,0.023c-0.003,0.065-0.012,0.123-0.022,0.176
						c0.195,0.669,0.418,1.431,0.643,2.199c0.091,0.165,0.181,0.329,0.223,0.487c0.037,0.234-0.027,0.534-0.038,0.762
						c0.346-0.035,0.516,0.522,0.865,0.411c-0.008,0.152-0.02,0.381,0.079,0.393c0.293,0.035,0.631,0.152,0.808,0.557
						c0.042,0.159-0.082,0.402-0.022,0.458c0.094,0.088,0.207-0.205,0.301-0.117c0.106-1.177-0.021-2.311-0.018-3.496
						c-0.153-0.403-0.221-3.125-0.153-3.823l-0.004-0.063c0.019-0.381-0.008-0.844-0.14-1.167c-0.081-0.148-0.18-0.298-0.275-0.448
						c-0.057,0.07-0.114,0.134-0.17,0.19c0.007-0.152,0.015-0.305-0.048-0.363c-0.148-0.325-0.321-0.141-0.557-0.016
						c-0.104,0.09-0.261-0.032-0.366,0.109c0.005-0.102,0.008-0.152,0.013-0.254c-0.098-0.012,0.05,0.313-0.11,0.243
						c0.037-0.098-0.022-0.208-0.018-0.309c-0.133,0.035-0.05,0.352-0.181,0.336c-0.03-0.055,0.178-0.286,0.015-0.305
						c-0.032-0.004-0.037,0.098-0.04,0.148c-0.05-0.313-0.205-0.485-0.384-0.199c0.006-0.099,0.074-0.239,0.052-0.344l-0.002,0.001
						c-0.006,0.052-0.039,0.142-0.042,0.19l0.009-0.178l-0.067,0.031c-0.021,0.044-0.037,0.089-0.039,0.135l0.006-0.119
						c-0.053,0.03-0.104,0.064-0.152,0.101c-0.105,0.141-0.26,0.276-0.264,0.352C82.812,41.633,82.757,42.251,82.746,42.866z"/>
				</g>
			</g>
		</g>
		<g>
			<g>
				<g>
					<path fill="#5D5F85" d="M99.077,42.68c0.061,0.003,0.121-0.086,0.148,0.052c0.058,0.438-0.146,0.789-0.088,1.226l0.098,0.031
						c-0.044,0.325-0.095,0.7-0.142,1.051c0.014,0.663,0.037,1.322,0.07,1.979c0.035-0.017,0.068-0.025,0.082,0.04
						c0.025,0.273-0.009,0.651-0.019,1.043l0.017,0.173c0.021,0.044,0.056,0.056,0.076,0.063c-0.008,0.17-0.016,0.327-0.022,0.481
						c0.201,1.882,0.417,3.888,0.643,5.996c0.091,0.448,0.181,0.896,0.223,1.327c0.037,0.639-0.026,1.455-0.038,2.078
						c0.346-0.096,0.516,1.424,0.865,1.121c-0.008,0.416-0.02,1.04,0.079,1.071c0.293,0.097,0.632,0.417,0.808,1.52
						c0.042,0.432-0.082,1.095-0.022,1.247c0.095,0.24,0.207-0.56,0.301-0.32c0.106-3.209-0.021-6.3-0.018-9.532
						c-0.153-1.1-0.221-8.519-0.153-10.425l-0.004-0.173c0.019-1.04-0.008-2.302-0.14-3.182c-0.084-0.374-0.181-0.804-0.275-1.222
						c-0.057,0.19-0.114,0.366-0.171,0.518c0.008-0.416,0.016-0.832-0.047-0.991c-0.148-0.885-0.321-0.384-0.557-0.043
						c-0.104,0.245-0.261-0.086-0.366,0.297c0.005-0.276,0.008-0.415,0.013-0.692c-0.098-0.032,0.05,0.853-0.11,0.661
						c0.037-0.266-0.022-0.565-0.018-0.842c-0.133,0.096-0.05,0.959-0.181,0.917c-0.03-0.149,0.178-0.778,0.015-0.832
						c-0.032-0.01-0.037,0.267-0.04,0.405c-0.05-0.853-0.205-1.323-0.383-0.544c0.004-0.27,0.073-0.652,0.051-0.938l-0.002,0.002
						c-0.011,0.13-0.032,0.403-0.042,0.521l0.009-0.487l-0.067,0.085c-0.021,0.121-0.037,0.243-0.039,0.37l0.006-0.323
						c-0.053,0.081-0.104,0.173-0.152,0.275c-0.105,0.384-0.26,0.752-0.264,0.959C99.143,39.319,99.088,41.004,99.077,42.68z"/>
				</g>
			</g>
		</g>
		<g>
			<g>
				<g>
					<path fill="#5D5F85" d="M115.408,48.579c0.061,0.008,0.121-0.222,0.148,0.136c0.058,1.127-0.146,2.033-0.088,3.161l0.098,0.081
						c-0.045,0.865-0.094,1.787-0.142,2.709c0.023,1.705,0.047,3.403,0.07,5.103c0.035-0.044,0.068-0.065,0.081,0.104
						c0.026,0.704-0.008,1.68-0.018,2.69c0.005,0.149,0.011,0.299,0.017,0.445c0.021,0.115,0.056,0.145,0.076,0.163
						c-0.008,0.454-0.016,0.859-0.022,1.24c0.205,4.938,0.416,10.005,0.643,15.459c0.091,1.154,0.181,2.31,0.223,3.422
						c0.037,1.648-0.027,3.751-0.038,5.359c0.346-0.247,0.516,3.671,0.865,2.889c-0.008,1.071-0.02,2.68,0.079,2.763
						c0.293,0.249,0.631,1.073,0.808,3.918c0.042,1.114-0.082,2.824-0.022,3.216c0.094,0.618,0.207-1.443,0.301-0.825
						c0.106-8.276-0.021-16.245-0.018-24.577c-0.153-2.836-0.221-21.967-0.153-26.88l-0.004-0.447
						c0.019-2.681-0.008-5.936-0.14-8.205c-0.088-1.014-0.183-2.089-0.275-3.152c-0.061,0.472-0.117,0.922-0.17,1.336
						c0.007-1.072,0.015-2.144-0.048-2.556c-0.148-2.283-0.321-0.99-0.557-0.112c-0.104,0.632-0.261-0.222-0.366,0.767
						c0.005-0.713,0.008-1.07,0.013-1.787c-0.098-0.082,0.05,2.201-0.11,1.705c0.037-0.687-0.022-1.457-0.018-2.171
						c-0.133,0.247-0.05,2.474-0.181,2.364c-0.03-0.386,0.178-2.006,0.015-2.145c-0.032-0.027-0.037,0.687-0.04,1.044
						c-0.05-2.199-0.205-3.411-0.384-1.403c0.006-0.697,0.074-1.682,0.052-2.419l-0.002,0.006c-0.012,0.362-0.031,1.008-0.042,1.341
						l0.009-1.255L116,32.288c-0.021,0.313-0.037,0.626-0.039,0.952l0.006-0.833c-0.053,0.208-0.104,0.447-0.152,0.71
						c-0.105,0.99-0.26,1.938-0.264,2.474C115.474,39.915,115.419,44.258,115.408,48.579z"/>
				</g>
			</g>
		</g>
	</g>
	<g>
		<g>
			<g>
				<g>
					<path fill="#5854A3" d="M46.783,154.146c0.074-0.069,0.117-0.184,0.185-0.169l0.017,0.01c0.005,0.004,0.001,0,0.012,0.011
						l0.064,0.075l0.252,0.296c0.161,0.199,0.318,0.393,0.477,0.588c0.343,0.365,0.661,0.74,1.004,1.093
						c0.359,0.332,0.717,0.675,1.111,0.991c0.41,0.29,0.842,0.581,1.314,0.846l0.218-0.071c1.414,0.867,3.005,1.533,4.669,1.984
						c3.115,0.635,6.127,0.563,9.154-0.01c-0.09-0.047-0.136-0.095,0.159-0.161c0.615-0.178,1.359-0.33,2.162-0.557
						c0.793-0.27,1.667-0.525,2.505-0.946c0.244-0.126,0.488-0.253,0.729-0.378c0.167-0.138,0.187-0.216,0.198-0.264
						c0.732-0.411,1.376-0.789,1.938-1.2c0.564-0.41,1.058-0.915,1.567-1.389l0.699-0.759c0.162-0.172,0.116-0.14,0.146-0.182
						l0.053-0.091c0.072-0.126,0.148-0.275,0.23-0.447l0.121-0.28l0.06-0.156c0.021-0.082,0.025,0.03,0.04,0.037
						c0.056,0.121,0.134,0.261,0.238,0.417c0.051,0.08,0.109,0.162,0.177,0.247c0.033,0.041,0.066,0.093,0.102,0.129l0.053,0.061
						l0.174,0.241c0.955,1.29,2.199,2.448,3.675,3.259c1.472,0.807,3.133,1.29,4.79,1.379c1.656,0.064,3.283-0.081,4.848-0.478
						c1.899-0.523,3.69-1.259,5.338-2.073c1.235-0.572,2.619-1.255,3.944-2.025c0.671-0.371,1.314-0.781,1.942-1.168
						c0.308-0.204,0.608-0.404,0.902-0.599c0.122-0.083,0.242-0.166,0.361-0.247c0.097-0.069,0.192-0.137,0.286-0.203
						c-0.142-0.121,0.124-0.495,0.642-1.073c0.289-0.312,0.602-0.649,0.913-0.987c0.174-0.189,0.348-0.377,0.518-0.562
						c0.084-0.088,0.181-0.208,0.253-0.271c0.055-0.071,0.038,0.009,0.039,0.049l0.005,0.13c0.032,0.819,0.345,1.164,0.29,0.605
						c0.041,0.168,0.141,0.361,0.229,0.557c0.076,0.192,0.198,0.4,0.338,0.613c0.166,0.99,0.553,1.76,0.8,2.184
						c0.268,0.472,0.549,0.739,0.612,0.749c0.286,0.018,0.753,0.154,1.46,0.552c0.755,0.354,1.801,0.931,3.685,1.38
						c0.712,0.231,1.702,0.404,2.561,0.586c0.895,0.087,1.663,0.169,1.95,0.141c0.906-0.102-2.079-0.488-1.163-0.585
						c-1.957-0.179-3.796-0.649-5.169-1.522c-0.726-0.398-1.242-0.971-1.73-1.55c-0.215-0.314-0.431-0.626-0.589-0.98
						c-0.069-0.039-0.233-0.657-0.367-1.095c-0.064-0.245-0.151-0.438-0.196-0.726l-0.091-0.963l-2.2-1.034l-2.179-1.068
						l-1.068,0.896c-0.354,0.292-0.69,0.528-1.037,0.794l-0.979,0.735l-0.516,0.357c-0.688,0.475-1.387,0.937-2.104,1.357
						c-1.428,0.853-2.897,1.636-4.411,2.236c-1.511,0.598-3.055,1.091-4.599,1.327c-1.559,0.22-3.038,0.242-4.359-0.103
						c-0.549-0.099-1.593-0.385-2.731-1.266c-0.3-0.197-0.555-0.502-0.858-0.779c-0.134-0.162-0.271-0.327-0.411-0.497
						c-0.074-0.082-0.143-0.17-0.204-0.269l-0.098-0.144c-0.037-0.057-0.046-0.061-0.141-0.219
						c-0.328-0.471-0.552-1.063-0.803-1.639c-0.273-0.506-0.448-1.335-0.653-2.089c-0.41-1.612-0.834-3.276-1.27-4.984l-0.243,0.404
						c-0.078,0.124-0.132,0.216-0.205,0.355c-0.157,0.287-0.316,0.577-0.476,0.867c-0.37,0.666-0.743,1.339-1.121,2.02
						c-0.396,0.709-0.796,1.426-1.199,2.148c-0.383,0.774-0.831,1.31-1.271,1.887l-0.331,0.435
						c-0.066,0.089-0.092,0.114-0.119,0.141l-0.087,0.089l-0.348,0.357c-0.226,0.253-0.481,0.444-0.725,0.665
						c-0.237,0.226-0.508,0.413-0.774,0.607c-0.262,0.201-0.532,0.393-0.825,0.552c-2.252,1.437-5.049,2.065-7.743,2.16
						c-2.714,0.096-5.215-0.341-7.039-1.179c-1.833-0.844-3.013-1.974-3.691-2.829c-0.134-0.162-0.217-0.212-0.508-0.71
						c-0.352-0.602-0.75-1.142-1.014-1.955c-1.427-0.148-2.017-0.272-2.33-0.383c-0.078,0.023-0.169,0.046-0.303,0.066
						c-0.104,0.022-0.276,0.042-0.463,0.061l-0.268,0.03l-0.419,0.023l-0.893,0.048c-0.322,0.541-0.643,1.08-0.962,1.615
						l-0.546,0.67l-0.249,0.288c-0.341,0.374-0.706,0.724-1.069,1.056c-0.745,0.65-1.518,1.205-2.242,1.675
						c-0.634,0.401-1.272,0.825-1.982,1.156c-0.679,0.388-1.423,0.667-2.164,0.968c0.728-0.13,1.438-0.186,2.013-0.346
						c-0.747,0.317-1.563,0.472-2.216,0.697c-0.665,0.193-1.231,0.292-1.529,0.416c-0.847,0.252-1.376,0.379-1.657,0.471
						c-0.28,0.1-0.312,0.176-0.186,0.238c0.25,0.128,1.127,0.208,1.847,0.237c1.028-0.031-0.274,0.499,1.339,0.354
						c-0.57,0.11-0.999,0.193-1.428,0.275c-0.427,0.094-0.858,0.163-1.439,0.212c-0.095,0.263,3.51-0.719,2.772-0.302
						c-0.559,0.081-1.142,0.207-1.729,0.341c-0.589,0.125-1.193,0.188-1.773,0.26c0.211,0.064,1.231,0.042,2.16-0.147
						c0.932-0.165,1.793-0.318,1.73-0.195c-0.308,0.088-1.141,0.18-1.91,0.286c-0.771,0.112-1.495,0.126-1.591,0.29
						c-0.04,0.041,1.141-0.026,1.72-0.175c-0.891,0.211-1.695,0.273-2.334,0.407c-0.604,0.117-1.07,0.207-1.391,0.269
						c-0.268,0.066-0.317,0.131-0.09,0.189c0.228,0.067,0.732,0.118,1.58,0.08c-0.291,0.026-0.613,0.055-0.953,0.086
						c-0.338,0.001-0.692,0.002-1.049,0.003c-0.711,0.001-1.43,0.007-2.044,0.048l0.01,0.004c0.61-0.003,1.679-0.009,2.242-0.012
						l-2.098,0.061c0.119,0.033,0.242,0.066,0.367,0.101c0.524,0.015,1.052,0.022,1.6,0.006l-1.399,0.042
						c0.351,0.076,0.756,0.147,1.203,0.21c0.414,0.03,0.833,0.061,1.241,0.091c0.406,0.003,0.802,0.006,1.168,0.009
						c0.739-0.004,1.386,0.009,1.845-0.073c2.607-0.394,5.234-1.111,7.72-2.331c0.309-0.155,0.622-0.301,0.927-0.467l0.896-0.549
						c0.606-0.346,1.162-0.793,1.728-1.219c0.555-0.441,1.083-0.929,1.589-1.438l0.369-0.397c0.026-0.028,0.004-0.003,0.009-0.006
						l0.019-0.012l0.033-0.024c0.004,0.026,0.01,0.046,0.015,0.06L46.783,154.146z"/>
				</g>
			</g>
		</g>
		<g>
			<g>
				<g>
					<path fill="#5854A3" d="M70.381,143.215c-0.007-0.101-0.313-0.159,0.13-0.27c0.698-0.138,1.361-0.29,2.024-0.376
						c0.664-0.137,1.35-0.314,2.049-0.672l0.034-0.199c1.127-0.443,2.311-1.104,3.383-2.078c0.358-0.437,0.744-0.844,1.027-1.344
						l0.224-0.363l0.101-0.168l0.01-0.027l0.038-0.105c-0.001-0.033-0.002-0.077-0.01-0.136c-0.017-0.06,0.021-0.021,0.038-0.034
						c-0.019-0.082-0.039-0.159-0.024-0.175c0.019-0.001,0.043,0.01,0.07,0.026c0.059,0.042,0.123,0.087,0.19,0.136l0.183,0.125
						c0.176,0.102,0.354,0.206,0.532,0.31c0.161,0.078,0.322,0.156,0.48,0.233c0.138,0.036,0.196,0,0.232-0.021
						c0.479,0.26,0.904,0.492,1.304,0.708c2.737,1.159,5.631,2.068,8.718,2.509c1.55,0.199,3.116,0.325,4.76,0.183
						c1.628-0.12,3.317-0.46,4.879-1.242c1.292-0.724,2.399-1.706,3.269-2.769c0.39-0.48,0.564-0.72,0.786-1.055
						c0.288-0.459,0.545-0.952,0.693-1.439c0.257,0.463,0.589,0.936,0.897,1.274c0.007-0.097,0.046-0.152,0.118-0.167
						c0.209-0.066,0.987,0.422,1.779,0.798c0.776,0.329,1.387,0.497,1.215,0.073c0.965,0.658,2.577,1.399,2.732,1.246
						c0.45-0.404,1.4-0.417,4.331-0.252c1.139,0.11,2.927,0.363,3.345,0.277c0.649-0.136-1.504-0.401-0.849-0.535
						c-2.057-0.107-4.036-0.454-5.822-1.121c-0.91-0.305-1.726-0.758-2.521-1.219c-0.371-0.263-0.763-0.504-1.101-0.798
						l-0.266-0.211l-0.551-0.575l-0.552-0.574c-0.182-0.219-0.359-0.5-0.54-0.748l-2.441,0.284
						c-0.807,0.094-1.615,0.188-2.426,0.282l-0.584,1.191c-0.086,0.205-0.207,0.388-0.344,0.561
						c-0.168,0.233-0.155,0.205-0.215,0.282c-0.169,0.239-0.396,0.422-0.588,0.639c-0.444,0.369-0.896,0.739-1.442,0.988
						c-1.058,0.545-2.331,0.824-3.704,0.867c-0.736,0.134-3.02,0.141-5.9-0.638c-1.441-0.375-3.035-0.921-4.646-1.64
						c-0.805-0.362-1.616-0.752-2.419-1.176l-0.598-0.325l-0.312-0.17l-0.506-0.301l-1.019-0.611l-1.14-0.754l-0.712,0.327
						l-0.332,0.15L78.14,132.5c-0.331,0.157-0.611,0.184-0.702,0.333c-0.302,0.261-0.86,0.655-1.835,1.271
						c-0.106,0.442-0.251,0.818-0.372,1.224c-0.036,0.126-0.057,0.157-0.076,0.179l-0.062,0.092l-0.117,0.186
						c-0.173,0.237-0.351,0.468-0.57,0.666c-0.219,0.198-0.425,0.399-0.688,0.55c-0.121,0.083-0.239,0.166-0.356,0.247
						c-0.135,0.066-0.267,0.131-0.396,0.194c-0.488,0.287-1.057,0.426-1.509,0.604c-0.5,0.115-0.935,0.215-1.291,0.297
						c-0.136,0.045-0.293,0.051-0.438,0.079c-2.67,0.4-6.19,0.371-8.298-0.068c-0.987-0.167-1.972-0.41-2.852-0.854
						c0.333,0.314,0.617,0.667,0.945,0.896c-0.952-0.48-1.705-1.158-2.026-1.387c-0.421-0.349-0.642-0.602-0.804-0.712
						c-0.16-0.112-0.237-0.098-0.26,0.003c-0.039,0.194,0.105,0.776,0.304,1.25c0.166,0.316,0.051,0.35-0.037,0.416
						c-0.082,0.063-0.16,0.187,0.23,0.628c-0.328-0.267-0.531-0.513-0.738-0.754c-0.221-0.23-0.396-0.498-0.629-0.853
						c-0.085-0.007,0.26,0.564,0.687,0.981c0.379,0.461,0.825,0.764,0.498,0.684c-0.583-0.583-1.249-1.261-1.651-2.042
						c-0.038,0.188,0.332,0.873,0.79,1.419c0.435,0.572,0.952,0.979,0.823,1.026c-0.1-0.07-0.257-0.222-0.438-0.41
						c-0.167-0.204-0.345-0.458-0.522-0.691c-0.333-0.487-0.607-0.96-0.766-0.969c-0.073-0.001,0.408,0.781,0.714,1.118
						c-0.943-1.046-1.396-2.079-1.652-2.444c-0.206-0.387-0.365-0.08,0.096,1.242c-0.224-0.427-0.412-0.983-0.542-1.557
						c-0.132-0.602-0.219-1.102-0.243-1.781l-0.004,0.012c-0.007,0.672,0.097,1.473,0.249,1.945
						c-0.171-0.559-0.265-1.12-0.301-1.769c-0.031,0.102-0.063,0.226-0.089,0.348c0.02,0.461,0.07,0.911,0.2,1.354
						c-0.111-0.377-0.184-0.765-0.232-1.175c-0.054,0.32-0.068,0.673-0.053,1.067c0.181,1.445,0.745,2.813,1.236,3.466
						c0.98,1.323,2.306,2.305,3.661,2.984c1.366,0.724,2.777,1.076,4.171,1.376l2.073,0.269l2.035,0.075
						C67.657,143.498,68.995,143.446,70.381,143.215z"/>
				</g>
			</g>
		</g>
		<g>
			<g>
				<g>
					<path fill="#5854A3" d="M53.573,129.907c-0.017-0.1-0.306-0.137,0.095-0.277c1.254-0.418,2.333-0.458,3.566-0.935l0.037-0.183
						c0.978-0.261,1.965-0.588,2.993-0.902l0.299-0.123l-0.005-0.003c-0.003-0.002-0.006-0.006-0.006-0.009l0.018-0.003l0.011-0.001
						c0.006,0.002-0.016-0.006,0.01,0.001l0.138,0.046l1.092,0.345c0.728,0.217,1.455,0.418,2.188,0.594
						c-0.034-0.071-0.043-0.13,0.151-0.1c0.799,0.171,1.883,0.5,3.035,0.75c0.173,0.024,0.346,0.047,0.516,0.071
						c0.138-0.01,0.183-0.059,0.21-0.09c0.52,0.102,0.984,0.193,1.419,0.278c2.888,0.264,5.871,0.259,8.889-0.371
						c1.504-0.318,3.014-0.801,4.45-1.523l1.06-0.586l1.015-0.681l0.957-0.775l0.429-0.414c0.069-0.078,0.146-0.152,0.215-0.239
						l0.385-0.57c0.274,0.077,0.544,0.153,0.808,0.227l0.218,0.064l0.329,0.114c0.221,0.078,0.438,0.154,0.651,0.229
						c1.729,0.665,3.938,1.531,5.714,1.974c-0.066-0.312,0.989-0.265,1.958-0.319c0.971-0.042,1.838-0.184,1.449-0.514
						c1.142,0.171,2.86,0.152,2.926-0.048c0.111-0.252,0.373-0.526,0.896-0.851c0.51-0.335,1.319-0.698,2.209-1.383
						c0.19-0.112,0.362-0.278,0.578-0.405c0.173-0.175,0.4-0.299,0.552-0.486c0.352-0.322,0.575-0.701,0.632-0.844
						c0.052-0.168,0.01-0.176-0.081-0.104c-0.09,0.069-0.199,0.141-0.313,0.238c-0.213,0.196-0.454,0.32-0.371,0.11
						c-0.751,0.892-1.74,1.455-3.103,1.708c-1.344,0.259-2.918,0.2-4.511-0.042c-1.599-0.252-3.229-0.673-4.844-1.213
						c-0.808-0.269-1.613-0.567-2.409-0.892l-0.596-0.248l-0.307-0.132l-0.631-0.289c-0.825-0.382-1.651-0.821-2.474-1.237
						c-0.611,0.629-1.2,1.274-1.831,1.891l-0.477,0.46l-0.204,0.18c-0.124,0.121-0.269,0.217-0.411,0.318
						c-0.546,0.43-1.182,0.76-1.833,1.071c-0.405,0.226-1.268,0.653-2.574,0.967c-1.296,0.332-3.034,0.524-4.99,0.496
						c-1.958-0.041-4.129-0.303-6.269-0.765c-1.07-0.228-2.134-0.499-3.159-0.799c-0.513-0.15-1.017-0.308-1.504-0.473
						c-0.287-0.101-0.57-0.2-0.852-0.299c-0.464-0.182-0.924-0.361-1.377-0.539c-1.027,0.405-2.015,0.793-2.946,1.16
						c-0.656,0.246-1.266,0.523-1.843,0.695c-1.151,0.35-2.108,0.641-2.794,0.849l-0.448,0.113
						c-2.711,0.727-5.974,1.109-8.116,0.991c-0.503,0.015-0.974-0.068-1.486-0.086c-0.489-0.061-0.962-0.181-1.451-0.289
						c0.381,0.258,0.743,0.504,1.075,0.729c-0.47-0.213-0.982-0.351-1.353-0.566c-0.37-0.212-0.708-0.338-0.886-0.421
						c-0.941-0.535-1.168-0.673-1.182-0.45c-0.021,0.229,0.296,0.7,0.562,1.141c0.463,0.541-0.485,0.247,0.391,0.961
						c-0.358-0.197-0.619-0.356-0.853-0.56c-0.232-0.201-0.507-0.355-0.784-0.66c-0.104,0.042,0.392,0.443,0.862,0.773
						c0.46,0.343,0.937,0.551,0.61,0.541c-0.345-0.205-0.688-0.452-1.035-0.709c-0.365-0.231-0.678-0.54-0.972-0.842
						c0.022,0.176,0.509,0.744,1.064,1.149c0.259,0.23,0.53,0.415,0.73,0.538c0.193,0.134,0.302,0.232,0.247,0.263
						c-0.493-0.125-1.803-1.6-2.057-1.572c-0.031,0.007,0.105,0.167,0.29,0.365c0.187,0.194,0.457,0.381,0.625,0.521
						c-1.119-0.753-1.797-1.602-2.137-1.869c-0.3-0.302-0.353,0.018,0.387,1.14c-0.288-0.362-0.633-0.801-0.891-1.313
						c-0.143-0.244-0.269-0.505-0.381-0.766c-0.06-0.125-0.116-0.255-0.166-0.393c-0.051-0.13-0.104-0.254-0.161-0.445l-0.001,0.012
						c0.176,0.639,0.497,1.355,0.754,1.758c-0.298-0.486-0.549-0.959-0.757-1.579l0.011,0.353c0.144,0.436,0.312,0.836,0.549,1.215
						c-0.203-0.317-0.372-0.67-0.534-1.028c0.048,0.293,0.104,0.659,0.235,1.006c0.554,1.284,1.354,2.447,1.967,2.902
						c1.172,1.027,2.561,1.645,3.937,2.134c0.691,0.169,1.395,0.383,2.088,0.491c0.689,0.079,1.385,0.167,2.074,0.221l2.025-0.021
						c0.682,0.004,1.313-0.129,1.972-0.192C51.089,130.518,52.314,130.178,53.573,129.907z"/>
				</g>
			</g>
		</g>
	</g>
</g>
<g id="_x32__-_ET__x28_Sine_and_exponential_x29_">
</g>
<g id="_x31__-_IF__x28_Function_diagram_x29_">
</g>
</svg>
