<?xml version="1.0" encoding="utf-8"?>
<!-- Generator: Adobe Illustrator 16.0.0, SVG Export Plug-In . SVG Version: 6.00 Build 0)  -->
<!DOCTYPE svg PUBLIC "-//W3C//DTD SVG 1.1//EN" "http://www.w3.org/Graphics/SVG/1.1/DTD/svg11.dtd">
<svg version="1.1" xmlns="http://www.w3.org/2000/svg" xmlns:xlink="http://www.w3.org/1999/xlink" x="0px" y="0px" width="130px"
	 height="180px" viewBox="0 0 130 180" enable-background="new 0 0 130 180" xml:space="preserve">
<g id="_x31_3_-_Problem_Solving__x28_Lightbulb_x29_">
</g>
<g id="_x31_2_-_Calculus__x26__Vectors__x28_Unit_Vectors_x29_">
</g>
<g id="_x31_1_-_Advanced_Functions">
</g>
<g id="_x39__-_Grades_7__x26__8">
</g>
<g id="_x38__-_CS__x28_Binary_Digits_x29_">
</g>
<g id="_x37__-_NS__x28_Blocks_x3B__Prime_factorization_of_12_x29_">
</g>
<g id="_x36__-_LR__x28_Intersection_of_lines_x29_">
</g>
<g id="_x35__-_SS__x28_Pascal_x27_s_triangle_x29_">
</g>
<g id="_x34__-_MT__x28_Cone_and_Sphere_x29_">
	<g>
		<circle fill="#E6F2BB" cx="79.985" cy="69.799" r="40.626"/>
		<g>
			<circle fill="#FF576C" cx="79.985" cy="69.799" r="40.626"/>
			<g>
				<g>
					<path fill="#292D73" d="M117.491,62.55c-0.137-1.022-0.437-2.013-0.644-3.016c-2.324-9.183-8.35-17.458-16.704-22.625
						c-8.307-5.207-18.987-7.198-29.408-4.79c-3.665,0.749-7.298,2.254-10.698,4.247c-1.74,0.947-3.305,2.189-4.909,3.386
						l-2.229,2.021c-0.386,0.323-0.729,0.691-1.06,1.069l-1.015,1.116c-0.334,0.375-0.686,0.736-1.007,1.122l-0.9,1.208
						c-0.582,0.817-1.25,1.575-1.729,2.458c-0.513,0.859-1.045,1.706-1.542,2.567c-0.43,0.898-0.858,1.792-1.285,2.684l-0.316,0.668
						l-0.251,0.694l-0.502,1.383l-0.502,1.374c-0.139,0.466-0.244,0.94-0.367,1.407c-0.222,0.94-0.517,1.858-0.677,2.797
						c-0.144,0.942-0.285,1.877-0.427,2.804c1.05-8.84,5.415-17.277,11.954-23.455c3.271-3.082,7.064-5.654,11.22-7.394
						c4.142-1.764,8.58-2.783,13.051-3.035c8.971-0.623,17.955,2.251,24.937,7.472c3.487,2.615,6.563,5.761,8.885,9.355
						c2.347,3.573,4.046,7.49,5.065,11.507c-1.244-3.125-2.89-6.75-5.467-10.569c-6.104-9.262-16.355-15.503-27.233-16.601
						c0.014-0.135,0.04-0.4,0.053-0.534c-3.928-0.282-7.835-0.026-11.627,0.711c-3.775,0.834-7.382,2.219-10.746,4.033
						c-6.658,3.74-12.227,9.393-15.633,16.213c-0.397,0.864-0.893,1.687-1.216,2.583l-1.005,2.677
						c-0.312,0.9-0.504,1.839-0.765,2.757c-0.116,0.463-0.263,0.919-0.354,1.388l-0.223,1.417l-0.226,1.417
						c-0.083,0.472-0.157,0.945-0.163,1.426l-0.157,2.875c-0.044,0.959,0.07,1.919,0.096,2.88l0.068,1.443l0.216,1.428
						c0.457,3.831,1.668,7.563,3.356,11.057c0.788,1.783,1.886,3.404,2.925,5.058c0.598,0.772,1.197,1.546,1.799,2.322
						c0.285,0.399,0.616,0.761,0.962,1.111l1.015,1.07c-0.699-0.876-0.171-0.458,0.048-0.348c0.052,0.057,0.102,0.111,0.149,0.164
						c-0.048-0.053-0.098-0.107-0.149-0.164c0.195,0.103,0.155-0.035-1.15-1.463c1.306,1.429,1.346,1.566,1.15,1.463
						c-1.359-1.364-2.451-2.94-3.603-4.459l-1.487-2.436l-0.373-0.607l-0.313-0.639l-0.618-1.279l-0.621-1.276
						c-0.192-0.431-0.332-0.884-0.501-1.324c-0.309-0.891-0.69-1.758-0.942-2.665l-0.704-2.731
						c-0.254-0.905-0.311-1.851-0.479-2.771l-0.215-1.389c-0.052-0.465-0.053-0.935-0.082-1.402
						c-0.037-0.936-0.115-1.87-0.123-2.803c0.119-1.865,0.11-3.74,0.482-5.571c0.197-1.858,0.769-3.637,1.211-5.44
						c0.661-1.735,1.199-3.521,2.089-5.158c0.738-1.709,1.797-3.245,2.752-4.835c1.131-1.474,2.187-3.008,3.507-4.326l0.941-1.029
						c0.311-0.346,0.684-0.63,1.021-0.949c0.701-0.61,1.364-1.269,2.094-1.845l2.248-1.661c0.741-0.567,1.587-0.979,2.373-1.479
						c3.229-1.851,6.71-3.355,10.398-4.124c3.66-0.804,7.474-1.216,11.273-0.85c-5.899-0.405-11.867,0.541-17.286,2.818
						c-5.394,2.335-10.22,5.917-14.03,10.368c-7.566,8.942-10.679,21.505-7.826,32.919c1.373,5.68,4.024,11.081,7.832,15.569
						c3.825,4.467,8.675,8.068,14.106,10.419c10.896,4.557,24.162,3.845,34.432-2.693c1.835-0.969,5.025-3.625,6.509-5.061
						c3.084-2.761,5.691-6.086,7.662-9.769c0.446-0.942,0.996-1.843,1.359-2.823l1.115-2.934l0.803-3.036
						c0.154-0.501,0.232-1.02,0.305-1.539l0.238-1.552c0.175,1.089,0.916-0.409,1.262-0.103c0.172,0.158,0.242,0.784,0.088,2.46
						c-0.259,1.647-0.785,4.378-2.549,8.399c0.124,0.054,0.371,0.163,0.495,0.217c0.515-0.987,0.857-2.003,1.279-2.94
						c0.19-0.476,0.419-0.929,0.571-1.394c0.148-0.463,0.295-0.917,0.438-1.364c0.276-0.89,0.596-1.724,0.813-2.527
						c0.192-0.792,0.376-1.55,0.553-2.275c0.41-1.407,0.571-2.624,0.777-3.587c0.202-0.964,0.395-1.68,0.572-2.112
						c0.294-0.818,0.663-0.605,0.83,1.104c0.075,0.848,0.183,2.06,0.138,3.65c-0.066,0.792-0.151,1.68-0.26,2.667
						c-0.063,0.492-0.093,1.017-0.199,1.553c-0.119,0.538-0.243,1.096-0.372,1.677c-1.17,5.251-3.564,10.736-7.262,15.67
						c-3.688,4.918-8.621,9.349-14.513,12.384c-5.87,3.054-12.583,4.795-19.332,4.955c-0.843,0.071-1.687,0.028-2.529-0.021
						l-2.527-0.128c-0.842-0.037-1.67-0.223-2.505-0.329c-0.832-0.133-1.669-0.232-2.492-0.396l-2.443-0.614
						c-0.812-0.208-1.632-0.386-2.409-0.698c-1.565-0.58-3.169-1.057-4.642-1.821c-8.817-3.932-16.111-11.033-20.569-19.593
						c-2.27-4.27-3.707-8.973-4.354-13.751l-0.26-1.792l-0.087-1.807l-0.077-1.807L36.104,69.8l0.051-0.902l0.225-3.605l0.588-3.565
						c1.238-6.514,4.177-12.798,8.313-18.195c2.025-2.743,4.512-5.124,7.108-7.353c2.722-2.076,5.566-4.041,8.706-5.45
						c6.189-2.959,13.093-4.455,19.852-4.162c6.758,0.227,13.36,2.08,19.054,5.21c1.051,0.541,2.118,1.278,3.293,1.973
						c0.597,0.335,1.155,0.76,1.727,1.19c0.573,0.427,1.158,0.861,1.751,1.302c0.612,0.417,1.138,0.953,1.705,1.445
						c0.56,0.503,1.123,1.009,1.686,1.515c1.063,1.074,2.071,2.208,3.066,3.301c0.887,1.181,1.78,2.315,2.562,3.436
						c0.706,1.171,1.374,2.278,1.985,3.292c1.003,2.143,1.866,3.865,2.111,5.036c0.493,1.625,0.677,2.484,0.68,2.89
						c-0.031,0.417-0.202,0.367-0.419,0.168l-0.967-2.681c-0.167-0.444-0.313-0.897-0.499-1.334l-0.613-1.286
						c-0.421-0.85-0.794-1.727-1.258-2.554l-1.472-2.437c-2.088-3.156-4.48-6.146-7.354-8.618l-1.049-0.956
						c-0.352-0.317-0.748-0.578-1.12-0.87l-2.268-1.702l-2.416-1.48c-0.406-0.24-0.799-0.505-1.217-0.723l-1.272-0.619
						c-3.341-1.771-6.991-2.842-10.649-3.653c-4.521-0.943-9.188-1.001-13.767-0.463l-1.716,0.247
						c-0.573,0.081-1.147,0.152-1.704,0.313l-3.369,0.834l-3.275,1.157c-0.554,0.175-1.077,0.422-1.6,0.673l-1.573,0.738
						c-4.156,2.047-7.986,4.76-11.313,8.013c-3.318,3.264-6.043,7.117-8.146,11.28c2.088-4.052,4.738-7.865,8.037-11.08
						c3.277-3.226,7.063-5.951,11.2-8.031c1.056-0.476,2.081-1.024,3.164-1.438l3.282-1.17c2.244-0.602,4.498-1.206,6.821-1.458
						c4.615-0.583,9.352-0.559,13.958,0.387c3.647,0.824,7.27,1.91,10.577,3.678l1.258,0.62c0.419,0.207,0.802,0.48,1.204,0.717
						l2.384,1.476l2.235,1.688c0.369,0.286,0.747,0.56,1.108,0.854l1.029,0.949c2.838,2.435,5.159,5.402,7.235,8.48l1.429,2.399
						c0.252,0.393,0.463,0.807,0.651,1.233l0.595,1.263c0.862,1.653,1.409,3.438,2.041,5.183c-0.449-0.428-0.896-0.811-0.843,0.108
						c0,0,0.11,0.26,0.239,0.698c0.114,0.442,0.272,1.056,0.447,1.737c0.171,0.683,0.378,1.429,0.541,2.148
						c0.112,0.73,0.218,1.426,0.303,1.982c0.25,2.245,0.01,3.804-0.105,4.778c-0.145,0.978-0.326,1.387-0.528,1.387
						c-0.404-0.003-0.897-1.628-1.336-3.713C118.205,65.02,117.83,63.849,117.491,62.55z"/>
				</g>
			</g>
		</g>
		<g opacity="0.8">
			<g>
				<g>
					<path fill="#292D73" d="M60.289,96.631c0.358,0.298,0.708,0.61,1.073,0.901c3.475,2.609,7.892,4.153,12.521,5.007
						c4.648,0.818,9.655,1.161,14.586,0.456c3.49-0.497,7.137-1.777,10.386-3.741c3.261-1.949,6.101-4.553,8.3-7.322
						c-2.65,3.247-5.966,6.033-9.749,7.97c-3.77,1.955-7.954,3.106-12.17,3.343c-2.084,0.126-4.277,0.05-6.414-0.155
						c-2.139-0.202-4.252-0.527-6.292-1.02c-4.068-0.976-7.93-2.545-10.905-4.862c1.869,0.737,3.49,1.376,5.126,2.021
						c4.78,2.027,10.19,2.879,15.512,3.019c-0.002,0.136-0.006,0.402-0.008,0.536c3.747-0.082,7.31-0.636,10.712-1.809
						c3.388-1.159,6.565-2.886,9.358-5.129c5.591-4.456,9.526-11.173,10.278-18.54c-0.149,0.507-0.211,0.182-0.281,0.063
						l0.015-0.103l-0.015,0.103c-0.061-0.108-0.13-0.058-0.264,0.837c0.134-0.895,0.203-0.945,0.264-0.837
						c-1.03,7.106-4.672,13.61-10.051,18.048c-5.34,4.484-12.25,6.965-19.399,6.847c5.539,0.01,11.043-1.419,15.686-4.362
						l0.881-0.53c0.284-0.19,0.551-0.407,0.827-0.609c0.544-0.416,1.107-0.808,1.639-1.238c1.002-0.934,2.066-1.803,2.942-2.862
						c0.968-0.975,1.73-2.117,2.561-3.205c0.38-0.569,0.712-1.169,1.073-1.75c0.175-0.294,0.361-0.582,0.527-0.881l0.44-0.928
						c1.271-2.432,2.034-5.096,2.559-7.786l0.304-2.041c0.085-0.683,0.074-1.376,0.119-2.064c0.04-0.688,0.077-1.377,0.026-2.087
						c-0.042-0.704-0.015-1.411-0.111-2.115c-0.448-5.643-2.174-11.274-5.021-16.25c-0.254-0.415-0.637-1.039-1.019-1.664
						c-0.426-0.59-0.851-1.181-1.134-1.574c-1.992-3.353-4.95-6.065-8.345-7.796c0.573-0.067,0.16-0.875,0.433-1.167
						c0.141-0.144,0.463-0.153,1.201,0.14c0.75,0.268,1.891,0.912,3.488,2.232c0.084-0.105,0.252-0.317,0.336-0.423
						c-0.757-0.748-1.55-1.327-2.208-1.949c-0.708-0.545-1.354-1.034-1.899-1.498c-1.14-0.833-1.941-1.477-2.224-1.943
						c-0.259-0.415-0.071-0.708,0.805-0.622c0.436,0.039,1.033,0.157,1.807,0.372c0.773,0.216,1.654,0.655,2.74,1.163
						c2.34,1.304,4.659,3.087,6.731,5.279c2.045,2.213,3.834,4.804,5.322,7.604c3.018,5.605,4.622,12.066,5.203,18.333
						c0.033,1.152,0.164,2.284,0.106,3.457c-0.063,1.167-0.034,2.345-0.188,3.506c-0.18,1.158-0.283,2.333-0.545,3.477
						c-0.297,1.135-0.525,2.294-0.901,3.406c-1.436,4.478-3.833,8.646-6.983,12.103c-2.146,2.403-4.712,4.476-7.448,6.32
						c-2.796,1.771-5.847,3.167-9.023,4.176c-0.804,0.218-1.616,0.404-2.424,0.603c-0.405,0.091-0.805,0.208-1.214,0.276
						l-1.232,0.172c-0.822,0.099-1.638,0.253-2.461,0.297l-2.464,0.078c-3.217,0.028-6.306-0.302-9.331-0.875
						c-2.196-0.379-5.229-0.941-7.933-1.826c-2.708-0.854-5.047-2.058-5.944-2.816c-1.328-1.028-1.197-1.322-0.819-1.45
						c3.099,2.057,6.559,3.363,10.04,4.279c3.497,0.888,7.051,1.375,10.591,1.55c2.151,0.15,4.383,0.104,6.604-0.073
						c1.1-0.164,2.217-0.253,3.307-0.484c1.081-0.27,2.185-0.477,3.252-0.806c4.285-1.284,8.328-3.419,11.848-6.242
						c-3.479,2.717-7.467,4.829-11.742,6.131c-1.058,0.354-2.168,0.546-3.251,0.826c-1.089,0.258-2.216,0.337-3.323,0.513
						c-2.236,0.207-4.502,0.263-6.693,0.134c-3.53-0.207-7.05-0.73-10.488-1.646c-1.714-0.479-3.418-1.015-5.06-1.736
						c-1.647-0.696-3.253-1.524-4.748-2.539c0.373-0.089,0.728-0.204,0.51-0.659c0,0-0.465-0.276-1.014-0.669
						c-0.533-0.415-1.209-0.868-1.597-1.249c-0.348-0.427-0.639-0.781-0.84-1.113c-0.194-0.338-0.331-0.621-0.418-0.854
						c-0.175-0.467-0.153-0.737,0-0.87c0.313-0.266,1.124,0.022,2.026,0.453C59.228,96.114,59.716,96.381,60.289,96.631z"/>
				</g>
			</g>
		</g>
		<g opacity="0.6">
			<g>
				<g>
					<path fill="#292D73" d="M77.798,101.143c0.172,0.018,0.345,0.036,0.51,0.053c3.154,0.182,6.281-0.683,9.641-1.833
						c2.412-0.732,4.854-2.325,6.813-3.864c-2.411,1.718-5.099,3.193-7.932,4.157c-2.822,0.97-5.796,1.411-8.537,1.125
						c0.526-0.357,1.137-0.667,1.878-0.773c1.804-0.135,3.59-0.491,5.312-1.027c0.045,0.128,0.133,0.379,0.177,0.506
						c2.387-1.051,4.705-2.029,6.893-3.32c2.171-1.285,4.215-2.907,5.646-5.085c-0.173,0.092-0.185-0.063-0.227-0.148l0.022-0.028
						l-0.022,0.028c-0.036-0.076-0.093-0.097-0.304,0.138c0.211-0.235,0.268-0.213,0.304-0.138
						c-3.205,3.869-7.481,6.523-12.293,7.986c7.414-2.42,13.737-8.068,16.267-15.272c0.111-0.305,0.297-0.926,0.38-1.238
						c0.726-1.145,1.079-2.462,1.134-3.781c0.329,0.184,0.847-0.046,1.232,0.012c0.375,0.055,0.676,0.444,0.355,1.875
						c0.134,0.019,0.401,0.056,0.535,0.074c0.537-1.425,1.163-2.481,1.797-2.789c0.607-0.293,1.274,0.18,1.419,1.932
						c0.114,1.951-0.336,4.234-1.194,6.434c-0.846,2.213-2.071,4.332-3.298,6.301c-1.836,2.83-4.165,5.356-6.979,7.136
						c-3.839,2.424-8.286,4.702-12.771,5.296c-1.578,0.312-4.347,1.14-5.209,0.776c-0.599-0.144-0.638-0.429-0.575-0.756
						c2.599-0.148,5.152-0.664,7.6-1.403c3.03-0.836,5.955-2.074,8.755-3.62c-2.796,1.422-5.692,2.691-8.755,3.62
						c-2.463,0.676-4.997,1.087-7.538,1.138c0.071-0.283,0.134-0.576-0.038-0.829c0,0-0.76,0.057-1.141,0.065
						c-1.544-0.638-1.108-1.602-0.438-2.281C77.396,101.466,77.596,101.305,77.798,101.143z"/>
				</g>
			</g>
		</g>
		<g>
			<g>
				<g>
					<path fill="#F2F2F2" d="M77.517,36.79c-0.258,0.004-0.517,0.009-0.767,0.014c-1.17,0.091-2.334,0.315-3.506,0.531
						c-1.144,0.336-2.33,0.585-3.471,1.033c-1.142,0.443-2.323,0.841-3.457,1.419c-0.574,0.267-1.155,0.537-1.749,0.812
						c-0.566,0.307-1.144,0.619-1.737,0.941c-3.343,1.713-6.611,4.59-9.039,7.399c2.993-3.238,6.619-6.071,10.592-8.15
						c3.958-2.087,8.293-3.384,12.416-3.573c-0.768,0.428-1.659,0.94-2.77,1.167c-2.668,0.62-5.314,1.424-7.752,2.665
						c-0.062-0.122-0.182-0.359-0.242-0.479c-3.4,1.96-6.6,4.017-9.447,6.533c-2.826,2.504-5.309,5.523-6.704,9.124
						c0.174-0.216,0.207-0.02,0.263,0.07l-0.021,0.049l0.021-0.049c0.054,0.082,0.104,0.073,0.313-0.346
						c-0.21,0.419-0.26,0.428-0.313,0.346c1.601-3.376,3.902-6.331,6.597-8.851c2.702-2.519,5.813-4.624,9.252-6.265
						c-2.64,1.321-5.164,2.887-7.371,4.803c-0.569,0.459-1.131,0.925-1.633,1.453l-1.551,1.533
						c-0.923,1.112-1.927,2.168-2.702,3.381c-0.886,1.146-1.521,2.427-2.242,3.666c-0.55,1.309-1.215,2.585-1.561,3.962
						c-0.496,1.339-0.655,2.749-0.929,4.141c-0.064,1.416-0.229,2.803-0.084,4.353c0.035,0.52,0.042,1.538,0.127,2.078
						c-0.08,1.077-0.122,2.162-0.061,3.234c0.04,0.535,0.092,1.068,0.154,1.601c0.063,0.532,0.129,1.08,0.241,1.536
						c-0.383-0.174-0.8,0.295-1.192,0.318c-0.196,0.009-0.388-0.102-0.571-0.484c-0.168-0.394-0.302-1.074-0.404-2.172
						c-0.133,0.02-0.4,0.059-0.534,0.078c-0.038,2.234-0.293,3.891-0.8,4.517c-0.241,0.275-0.566,0.329-0.913-0.043
						c-0.333-0.346-0.775-1.163-1.094-2.303c-0.328-1.269-0.641-2.663-0.803-4.143c-0.092-0.74-0.188-1.494-0.258-2.273
						c-0.031-0.797-0.063-1.609-0.097-2.432c-0.011-0.412-0.035-0.82-0.032-1.242l0.093-1.307c0.086-0.87,0.079-1.759,0.246-2.62
						l0.479-2.582c0.159-0.857,0.458-1.667,0.667-2.498c1.427-4.758,4.019-9.118,7.461-12.513
						c4.729-4.622,10.676-8.83,16.953-10.677c1.099-0.421,2.629-0.948,4.032-1.416c1.406-0.454,2.737-0.673,3.345-0.622
						c0.863,0,0.946,0.314,0.873,0.639c-3.759,0.627-7.373,1.833-10.771,3.388c-4.199,1.854-8.134,4.336-11.684,7.366
						c3.545-2.884,7.44-5.404,11.684-7.366c3.419-1.493,7.013-2.585,10.698-3.118c-0.086,0.301-0.158,0.611,0.105,0.826
						c0,0,1.114-0.147,1.671-0.221c2.309,0.382,1.765,1.403,0.813,2.209C78.096,36.403,77.808,36.596,77.517,36.79z"/>
				</g>
			</g>
		</g>
	</g>
	<g>
		<path fill="#FF99AA" d="M79.929,153.225L43.651,20.638L7.374,153.225c-0.169,0.318-0.266,0.642-0.266,0.97
			c0,4.512,16.36,8.168,36.543,8.168s36.543-3.656,36.543-8.168C80.194,153.867,80.098,153.543,79.929,153.225z"/>
		<g>
			<g>
				<g>
					<path fill="#292D73" d="M72.085,161.522c-1.541,0.407-3.081,0.741-4.606,1.025c-7.053,1.311-14.118,1.811-21.23,1.904
						c-7.109,0.064-14.271-0.302-21.491-1.371c-3.609-0.551-7.231-1.257-10.859-2.416c-1.813-0.603-3.628-1.272-5.447-2.404
						c-0.475-0.312-0.854-0.563-1.44-1.096c-0.53-0.495-0.989-1.067-1.299-1.711c-0.282-0.639-0.515-1.374-0.323-2.07
						c0.063-0.352,0.141-0.706,0.23-1.054l0.209-0.764c1.996-7.119,4.03-14.377,6.12-21.831
						c5.976-20.818,12.377-44.725,18.092-65.609c-6.865,24.732-13.901,50.08-20.874,75.201c-0.877,3.138-1.752,6.272-2.626,9.401
						l-0.656,2.345l-0.357,1.291c-0.078,0.311-0.147,0.626-0.206,0.941c-0.063,0.314-0.117,0.625-0.06,0.944
						c0.168,1.278,0.973,2.382,1.962,3.223c0.877,0.732,1.636,1.167,2.458,1.598c3.226,1.609,6.454,2.438,9.692,3.178
						c3.237,0.707,6.479,1.208,9.716,1.585c6.476,0.744,12.931,1.004,19.331,0.892c6.403-0.131,12.75-0.612,19.033-1.749
						c-5,1.334-11.073,2.321-18.168,2.597c-8.535,0.24-17.009-0.151-25.419-1.467c-4.21-0.697-8.383-1.541-12.615-3.194
						c-1.062-0.43-2.129-0.917-3.229-1.592c-0.274-0.17-0.552-0.351-0.833-0.558c-0.143-0.101-0.274-0.205-0.431-0.329
						c-0.17-0.133-0.37-0.313-0.546-0.475c-0.715-0.674-1.313-1.466-1.662-2.357c-0.174-0.445-0.296-0.911-0.34-1.387
						c-0.055-0.475,0.082-0.944,0.152-1.421c0.047-0.237,0.1-0.473,0.158-0.706l0.14-0.521l0.205-0.739l0.82-2.953
						c0.131,0.036,0.388,0.106,0.517,0.142c5.784-21.886,11.714-42.97,17.618-64.044c2.933-10.547,5.862-21.085,8.814-31.702
						c1.444-5.319,2.894-10.657,4.353-16.03c2.204-8.244,4.423-16.538,6.665-24.92c0.52,1.839,1.043,3.695,1.568,5.555
						c-0.749-3.01-0.279-1.71-0.087-1.338c0.055,0.202,0.108,0.394,0.159,0.581c-0.051-0.187-0.104-0.379-0.159-0.581
						c0.169,0.329,0.095-0.166-1.339-5.406c1.434,5.24,1.508,5.735,1.339,5.406c-0.501-1.818-1.001-3.634-1.481-5.381
						c-6.783,24.799-13.355,48.824-19.931,72.862c-5.781,20.789-11.565,41.584-17.537,63.058
						c5.85-21.243,11.633-42.241,17.406-63.204c6.678-24.469,13.344-48.894,20.062-73.507c7.97,29.042,16.015,58.353,24.243,88.336
						c0.814,2.979,2.448,8.949,3.265,11.933c2.876,12.043,6.013,24.021,9.276,35.949c-1.466-2.801,0.498,9.492-5.775-14.457
						c-0.13,0.036-0.391,0.107-0.521,0.143c5.882,24.056,6.509,33.509-0.545,9.774c-7.868-26.711-17.146-62.665-26.386-95.413
						L43.84,33.568l-0.105-0.377l-0.006-0.015l-0.008-0.017l-0.016-0.028l-0.025-0.037c-0.014-0.017-0.023-0.018-0.028-0.009
						l-0.007,0.095l0.002,0.02l0.002,0.004l0.001,0.001h0.001v0l-0.048,0.173l-3.249,11.866c-2.179,7.906-4.387,15.804-6.637,23.689
						c-4.686,16.358-9.445,33.5-14.222,50.635c-2.397,8.563-4.795,17.125-7.169,25.602c-0.599,2.116-1.195,4.227-1.791,6.33
						l-0.447,1.576l-0.093,0.309c-0.016,0.059-0.05,0.118-0.035,0.181c0.009,0.125,0.075,0.238,0.154,0.334
						c0.039,0.049,0.084,0.094,0.132,0.137c0.068,0.058,0.263,0.213,0.416,0.316c1.373,0.938,3.318,1.692,5.228,2.301
						c1.937,0.612,3.946,1.102,5.968,1.519c5.893,1.215,14.279,1.868,21.887,1.801c7.619-0.014,14.42-0.733,17.438-0.97
						c4.325-0.441,4.536-0.278,3.942,0.183c-9.864,1.715-20.014,2.028-29.995,1.447c-4.991-0.316-9.965-0.886-14.8-1.894
						c-2.41-0.512-4.798-1.128-7.028-1.979c-1.107-0.427-2.186-0.918-3.09-1.506c-0.219-0.141-0.447-0.313-0.609-0.443
						c-0.13-0.109-0.253-0.225-0.362-0.353c-0.216-0.251-0.395-0.574-0.359-0.912c6.632-23.497,13.264-46.995,19.904-70.519
						c-3.352,11.547-6.691,23.265-10.028,35.114c-3.264,11.702-6.559,23.511-9.876,35.405c-0.037,0.337,0.139,0.661,0.353,0.913
						c0.108,0.129,0.23,0.246,0.359,0.356c0.159,0.128,0.388,0.303,0.604,0.443c0.897,0.591,1.971,1.085,3.071,1.516
						c2.217,0.858,4.589,1.482,6.98,2.003c4.799,1.024,9.727,1.617,14.665,1.959c9.877,0.637,19.884,0.389,29.638-1.186
						c-0.663,0.393-1.311,0.792-0.068,0.853c0,0,1.521-0.25,3.401-0.661c1.881-0.402,4.109-1.007,5.555-1.516
						c2.954-0.838,4.897-1.731,5.997-2.65c1.137-0.912,1.226-1.898,1.443-1.864c0.093-0.002,0.217,0.215,0.231,0.645
						c0.018,0.427-0.127,1.034-0.457,1.628c-0.662,1.2-1.919,2.261-3.376,3.156C75.767,160.028,74.038,160.805,72.085,161.522z"/>
				</g>
			</g>
		</g>
		<g opacity="0.8">
			<g>
				<g>
					<path fill="#292D73" d="M57.994,87.806c0.151,0.617,0.304,1.235,0.453,1.844c2.884,11.277,6.285,22.403,9.661,34.882
						c1.143,4.379,2.474,9.04,3.837,13.691c0.687,2.324,1.374,4.647,2.05,6.933c0.339,1.142,0.675,2.275,1.006,3.393
						c0.165,0.559,0.329,1.115,0.492,1.666c0.083,0.294,0.18,0.784,0.269,1.164c0.078,0.406,0.206,0.809,0.243,1.212
						c-0.05-0.478-0.189-0.954-0.28-1.433l-0.154-0.719c-0.051-0.234-0.093-0.343-0.139-0.521l-0.549-1.943
						c-0.367-1.297-0.735-2.598-1.104-3.9c-0.741-2.605-1.486-5.221-2.231-7.842c-1.486-5.241-2.979-10.5-4.466-15.745
						c-2.943-10.485-5.774-20.893-8.224-30.91c0.892,1.909,1.836,4.226,2.65,7.006c1.841,6.726,3.691,13.354,5.554,19.919
						c-0.131,0.039-0.387,0.113-0.515,0.151c2.921,9.246,5.395,18.286,7.9,27.316l0.942,3.386l0.474,1.694l0.238,0.847l0.06,0.211
						c0.02,0.069,0.046,0.223,0.068,0.33l0.142,0.709l0.282,1.415c-0.011,0.474-0.167,0.942-0.368,1.37
						c-0.418,0.859-1.121,1.566-1.929,2.138c-0.201,0.144-0.408,0.282-0.621,0.41l-0.503,0.287c-0.313,0.171-0.62,0.319-0.928,0.462
						c-0.614,0.282-1.222,0.52-1.828,0.738c-2.419,0.857-4.819,1.417-7.24,1.908c-2.42,0.482-4.855,0.869-7.314,1.203
						c0.709,0,0.305,0.152,0.168,0.253c-0.049,0.005-0.096,0.01-0.141,0.015c0.045-0.005,0.092-0.01,0.141-0.015
						c-0.124,0.088-0.037,0.145,1.195,0.007c-1.232,0.138-1.319,0.081-1.195-0.007c2.432-0.267,4.843-0.606,7.243-1.058
						c2.401-0.46,4.783-1.005,7.2-1.854c0.605-0.215,1.214-0.453,1.831-0.731c0.309-0.14,0.619-0.29,0.936-0.458
						c0.157-0.083,0.315-0.17,0.476-0.265c0.178-0.102,0.438-0.264,0.644-0.406c0.869-0.591,1.639-1.318,2.126-2.2
						c0.24-0.44,0.421-0.918,0.5-1.416c0.065-0.249-0.009-0.498-0.057-0.747l-0.146-0.747l-0.289-1.461l-0.241-0.832l-0.48-1.663
						l-0.958-3.324c-2.548-8.865-5.047-17.741-7.6-26.917c2.048,7.113,4.074,14.149,6.095,21.167
						c1.026,3.506,2.051,7.006,3.076,10.507l0.193,0.656l0.096,0.328c0.031,0.094,0.076,0.375,0.114,0.554l0.235,1.217l0.117,0.608
						c0.033,0.203,0.107,0.406,0.053,0.608c-0.23,1.648-1.406,2.987-2.841,3.919c-0.171,0.113-0.382,0.245-0.523,0.326l-0.381,0.215
						c-0.253,0.138-0.502,0.264-0.749,0.381c-0.494,0.236-0.979,0.44-1.461,0.628c-0.963,0.371-1.912,0.677-2.856,0.947
						c-3.773,1.06-7.507,1.655-11.263,2.101c-3.753,0.432-7.518,0.671-11.3,0.757c-7.56,0.132-15.159-0.166-22.936-1.438
						c-1.323-0.209-3.987-0.756-5.337-1.142c-1.322-0.467-2.646-0.963-4.02-1.656c-0.349-0.177-0.68-0.354-1.057-0.583
						c-0.501-0.304-0.994-0.631-1.427-1.01c-0.869-0.75-1.53-1.69-1.764-2.778c-0.063-0.271-0.095-0.545-0.004-0.818l0.175-0.817
						l0.343-1.58c0.194-0.619,0.388-1.235,0.58-1.85c0.374-1.242,0.745-2.476,1.117-3.711c0.143,0.714,0.901-0.074,1.228,0.19
						c0.164,0.132,0.22,0.527,0.036,1.505c-0.092,0.489-0.243,1.124-0.471,1.943c-0.249,0.847-0.553,1.88-0.936,3.18
						c0.131,0.016,0.394,0.048,0.524,0.063c3.563-9.803,6.464-12.943,4.073-2.882c-0.179,0.713-0.358,1.433-0.541,2.16
						c-0.089,0.345-0.178,0.691-0.268,1.04l0.003,0.098c-0.004,0.062,0.064,0.107,0.113,0.129l0.097,0.041
						c0.25,0.131,0.539,0.263,0.848,0.391c2.554,1.028,5.901,1.717,9.25,2.24c6.774,1.023,14.12,1.39,21.05,1.093
						c5.038-0.204,10.073-0.676,14.945-1.532c2.422-0.435,4.836-0.965,6.99-1.696c0.533-0.184,1.051-0.378,1.514-0.586
						c0.234-0.103,0.448-0.21,0.648-0.314l0.126-0.068c0.017-0.007,0.008-0.001,0.014-0.003l0.013,0
						c0.042,0.003,0.094-0.026,0.099-0.092c-3.581-13.659-8.095-28.577-11.567-42.348c-1.325-5.001-4.259-13.571-4.598-16.167
						c-0.336-1.836-0.081-1.988,0.307-1.806c2.352,8.168,4.693,16.303,7.013,24.358c2.745,9.905,5.475,19.815,8.105,29.747
						c-2.47-9.744-5.233-19.683-8.105-29.747c-2.229-8.054-4.457-16.105-6.69-24.175c0.351,0.216,0.709,0.417,0.821-0.147
						c0,0-0.727-2.48-1.09-3.72c-0.807-5.153,0.464-4.175,1.838-1.889C57.26,86.406,57.62,87.092,57.994,87.806z"/>
				</g>
			</g>
		</g>
		<g opacity="0.6">
			<g>
				<g>
					<path fill="#292D73" d="M65.218,125.16c0.088,0.357,0.177,0.715,0.263,1.064c0.858,3.246,1.844,6.449,2.875,9.736
						c0.516,1.643,1.037,3.306,1.57,5.008c0.261,0.849,0.523,1.708,0.791,2.58c0.131,0.435,0.262,0.872,0.394,1.314l0.196,0.664
						l0.098,0.333l0.107,0.5l0.291,1.408c0.069,0.467,0.311,0.943,0.08,1.403c-0.338,0.916-1.091,1.593-1.95,2.125
						c-0.429,0.264-0.904,0.498-1.363,0.695c-0.392,0.166-0.724,0.291-1.087,0.421c-0.71,0.25-1.417,0.464-2.123,0.656
						c-2.822,0.759-5.632,1.238-8.267,1.574c3.132-0.344,6.29-0.807,9.5-1.751c0.402-0.122,0.807-0.253,1.213-0.402
						c0.405-0.152,0.782-0.288,1.382-0.58c1.09-0.533,2.112-1.234,2.659-2.254c0.136-0.254,0.238-0.532,0.287-0.816
						c0.024-0.284-0.104-0.57-0.148-0.855l-0.386-1.719l-0.097-0.432l-0.088-0.282l-0.174-0.563l-0.348-1.125
						c-1.848-5.997-3.596-11.963-5.011-17.746c0.678,1.04,1.369,2.321,1.892,3.907c1.14,3.854,2.299,7.646,3.474,11.399
						c-0.13,0.043-0.383,0.126-0.51,0.168c0.485,1.31,0.945,2.617,1.387,3.92c0.026,0.058,0.058,0.199,0.089,0.348l0.093,0.424
						l0.184,0.848l0.362,1.693c-0.115,1.146-0.861,2.095-1.771,2.798c-0.462,0.358-0.981,0.662-1.521,0.926
						c-0.258,0.13-0.564,0.266-0.771,0.35l-0.554,0.215c-0.732,0.269-1.447,0.485-2.155,0.672c-1.416,0.375-2.807,0.644-4.193,0.873
						c-5.541,0.884-11.006,1.19-16.688,1.667c0.406,0.063,0.169,0.178,0.087,0.268l-0.081,0.002l0.081-0.002
						c-0.074,0.078-0.026,0.137,0.684,0.119c-0.71,0.018-0.758-0.041-0.684-0.119c5.608-0.205,11.018-0.61,16.481-1.553
						c1.369-0.243,2.741-0.526,4.139-0.896c0.701-0.189,1.406-0.396,2.132-0.654l0.548-0.203c0.202-0.082,0.32-0.124,0.638-0.264
						c0.549-0.249,1.116-0.538,1.621-0.875c1.018-0.675,1.835-1.555,2.2-2.68c0.097-0.28,0.158-0.566,0.059-0.859l-0.172-0.875
						l-0.344-1.762l-0.086-0.443l-0.075-0.255l-0.149-0.486l-0.298-0.975c-0.198-0.651-0.397-1.305-0.598-1.961
						c0.321,1.017,0.641,2.03,0.96,3.041l0.12,0.379l0.061,0.189c0.021,0.065,0.046,0.219,0.068,0.323l0.278,1.392
						c0.129,0.917,0.59,1.874,0.079,2.733c-0.376,0.847-1.007,1.548-1.786,2.121c-0.386,0.29-0.816,0.536-1.253,0.768
						c-0.426,0.223-0.949,0.451-1.18,0.542c-1.168,0.471-2.278,0.798-3.381,1.087c-4.391,1.106-8.662,1.616-12.974,1.987
						c-4.302,0.352-8.626,0.479-12.969,0.421c-4.349-0.062-8.738-0.291-13.218-0.839c-0.762-0.09-2.294-0.306-3.063-0.436
						c-1.721-0.516-3.184-0.955-4.547-1.364c-0.768-0.244-1.542-0.502-2.337-0.808c-0.8-0.317-1.609-0.649-2.523-1.231
						c0.618-0.008,0.237-0.85,0.574-1.099c0.343-0.277,1.137,0.146,4.022,1.125c0.037-0.13,0.111-0.39,0.148-0.519
						c-1.391-0.571-2.511-1.285-3.096-2c-0.594-0.699-0.445-1.324-0.167-1.617c0.075-0.184,0.188-0.288,0.338-0.302
						c0.07-0.014,0.171,0.022,0.241,0.032l0.194,0.011c0.142,0.021,0.293,0.008,0.428-0.023c0.183,0.015,0.57,0.145,1.128,0.303
						c1.265,0.381,2.925,0.739,4.679,1.058c1.765,0.319,3.667,0.607,5.633,0.848c3.934,0.481,8.127,0.773,12.138,0.699
						c5.834-0.05,11.637-0.43,17.358-0.92c1.965-0.165,3.96-0.435,5.888-0.845c0.959-0.207,1.905-0.449,2.767-0.741l0.827-0.301
						c0.074-0.026,0.151-0.059,0.222-0.109c0.18-0.118,0.07-0.277,0.043-0.493c-0.305-1.019-0.609-2.037-0.914-3.058
						c-0.598-2.033-1.166-4.051-1.68-6.037c-0.805-2.873-2.823-7.696-2.905-9.238c-0.151-1.077,0.108-1.207,0.464-1.152
						c1.496,4.665,2.984,9.302,4.461,13.906c0.426,1.417,0.853,2.834,1.279,4.254l0.311,1.041l0.137,0.517
						c0.019,0.171,0.146,0.33,0.068,0.501c-0.061,0.166-0.196,0.293-0.334,0.397c-0.141,0.104-0.295,0.185-0.448,0.255
						c-0.176,0.08-0.257,0.107-0.529,0.208c-0.603,0.226-1.257,0.419-1.925,0.589c-1.34,0.339-2.741,0.588-4.155,0.785
						c1.388-0.166,2.773-0.393,4.108-0.714c0.665-0.162,1.319-0.349,1.928-0.571l0.339-0.124l0.242-0.099
						c0.161-0.072,0.321-0.156,0.47-0.261c0.147-0.105,0.29-0.234,0.364-0.403c0.097-0.175-0.02-0.348-0.051-0.524l-0.149-0.538
						l-0.31-1.015c-0.448-1.432-0.896-2.864-1.345-4.3c-1.388-4.608-2.771-9.207-4.167-13.841c0.316,0.081,0.643,0.151,0.804-0.211
						c0,0-0.467-1.414-0.7-2.121c-0.292-3.041,0.839-2.628,1.946-1.428C64.645,124.412,64.929,124.782,65.218,125.16z"/>
				</g>
			</g>
		</g>
		<g>
			<g>
				<g>
					<path fill="#F2F2F2" d="M45.237,36.438c-0.093,0.256-0.186,0.514-0.276,0.762c-1.623,4.693-2.899,9.486-4.588,14.734
						c-1.233,3.659-2.359,7.921-3.419,11.628c2.673-8.742,5.254-17.996,8.268-26.268c-0.04,0.912-0.169,1.979-0.508,3.166
						c-0.898,2.834-1.761,5.639-2.6,8.424c-0.087-0.025-0.258-0.074-0.344-0.098c-2.013,8.02-4.826,15.239-6.666,23.309
						c0.127-0.269,0.149-0.082,0.188-0.007l-0.016,0.057l0.016-0.057c0.034,0.067,0.081,0.045,0.223-0.449
						c-0.142,0.494-0.188,0.516-0.223,0.449c2.151-7.841,4.325-15.126,6.726-22.885c-3.628,12.075-6.802,23.81-10.355,36.234
						c-0.151,0.529-0.454,1.589-0.605,2.118c-0.866,2.045-1.559,4.14-2.164,6.257c-0.281-0.652-1.753,1.219-0.367-2.97
						c-0.087-0.025-0.26-0.074-0.347-0.099c-1.645,4.115-3.311,5.358-2.444,1.021c1.017-4.866,3.181-11.124,4.675-17
						c1.125-4.264,2.251-8.526,3.636-12.713c1.926-5.753,3.657-12.135,5.67-17.862c0.692-2.095,1.493-5.878,2.056-6.863
						c0.343-0.726,0.535-0.703,0.707-0.528c-1.022,3.479-2.037,6.929-3.049,10.366c-1.301,4.185-2.613,8.366-3.989,12.526
						c1.415-4.049,2.716-8.25,3.989-12.526c1.06-3.397,2.114-6.779,3.184-10.209c0.141,0.176,0.291,0.349,0.521,0.188
						c0,0,0.303-1.059,0.454-1.588c1.039-1.996,1.493-1.292,1.623-0.11C45.22,35.749,45.229,36.092,45.237,36.438z"/>
				</g>
			</g>
		</g>
	</g>
</g>
<g id="_x33__-_QR__x28_Suspension_Bridge_x29_">
</g>
<g id="_x32__-_ET__x28_Sine_and_exponential_x29_">
</g>
<g id="_x31__-_IF__x28_Function_diagram_x29_">
</g>
</svg>
