<?xml version="1.0" encoding="utf-8"?>
<!-- Generator: Adobe Illustrator 16.0.0, SVG Export Plug-In . SVG Version: 6.00 Build 0)  -->
<!DOCTYPE svg PUBLIC "-//W3C//DTD SVG 1.1//EN" "http://www.w3.org/Graphics/SVG/1.1/DTD/svg11.dtd">
<svg version="1.1" xmlns="http://www.w3.org/2000/svg" xmlns:xlink="http://www.w3.org/1999/xlink" x="0px" y="0px" width="130px"
	 height="180px" viewBox="0 0 130 180" enable-background="new 0 0 130 180" xml:space="preserve">
<g id="_x31_3_-_Problem_Solving__x28_Lightbulb_x29_">
</g>
<g id="_x31_2_-_Calculus__x26__Vectors__x28_Unit_Vectors_x29_">
</g>
<g id="_x31_1_-_Advanced_Functions">
</g>
<g id="_x39__-_Grades_7__x26__8">
</g>
<g id="_x38__-_CS__x28_Binary_Digits_x29_">
</g>
<g id="_x37__-_NS__x28_Blocks_x3B__Prime_factorization_of_12_x29_">
</g>
<g id="_x36__-_LR__x28_Intersection_of_lines_x29_">
</g>
<g id="_x35__-_SS__x28_Pascal_x27_s_triangle_x29_">
	<g>
		<linearGradient id="SVGID_1_" gradientUnits="userSpaceOnUse" x1="55.1543" y1="31.9033" x2="75.7729" y2="31.9033">
			<stop  offset="0" style="stop-color:#FFB973"/>
			<stop  offset="0.0973" style="stop-color:#FFC470"/>
			<stop  offset="0.2702" style="stop-color:#FFE369"/>
			<stop  offset="0.3673" style="stop-color:#FFF764"/>
			<stop  offset="0.3705" style="stop-color:#FFF765"/>
			<stop  offset="0.4797" style="stop-color:#FFF994"/>
			<stop  offset="0.5889" style="stop-color:#FFFBBA"/>
			<stop  offset="0.6965" style="stop-color:#FFFDD8"/>
			<stop  offset="0.8019" style="stop-color:#FFFEEE"/>
			<stop  offset="0.9043" style="stop-color:#FFFFFB"/>
			<stop  offset="1" style="stop-color:#FFFFFF"/>
		</linearGradient>
		<polygon fill="url(#SVGID_1_)" points="75.773,40.943 65.463,49.984 55.154,40.943 55.154,22.862 65.463,13.822 75.773,22.862 		
			"/>
		<linearGradient id="SVGID_2_" gradientUnits="userSpaceOnUse" x1="44.5728" y1="60.6748" x2="65.1914" y2="60.6748">
			<stop  offset="0" style="stop-color:#FFB973"/>
			<stop  offset="0.0973" style="stop-color:#FFC470"/>
			<stop  offset="0.2702" style="stop-color:#FFE369"/>
			<stop  offset="0.3673" style="stop-color:#FFF764"/>
			<stop  offset="0.3705" style="stop-color:#FFF765"/>
			<stop  offset="0.4797" style="stop-color:#FFF994"/>
			<stop  offset="0.5889" style="stop-color:#FFFBBA"/>
			<stop  offset="0.6965" style="stop-color:#FFFDD8"/>
			<stop  offset="0.8019" style="stop-color:#FFFEEE"/>
			<stop  offset="0.9043" style="stop-color:#FFFFFB"/>
			<stop  offset="1" style="stop-color:#FFFFFF"/>
		</linearGradient>
		<polygon fill="url(#SVGID_2_)" points="65.191,69.716 54.882,78.756 44.573,69.716 44.573,51.634 54.882,42.593 65.191,51.634 		
			"/>
		<linearGradient id="SVGID_3_" gradientUnits="userSpaceOnUse" x1="66.1558" y1="60.6748" x2="86.7749" y2="60.6748">
			<stop  offset="0" style="stop-color:#FFB973"/>
			<stop  offset="0.0973" style="stop-color:#FFC470"/>
			<stop  offset="0.2702" style="stop-color:#FFE369"/>
			<stop  offset="0.3673" style="stop-color:#FFF764"/>
			<stop  offset="0.3705" style="stop-color:#FFF765"/>
			<stop  offset="0.4797" style="stop-color:#FFF994"/>
			<stop  offset="0.5889" style="stop-color:#FFFBBA"/>
			<stop  offset="0.6965" style="stop-color:#FFFDD8"/>
			<stop  offset="0.8019" style="stop-color:#FFFEEE"/>
			<stop  offset="0.9043" style="stop-color:#FFFFFB"/>
			<stop  offset="1" style="stop-color:#FFFFFF"/>
		</linearGradient>
		<polygon fill="url(#SVGID_3_)" points="86.775,69.716 76.465,78.756 66.156,69.716 66.156,51.634 76.465,42.593 86.775,51.634 		
			"/>
		<linearGradient id="SVGID_4_" gradientUnits="userSpaceOnUse" x1="55.1538" y1="88.3242" x2="75.7729" y2="88.3242">
			<stop  offset="0" style="stop-color:#FFB973"/>
			<stop  offset="0.0973" style="stop-color:#FFC470"/>
			<stop  offset="0.2702" style="stop-color:#FFE369"/>
			<stop  offset="0.3673" style="stop-color:#FFF764"/>
			<stop  offset="0.3705" style="stop-color:#FFF765"/>
			<stop  offset="0.4797" style="stop-color:#FFF994"/>
			<stop  offset="0.5889" style="stop-color:#FFFBBA"/>
			<stop  offset="0.6965" style="stop-color:#FFFDD8"/>
			<stop  offset="0.8019" style="stop-color:#FFFEEE"/>
			<stop  offset="0.9043" style="stop-color:#FFFFFB"/>
			<stop  offset="1" style="stop-color:#FFFFFF"/>
		</linearGradient>
		<polygon fill="url(#SVGID_4_)" points="75.773,97.364 65.463,106.405 55.154,97.364 55.154,79.283 65.463,70.243 75.773,79.283 		
			"/>
		<linearGradient id="SVGID_5_" gradientUnits="userSpaceOnUse" x1="44.8447" y1="116.1973" x2="65.4634" y2="116.1973">
			<stop  offset="0" style="stop-color:#FFB973"/>
			<stop  offset="0.0973" style="stop-color:#FFC470"/>
			<stop  offset="0.2702" style="stop-color:#FFE369"/>
			<stop  offset="0.3673" style="stop-color:#FFF764"/>
			<stop  offset="0.3705" style="stop-color:#FFF765"/>
			<stop  offset="0.4797" style="stop-color:#FFF994"/>
			<stop  offset="0.5889" style="stop-color:#FFFBBA"/>
			<stop  offset="0.6965" style="stop-color:#FFFDD8"/>
			<stop  offset="0.8019" style="stop-color:#FFFEEE"/>
			<stop  offset="0.9043" style="stop-color:#FFFFFB"/>
			<stop  offset="1" style="stop-color:#FFFFFF"/>
		</linearGradient>
		<polygon fill="url(#SVGID_5_)" points="65.463,125.237 55.154,134.278 44.845,125.237 44.845,107.156 55.154,98.116 
			65.463,107.156 		"/>
		<linearGradient id="SVGID_6_" gradientUnits="userSpaceOnUse" x1="66.1558" y1="116.1973" x2="86.7749" y2="116.1973">
			<stop  offset="0" style="stop-color:#FFB973"/>
			<stop  offset="0.0973" style="stop-color:#FFC470"/>
			<stop  offset="0.2702" style="stop-color:#FFE369"/>
			<stop  offset="0.3673" style="stop-color:#FFF764"/>
			<stop  offset="0.3705" style="stop-color:#FFF765"/>
			<stop  offset="0.4797" style="stop-color:#FFF994"/>
			<stop  offset="0.5889" style="stop-color:#FFFBBA"/>
			<stop  offset="0.6965" style="stop-color:#FFFDD8"/>
			<stop  offset="0.8019" style="stop-color:#FFFEEE"/>
			<stop  offset="0.9043" style="stop-color:#FFFFFB"/>
			<stop  offset="1" style="stop-color:#FFFFFF"/>
		</linearGradient>
		<polygon fill="url(#SVGID_6_)" points="86.775,125.237 76.465,134.278 66.156,125.237 66.156,107.156 76.465,98.116 
			86.775,107.156 		"/>
		<linearGradient id="SVGID_7_" gradientUnits="userSpaceOnUse" x1="76.4653" y1="88.3242" x2="97.0845" y2="88.3242">
			<stop  offset="0" style="stop-color:#FFB973"/>
			<stop  offset="0.0973" style="stop-color:#FFC470"/>
			<stop  offset="0.2702" style="stop-color:#FFE369"/>
			<stop  offset="0.3673" style="stop-color:#FFF764"/>
			<stop  offset="0.3705" style="stop-color:#FFF765"/>
			<stop  offset="0.4797" style="stop-color:#FFF994"/>
			<stop  offset="0.5889" style="stop-color:#FFFBBA"/>
			<stop  offset="0.6965" style="stop-color:#FFFDD8"/>
			<stop  offset="0.8019" style="stop-color:#FFFEEE"/>
			<stop  offset="0.9043" style="stop-color:#FFFFFB"/>
			<stop  offset="1" style="stop-color:#FFFFFF"/>
		</linearGradient>
		<polygon fill="url(#SVGID_7_)" points="97.084,97.364 86.775,106.405 76.465,97.364 76.465,79.283 86.775,70.243 97.084,79.283 		
			"/>
		<linearGradient id="SVGID_8_" gradientUnits="userSpaceOnUse" x1="33.6953" y1="88.3242" x2="54.3145" y2="88.3242">
			<stop  offset="0" style="stop-color:#FFB973"/>
			<stop  offset="0.0973" style="stop-color:#FFC470"/>
			<stop  offset="0.2702" style="stop-color:#FFE369"/>
			<stop  offset="0.3673" style="stop-color:#FFF764"/>
			<stop  offset="0.3705" style="stop-color:#FFF765"/>
			<stop  offset="0.4797" style="stop-color:#FFF994"/>
			<stop  offset="0.5889" style="stop-color:#FFFBBA"/>
			<stop  offset="0.6965" style="stop-color:#FFFDD8"/>
			<stop  offset="0.8019" style="stop-color:#FFFEEE"/>
			<stop  offset="0.9043" style="stop-color:#FFFFFB"/>
			<stop  offset="1" style="stop-color:#FFFFFF"/>
		</linearGradient>
		<polygon fill="url(#SVGID_8_)" points="54.314,97.364 44.005,106.405 33.695,97.364 33.695,79.283 44.005,70.243 54.314,79.283 		
			"/>
		<linearGradient id="SVGID_9_" gradientUnits="userSpaceOnUse" x1="23.3862" y1="117.0957" x2="44.0049" y2="117.0957">
			<stop  offset="0" style="stop-color:#FFB973"/>
			<stop  offset="0.0973" style="stop-color:#FFC470"/>
			<stop  offset="0.2702" style="stop-color:#FFE369"/>
			<stop  offset="0.3673" style="stop-color:#FFF764"/>
			<stop  offset="0.3705" style="stop-color:#FFF765"/>
			<stop  offset="0.4797" style="stop-color:#FFF994"/>
			<stop  offset="0.5889" style="stop-color:#FFFBBA"/>
			<stop  offset="0.6965" style="stop-color:#FFFDD8"/>
			<stop  offset="0.8019" style="stop-color:#FFFEEE"/>
			<stop  offset="0.9043" style="stop-color:#FFFFFB"/>
			<stop  offset="1" style="stop-color:#FFFFFF"/>
		</linearGradient>
		<polygon fill="url(#SVGID_9_)" points="44.005,126.137 33.695,135.177 23.386,126.137 23.386,108.055 33.695,99.015 
			44.005,108.055 		"/>
		<linearGradient id="SVGID_10_" gradientUnits="userSpaceOnUse" x1="87.4668" y1="116.1973" x2="108.0859" y2="116.1973">
			<stop  offset="0" style="stop-color:#FFB973"/>
			<stop  offset="0.0973" style="stop-color:#FFC470"/>
			<stop  offset="0.2702" style="stop-color:#FFE369"/>
			<stop  offset="0.3673" style="stop-color:#FFF764"/>
			<stop  offset="0.3705" style="stop-color:#FFF765"/>
			<stop  offset="0.4797" style="stop-color:#FFF994"/>
			<stop  offset="0.5889" style="stop-color:#FFFBBA"/>
			<stop  offset="0.6965" style="stop-color:#FFFDD8"/>
			<stop  offset="0.8019" style="stop-color:#FFFEEE"/>
			<stop  offset="0.9043" style="stop-color:#FFFFFB"/>
			<stop  offset="1" style="stop-color:#FFFFFF"/>
		</linearGradient>
		<polygon fill="url(#SVGID_10_)" points="108.086,125.237 97.776,134.278 87.467,125.237 87.467,107.156 97.776,98.116 
			108.086,107.156 		"/>
		<linearGradient id="SVGID_11_" gradientUnits="userSpaceOnUse" x1="98.5659" y1="144.2949" x2="119.1846" y2="144.2949">
			<stop  offset="0" style="stop-color:#FFB973"/>
			<stop  offset="0.0973" style="stop-color:#FFC470"/>
			<stop  offset="0.2702" style="stop-color:#FFE369"/>
			<stop  offset="0.3673" style="stop-color:#FFF764"/>
			<stop  offset="0.3705" style="stop-color:#FFF765"/>
			<stop  offset="0.4797" style="stop-color:#FFF994"/>
			<stop  offset="0.5889" style="stop-color:#FFFBBA"/>
			<stop  offset="0.6965" style="stop-color:#FFFDD8"/>
			<stop  offset="0.8019" style="stop-color:#FFFEEE"/>
			<stop  offset="0.9043" style="stop-color:#FFFFFB"/>
			<stop  offset="1" style="stop-color:#FFFFFF"/>
		</linearGradient>
		<polygon fill="url(#SVGID_11_)" points="119.185,153.335 108.875,162.376 98.566,153.335 98.566,135.254 108.875,126.213 
			119.185,135.254 		"/>
		<linearGradient id="SVGID_12_" gradientUnits="userSpaceOnUse" x1="34.2632" y1="144.2949" x2="54.8818" y2="144.2949">
			<stop  offset="0" style="stop-color:#FFB973"/>
			<stop  offset="0.0973" style="stop-color:#FFC470"/>
			<stop  offset="0.2702" style="stop-color:#FFE369"/>
			<stop  offset="0.3673" style="stop-color:#FFF764"/>
			<stop  offset="0.3705" style="stop-color:#FFF765"/>
			<stop  offset="0.4797" style="stop-color:#FFF994"/>
			<stop  offset="0.5889" style="stop-color:#FFFBBA"/>
			<stop  offset="0.6965" style="stop-color:#FFFDD8"/>
			<stop  offset="0.8019" style="stop-color:#FFFEEE"/>
			<stop  offset="0.9043" style="stop-color:#FFFFFB"/>
			<stop  offset="1" style="stop-color:#FFFFFF"/>
		</linearGradient>
		<polygon fill="url(#SVGID_12_)" points="54.882,153.335 44.572,162.376 34.263,153.335 34.263,135.254 44.572,126.213 
			54.882,135.254 		"/>
		<linearGradient id="SVGID_13_" gradientUnits="userSpaceOnUse" x1="55.5737" y1="144.2949" x2="76.1929" y2="144.2949">
			<stop  offset="0" style="stop-color:#FFB973"/>
			<stop  offset="0.0973" style="stop-color:#FFC470"/>
			<stop  offset="0.2702" style="stop-color:#FFE369"/>
			<stop  offset="0.3673" style="stop-color:#FFF764"/>
			<stop  offset="0.3705" style="stop-color:#FFF765"/>
			<stop  offset="0.4797" style="stop-color:#FFF994"/>
			<stop  offset="0.5889" style="stop-color:#FFFBBA"/>
			<stop  offset="0.6965" style="stop-color:#FFFDD8"/>
			<stop  offset="0.8019" style="stop-color:#FFFEEE"/>
			<stop  offset="0.9043" style="stop-color:#FFFFFB"/>
			<stop  offset="1" style="stop-color:#FFFFFF"/>
		</linearGradient>
		<polygon fill="url(#SVGID_13_)" points="76.193,153.335 65.883,162.376 55.574,153.335 55.574,135.254 65.883,126.213 
			76.193,135.254 		"/>
		<linearGradient id="SVGID_14_" gradientUnits="userSpaceOnUse" x1="12.8047" y1="145.1943" x2="33.4233" y2="145.1943">
			<stop  offset="0" style="stop-color:#FFB973"/>
			<stop  offset="0.0973" style="stop-color:#FFC470"/>
			<stop  offset="0.2702" style="stop-color:#FFE369"/>
			<stop  offset="0.3673" style="stop-color:#FFF764"/>
			<stop  offset="0.3705" style="stop-color:#FFF765"/>
			<stop  offset="0.4797" style="stop-color:#FFF994"/>
			<stop  offset="0.5889" style="stop-color:#FFFBBA"/>
			<stop  offset="0.6965" style="stop-color:#FFFDD8"/>
			<stop  offset="0.8019" style="stop-color:#FFFEEE"/>
			<stop  offset="0.9043" style="stop-color:#FFFFFB"/>
			<stop  offset="1" style="stop-color:#FFFFFF"/>
		</linearGradient>
		<polygon fill="url(#SVGID_14_)" points="33.423,154.234 23.114,163.275 12.805,154.234 12.805,136.153 23.114,127.113 
			33.423,136.153 		"/>
		<linearGradient id="SVGID_15_" gradientUnits="userSpaceOnUse" x1="76.8853" y1="144.2949" x2="97.5039" y2="144.2949">
			<stop  offset="0" style="stop-color:#FFB973"/>
			<stop  offset="0.0973" style="stop-color:#FFC470"/>
			<stop  offset="0.2702" style="stop-color:#FFE369"/>
			<stop  offset="0.3673" style="stop-color:#FFF764"/>
			<stop  offset="0.3705" style="stop-color:#FFF765"/>
			<stop  offset="0.4797" style="stop-color:#FFF994"/>
			<stop  offset="0.5889" style="stop-color:#FFFBBA"/>
			<stop  offset="0.6965" style="stop-color:#FFFDD8"/>
			<stop  offset="0.8019" style="stop-color:#FFFEEE"/>
			<stop  offset="0.9043" style="stop-color:#FFFFFB"/>
			<stop  offset="1" style="stop-color:#FFFFFF"/>
		</linearGradient>
		<polygon fill="url(#SVGID_15_)" points="97.504,153.335 87.194,162.376 76.885,153.335 76.885,135.254 87.194,126.213 
			97.504,135.254 		"/>
	</g>
	<g>
		<g>
			<g>
				<g>
					<path fill="#292D73" d="M74.165,38.179c0.019-0.392,0.037-0.785,0.056-1.169c0.087-2.321,0.137-4.643,0.17-6.992
						c0.023-2.165,0.047-4.335,0.072-6.563c-1.804-1.632-3.652-3.304-5.61-5.075c-1.124-1.031-2.249-2.062-3.39-3.108
						c-1.278,1.118-2.571,2.25-3.85,3.369c-1.512,1.333-3.002,2.648-4.422,3.901c2.737-2.351,5.499-4.723,8.272-7.105
						c1.44,1.292,2.882,2.585,4.325,3.879l2.548,2.292l1.267,1.146l0.562,0.511l0.23,0.222c-0.058,2.165-0.116,4.332-0.174,6.519
						c-0.073,2.357-0.163,4.687-0.275,6.977c-0.212-1.283-0.382-2.817-0.382-4.603c0.05-2.908,0.099-5.763,0.148-8.583l-0.034-0.042
						l-0.017-0.018l-0.15-0.135l-0.301-0.269L72.01,22.26c0.06-0.068,0.177-0.202,0.236-0.269c-1.362-1.141-2.696-2.286-4.011-3.434
						c-0.655-0.577-1.307-1.151-1.959-1.725l-0.595-0.534l-0.217-0.208l-0.308,0.242l-1.179,1.001l-2.61,2.217
						c-1.567,1.338-3.129,2.672-4.688,4.003c-0.001,0.665-0.003,1.329-0.005,1.995c0.006,0.896,0.012,1.794,0.019,2.702
						c0.021,1.807,0.063,3.627,0.132,5.466c0.048-0.425,0.122-0.173,0.18-0.085l0,0.085l0-0.085c0.051,0.08,0.09,0.031,0.09-0.712
						c0,0.743-0.039,0.792-0.09,0.712c-0.012-3.378-0.023-6.678-0.034-9.946c1.521-1.323,3.034-2.639,4.55-3.958
						c0.862-0.746,1.725-1.491,2.59-2.239l1.159-0.996l0.194-0.148l0.127,0.129l0.059,0.061l0.407,0.366
						c0.615,0.553,1.233,1.108,1.853,1.666c1.236,1.114,2.482,2.238,3.742,3.374c-2.079-1.851-4.137-3.683-6.188-5.508
						c-2.793,2.447-5.569,4.879-8.353,7.317c0.018,5.394,0.035,10.804,0.053,16.284c2.715,2.372,5.457,4.767,8.237,7.195
						l0.063,0.055l0.286-0.25c2.574-1.898,5.03-3.932,7.424-6.032c-0.301,0.863,2.688-0.562-2.223,3.506
						c0.06,0.067,0.178,0.203,0.237,0.271c5.089-3.864,7.717-4.493,3.162-0.02c-1.088,1.055-2.278,2.157-3.539,3.294
						c-0.637,0.569-1.283,1.145-1.941,1.731c-1.118,0.981-2.254,1.977-3.406,2.988c-2.109-1.864-4.289-3.792-6.48-5.728
						c-1.971-1.72-3.945-3.442-5.911-5.156l-0.028-2.594c-0.032-2.747-0.063-5.491-0.095-8.216
						c-0.002-1.372-0.004-2.738-0.007-4.107c0.014-1.688,0.027-3.378,0.041-5.09c0.586-0.502,1.175-1.007,1.767-1.514
						c0.342-0.285,0.686-0.571,1.033-0.86c1.397-1.169,2.788-2.332,4.184-3.5c1.826-1.566,3.658-3.138,5.496-4.715
						c2.125,1.904,4.256,3.813,6.387,5.722c1.853,1.695,3.704,3.387,5.578,5.101l-0.041,1.928l-0.045,1.168
						c-0.09,3.188,0.18,8.764-0.09,10.358c-0.129,1.144-0.321,1.189-0.535,1.015c0.023-4.756,0.045-9.491,0.068-14.179
						c-0.598-0.53-1.183-1.048-1.767-1.566c-3.173-2.878-6.35-5.758-9.555-8.665c-1.188,1.005-2.379,2.013-3.575,3.025
						c-0.917,0.763-1.838,1.529-2.764,2.298c0.933-0.762,1.854-1.514,2.771-2.262l1.443-1.196l2.125-1.804
						c3.192,2.875,6.361,5.728,9.555,8.604l1.75,1.574c-0.074,4.662-0.148,9.32-0.223,14.006c-0.184-0.188-0.375-0.369-0.553-0.055
						c0,0,0,1.593,0,2.389c-0.45,3.188-1.08,2.389-1.53,0.798C74.372,39.131,74.269,38.66,74.165,38.179z"/>
				</g>
			</g>
			<g>
				<g>
					<path fill="#292D73" d="M63.583,66.952c0.019-0.392,0.037-0.785,0.056-1.169c0.087-2.322,0.137-4.643,0.17-6.992
						c0.023-2.165,0.047-4.336,0.072-6.563c-1.804-1.632-3.652-3.304-5.609-5.075c-1.125-1.031-2.249-2.062-3.391-3.108
						c-1.278,1.118-2.571,2.25-3.849,3.369c-1.512,1.333-3.002,2.648-4.422,3.901c2.736-2.351,5.498-4.723,8.271-7.105
						c1.44,1.292,2.882,2.585,4.325,3.879l2.548,2.292l1.267,1.146l0.562,0.511l0.23,0.222c-0.058,2.165-0.116,4.332-0.174,6.519
						c-0.073,2.357-0.163,4.686-0.275,6.977c-0.212-1.284-0.382-2.817-0.382-4.603c0.05-2.908,0.099-5.764,0.148-8.583l-0.034-0.042
						l-0.017-0.018l-0.15-0.135l-0.301-0.269l-1.198-1.073c0.06-0.068,0.177-0.202,0.235-0.269c-1.361-1.141-2.695-2.287-4.01-3.435
						c-0.655-0.577-1.308-1.151-1.959-1.725l-0.595-0.534l-0.217-0.208l-0.308,0.242l-1.179,1.001l-2.609,2.217
						c-1.568,1.338-3.129,2.672-4.688,4.003c-0.001,0.665-0.003,1.328-0.005,1.995c0.006,0.896,0.012,1.793,0.019,2.701
						c0.021,1.807,0.063,3.627,0.132,5.466c0.048-0.425,0.122-0.173,0.18-0.085l0,0.085l0-0.085c0.051,0.08,0.09,0.031,0.09-0.712
						c0,0.743-0.04,0.792-0.09,0.712c-0.012-3.378-0.023-6.678-0.034-9.946c1.521-1.323,3.034-2.639,4.55-3.958
						c0.862-0.745,1.725-1.491,2.59-2.239l1.159-0.996l0.194-0.148l0.127,0.129l0.059,0.061l0.407,0.367
						c0.615,0.553,1.233,1.108,1.853,1.665c1.236,1.114,2.482,2.238,3.742,3.374c-2.079-1.851-4.137-3.683-6.188-5.508
						c-2.793,2.446-5.569,4.878-8.353,7.317c0.018,5.394,0.035,10.804,0.053,16.285c2.715,2.372,5.457,4.767,8.237,7.195
						l0.063,0.055l0.286-0.25c2.574-1.898,5.03-3.932,7.424-6.031c-0.301,0.863,2.688-0.562-2.223,3.506
						c0.059,0.067,0.178,0.203,0.237,0.271c5.089-3.864,7.717-4.493,3.162-0.02c-1.088,1.055-2.278,2.157-3.539,3.294
						c-0.638,0.568-1.283,1.145-1.941,1.731c-1.118,0.98-2.254,1.977-3.406,2.987c-2.109-1.864-4.289-3.792-6.48-5.728
						c-1.971-1.72-3.945-3.442-5.911-5.156l-0.028-2.595c-0.032-2.747-0.063-5.491-0.095-8.216
						c-0.002-1.372-0.004-2.738-0.007-4.107c0.014-1.688,0.027-3.378,0.041-5.09c0.586-0.502,1.175-1.007,1.767-1.514
						c0.342-0.285,0.686-0.572,1.033-0.861c1.398-1.169,2.788-2.332,4.184-3.5c1.826-1.566,3.658-3.138,5.496-4.715
						c2.125,1.904,4.256,3.813,6.387,5.722c1.854,1.695,3.704,3.388,5.578,5.101l-0.041,1.928l-0.045,1.168
						c-0.09,3.188,0.18,8.765-0.09,10.358c-0.129,1.145-0.321,1.19-0.535,1.015c0.023-4.757,0.045-9.491,0.068-14.179
						c-0.598-0.53-1.183-1.048-1.767-1.566c-3.174-2.878-6.351-5.759-9.556-8.665c-1.188,1.005-2.379,2.013-3.575,3.025
						c-0.917,0.763-1.838,1.529-2.764,2.298c0.933-0.762,1.854-1.514,2.771-2.262l1.443-1.196l2.125-1.804
						c3.192,2.875,6.362,5.729,9.556,8.604l1.75,1.574c-0.074,4.662-0.148,9.321-0.223,14.007c-0.184-0.188-0.375-0.37-0.553-0.055
						c0,0,0,1.593,0,2.389c-0.45,3.188-1.08,2.389-1.53,0.798C63.79,67.904,63.688,67.432,63.583,66.952z"/>
				</g>
			</g>
			<g>
				<g>
					<path fill="#292D73" d="M85.167,66.952c0.019-0.392,0.037-0.785,0.056-1.169c0.087-2.322,0.137-4.643,0.17-6.992
						c0.023-2.165,0.047-4.336,0.072-6.563c-1.804-1.632-3.652-3.304-5.61-5.075c-1.124-1.031-2.249-2.062-3.39-3.108
						c-1.278,1.118-2.571,2.25-3.85,3.369c-1.512,1.333-3.002,2.648-4.422,3.901c2.737-2.351,5.499-4.723,8.272-7.105
						c1.44,1.292,2.882,2.585,4.325,3.879l2.548,2.292l1.267,1.146l0.562,0.511l0.23,0.222c-0.058,2.165-0.116,4.332-0.174,6.519
						c-0.073,2.357-0.163,4.686-0.275,6.977c-0.212-1.284-0.382-2.817-0.382-4.603c0.05-2.908,0.099-5.764,0.148-8.583l-0.034-0.042
						l-0.017-0.018l-0.15-0.135l-0.301-0.269l-1.199-1.073c0.06-0.068,0.177-0.202,0.236-0.269
						c-1.362-1.141-2.696-2.286-4.011-3.435c-0.655-0.577-1.307-1.151-1.959-1.725l-0.595-0.534l-0.217-0.208l-0.308,0.242
						l-1.179,1.001l-2.609,2.217c-1.567,1.338-3.129,2.672-4.688,4.003c-0.001,0.665-0.003,1.328-0.005,1.995
						c0.006,0.896,0.012,1.793,0.019,2.702c0.021,1.807,0.063,3.627,0.132,5.466c0.048-0.425,0.122-0.173,0.18-0.085l0,0.085
						l0-0.085c0.051,0.08,0.09,0.031,0.09-0.712c0,0.743-0.04,0.792-0.09,0.712c-0.012-3.378-0.023-6.678-0.034-9.946
						c1.521-1.323,3.034-2.639,4.55-3.958c0.862-0.745,1.725-1.491,2.59-2.239l1.159-0.996l0.194-0.148l0.127,0.129l0.059,0.061
						l0.407,0.367c0.615,0.553,1.233,1.108,1.853,1.665c1.236,1.114,2.482,2.238,3.742,3.374c-2.079-1.851-4.137-3.683-6.188-5.508
						c-2.793,2.447-5.569,4.879-8.353,7.318c0.018,5.394,0.035,10.804,0.053,16.285c2.716,2.372,5.458,4.767,8.237,7.195
						l0.063,0.055l0.286-0.25c2.574-1.898,5.03-3.932,7.424-6.031c-0.301,0.863,2.688-0.562-2.223,3.506
						c0.059,0.067,0.178,0.203,0.237,0.271c5.089-3.864,7.717-4.493,3.162-0.02c-1.088,1.055-2.278,2.157-3.539,3.294
						c-0.638,0.568-1.283,1.145-1.941,1.731c-1.118,0.98-2.254,1.977-3.406,2.987c-2.109-1.864-4.29-3.791-6.48-5.728
						c-1.972-1.72-3.945-3.442-5.911-5.156l-0.028-2.595c-0.032-2.747-0.063-5.491-0.095-8.216
						c-0.002-1.372-0.004-2.738-0.007-4.107c0.014-1.688,0.027-3.378,0.041-5.09c0.586-0.502,1.175-1.007,1.767-1.514
						c0.342-0.285,0.686-0.572,1.033-0.861c1.397-1.169,2.788-2.332,4.184-3.5c1.826-1.566,3.658-3.138,5.496-4.715
						c2.125,1.904,4.256,3.813,6.387,5.722c1.854,1.695,3.704,3.388,5.578,5.101l-0.041,1.928l-0.045,1.168
						c-0.09,3.188,0.18,8.765-0.09,10.358c-0.129,1.145-0.321,1.19-0.535,1.015c0.023-4.757,0.045-9.491,0.068-14.179
						c-0.598-0.53-1.183-1.048-1.767-1.566c-3.174-2.878-6.351-5.759-9.556-8.665c-1.188,1.005-2.379,2.013-3.575,3.025
						c-0.918,0.763-1.839,1.529-2.765,2.298c0.933-0.762,1.854-1.514,2.771-2.262l1.443-1.196l2.125-1.804
						c3.192,2.875,6.362,5.729,9.556,8.604l1.75,1.574c-0.074,4.662-0.148,9.321-0.223,14.007c-0.184-0.188-0.375-0.37-0.553-0.055
						c0,0,0,1.593,0,2.389c-0.45,3.188-1.08,2.389-1.53,0.798C85.374,67.904,85.271,67.432,85.167,66.952z"/>
				</g>
			</g>
			<g>
				<g>
					<path fill="#292D73" d="M74.165,94.6c0.019-0.392,0.037-0.785,0.056-1.169c0.087-2.321,0.137-4.643,0.17-6.992
						c0.023-2.165,0.047-4.335,0.072-6.563c-1.804-1.632-3.652-3.304-5.61-5.075c-1.125-1.03-2.249-2.062-3.39-3.108
						c-1.278,1.118-2.572,2.25-3.85,3.369c-1.512,1.333-3.002,2.648-4.423,3.901c2.737-2.351,5.499-4.723,8.272-7.105
						c1.44,1.292,2.882,2.585,4.325,3.879l2.548,2.292l1.267,1.146l0.562,0.511l0.23,0.222c-0.058,2.165-0.116,4.332-0.174,6.519
						c-0.073,2.357-0.163,4.687-0.275,6.977c-0.212-1.284-0.382-2.817-0.382-4.603c0.05-2.908,0.099-5.763,0.148-8.583l-0.034-0.042
						l-0.017-0.018l-0.15-0.135l-0.3-0.269l-1.199-1.073c0.06-0.068,0.177-0.202,0.235-0.269c-1.361-1.141-2.695-2.286-4.01-3.434
						c-0.655-0.577-1.307-1.151-1.959-1.725l-0.595-0.534l-0.217-0.208l-0.308,0.242l-1.179,1.001l-2.609,2.217
						c-1.567,1.338-3.129,2.672-4.688,4.003c-0.001,0.665-0.003,1.329-0.005,1.995c0.006,0.896,0.012,1.794,0.019,2.702
						c0.021,1.807,0.063,3.627,0.132,5.466c0.048-0.425,0.122-0.173,0.18-0.085l0,0.085l0-0.085c0.051,0.08,0.09,0.031,0.09-0.712
						c0,0.743-0.04,0.792-0.09,0.712c-0.012-3.378-0.023-6.678-0.034-9.946c1.521-1.323,3.034-2.64,4.55-3.958
						c0.862-0.746,1.725-1.491,2.59-2.239l1.159-0.996l0.194-0.148l0.127,0.128l0.059,0.062l0.407,0.366
						c0.615,0.553,1.233,1.108,1.853,1.665c1.236,1.114,2.482,2.238,3.742,3.374c-2.079-1.851-4.138-3.683-6.188-5.508
						c-2.793,2.447-5.569,4.879-8.353,7.317c0.018,5.394,0.035,10.804,0.053,16.284c2.716,2.372,5.458,4.767,8.237,7.195
						l0.063,0.055l0.286-0.25c2.574-1.898,5.03-3.932,7.424-6.032c-0.301,0.863,2.688-0.562-2.223,3.506
						c0.06,0.067,0.178,0.203,0.237,0.271c5.089-3.864,7.717-4.493,3.162-0.02c-1.088,1.055-2.278,2.157-3.539,3.294
						c-0.638,0.569-1.283,1.145-1.941,1.731c-1.118,0.981-2.254,1.977-3.406,2.988c-2.109-1.864-4.29-3.792-6.48-5.728
						c-1.972-1.72-3.946-3.441-5.911-5.156l-0.028-2.594c-0.032-2.747-0.063-5.491-0.095-8.216
						c-0.002-1.372-0.004-2.738-0.007-4.107c0.014-1.688,0.027-3.378,0.041-5.09c0.586-0.502,1.175-1.007,1.767-1.514
						c0.342-0.285,0.686-0.571,1.033-0.86c1.397-1.169,2.788-2.332,4.184-3.5c1.826-1.566,3.658-3.138,5.496-4.715
						c2.125,1.904,4.256,3.813,6.387,5.722c1.853,1.695,3.704,3.387,5.578,5.101l-0.041,1.928l-0.045,1.168
						c-0.09,3.188,0.18,8.764-0.09,10.358c-0.129,1.145-0.321,1.19-0.535,1.015c0.023-4.756,0.045-9.491,0.068-14.179
						c-0.598-0.53-1.183-1.048-1.767-1.566c-3.173-2.878-6.35-5.758-9.555-8.665c-1.188,1.005-2.379,2.013-3.575,3.025
						c-0.917,0.763-1.839,1.529-2.765,2.299c0.933-0.762,1.854-1.515,2.771-2.263l1.442-1.196l2.126-1.804
						c3.192,2.875,6.361,5.728,9.555,8.604l1.75,1.574c-0.074,4.662-0.148,9.32-0.223,14.006c-0.184-0.188-0.375-0.369-0.553-0.055
						c0,0,0,1.593,0,2.389c-0.45,3.188-1.08,2.389-1.53,0.798C74.372,95.552,74.269,95.081,74.165,94.6z"/>
				</g>
			</g>
			<g>
				<g>
					<path fill="#292D73" d="M63.855,122.473c0.019-0.392,0.037-0.785,0.056-1.169c0.087-2.321,0.137-4.643,0.17-6.992
						c0.023-2.165,0.047-4.335,0.072-6.563c-1.804-1.632-3.652-3.304-5.61-5.075c-1.124-1.031-2.249-2.062-3.39-3.108
						c-1.278,1.118-2.571,2.25-3.85,3.369c-1.512,1.333-3.002,2.648-4.422,3.901c2.737-2.351,5.499-4.723,8.272-7.105
						c1.44,1.292,2.882,2.585,4.325,3.879l2.548,2.292l1.267,1.146l0.562,0.511l0.23,0.222c-0.058,2.165-0.116,4.332-0.174,6.519
						c-0.073,2.357-0.163,4.687-0.275,6.977c-0.212-1.283-0.382-2.817-0.382-4.603c0.05-2.908,0.099-5.763,0.148-8.583l-0.034-0.042
						l-0.017-0.018l-0.15-0.135l-0.301-0.269l-1.199-1.073c0.06-0.068,0.177-0.202,0.236-0.269c-1.362-1.14-2.696-2.286-4.011-3.434
						c-0.655-0.577-1.307-1.151-1.959-1.725l-0.595-0.534l-0.217-0.208l-0.308,0.242l-1.179,1.001l-2.61,2.217
						c-1.567,1.338-3.129,2.672-4.688,4.003c-0.001,0.665-0.003,1.329-0.005,1.995c0.006,0.896,0.012,1.794,0.019,2.702
						c0.021,1.807,0.063,3.627,0.132,5.466c0.048-0.425,0.122-0.173,0.18-0.085l0,0.085l0-0.085c0.051,0.08,0.09,0.031,0.09-0.712
						c0,0.743-0.039,0.792-0.09,0.712c-0.012-3.378-0.023-6.678-0.034-9.946c1.521-1.323,3.034-2.639,4.55-3.958
						c0.862-0.746,1.725-1.491,2.59-2.239l1.159-0.996l0.194-0.148l0.127,0.129l0.059,0.061l0.407,0.366
						c0.615,0.553,1.233,1.108,1.853,1.665c1.236,1.115,2.482,2.238,3.742,3.374c-2.079-1.851-4.137-3.683-6.188-5.508
						c-2.793,2.447-5.569,4.879-8.353,7.317c0.018,5.394,0.035,10.804,0.053,16.284c2.715,2.372,5.457,4.767,8.237,7.195
						l0.063,0.055l0.286-0.25c2.574-1.898,5.03-3.932,7.424-6.032c-0.301,0.863,2.688-0.562-2.223,3.506
						c0.06,0.067,0.178,0.203,0.237,0.271c5.089-3.864,7.717-4.493,3.162-0.02c-1.088,1.055-2.278,2.157-3.539,3.294
						c-0.637,0.569-1.283,1.145-1.941,1.731c-1.118,0.981-2.254,1.977-3.406,2.988c-2.109-1.864-4.289-3.792-6.48-5.728
						c-1.971-1.72-3.945-3.442-5.911-5.156l-0.028-2.594c-0.032-2.747-0.063-5.491-0.095-8.216
						c-0.002-1.372-0.004-2.738-0.007-4.107c0.014-1.688,0.027-3.378,0.041-5.09c0.586-0.502,1.175-1.007,1.767-1.514
						c0.342-0.285,0.686-0.571,1.033-0.86c1.397-1.169,2.788-2.332,4.184-3.5c1.826-1.566,3.658-3.138,5.496-4.715
						c2.125,1.904,4.256,3.813,6.387,5.722c1.853,1.695,3.704,3.387,5.578,5.101l-0.041,1.928l-0.045,1.168
						c-0.09,3.188,0.18,8.764-0.09,10.358c-0.129,1.144-0.321,1.189-0.535,1.015c0.023-4.756,0.045-9.491,0.068-14.179
						c-0.598-0.53-1.183-1.048-1.767-1.566c-3.173-2.878-6.35-5.758-9.555-8.665c-1.188,1.005-2.379,2.013-3.575,3.025
						c-0.917,0.763-1.838,1.529-2.764,2.298c0.933-0.762,1.854-1.514,2.771-2.262l1.443-1.196l2.125-1.804
						c3.192,2.875,6.361,5.728,9.555,8.604l1.75,1.574c-0.074,4.662-0.148,9.32-0.223,14.006c-0.184-0.188-0.375-0.369-0.553-0.055
						c0,0,0,1.593,0,2.389c-0.45,3.188-1.08,2.389-1.53,0.798C64.062,123.425,63.959,122.954,63.855,122.473z"/>
				</g>
			</g>
			<g>
				<g>
					<path fill="#292D73" d="M85.167,122.473c0.019-0.392,0.037-0.785,0.056-1.169c0.087-2.321,0.137-4.643,0.17-6.992
						c0.023-2.165,0.047-4.335,0.072-6.563c-1.804-1.632-3.652-3.304-5.61-5.075c-1.125-1.03-2.249-2.062-3.39-3.108
						c-1.278,1.118-2.572,2.25-3.85,3.369c-1.512,1.333-3.002,2.648-4.423,3.901c2.737-2.351,5.499-4.723,8.272-7.105
						c1.44,1.292,2.882,2.585,4.325,3.879l2.548,2.292l1.267,1.146l0.562,0.511l0.23,0.222c-0.058,2.165-0.116,4.332-0.174,6.519
						c-0.073,2.357-0.163,4.687-0.275,6.977c-0.212-1.284-0.382-2.817-0.382-4.603c0.05-2.908,0.099-5.763,0.148-8.583l-0.034-0.042
						l-0.017-0.018l-0.15-0.135l-0.3-0.269l-1.199-1.073c0.06-0.068,0.177-0.202,0.235-0.269c-1.361-1.141-2.695-2.286-4.01-3.434
						c-0.655-0.577-1.307-1.151-1.959-1.725l-0.595-0.534l-0.217-0.208l-0.308,0.242l-1.179,1.001l-2.609,2.217
						c-1.567,1.338-3.129,2.672-4.688,4.003c-0.001,0.665-0.003,1.329-0.005,1.995c0.006,0.896,0.012,1.794,0.019,2.702
						c0.021,1.807,0.063,3.627,0.132,5.466c0.048-0.425,0.122-0.173,0.18-0.085l0,0.085l0-0.085c0.051,0.08,0.09,0.031,0.09-0.712
						c0,0.743-0.04,0.792-0.09,0.712c-0.012-3.378-0.023-6.678-0.034-9.946c1.521-1.323,3.034-2.64,4.55-3.958
						c0.862-0.746,1.725-1.491,2.59-2.239l1.159-0.996l0.194-0.148l0.127,0.128l0.059,0.062l0.407,0.366
						c0.615,0.553,1.233,1.108,1.853,1.665c1.236,1.114,2.482,2.238,3.742,3.374c-2.079-1.851-4.138-3.683-6.188-5.508
						c-2.793,2.447-5.569,4.879-8.353,7.317c0.018,5.394,0.035,10.804,0.053,16.284c2.716,2.372,5.458,4.767,8.237,7.195
						l0.063,0.055l0.286-0.25c2.574-1.898,5.03-3.932,7.424-6.032c-0.301,0.863,2.688-0.562-2.223,3.506
						c0.06,0.067,0.178,0.203,0.237,0.271c5.089-3.864,7.717-4.493,3.162-0.02c-1.088,1.055-2.278,2.157-3.539,3.294
						c-0.638,0.569-1.283,1.145-1.941,1.731c-1.118,0.981-2.254,1.977-3.406,2.988c-2.109-1.864-4.29-3.792-6.48-5.728
						c-1.972-1.72-3.946-3.441-5.911-5.156l-0.028-2.594c-0.032-2.747-0.063-5.491-0.095-8.216
						c-0.002-1.372-0.004-2.738-0.007-4.107c0.014-1.688,0.027-3.378,0.041-5.09c0.586-0.502,1.175-1.007,1.767-1.514
						c0.342-0.285,0.686-0.571,1.033-0.86c1.397-1.169,2.788-2.332,4.184-3.5c1.826-1.566,3.658-3.138,5.496-4.715
						c2.125,1.904,4.256,3.813,6.387,5.722c1.853,1.695,3.704,3.387,5.578,5.101l-0.041,1.928l-0.045,1.168
						c-0.09,3.188,0.18,8.764-0.09,10.358c-0.129,1.145-0.321,1.19-0.535,1.015c0.023-4.756,0.045-9.491,0.068-14.179
						c-0.598-0.53-1.183-1.048-1.767-1.566c-3.173-2.878-6.35-5.758-9.555-8.665c-1.188,1.005-2.379,2.013-3.575,3.025
						c-0.917,0.763-1.839,1.529-2.765,2.299c0.933-0.762,1.854-1.515,2.771-2.263l1.442-1.196l2.126-1.804
						c3.192,2.875,6.361,5.728,9.555,8.604l1.75,1.574c-0.074,4.662-0.148,9.32-0.223,14.006c-0.184-0.188-0.375-0.369-0.553-0.055
						c0,0,0,1.593,0,2.389c-0.45,3.188-1.08,2.389-1.53,0.798C85.374,123.425,85.271,122.954,85.167,122.473z"/>
				</g>
			</g>
			<g>
				<g>
					<path fill="#292D73" d="M95.477,94.6c0.019-0.392,0.037-0.785,0.056-1.169c0.087-2.321,0.137-4.643,0.17-6.992
						c0.023-2.165,0.047-4.335,0.072-6.563c-1.804-1.632-3.652-3.304-5.61-5.075c-1.125-1.03-2.249-2.062-3.39-3.108
						c-1.278,1.118-2.572,2.25-3.85,3.369c-1.512,1.333-3.002,2.648-4.423,3.901c2.737-2.351,5.499-4.723,8.272-7.105
						c1.44,1.292,2.882,2.585,4.325,3.879l2.548,2.292l1.267,1.146l0.562,0.511l0.23,0.222c-0.058,2.165-0.116,4.332-0.174,6.519
						c-0.073,2.357-0.163,4.687-0.275,6.977c-0.212-1.284-0.382-2.817-0.382-4.603c0.05-2.908,0.099-5.763,0.148-8.583l-0.034-0.042
						l-0.017-0.018l-0.15-0.135l-0.3-0.269l-1.199-1.073c0.06-0.068,0.177-0.202,0.235-0.269c-1.361-1.141-2.695-2.286-4.01-3.434
						c-0.655-0.577-1.307-1.151-1.959-1.725l-0.595-0.534l-0.217-0.208l-0.308,0.242l-1.179,1.001l-2.609,2.217
						c-1.567,1.338-3.129,2.672-4.688,4.003c-0.001,0.665-0.003,1.329-0.005,1.995c0.006,0.896,0.012,1.794,0.019,2.702
						c0.021,1.807,0.063,3.627,0.132,5.466c0.048-0.425,0.122-0.173,0.18-0.085l0,0.085l0-0.085c0.051,0.08,0.09,0.031,0.09-0.712
						c0,0.743-0.04,0.792-0.09,0.712c-0.012-3.378-0.023-6.678-0.034-9.946c1.521-1.323,3.034-2.64,4.55-3.958
						c0.862-0.746,1.725-1.491,2.59-2.239l1.159-0.996l0.194-0.148l0.127,0.128l0.059,0.062l0.407,0.366
						c0.615,0.553,1.233,1.108,1.853,1.665c1.236,1.114,2.482,2.238,3.742,3.374c-2.079-1.851-4.138-3.683-6.188-5.508
						c-2.793,2.447-5.569,4.879-8.353,7.317c0.018,5.394,0.035,10.804,0.053,16.284c2.716,2.372,5.458,4.767,8.237,7.195
						l0.063,0.055l0.286-0.25c2.574-1.898,5.03-3.932,7.424-6.032c-0.301,0.863,2.688-0.562-2.223,3.506
						c0.06,0.067,0.178,0.203,0.237,0.271c5.089-3.864,7.717-4.493,3.162-0.02c-1.088,1.055-2.278,2.157-3.539,3.294
						c-0.638,0.569-1.283,1.145-1.941,1.731c-1.118,0.981-2.254,1.977-3.406,2.988c-2.109-1.864-4.29-3.792-6.48-5.728
						c-1.972-1.72-3.946-3.441-5.911-5.156l-0.028-2.594c-0.032-2.747-0.063-5.491-0.095-8.216
						c-0.002-1.372-0.004-2.738-0.007-4.107c0.014-1.688,0.027-3.378,0.041-5.09c0.586-0.502,1.175-1.007,1.767-1.514
						c0.342-0.285,0.686-0.571,1.033-0.86c1.397-1.169,2.788-2.332,4.184-3.5c1.826-1.566,3.658-3.138,5.496-4.715
						c2.125,1.904,4.256,3.813,6.387,5.722c1.853,1.695,3.704,3.387,5.578,5.101l-0.041,1.928l-0.045,1.168
						c-0.09,3.188,0.18,8.764-0.09,10.358c-0.129,1.145-0.321,1.19-0.535,1.015c0.023-4.756,0.045-9.491,0.068-14.179
						c-0.598-0.53-1.183-1.048-1.767-1.566c-3.173-2.878-6.35-5.758-9.555-8.665c-1.188,1.005-2.379,2.013-3.575,3.025
						c-0.917,0.763-1.839,1.529-2.765,2.299c0.933-0.762,1.854-1.515,2.771-2.263l1.442-1.196l2.126-1.804
						c3.192,2.875,6.361,5.728,9.555,8.604l1.75,1.574c-0.074,4.662-0.148,9.32-0.223,14.006c-0.184-0.188-0.375-0.369-0.553-0.055
						c0,0,0,1.593,0,2.389c-0.45,3.188-1.08,2.389-1.53,0.798C95.683,95.552,95.581,95.081,95.477,94.6z"/>
				</g>
			</g>
			<g>
				<g>
					<path fill="#292D73" d="M52.707,94.6c0.019-0.392,0.037-0.785,0.056-1.169c0.087-2.321,0.137-4.643,0.17-6.992
						c0.023-2.165,0.047-4.335,0.072-6.563c-1.804-1.632-3.652-3.304-5.61-5.075c-1.125-1.03-2.249-2.062-3.39-3.108
						c-1.278,1.118-2.572,2.25-3.85,3.369c-1.512,1.333-3.002,2.648-4.423,3.901c2.737-2.351,5.499-4.723,8.272-7.105
						c1.44,1.292,2.882,2.585,4.325,3.879l2.548,2.292l1.267,1.146l0.562,0.511l0.23,0.222c-0.058,2.165-0.116,4.332-0.174,6.519
						c-0.073,2.357-0.163,4.687-0.275,6.977c-0.212-1.284-0.382-2.817-0.382-4.603c0.05-2.908,0.099-5.763,0.148-8.583l-0.034-0.042
						l-0.017-0.018l-0.15-0.135l-0.3-0.269l-1.199-1.073c0.06-0.068,0.177-0.202,0.236-0.269c-1.362-1.141-2.696-2.286-4.011-3.434
						c-0.655-0.577-1.307-1.151-1.959-1.725l-0.595-0.534l-0.217-0.208l-0.308,0.242l-1.179,1.001l-2.609,2.217
						c-1.567,1.338-3.129,2.672-4.688,4.003c-0.001,0.665-0.003,1.329-0.005,1.995c0.006,0.896,0.012,1.794,0.019,2.702
						c0.021,1.807,0.063,3.627,0.132,5.466c0.048-0.425,0.122-0.173,0.18-0.085l0,0.085l0-0.085c0.051,0.08,0.09,0.031,0.09-0.712
						c0,0.743-0.039,0.792-0.09,0.712c-0.012-3.378-0.023-6.678-0.034-9.946c1.521-1.323,3.034-2.64,4.55-3.958
						c0.862-0.746,1.725-1.491,2.59-2.239l1.159-0.996l0.194-0.148l0.127,0.128l0.059,0.062l0.407,0.366
						c0.615,0.553,1.233,1.108,1.853,1.665c1.236,1.114,2.482,2.238,3.742,3.374c-2.079-1.851-4.138-3.683-6.188-5.508
						c-2.793,2.447-5.569,4.879-8.353,7.317c0.018,5.394,0.035,10.804,0.053,16.284c2.716,2.372,5.458,4.767,8.237,7.195
						l0.063,0.055l0.286-0.25c2.574-1.898,5.03-3.932,7.424-6.032c-0.301,0.863,2.688-0.562-2.223,3.506
						c0.06,0.067,0.178,0.203,0.237,0.271c5.089-3.864,7.717-4.493,3.162-0.02c-1.088,1.055-2.278,2.157-3.539,3.294
						c-0.638,0.569-1.283,1.145-1.941,1.731c-1.118,0.981-2.254,1.977-3.406,2.988c-2.109-1.864-4.29-3.792-6.48-5.728
						c-1.972-1.72-3.946-3.441-5.911-5.156l-0.028-2.594c-0.032-2.747-0.063-5.491-0.095-8.216
						c-0.002-1.372-0.004-2.738-0.007-4.107c0.014-1.688,0.027-3.378,0.041-5.09c0.586-0.502,1.175-1.007,1.767-1.514
						c0.342-0.285,0.686-0.571,1.033-0.86c1.397-1.169,2.788-2.332,4.184-3.5c1.826-1.566,3.658-3.138,5.496-4.715
						c2.125,1.904,4.256,3.813,6.387,5.722c1.853,1.695,3.704,3.387,5.578,5.101l-0.041,1.928l-0.045,1.168
						c-0.09,3.188,0.18,8.764-0.09,10.358c-0.129,1.145-0.321,1.19-0.535,1.015c0.023-4.756,0.045-9.491,0.068-14.179
						c-0.598-0.53-1.183-1.048-1.767-1.566c-3.173-2.878-6.35-5.758-9.555-8.665c-1.188,1.005-2.379,2.013-3.575,3.025
						c-0.917,0.763-1.839,1.529-2.765,2.299c0.933-0.762,1.854-1.515,2.771-2.263l1.442-1.196l2.126-1.804
						c3.192,2.875,6.361,5.728,9.555,8.604l1.75,1.574c-0.074,4.662-0.148,9.32-0.223,14.006c-0.184-0.188-0.375-0.369-0.553-0.055
						c0,0,0,1.593,0,2.389c-0.45,3.188-1.08,2.389-1.53,0.798C52.913,95.552,52.811,95.081,52.707,94.6z"/>
				</g>
			</g>
			<g>
				<g>
					<path fill="#292D73" d="M42.397,123.373c0.019-0.392,0.037-0.785,0.056-1.169c0.087-2.321,0.137-4.643,0.17-6.992
						c0.023-2.165,0.047-4.336,0.072-6.563c-1.804-1.631-3.652-3.304-5.609-5.075c-1.125-1.031-2.249-2.062-3.391-3.108
						c-1.278,1.118-2.571,2.25-3.85,3.369c-1.512,1.333-3.002,2.648-4.422,3.901c2.737-2.351,5.499-4.723,8.272-7.105
						c1.44,1.292,2.882,2.585,4.325,3.879l2.548,2.292l1.267,1.146l0.562,0.511l0.23,0.222c-0.058,2.165-0.116,4.332-0.174,6.519
						c-0.073,2.357-0.163,4.686-0.275,6.977c-0.212-1.284-0.382-2.817-0.382-4.603c0.05-2.908,0.099-5.764,0.148-8.583l-0.034-0.042
						l-0.017-0.018l-0.15-0.135l-0.3-0.27l-1.199-1.073c0.06-0.068,0.177-0.202,0.235-0.269c-1.361-1.141-2.695-2.286-4.01-3.435
						c-0.655-0.577-1.308-1.151-1.959-1.725l-0.595-0.534l-0.217-0.208l-0.308,0.242l-1.179,1.001l-2.61,2.217
						c-1.567,1.338-3.129,2.672-4.688,4.003c-0.001,0.665-0.003,1.328-0.005,1.995c0.006,0.896,0.012,1.794,0.019,2.702
						c0.021,1.807,0.063,3.627,0.132,5.466c0.048-0.425,0.122-0.173,0.18-0.084l0,0.084l0-0.084c0.051,0.079,0.09,0.03,0.09-0.713
						c0,0.743-0.04,0.792-0.09,0.713c-0.012-3.379-0.023-6.678-0.034-9.946c1.521-1.323,3.034-2.639,4.55-3.958
						c0.862-0.746,1.725-1.491,2.59-2.239l1.159-0.996l0.194-0.148l0.127,0.129l0.059,0.061l0.408,0.367
						c0.615,0.553,1.232,1.107,1.853,1.665c1.236,1.114,2.482,2.238,3.742,3.374c-2.08-1.851-4.138-3.683-6.188-5.508
						c-2.793,2.447-5.569,4.879-8.353,7.317c0.018,5.394,0.035,10.804,0.053,16.285c2.715,2.372,5.457,4.767,8.237,7.195
						l0.063,0.055l0.286-0.25c2.574-1.898,5.03-3.932,7.424-6.031c-0.301,0.863,2.688-0.562-2.223,3.506
						c0.059,0.067,0.178,0.203,0.237,0.271c5.089-3.864,7.717-4.493,3.162-0.02c-1.088,1.055-2.278,2.157-3.539,3.294
						c-0.638,0.568-1.283,1.145-1.941,1.731c-1.118,0.98-2.254,1.977-3.406,2.987c-2.109-1.864-4.289-3.792-6.48-5.728
						c-1.971-1.72-3.945-3.442-5.911-5.156l-0.028-2.595c-0.032-2.747-0.063-5.491-0.095-8.216
						c-0.002-1.372-0.004-2.738-0.007-4.107c0.014-1.688,0.027-3.378,0.041-5.09c0.586-0.502,1.175-1.007,1.767-1.514
						c0.342-0.285,0.686-0.572,1.033-0.86c1.397-1.169,2.788-2.332,4.184-3.5c1.826-1.566,3.658-3.138,5.496-4.715
						c2.125,1.904,4.256,3.813,6.387,5.722c1.853,1.695,3.704,3.387,5.578,5.101l-0.041,1.928l-0.045,1.169
						c-0.09,3.188,0.18,8.764-0.09,10.358c-0.129,1.144-0.321,1.189-0.535,1.015c0.023-4.757,0.045-9.491,0.068-14.179
						c-0.598-0.53-1.183-1.048-1.767-1.566c-3.174-2.877-6.351-5.758-9.556-8.665c-1.188,1.005-2.379,2.013-3.575,3.025
						c-0.918,0.763-1.839,1.529-2.765,2.298c0.933-0.762,1.854-1.514,2.771-2.263l1.443-1.196l2.125-1.804
						c3.192,2.875,6.362,5.729,9.556,8.604l1.75,1.574c-0.074,4.662-0.148,9.321-0.223,14.007c-0.184-0.188-0.375-0.369-0.553-0.055
						c0,0,0,1.593,0,2.389c-0.45,3.188-1.08,2.389-1.53,0.798C42.604,124.325,42.501,123.853,42.397,123.373z"/>
				</g>
			</g>
			<g>
				<g>
					<path fill="#292D73" d="M106.478,122.473c0.019-0.392,0.037-0.785,0.056-1.169c0.087-2.321,0.137-4.643,0.17-6.992
						c0.023-2.165,0.047-4.335,0.072-6.563c-1.804-1.632-3.652-3.304-5.61-5.075c-1.125-1.03-2.249-2.062-3.39-3.108
						c-1.278,1.118-2.572,2.25-3.85,3.369c-1.512,1.333-3.002,2.648-4.423,3.901c2.737-2.351,5.499-4.723,8.272-7.105
						c1.44,1.292,2.882,2.585,4.325,3.879l2.548,2.292l1.267,1.146l0.562,0.511l0.23,0.222c-0.058,2.165-0.116,4.332-0.174,6.519
						c-0.073,2.357-0.163,4.687-0.275,6.977c-0.212-1.284-0.382-2.817-0.382-4.603c0.05-2.908,0.099-5.763,0.148-8.583l-0.034-0.042
						l-0.017-0.018l-0.15-0.135l-0.3-0.269l-1.199-1.073c0.06-0.068,0.177-0.202,0.236-0.269c-1.362-1.141-2.696-2.286-4.011-3.434
						c-0.655-0.577-1.307-1.151-1.959-1.725l-0.595-0.534l-0.217-0.208l-0.308,0.242l-1.179,1.001l-2.609,2.217
						c-1.567,1.338-3.129,2.672-4.688,4.003c-0.001,0.665-0.003,1.329-0.005,1.995c0.006,0.896,0.012,1.794,0.019,2.702
						c0.021,1.807,0.063,3.627,0.132,5.466c0.048-0.425,0.122-0.173,0.18-0.085l0,0.085l0-0.085c0.051,0.08,0.09,0.031,0.09-0.712
						c0,0.743-0.039,0.792-0.09,0.712c-0.012-3.378-0.023-6.678-0.034-9.946c1.521-1.323,3.034-2.64,4.55-3.958
						c0.862-0.746,1.725-1.491,2.59-2.239l1.159-0.996l0.194-0.148l0.127,0.128l0.059,0.062l0.407,0.366
						c0.615,0.553,1.233,1.108,1.853,1.665c1.236,1.114,2.482,2.238,3.742,3.374c-2.079-1.851-4.138-3.683-6.188-5.508
						c-2.793,2.447-5.569,4.879-8.353,7.317c0.018,5.394,0.035,10.804,0.053,16.284c2.716,2.372,5.458,4.767,8.237,7.195
						l0.063,0.055l0.286-0.25c2.574-1.898,5.03-3.932,7.424-6.032c-0.301,0.863,2.688-0.562-2.223,3.506
						c0.06,0.067,0.178,0.203,0.237,0.271c5.089-3.864,7.717-4.493,3.162-0.02c-1.088,1.055-2.278,2.157-3.539,3.294
						c-0.637,0.569-1.283,1.145-1.941,1.731c-1.118,0.981-2.254,1.977-3.406,2.988c-2.109-1.864-4.29-3.792-6.48-5.728
						c-1.972-1.72-3.946-3.441-5.911-5.156l-0.028-2.594c-0.032-2.747-0.063-5.491-0.095-8.216
						c-0.002-1.372-0.004-2.738-0.007-4.107c0.014-1.688,0.027-3.378,0.041-5.09c0.586-0.502,1.175-1.007,1.767-1.514
						c0.342-0.285,0.686-0.571,1.033-0.86c1.397-1.169,2.788-2.332,4.184-3.5c1.826-1.566,3.658-3.138,5.496-4.715
						c2.125,1.904,4.256,3.813,6.387,5.722c1.853,1.695,3.704,3.387,5.578,5.101l-0.041,1.928l-0.045,1.168
						c-0.09,3.188,0.18,8.764-0.09,10.358c-0.129,1.145-0.321,1.19-0.535,1.015c0.023-4.756,0.045-9.491,0.068-14.179
						c-0.598-0.53-1.183-1.048-1.767-1.566c-3.173-2.878-6.35-5.758-9.555-8.665c-1.188,1.005-2.379,2.013-3.575,3.025
						c-0.917,0.763-1.839,1.529-2.765,2.299c0.933-0.762,1.854-1.515,2.771-2.263l1.442-1.196l2.126-1.804
						c3.192,2.875,6.361,5.728,9.555,8.604l1.75,1.574c-0.074,4.662-0.148,9.32-0.223,14.006c-0.184-0.188-0.375-0.369-0.553-0.055
						c0,0,0,1.593,0,2.389c-0.45,3.188-1.08,2.389-1.53,0.798C106.685,123.425,106.582,122.954,106.478,122.473z"/>
				</g>
			</g>
			<g>
				<g>
					<path fill="#292D73" d="M117.577,150.571c0.019-0.392,0.037-0.785,0.056-1.169c0.087-2.321,0.137-4.643,0.17-6.992
						c0.023-2.165,0.047-4.335,0.072-6.563c-1.804-1.632-3.652-3.304-5.61-5.075c-1.124-1.031-2.249-2.062-3.39-3.108
						c-1.278,1.118-2.571,2.25-3.849,3.369c-1.512,1.333-3.002,2.648-4.422,3.901c2.736-2.351,5.498-4.723,8.271-7.105
						c1.44,1.292,2.882,2.585,4.325,3.879l2.548,2.292l1.267,1.146l0.562,0.511l0.23,0.222c-0.058,2.165-0.116,4.332-0.174,6.519
						c-0.073,2.357-0.163,4.687-0.275,6.977c-0.212-1.284-0.382-2.817-0.382-4.603c0.05-2.908,0.099-5.763,0.148-8.583l-0.034-0.042
						l-0.017-0.018l-0.15-0.135l-0.3-0.269l-1.199-1.073c0.06-0.068,0.177-0.202,0.236-0.269c-1.362-1.141-2.696-2.286-4.011-3.435
						c-0.655-0.577-1.307-1.151-1.959-1.725l-0.595-0.534l-0.217-0.208l-0.308,0.242l-1.179,1.001l-2.609,2.217
						c-1.568,1.338-3.129,2.672-4.688,4.003c-0.001,0.665-0.003,1.328-0.005,1.995c0.006,0.896,0.012,1.793,0.019,2.701
						c0.021,1.807,0.063,3.627,0.132,5.466c0.048-0.425,0.122-0.173,0.18-0.084l0,0.084l0-0.084c0.051,0.08,0.09,0.031,0.09-0.713
						c0,0.744-0.04,0.792-0.09,0.713c-0.012-3.378-0.023-6.678-0.034-9.946c1.521-1.323,3.034-2.639,4.55-3.958
						c0.862-0.745,1.725-1.491,2.59-2.239l1.159-0.996l0.194-0.148l0.127,0.129l0.059,0.061l0.407,0.367
						c0.615,0.553,1.233,1.107,1.853,1.665c1.236,1.114,2.482,2.238,3.742,3.374c-2.079-1.851-4.137-3.683-6.188-5.508
						c-2.793,2.446-5.569,4.878-8.353,7.317c0.018,5.394,0.035,10.804,0.053,16.284c2.715,2.372,5.457,4.767,8.237,7.195
						l0.063,0.055l0.286-0.25c2.574-1.898,5.03-3.932,7.424-6.031c-0.301,0.863,2.688-0.562-2.223,3.506
						c0.059,0.067,0.178,0.203,0.237,0.271c5.089-3.864,7.717-4.493,3.162-0.02c-1.088,1.055-2.278,2.157-3.539,3.294
						c-0.638,0.568-1.283,1.145-1.941,1.731c-1.118,0.98-2.254,1.977-3.406,2.987c-2.109-1.864-4.289-3.792-6.48-5.728
						c-1.971-1.72-3.945-3.442-5.911-5.156l-0.028-2.594c-0.032-2.748-0.063-5.491-0.095-8.216
						c-0.002-1.372-0.004-2.737-0.007-4.107c0.014-1.688,0.027-3.378,0.041-5.09c0.586-0.502,1.175-1.007,1.767-1.514
						c0.342-0.285,0.686-0.572,1.033-0.861c1.398-1.169,2.788-2.332,4.184-3.5c1.826-1.566,3.658-3.138,5.496-4.715
						c2.125,1.904,4.256,3.813,6.387,5.722c1.854,1.695,3.704,3.388,5.578,5.101l-0.041,1.928l-0.045,1.168
						c-0.09,3.188,0.18,8.764-0.09,10.358c-0.129,1.144-0.321,1.189-0.535,1.015c0.023-4.756,0.045-9.491,0.068-14.179
						c-0.598-0.53-1.183-1.048-1.767-1.566c-3.174-2.878-6.351-5.759-9.556-8.665c-1.188,1.005-2.379,2.013-3.575,3.025
						c-0.918,0.763-1.839,1.529-2.765,2.298c0.933-0.762,1.854-1.514,2.771-2.262l1.443-1.196l2.125-1.804
						c3.192,2.875,6.361,5.729,9.556,8.604l1.75,1.574c-0.074,4.662-0.148,9.32-0.223,14.006c-0.184-0.188-0.375-0.369-0.553-0.055
						c0,0,0,1.593,0,2.389c-0.45,3.188-1.08,2.389-1.53,0.799C117.783,151.523,117.681,151.052,117.577,150.571z"/>
				</g>
			</g>
			<g>
				<g>
					<path fill="#292D73" d="M53.274,150.571c0.019-0.392,0.037-0.785,0.056-1.169c0.087-2.321,0.137-4.643,0.17-6.992
						c0.023-2.165,0.047-4.335,0.072-6.563c-1.804-1.632-3.652-3.304-5.61-5.075c-1.124-1.031-2.249-2.062-3.39-3.108
						c-1.278,1.118-2.571,2.25-3.849,3.369c-1.512,1.333-3.002,2.648-4.422,3.901c2.736-2.351,5.498-4.723,8.271-7.105
						c1.44,1.292,2.882,2.585,4.325,3.879L51.445,134l1.267,1.146l0.562,0.511l0.23,0.222c-0.058,2.165-0.116,4.332-0.174,6.519
						c-0.073,2.357-0.163,4.687-0.275,6.977c-0.212-1.284-0.382-2.817-0.382-4.603c0.05-2.908,0.099-5.763,0.148-8.583l-0.034-0.042
						l-0.017-0.018l-0.15-0.135l-0.3-0.269l-1.199-1.073c0.06-0.068,0.177-0.202,0.236-0.269c-1.362-1.141-2.696-2.286-4.011-3.435
						c-0.655-0.577-1.307-1.151-1.959-1.725l-0.595-0.534l-0.217-0.208l-0.308,0.242l-1.179,1.001l-2.609,2.217
						c-1.568,1.338-3.129,2.672-4.688,4.003c-0.001,0.665-0.003,1.328-0.005,1.995c0.006,0.896,0.012,1.793,0.019,2.701
						c0.021,1.807,0.063,3.627,0.132,5.466c0.048-0.425,0.122-0.173,0.18-0.084l0,0.084l0-0.084c0.051,0.08,0.09,0.031,0.09-0.713
						c0,0.744-0.04,0.792-0.09,0.713c-0.012-3.378-0.023-6.678-0.034-9.946c1.521-1.323,3.034-2.639,4.55-3.958
						c0.862-0.745,1.725-1.491,2.59-2.239l1.159-0.996l0.194-0.148l0.127,0.129l0.059,0.061l0.407,0.367
						c0.615,0.553,1.233,1.107,1.853,1.665c1.236,1.114,2.482,2.238,3.742,3.374c-2.079-1.851-4.137-3.683-6.188-5.508
						c-2.793,2.446-5.569,4.878-8.353,7.317c0.018,5.394,0.035,10.804,0.053,16.284c2.715,2.372,5.457,4.767,8.237,7.195
						l0.063,0.055l0.286-0.25c2.574-1.898,5.03-3.932,7.424-6.031c-0.301,0.863,2.688-0.562-2.223,3.506
						c0.059,0.067,0.178,0.203,0.237,0.271c5.089-3.864,7.717-4.493,3.162-0.02c-1.088,1.055-2.278,2.157-3.539,3.294
						c-0.638,0.568-1.283,1.145-1.941,1.731c-1.118,0.98-2.254,1.977-3.406,2.987c-2.109-1.864-4.289-3.792-6.48-5.728
						c-1.971-1.72-3.945-3.442-5.911-5.156l-0.028-2.594c-0.032-2.748-0.063-5.491-0.095-8.216
						c-0.002-1.372-0.004-2.737-0.007-4.107c0.014-1.688,0.027-3.378,0.041-5.09c0.586-0.502,1.175-1.007,1.767-1.514
						c0.342-0.285,0.686-0.572,1.033-0.861c1.398-1.169,2.788-2.332,4.184-3.5c1.826-1.566,3.658-3.138,5.496-4.715
						c2.125,1.904,4.256,3.813,6.387,5.722c1.854,1.695,3.704,3.388,5.578,5.101l-0.041,1.928l-0.045,1.168
						c-0.09,3.188,0.18,8.764-0.09,10.358c-0.129,1.144-0.321,1.189-0.535,1.015c0.023-4.756,0.045-9.491,0.068-14.179
						c-0.598-0.53-1.183-1.048-1.767-1.566c-3.174-2.878-6.351-5.759-9.556-8.665c-1.188,1.005-2.379,2.013-3.575,3.025
						c-0.918,0.763-1.839,1.529-2.765,2.298c0.933-0.762,1.854-1.514,2.771-2.262l1.443-1.196l2.125-1.804
						c3.192,2.875,6.361,5.729,9.556,8.604l1.75,1.574c-0.074,4.662-0.148,9.32-0.223,14.006c-0.184-0.188-0.375-0.369-0.553-0.055
						c0,0,0,1.593,0,2.389c-0.45,3.188-1.08,2.389-1.53,0.799C53.48,151.523,53.378,151.052,53.274,150.571z"/>
				</g>
			</g>
			<g>
				<g>
					<path fill="#292D73" d="M74.585,150.571c0.019-0.392,0.037-0.785,0.056-1.169c0.087-2.321,0.137-4.643,0.17-6.992
						c0.023-2.165,0.047-4.335,0.072-6.563c-1.804-1.632-3.652-3.304-5.61-5.075c-1.124-1.031-2.249-2.062-3.39-3.108
						c-1.278,1.118-2.571,2.25-3.85,3.369c-1.512,1.333-3.002,2.648-4.422,3.901c2.737-2.351,5.499-4.723,8.272-7.105
						c1.44,1.292,2.882,2.585,4.325,3.879L72.756,134l1.267,1.146l0.562,0.511l0.23,0.222c-0.058,2.165-0.116,4.332-0.174,6.519
						c-0.073,2.357-0.163,4.687-0.275,6.977c-0.212-1.284-0.382-2.817-0.382-4.603c0.05-2.908,0.099-5.763,0.148-8.583l-0.034-0.042
						l-0.017-0.018l-0.15-0.135l-0.3-0.269l-1.199-1.073c0.06-0.068,0.177-0.202,0.236-0.269c-1.362-1.141-2.696-2.286-4.011-3.435
						c-0.655-0.577-1.307-1.151-1.959-1.725l-0.595-0.534l-0.217-0.208l-0.308,0.242l-1.179,1.001l-2.609,2.217
						c-1.567,1.338-3.129,2.672-4.688,4.003c-0.001,0.665-0.003,1.328-0.005,1.995c0.006,0.896,0.012,1.793,0.019,2.701
						c0.021,1.807,0.063,3.627,0.132,5.466c0.048-0.425,0.122-0.173,0.18-0.085l0,0.085l0-0.085c0.051,0.08,0.09,0.031,0.09-0.712
						c0,0.743-0.04,0.792-0.09,0.712c-0.012-3.378-0.023-6.678-0.034-9.946c1.521-1.323,3.034-2.639,4.55-3.958
						c0.862-0.745,1.725-1.491,2.59-2.239l1.159-0.996l0.194-0.148l0.127,0.129l0.059,0.061l0.407,0.366
						c0.615,0.553,1.233,1.108,1.853,1.666c1.236,1.114,2.482,2.238,3.742,3.374c-2.079-1.851-4.138-3.683-6.188-5.508
						c-2.793,2.447-5.569,4.879-8.353,7.318c0.018,5.394,0.035,10.804,0.053,16.284c2.716,2.373,5.458,4.767,8.237,7.195
						l0.063,0.055l0.286-0.25c2.574-1.898,5.03-3.932,7.424-6.031c-0.301,0.863,2.688-0.562-2.223,3.506
						c0.059,0.067,0.178,0.203,0.237,0.271c5.089-3.864,7.717-4.493,3.162-0.02c-1.088,1.055-2.278,2.157-3.539,3.294
						c-0.638,0.568-1.283,1.145-1.941,1.731c-1.118,0.98-2.254,1.977-3.406,2.987c-2.109-1.864-4.29-3.792-6.48-5.728
						c-1.972-1.72-3.945-3.442-5.911-5.156l-0.028-2.594c-0.032-2.747-0.063-5.491-0.095-8.216
						c-0.002-1.372-0.004-2.738-0.007-4.107c0.014-1.688,0.027-3.378,0.041-5.09c0.586-0.502,1.175-1.007,1.767-1.514
						c0.342-0.285,0.686-0.572,1.033-0.861c1.397-1.169,2.788-2.332,4.184-3.5c1.826-1.566,3.658-3.138,5.496-4.715
						c2.125,1.904,4.256,3.813,6.387,5.722c1.853,1.695,3.704,3.388,5.578,5.101l-0.041,1.928l-0.045,1.168
						c-0.09,3.188,0.18,8.764-0.09,10.358c-0.129,1.145-0.321,1.19-0.535,1.015c0.023-4.756,0.045-9.491,0.068-14.179
						c-0.598-0.53-1.183-1.048-1.767-1.567c-3.173-2.877-6.35-5.758-9.555-8.665c-1.188,1.005-2.379,2.013-3.575,3.025
						c-0.918,0.763-1.839,1.529-2.765,2.298c0.933-0.762,1.854-1.514,2.771-2.262l1.443-1.196l2.125-1.804
						c3.192,2.875,6.361,5.729,9.555,8.604l1.75,1.575c-0.074,4.662-0.148,9.32-0.223,14.006c-0.184-0.188-0.375-0.369-0.553-0.055
						c0,0,0,1.593,0,2.389c-0.45,3.188-1.08,2.389-1.53,0.798C74.792,151.523,74.689,151.052,74.585,150.571z"/>
				</g>
			</g>
			<g>
				<g>
					<path fill="#292D73" d="M31.815,151.47c0.019-0.392,0.037-0.785,0.056-1.169c0.087-2.321,0.137-4.643,0.17-6.992
						c0.023-2.165,0.047-4.336,0.072-6.563c-1.804-1.631-3.652-3.303-5.61-5.075c-1.124-1.03-2.249-2.062-3.39-3.108
						c-1.278,1.118-2.572,2.25-3.85,3.369c-1.512,1.333-3.002,2.648-4.423,3.901c2.737-2.351,5.499-4.723,8.272-7.105
						c1.44,1.292,2.882,2.585,4.325,3.879l2.548,2.292l1.267,1.146l0.562,0.511l0.23,0.222c-0.058,2.165-0.116,4.332-0.174,6.519
						c-0.073,2.357-0.163,4.686-0.275,6.977c-0.212-1.284-0.382-2.817-0.382-4.603c0.05-2.908,0.099-5.764,0.148-8.583l-0.034-0.042
						l-0.017-0.018l-0.15-0.135l-0.3-0.27l-1.199-1.072c0.06-0.068,0.177-0.202,0.235-0.269c-1.361-1.141-2.695-2.286-4.01-3.434
						c-0.655-0.577-1.308-1.151-1.959-1.725l-0.595-0.534l-0.217-0.208l-0.308,0.242l-1.179,1.001l-2.61,2.217
						c-1.567,1.338-3.129,2.672-4.688,4.003c-0.001,0.665-0.003,1.329-0.005,1.996c0.006,0.896,0.012,1.793,0.019,2.701
						c0.021,1.807,0.063,3.627,0.132,5.466c0.048-0.425,0.122-0.173,0.18-0.084l0,0.084l0-0.084c0.051,0.08,0.09,0.031,0.09-0.713
						c0,0.744-0.039,0.792-0.09,0.713c-0.012-3.379-0.023-6.678-0.034-9.947c1.521-1.323,3.034-2.639,4.55-3.958
						c0.862-0.745,1.725-1.491,2.59-2.239l1.159-0.996l0.194-0.148l0.127,0.128l0.059,0.061l0.408,0.367
						c0.615,0.553,1.232,1.108,1.853,1.665c1.236,1.114,2.482,2.238,3.742,3.374c-2.08-1.851-4.138-3.683-6.188-5.508
						c-2.793,2.446-5.569,4.878-8.353,7.317c0.018,5.394,0.035,10.804,0.053,16.285c2.715,2.372,5.457,4.767,8.237,7.195
						l0.063,0.055l0.286-0.25c2.574-1.898,5.03-3.932,7.424-6.032c-0.301,0.863,2.688-0.562-2.223,3.506
						c0.06,0.067,0.178,0.203,0.237,0.271c5.089-3.864,7.717-4.493,3.162-0.02c-1.088,1.055-2.278,2.157-3.539,3.294
						c-0.637,0.569-1.283,1.145-1.941,1.731c-1.118,0.981-2.254,1.977-3.406,2.988c-2.109-1.864-4.289-3.792-6.48-5.728
						c-1.971-1.72-3.945-3.442-5.911-5.156l-0.028-2.594c-0.032-2.748-0.063-5.491-0.095-8.217
						c-0.002-1.372-0.004-2.738-0.007-4.107c0.014-1.688,0.027-3.378,0.041-5.09c0.586-0.502,1.175-1.006,1.767-1.514
						c0.342-0.285,0.686-0.571,1.032-0.86c1.398-1.169,2.788-2.332,4.184-3.5c1.826-1.566,3.658-3.138,5.496-4.715
						c2.125,1.904,4.256,3.813,6.386,5.721c1.854,1.695,3.705,3.387,5.579,5.101l-0.041,1.928l-0.045,1.169
						c-0.09,3.188,0.18,8.764-0.09,10.358c-0.129,1.144-0.321,1.189-0.535,1.015c0.023-4.757,0.045-9.491,0.068-14.179
						c-0.598-0.53-1.183-1.048-1.767-1.566c-3.174-2.877-6.351-5.758-9.556-8.664c-1.188,1.005-2.379,2.013-3.575,3.025
						c-0.917,0.763-1.838,1.529-2.764,2.298c0.933-0.762,1.854-1.514,2.771-2.262l1.442-1.196l2.126-1.804
						c3.192,2.874,6.362,5.728,9.556,8.603l1.75,1.574c-0.074,4.662-0.148,9.321-0.223,14.007c-0.184-0.188-0.375-0.369-0.553-0.055
						c0,0,0,1.593,0,2.389c-0.45,3.188-1.08,2.389-1.53,0.798C32.022,152.422,31.919,151.951,31.815,151.47z"/>
				</g>
			</g>
			<g>
				<g>
					<path fill="#292D73" d="M95.896,150.571c0.019-0.392,0.037-0.785,0.056-1.169c0.087-2.321,0.137-4.643,0.17-6.992
						c0.023-2.165,0.047-4.335,0.072-6.563c-1.804-1.632-3.652-3.304-5.61-5.075c-1.124-1.031-2.249-2.062-3.39-3.108
						c-1.278,1.118-2.571,2.25-3.849,3.369c-1.512,1.333-3.002,2.648-4.422,3.901c2.736-2.351,5.498-4.723,8.271-7.105
						c1.44,1.292,2.882,2.585,4.325,3.879L94.067,134l1.267,1.146l0.562,0.511l0.23,0.222c-0.058,2.165-0.116,4.332-0.174,6.519
						c-0.073,2.357-0.163,4.687-0.275,6.977c-0.212-1.284-0.382-2.817-0.382-4.603c0.05-2.908,0.099-5.763,0.148-8.583l-0.034-0.042
						l-0.017-0.018l-0.15-0.135l-0.3-0.269l-1.199-1.073c0.06-0.068,0.177-0.202,0.236-0.269c-1.362-1.141-2.696-2.286-4.011-3.435
						c-0.655-0.577-1.307-1.151-1.959-1.725l-0.595-0.534l-0.217-0.208l-0.308,0.242l-1.179,1.001l-2.609,2.217
						c-1.568,1.338-3.129,2.672-4.688,4.003c-0.001,0.665-0.003,1.328-0.005,1.995c0.006,0.896,0.012,1.793,0.019,2.701
						c0.021,1.807,0.063,3.627,0.132,5.466c0.048-0.425,0.122-0.173,0.18-0.084l0,0.084l0-0.084c0.051,0.08,0.09,0.031,0.09-0.713
						c0,0.744-0.04,0.792-0.09,0.713c-0.012-3.378-0.023-6.678-0.034-9.946c1.521-1.323,3.034-2.639,4.55-3.958
						c0.862-0.745,1.725-1.491,2.59-2.239L87,128.884l0.194-0.148l0.127,0.129l0.059,0.061l0.407,0.367
						c0.615,0.553,1.233,1.107,1.853,1.665c1.236,1.114,2.482,2.238,3.742,3.374c-2.079-1.851-4.137-3.683-6.188-5.508
						c-2.793,2.446-5.569,4.878-8.353,7.317c0.018,5.394,0.035,10.804,0.053,16.284c2.715,2.372,5.457,4.767,8.237,7.195
						l0.063,0.055l0.286-0.25c2.574-1.898,5.03-3.932,7.424-6.031c-0.301,0.863,2.688-0.562-2.223,3.506
						c0.059,0.067,0.178,0.203,0.237,0.271c5.089-3.864,7.717-4.493,3.162-0.02c-1.088,1.055-2.278,2.157-3.539,3.294
						c-0.638,0.568-1.283,1.145-1.941,1.731c-1.118,0.98-2.254,1.977-3.406,2.987c-2.109-1.864-4.289-3.792-6.48-5.728
						c-1.971-1.72-3.945-3.442-5.911-5.156l-0.028-2.594c-0.032-2.748-0.063-5.491-0.095-8.216
						c-0.002-1.372-0.004-2.737-0.007-4.107c0.014-1.688,0.027-3.378,0.041-5.09c0.586-0.502,1.175-1.007,1.767-1.514
						c0.342-0.285,0.686-0.572,1.033-0.861c1.398-1.169,2.788-2.332,4.184-3.5c1.826-1.566,3.658-3.138,5.496-4.715
						c2.125,1.904,4.256,3.813,6.387,5.722c1.854,1.695,3.704,3.388,5.578,5.101l-0.041,1.928l-0.045,1.168
						c-0.09,3.188,0.18,8.764-0.09,10.358c-0.129,1.144-0.321,1.189-0.535,1.015c0.023-4.756,0.045-9.491,0.068-14.179
						c-0.598-0.53-1.183-1.048-1.767-1.566c-3.174-2.878-6.351-5.759-9.556-8.665c-1.188,1.005-2.379,2.013-3.575,3.025
						c-0.918,0.763-1.839,1.529-2.765,2.298c0.933-0.762,1.854-1.514,2.771-2.262l1.443-1.196l2.125-1.804
						c3.192,2.875,6.361,5.729,9.556,8.604l1.75,1.574c-0.074,4.662-0.148,9.32-0.223,14.006c-0.184-0.188-0.375-0.369-0.553-0.055
						c0,0,0,1.593,0,2.389c-0.45,3.188-1.08,2.389-1.53,0.799C96.103,151.523,96,151.052,95.896,150.571z"/>
				</g>
			</g>
		</g>
	</g>
	<g>
		<path fill="#292D73" stroke="#F2F2F2" stroke-width="0.25" stroke-miterlimit="10" d="M67.487,24.866v9.52
			c0,0.412,0.018,0.658,0.052,0.739c0.052,0.145,0.144,0.248,0.277,0.309c0.133,0.061,0.378,0.091,0.737,0.091h1.222v1.688h-7.492
			v-1.688h1.236c0.435,0,0.713-0.027,0.835-0.083c0.122-0.055,0.213-0.145,0.274-0.27c0.061-0.125,0.091-0.387,0.091-0.787v-6.788
			h-2.437V25.91c0.696-0.069,1.23-0.142,1.601-0.217c0.557-0.11,1.148-0.261,1.775-0.453c0.348-0.104,0.673-0.229,0.975-0.374
			H67.487z"/>
	</g>
	<g>
		<path fill="#292D73" stroke="#F2F2F2" stroke-width="0.25" stroke-miterlimit="10" d="M57.006,54.064v9.52
			c0,0.412,0.018,0.658,0.052,0.739c0.052,0.145,0.144,0.248,0.277,0.309c0.133,0.061,0.378,0.091,0.737,0.091h1.222v1.688h-7.492
			v-1.688h1.236c0.435,0,0.713-0.027,0.835-0.083c0.122-0.055,0.213-0.145,0.274-0.27c0.061-0.125,0.091-0.387,0.091-0.787v-6.788
			h-2.437v-1.688c0.696-0.069,1.23-0.142,1.601-0.217c0.557-0.11,1.148-0.261,1.775-0.453c0.348-0.104,0.673-0.229,0.975-0.374
			H57.006z"/>
	</g>
	<g>
		<path fill="#292D73" stroke="#F2F2F2" stroke-width="0.25" stroke-miterlimit="10" d="M46.276,81.765v9.52
			c0,0.412,0.018,0.658,0.052,0.739c0.052,0.145,0.144,0.248,0.277,0.309c0.133,0.061,0.378,0.091,0.737,0.091h1.222v1.688h-7.492
			v-1.688h1.236c0.435,0,0.713-0.027,0.835-0.083c0.122-0.055,0.213-0.145,0.274-0.27c0.061-0.125,0.091-0.387,0.091-0.787v-6.788
			h-2.437v-1.688c0.696-0.069,1.23-0.142,1.601-0.217c0.557-0.11,1.148-0.261,1.775-0.453c0.348-0.104,0.673-0.229,0.975-0.374
			H46.276z"/>
	</g>
	<g>
		<path fill="#292D73" stroke="#F2F2F2" stroke-width="0.25" stroke-miterlimit="10" d="M35.545,109.466v9.52
			c0,0.412,0.018,0.658,0.052,0.739c0.052,0.145,0.144,0.248,0.277,0.309c0.133,0.061,0.378,0.091,0.737,0.091h1.222v1.688h-7.492
			v-1.688h1.236c0.435,0,0.713-0.027,0.835-0.083c0.122-0.055,0.213-0.145,0.274-0.27c0.061-0.125,0.091-0.387,0.091-0.787v-6.788
			h-2.437v-1.688c0.696-0.069,1.23-0.142,1.601-0.217c0.557-0.11,1.148-0.261,1.775-0.453c0.348-0.104,0.673-0.229,0.975-0.374
			H35.545z"/>
	</g>
	<g>
		<path fill="#292D73" stroke="#F2F2F2" stroke-width="0.25" stroke-miterlimit="10" d="M24.814,138.914v9.52
			c0,0.412,0.018,0.658,0.052,0.739c0.052,0.145,0.144,0.248,0.277,0.309c0.133,0.061,0.378,0.091,0.737,0.091h1.222v1.688h-7.492
			v-1.688h1.236c0.435,0,0.713-0.027,0.835-0.083c0.122-0.055,0.213-0.145,0.274-0.27c0.061-0.125,0.091-0.387,0.091-0.787v-6.788
			h-2.437v-1.688c0.696-0.069,1.23-0.142,1.601-0.217c0.557-0.11,1.148-0.261,1.775-0.453c0.348-0.104,0.673-0.229,0.975-0.374
			H24.814z"/>
	</g>
	<g>
		<path fill="#292D73" stroke="#F2F2F2" stroke-width="0.25" stroke-miterlimit="10" d="M78.967,54.064v9.52
			c0,0.412,0.018,0.658,0.052,0.739c0.052,0.145,0.144,0.248,0.277,0.309c0.133,0.061,0.378,0.091,0.737,0.091h1.222v1.688h-7.492
			v-1.688H75c0.435,0,0.713-0.027,0.835-0.083c0.122-0.055,0.213-0.145,0.274-0.27c0.061-0.125,0.091-0.387,0.091-0.787v-6.788
			h-2.437v-1.688c0.696-0.069,1.23-0.142,1.601-0.217c0.557-0.11,1.148-0.261,1.775-0.453c0.348-0.104,0.673-0.229,0.975-0.374
			H78.967z"/>
	</g>
	<g>
		<path fill="#292D73" stroke="#F2F2F2" stroke-width="0.25" stroke-miterlimit="10" d="M62.363,86.785l-1.758,0.157
			c-0.063-0.301-0.096-0.588-0.096-0.861c0-0.835,0.197-1.562,0.592-2.18c0.395-0.618,1.002-1.128,1.823-1.531
			c0.821-0.403,1.733-0.604,2.736-0.604c0.922,0,1.756,0.175,2.501,0.526s1.307,0.805,1.684,1.362
			c0.377,0.557,0.565,1.143,0.565,1.757c0,0.621-0.133,1.201-0.4,1.74c-0.296,0.603-0.779,1.186-1.449,1.749
			c-0.67,0.563-2.02,1.465-4.05,2.706h2.923c0.476,0,0.777-0.024,0.905-0.074c0.128-0.049,0.238-0.146,0.331-0.292
			c0.092-0.145,0.171-0.395,0.235-0.749l0.069-0.4h1.688l-0.792,4.446h-1.148l-0.104-0.426h-8.014v-1.679
			c1.178-0.766,2.671-1.897,4.481-3.393c0.928-0.766,1.546-1.427,1.854-1.984c0.226-0.406,0.339-0.833,0.339-1.279
			c0-0.516-0.213-0.953-0.64-1.309c-0.426-0.357-0.996-0.535-1.71-0.535c-0.528,0-0.986,0.097-1.375,0.292s-0.693,0.471-0.914,0.831
			c-0.221,0.36-0.331,0.74-0.331,1.14C62.311,86.339,62.328,86.536,62.363,86.785z"/>
	</g>
	<g>
		<path fill="#292D73" stroke="#F2F2F2" stroke-width="0.25" stroke-miterlimit="10" d="M52.395,113.582h-1.801
			c-0.006-0.133-0.009-0.244-0.009-0.331c0-0.748,0.17-1.394,0.509-1.936c0.34-0.542,0.871-0.986,1.594-1.331
			c0.723-0.345,1.549-0.518,2.478-0.518c0.882,0,1.675,0.155,2.377,0.465c0.703,0.311,1.227,0.709,1.572,1.196
			c0.346,0.487,0.519,0.989,0.519,1.505c0,0.406-0.107,0.805-0.322,1.196c-0.214,0.392-0.504,0.724-0.87,0.996
			c-0.244,0.18-0.606,0.363-1.087,0.548c0.435,0.046,0.824,0.152,1.166,0.317c0.342,0.166,0.639,0.375,0.892,0.626
			c0.252,0.252,0.441,0.538,0.565,0.857c0.125,0.319,0.187,0.664,0.187,1.035c0,0.667-0.197,1.291-0.592,1.871
			c-0.395,0.58-0.981,1.048-1.759,1.405c-0.778,0.356-1.681,0.535-2.708,0.535c-1.004,0-1.898-0.168-2.682-0.505
			s-1.373-0.763-1.768-1.279c-0.395-0.516-0.592-1.03-0.592-1.54c0-0.389,0.139-0.722,0.418-1c0.279-0.279,0.616-0.418,1.011-0.418
			c0.377,0,0.711,0.131,1.001,0.392c0.186,0.168,0.346,0.456,0.479,0.861c0.168,0.528,0.321,0.877,0.458,1.048
			c0.137,0.171,0.359,0.324,0.667,0.457s0.622,0.2,0.941,0.2c0.372,0,0.73-0.09,1.076-0.27c0.346-0.18,0.6-0.407,0.762-0.683
			s0.244-0.608,0.244-0.997c0-0.713-0.275-1.238-0.827-1.575c-0.423-0.261-1.082-0.392-1.975-0.392h-0.565v-1.679h0.565
			c0.708,0,1.214-0.052,1.519-0.157c0.304-0.104,0.543-0.28,0.718-0.526c0.174-0.246,0.261-0.512,0.261-0.796
			c0-0.389-0.145-0.722-0.435-1c-0.365-0.354-0.922-0.531-1.67-0.531c-0.499,0-0.909,0.075-1.231,0.226
			c-0.322,0.151-0.574,0.364-0.757,0.64C52.539,112.774,52.43,113.135,52.395,113.582z"/>
	</g>
	<g>
		<path fill="#292D73" stroke="#F2F2F2" stroke-width="0.25" stroke-miterlimit="10" d="M73.108,113.582h-1.801
			c-0.006-0.133-0.009-0.244-0.009-0.331c0-0.748,0.17-1.394,0.509-1.936c0.34-0.542,0.871-0.986,1.594-1.331
			c0.723-0.345,1.549-0.518,2.478-0.518c0.882,0,1.675,0.155,2.377,0.465c0.703,0.311,1.227,0.709,1.572,1.196
			c0.346,0.487,0.519,0.989,0.519,1.505c0,0.406-0.107,0.805-0.322,1.196c-0.214,0.392-0.504,0.724-0.87,0.996
			c-0.244,0.18-0.606,0.363-1.087,0.548c0.435,0.046,0.824,0.152,1.166,0.317c0.342,0.166,0.639,0.375,0.892,0.626
			c0.252,0.252,0.441,0.538,0.565,0.857c0.125,0.319,0.187,0.664,0.187,1.035c0,0.667-0.197,1.291-0.592,1.871
			c-0.395,0.58-0.981,1.048-1.759,1.405c-0.778,0.356-1.681,0.535-2.708,0.535c-1.004,0-1.898-0.168-2.682-0.505
			s-1.373-0.763-1.768-1.279c-0.395-0.516-0.592-1.03-0.592-1.54c0-0.389,0.139-0.722,0.418-1c0.279-0.279,0.616-0.418,1.011-0.418
			c0.377,0,0.711,0.131,1.001,0.392c0.186,0.168,0.346,0.456,0.479,0.861c0.168,0.528,0.321,0.877,0.458,1.048
			c0.137,0.171,0.359,0.324,0.667,0.457s0.622,0.2,0.941,0.2c0.372,0,0.73-0.09,1.076-0.27c0.346-0.18,0.6-0.407,0.762-0.683
			s0.244-0.608,0.244-0.997c0-0.713-0.275-1.238-0.827-1.575c-0.423-0.261-1.082-0.392-1.975-0.392h-0.565v-1.679h0.565
			c0.708,0,1.214-0.052,1.519-0.157c0.304-0.104,0.543-0.28,0.718-0.526c0.174-0.246,0.261-0.512,0.261-0.796
			c0-0.389-0.145-0.722-0.435-1c-0.365-0.354-0.922-0.531-1.67-0.531c-0.499,0-0.909,0.075-1.231,0.226
			c-0.322,0.151-0.574,0.364-0.757,0.64C73.252,112.774,73.143,113.135,73.108,113.582z"/>
	</g>
	<g>
		<path fill="#292D73" stroke="#F2F2F2" stroke-width="0.25" stroke-miterlimit="10" d="M87.758,137.875h2.772v6.578h2.288v2.21
			H90.53v3.35h-2.767v-3.35h-5.725v-2.715L87.758,137.875z M87.763,140.676l-3.611,3.776h3.611V140.676z"/>
	</g>
	<g>
		<path fill="#292D73" stroke="#F2F2F2" stroke-width="0.25" stroke-miterlimit="10" d="M44.835,139.123h2.772v6.578h2.288v2.21
			h-2.288v3.35H44.84v-3.35h-5.725v-2.715L44.835,139.123z M44.84,141.924l-3.611,3.776h3.611V141.924z"/>
	</g>
	<g>
		<path fill="#292D73" stroke="#F2F2F2" stroke-width="0.25" stroke-miterlimit="10" d="M69.645,137.666v1.705
			c-1.108,0.041-1.994,0.146-2.658,0.313c-0.665,0.168-1.217,0.397-1.658,0.688s-0.799,0.634-1.075,1.031
			c-0.275,0.397-0.465,0.852-0.57,1.362c0.511-0.354,0.993-0.605,1.449-0.753c0.456-0.147,0.95-0.222,1.483-0.222
			c0.847,0,1.604,0.174,2.271,0.522s1.176,0.818,1.527,1.41s0.526,1.276,0.526,2.053c0,1.293-0.457,2.358-1.37,3.193
			c-0.914,0.835-2.148,1.253-3.702,1.253c-1.607,0-2.863-0.429-3.768-1.288c-1.062-0.998-1.592-2.375-1.592-4.133
			c0-1.189,0.179-2.2,0.535-3.032c0.357-0.833,0.918-1.569,1.684-2.21c0.766-0.641,1.663-1.114,2.693-1.418
			S67.858,137.678,69.645,137.666z M65.826,143.765c-0.423,0-0.798,0.094-1.123,0.283s-0.577,0.458-0.757,0.809
			c-0.18,0.351-0.27,0.753-0.27,1.205c0,0.661,0.198,1.202,0.596,1.623c0.397,0.421,0.897,0.631,1.501,0.631
			c0.621,0,1.132-0.21,1.536-0.631c0.403-0.42,0.604-0.97,0.604-1.648c0-0.685-0.196-1.234-0.587-1.649
			C66.935,143.973,66.435,143.765,65.826,143.765z"/>
	</g>
	<g>
		<path fill="#292D73" stroke="#F2F2F2" stroke-width="0.25" stroke-miterlimit="10" d="M89.199,81.765v9.52
			c0,0.412,0.018,0.658,0.052,0.739c0.052,0.145,0.144,0.248,0.277,0.309c0.133,0.061,0.378,0.091,0.737,0.091h1.222v1.688h-7.492
			v-1.688h1.236c0.435,0,0.713-0.027,0.835-0.083c0.122-0.055,0.213-0.145,0.274-0.27c0.061-0.125,0.091-0.387,0.091-0.787v-6.788
			h-2.437v-1.688c0.696-0.069,1.23-0.142,1.601-0.217c0.557-0.11,1.148-0.261,1.775-0.453c0.348-0.104,0.673-0.229,0.975-0.374
			H89.199z"/>
	</g>
	<g>
		<path fill="#292D73" stroke="#F2F2F2" stroke-width="0.25" stroke-miterlimit="10" d="M99.68,109.466v9.52
			c0,0.412,0.018,0.658,0.052,0.739c0.052,0.145,0.144,0.248,0.277,0.309c0.133,0.061,0.378,0.091,0.737,0.091h1.222v1.688h-7.492
			v-1.688h1.236c0.435,0,0.713-0.027,0.835-0.083c0.122-0.055,0.213-0.145,0.274-0.27c0.061-0.125,0.091-0.387,0.091-0.787v-6.788
			h-2.437v-1.688c0.696-0.069,1.23-0.142,1.601-0.217c0.557-0.11,1.148-0.261,1.775-0.453c0.348-0.104,0.673-0.229,0.975-0.374
			H99.68z"/>
	</g>
	<g>
		<path fill="#292D73" stroke="#F2F2F2" stroke-width="0.25" stroke-miterlimit="10" d="M111.16,137.666v9.52
			c0,0.412,0.018,0.658,0.052,0.739c0.052,0.145,0.144,0.248,0.277,0.309c0.133,0.061,0.378,0.091,0.737,0.091h1.222v1.688h-7.492
			v-1.688h1.236c0.435,0,0.713-0.027,0.835-0.083c0.122-0.055,0.213-0.145,0.274-0.27c0.061-0.125,0.091-0.387,0.091-0.787v-6.788
			h-2.437v-1.688c0.696-0.069,1.23-0.142,1.601-0.217c0.557-0.11,1.148-0.261,1.775-0.453c0.348-0.104,0.673-0.229,0.975-0.374
			H111.16z"/>
	</g>
</g>
<g id="_x34__-_MT__x28_Cone_and_Sphere_x29_">
</g>
<g id="_x33__-_QR__x28_Suspension_Bridge_x29_">
</g>
<g id="_x32__-_ET__x28_Sine_and_exponential_x29_">
</g>
<g id="_x31__-_IF__x28_Function_diagram_x29_">
</g>
</svg>
